<?xml version="1.0" standalone="no"?>
<!DOCTYPE svg PUBLIC "-//W3C//DTD SVG 20010904//EN"
 "http://www.w3.org/TR/2001/REC-SVG-20010904/DTD/svg10.dtd">
<svg version="1.0" xmlns="http://www.w3.org/2000/svg"
 width="1440.000000pt" height="2560.000000pt" viewBox="0 0 1440.000000 2560.000000"
 preserveAspectRatio="xMidYMid meet">

<g transform="translate(0.000000,2560.000000) scale(0.100000,-0.100000)"
fill="#000000" stroke="none">
<path d="M0 16055 c0 -5486 4 -9545 9 -9545 5 0 24 18 44 40 19 22 39 40 45
40 5 0 12 7 16 15 3 8 13 15 23 15 15 0 16 2 3 10 -13 8 -12 10 3 10 9 0 17 7
17 15 0 8 4 15 9 15 4 0 20 11 35 25 15 14 23 25 19 25 -4 0 6 8 22 19 17 10
49 37 72 60 23 22 46 41 52 41 6 0 8 7 5 15 -6 14 10 20 44 16 6 -1 12 4 12
11 1 21 57 90 63 76 2 -8 38 21 90 75 47 48 89 87 94 87 14 0 153 142 153 156
0 10 31 32 43 30 5 -1 15 11 23 27 8 15 18 27 23 27 4 0 25 16 45 35 21 19 42
35 47 35 5 0 9 3 9 8 0 11 68 82 78 82 6 0 12 7 16 15 3 8 11 15 18 15 16 1
51 47 44 59 -6 9 22 26 37 22 4 -1 14 13 22 31 15 35 56 78 73 78 13 0 53 33
112 93 26 26 54 47 62 47 8 0 21 11 28 25 7 14 18 25 24 25 11 0 146 140 146
152 0 4 6 8 14 8 8 0 28 15 45 32 16 18 45 49 63 68 18 19 36 34 40 33 4 -2 8
3 8 10 0 8 9 22 20 32 11 10 20 14 20 10 0 -5 10 2 23 15 12 14 22 27 22 31 0
4 18 22 40 40 42 35 160 146 251 234 28 28 80 78 115 112 97 93 253 260 258
275 4 13 119 128 129 128 13 0 56 58 62 85 5 24 13 31 46 40 32 8 39 14 36 30
-4 16 -2 17 11 7 12 -10 17 -10 23 -1 4 7 2 15 -4 17 -7 2 -10 8 -6 13 12 20
-175 238 -227 265 -18 9 -43 11 -77 7 -46 -5 -51 -3 -67 21 -38 58 -25 231 22
287 36 42 101 63 175 56 73 -6 88 -21 88 -82 0 -67 32 -106 225 -270 32 -27
63 -54 69 -60 52 -48 135 -100 163 -101 18 0 41 -8 51 -17 23 -21 33 -22 25
-1 -10 26 68 -19 114 -65 43 -44 90 -121 74 -121 -6 0 -11 3 -11 8 0 4 -21 30
-46 57 -36 39 -41 42 -20 13 39 -54 77 -140 70 -160 -6 -21 15 -35 28 -17 6
10 7 7 3 -10 -4 -13 -3 -21 1 -18 5 3 9 -7 10 -22 1 -15 25 -68 54 -117 142
-236 166 -264 230 -264 59 0 74 -21 67 -94 -14 -142 -54 -213 -131 -234 -72
-19 -115 -15 -158 14 -37 26 -37 27 -32 83 4 45 1 62 -15 89 -31 48 -106 92
-158 92 -24 0 -43 -4 -43 -10 0 -5 -6 -10 -13 -10 -15 0 -46 -23 -86 -61 -14
-14 -42 -33 -61 -41 -19 -9 -50 -33 -69 -52 -19 -19 -38 -33 -43 -30 -13 8
-39 -16 -31 -29 4 -6 1 -7 -6 -3 -8 5 -31 -12 -64 -45 -29 -29 -55 -52 -59
-51 -5 1 -8 -4 -8 -12 0 -8 -9 -18 -21 -21 -13 -4 -18 -12 -15 -22 3 -8 1 -13
-5 -11 -13 4 -108 -84 -102 -95 3 -4 -1 -6 -9 -5 -7 2 -12 -2 -11 -9 2 -8 -4
-10 -14 -6 -12 5 -15 2 -10 -10 3 -9 2 -16 -2 -14 -14 4 -62 -54 -55 -65 5 -7
1 -9 -9 -5 -12 4 -17 1 -17 -9 0 -11 -5 -14 -17 -9 -14 5 -15 3 -6 -6 9 -9
-21 -44 -133 -155 -79 -79 -146 -144 -150 -144 -3 0 -12 -7 -20 -15 -9 -8 -12
-15 -8 -15 4 0 -2 -9 -14 -20 -12 -12 -22 -25 -22 -31 0 -5 -11 -14 -25 -19
-14 -5 -25 -14 -25 -19 0 -5 -10 -11 -21 -14 -15 -4 -20 -11 -15 -22 4 -13 1
-15 -14 -10 -15 5 -18 3 -14 -8 3 -8 -8 -24 -25 -38 -17 -13 -31 -27 -31 -31
0 -11 -57 -67 -63 -62 -7 7 -107 -88 -107 -102 0 -6 -12 -20 -27 -30 -32 -21
-53 -40 -53 -49 0 -5 -208 -212 -275 -275 -42 -38 -299 -306 -300 -311 0 -10
-33 -39 -44 -39 -6 0 -11 -9 -11 -20 0 -13 -5 -18 -15 -13 -9 3 -15 2 -13 -3
1 -5 -21 -33 -50 -62 -29 -30 -52 -58 -52 -63 0 -5 -7 -9 -15 -9 -8 0 -15 -7
-15 -15 0 -8 -7 -15 -15 -15 -8 0 -15 -5 -15 -10 0 -6 -11 -16 -25 -22 -14 -6
-25 -17 -25 -25 0 -7 -7 -13 -16 -13 -8 0 -12 -4 -9 -10 3 -5 0 -10 -8 -10 -8
0 -28 -15 -45 -34 -16 -19 -39 -39 -51 -45 -11 -7 -21 -18 -21 -26 0 -8 -7
-15 -15 -15 -8 0 -20 -9 -27 -20 -7 -11 -16 -20 -21 -20 -13 0 -67 -60 -67
-75 0 -8 -4 -14 -8 -12 -5 1 -21 -13 -37 -31 -15 -19 -34 -31 -41 -28 -8 3
-14 0 -14 -7 0 -12 -27 -42 -94 -106 -21 -20 -70 -67 -110 -106 -39 -38 -97
-87 -129 -108 -32 -22 -61 -45 -64 -53 -3 -8 -9 -12 -13 -9 -4 2 -15 -4 -25
-15 -10 -11 -24 -20 -32 -20 -7 0 -13 -6 -13 -14 0 -8 -15 -25 -32 -37 -18
-13 -35 -26 -38 -29 -3 -3 -22 -16 -42 -29 l-38 -23 0 -2724 0 -2724 7200 0
7200 0 0 12800 0 12800 -7200 0 -7200 0 0 -9545z m7741 772 c22 -42 49 -103
60 -135 12 -31 25 -61 30 -66 14 -15 11 -26 -6 -26 -18 0 -116 -48 -280 -138
-66 -37 -167 -87 -225 -113 -57 -26 -106 -52 -108 -57 -2 -6 17 -14 42 -17 38
-6 54 -2 104 23 l60 31 -34 -52 c-18 -28 -32 -53 -30 -55 3 -2 16 4 30 13 14
10 26 14 26 9 0 -4 15 6 33 23 29 28 68 53 81 53 3 0 6 -20 6 -45 0 -59 37
-133 85 -170 34 -25 40 -27 75 -16 42 12 95 66 116 118 8 18 17 60 21 93 3 33
9 60 12 60 3 0 21 -9 40 -21 32 -19 33 -23 28 -63 -3 -23 -9 -51 -12 -61 -11
-35 44 58 61 103 16 40 16 43 -1 62 -55 60 -252 66 -389 12 -44 -17 -81 -30
-82 -29 -5 5 345 167 361 167 8 0 15 -6 15 -12 1 -7 11 0 24 16 22 27 27 28
74 22 51 -7 72 3 49 22 -6 6 -33 13 -59 17 l-47 7 6 97 c3 53 7 98 9 100 6 6
125 -254 136 -297 11 -46 28 -41 28 8 0 37 20 11 39 -52 11 -37 16 -89 15
-176 0 -72 3 -117 8 -110 5 7 36 67 70 133 88 170 158 233 225 202 48 -21 88
-157 81 -274 -5 -96 -45 -172 -163 -309 -109 -129 -141 -148 -231 -148 l-62 0
-37 -96 c-68 -180 -171 -302 -400 -473 -238 -177 -409 -266 -484 -252 -32 6
-173 95 -465 296 -107 73 -214 180 -253 254 -30 58 -138 362 -207 585 -34 108
-44 214 -30 308 l6 43 49 -4 c27 -2 49 1 49 5 0 4 5 8 10 8 19 0 10 -39 -10
-45 -22 -7 -25 -22 -10 -45 8 -12 10 -11 10 7 0 12 5 25 10 28 6 3 10 -3 10
-14 0 -12 5 -21 10 -21 6 0 10 10 10 23 0 41 14 51 46 34 16 -8 56 -23 89 -33
l60 -19 -71 -6 c-48 -3 -88 -13 -120 -30 -51 -26 -88 -74 -68 -87 6 -4 31 -38
54 -77 53 -86 73 -114 82 -115 4 0 -4 16 -17 36 -31 45 -48 100 -43 139 4 34
44 62 96 67 l33 3 3 -65 c3 -80 32 -139 83 -175 81 -55 157 -14 189 104 10 33
20 61 24 61 4 0 29 -7 56 -15 64 -19 71 -19 49 5 -10 11 -13 20 -7 20 25 0 10
18 -38 44 -27 15 -52 31 -56 37 -3 6 66 82 154 169 178 177 268 284 344 408
28 45 52 82 53 82 5 0 -44 -301 -58 -360 -9 -36 -31 -109 -50 -163 -20 -53
-32 -97 -29 -97 14 2 159 240 219 362 63 125 124 293 138 376 l7 44 75 -114
c41 -62 93 -148 114 -191z m-948 111 c-5 -7 -46 -59 -91 -115 -45 -57 -78
-103 -74 -103 4 0 19 14 34 32 26 31 28 32 25 9 -3 -32 15 -37 32 -9 14 23 14
23 -8 4 -22 -20 -30 -9 -9 12 9 9 9 12 -2 12 -16 0 -3 15 13 15 7 1 16 -4 20
-10 5 -6 7 -4 4 5 -2 8 -10 14 -16 12 -9 -2 -9 3 -1 18 12 23 22 27 14 5 -4
-9 0 -15 10 -15 13 0 14 -5 6 -26 -16 -41 -11 -53 6 -14 8 19 13 43 10 52 -2
10 0 18 5 18 5 0 9 8 9 17 0 9 2 14 5 12 2 -3 -14 -108 -35 -234 -22 -127 -40
-245 -40 -262 l0 -32 -129 63 c-70 35 -135 66 -142 68 -10 4 -3 20 26 64 38
55 234 304 262 332 7 8 25 29 39 48 15 19 29 34 31 34 3 0 1 -6 -4 -12z m-422
-201 c-10 -9 -11 -8 -5 6 3 10 9 15 12 12 3 -3 0 -11 -7 -18z m-43 -72 c-6
-14 -13 -23 -15 -21 -5 5 15 46 22 46 3 0 -1 -11 -7 -25z m17 -103 l-7 -59
-54 -1 -54 -1 20 39 c20 40 33 49 45 30 3 -5 0 -7 -7 -5 -9 4 -14 -2 -14 -15
0 -11 6 -22 13 -24 20 -8 41 20 48 64 10 61 18 40 10 -28z m1403 -243 c-4 -31
-35 -49 -48 -29 -20 31 -12 50 21 50 25 0 30 -3 27 -21z m-138 -25 c0 -8 -4
-12 -10 -9 -5 3 -10 10 -10 16 0 5 5 9 10 9 6 0 10 -7 10 -16z m-36 -9 c-4 -8
-8 -15 -10 -15 -2 0 -4 7 -4 15 0 8 4 15 10 15 5 0 7 -7 4 -15z m-910 -34 c15
-16 15 -20 1 -31 -19 -16 -45 -6 -45 18 0 35 19 41 44 13z m-639 -76 c7 -62
58 -170 106 -228 17 -21 56 -55 88 -76 53 -36 58 -44 83 -115 25 -70 26 -76 9
-76 -36 0 -101 60 -205 188 -92 114 -116 166 -116 245 0 74 9 129 20 122 4 -3
11 -30 15 -60z m545 53 c0 -11 -28 -10 -35 1 -3 6 4 9 15 8 11 -1 20 -5 20 -9z
m1022 -20 c3 -7 31 -13 74 -15 38 -2 75 -4 82 -5 20 -2 14 -22 -16 -51 -42
-40 -91 -37 -131 8 -17 20 -31 45 -31 55 0 22 16 27 22 8z m-1480 -75 c47 -65
118 -183 118 -197 0 -11 -78 108 -107 162 -18 34 -36 37 -41 7 -3 -10 0 -15 7
-11 13 8 14 -3 3 -22 -6 -9 -12 0 -20 26 -12 39 -16 92 -7 92 2 0 23 -26 47
-57z m448 -14 c0 -16 18 -9 22 8 3 16 4 16 20 0 19 -19 35 -22 40 -6 2 5 11 7
21 3 11 -4 16 -13 12 -22 -4 -12 0 -11 16 4 22 19 22 19 11 -1 -5 -11 -18 -27
-29 -36 -20 -18 -63 -23 -63 -8 0 6 -3 8 -8 5 -10 -6 -35 14 -57 47 -15 24
-16 27 -1 21 9 -3 16 -10 16 -15z m-415 -129 c10 -11 22 -17 28 -13 6 4 7 1 2
-6 -4 -8 4 -25 21 -44 27 -30 26 -30 -10 3 -55 50 -86 102 -78 131 5 21 7 20
13 -13 3 -21 14 -47 24 -58z m106 -107 c13 -16 12 -17 -3 -4 -17 13 -22 21
-14 21 2 0 10 -8 17 -17z m3102 -346 c51 -25 95 -57 134 -97 73 -74 83 -87 83
-99 0 -6 8 -14 18 -20 9 -5 15 -12 13 -16 -7 -12 22 -65 35 -65 8 0 14 -5 14
-11 0 -13 25 -39 38 -39 6 0 65 -16 131 -35 186 -54 342 -120 470 -197 34 -21
65 -38 68 -38 2 0 10 -6 17 -12 7 -7 25 -22 39 -33 15 -11 27 -26 27 -34 0 -8
3 -11 7 -8 3 4 11 -1 17 -11 41 -67 53 -82 65 -82 8 0 12 -3 8 -6 -3 -4 41
-100 98 -214 58 -115 105 -211 105 -215 0 -4 10 -21 22 -38 13 -18 22 -33 20
-34 -6 -7 -1 -24 6 -19 8 5 36 -83 29 -90 -1 -2 -72 -40 -157 -84 -85 -45
-182 -98 -215 -118 -33 -20 -98 -59 -145 -87 -47 -28 -147 -86 -223 -129 -76
-43 -136 -80 -134 -82 4 -5 73 34 387 216 219 127 386 216 570 305 l125 60
100 -1 c91 0 111 -4 225 -43 171 -60 397 -152 705 -288 294 -130 408 -176 546
-222 53 -18 104 -40 114 -51 44 -48 193 -972 244 -1510 29 -303 44 -695 32
-845 -7 -102 -8 -94 -10 120 -1 127 -6 250 -10 275 -8 43 -9 41 -10 -28 -1
-46 -5 -71 -11 -67 -5 3 -10 -1 -10 -10 0 -9 -8 -19 -18 -22 -15 -4 -18 -18
-20 -111 -9 -439 -63 -894 -152 -1292 -64 -286 -99 -403 -210 -701 -161 -432
-461 -936 -728 -1223 -69 -75 -85 -80 -144 -50 -47 24 -270 171 -313 206 -11
9 -69 57 -130 106 -60 49 -177 156 -259 238 -83 82 -154 148 -159 146 -5 -1
-6 2 -2 7 3 6 -7 24 -22 42 -56 62 -68 77 -92 108 -13 17 -28 28 -34 24 -6 -3
-7 -1 -3 6 12 18 -41 81 -62 75 -13 -4 -14 -3 -4 4 11 7 5 20 -25 62 -70 97
-77 104 -91 88 -10 -12 -8 -19 8 -33 18 -17 20 -17 14 -2 -3 10 -1 17 5 17 6
0 11 -2 11 -4 0 -2 3 -12 7 -22 5 -15 2 -16 -25 -11 -19 4 -32 2 -32 -3 0 -6
5 -10 10 -10 6 0 10 -5 10 -10 0 -6 -11 -3 -24 7 -13 10 -23 22 -23 26 1 5 -8
13 -20 18 -18 6 -23 5 -23 -6 0 -8 -7 -15 -15 -15 -8 0 -15 7 -15 15 0 22 -18
18 -31 -6 -10 -20 -9 -21 35 -18 32 3 46 0 46 -8 0 -19 -78 -17 -96 2 -9 8
-11 15 -5 15 6 0 11 8 11 18 -1 16 -1 16 -13 0 -7 -9 -26 -20 -43 -23 -20 -5
-25 -4 -15 3 7 5 10 15 6 22 -6 9 -9 9 -16 -1 -7 -11 -9 -10 -9 4 0 10 -4 16
-9 13 -5 -3 -12 1 -15 10 -3 8 -2 12 4 9 6 -3 10 -1 10 5 0 6 5 8 10 5 6 -3
10 2 10 11 0 14 -3 15 -12 6 -15 -15 -32 -16 -23 -2 3 6 2 10 -4 10 -5 0 -12
-6 -14 -12 -3 -7 -6 -3 -6 10 -1 12 -5 22 -11 22 -5 0 -6 7 -3 17 4 10 2 14
-4 10 -14 -9 -56 51 -49 69 3 8 1 12 -4 9 -14 -9 -58 66 -168 285 -103 206
-177 368 -171 374 2 2 33 14 69 26 36 12 96 42 133 67 37 25 69 44 71 42 2 -2
34 -74 71 -159 67 -155 218 -448 303 -590 311 -518 781 -1003 1216 -1255 48
-28 48 -28 82 -10 71 38 316 357 458 595 99 167 254 479 306 615 96 252 111
296 145 415 130 451 186 784 215 1285 31 515 -42 1281 -196 2059 -14 72 -26
145 -26 163 0 26 -4 33 -19 33 -17 0 -265 109 -524 230 -253 118 -748 300
-817 300 -36 0 -76 -18 -248 -112 -231 -127 -270 -150 -264 -160 4 -7 2 -8 -5
-4 -10 7 -174 -85 -626 -349 -93 -55 -194 -112 -281 -161 -198 -113 -223 -130
-224 -149 -1 -95 130 -1085 175 -1320 7 -38 10 -73 7 -76 -4 -4 -25 -9 -47
-11 -22 -3 -84 -13 -137 -23 -54 -10 -100 -16 -103 -13 -10 10 -66 287 -100
492 -58 358 -84 552 -120 871 -31 275 -31 289 -3 309 12 9 18 16 13 16 -5 0
-21 -12 -36 -26 -24 -23 -28 -24 -42 -9 -13 12 -21 14 -37 5 -11 -6 -20 -7
-20 -3 0 4 57 39 128 77 356 195 610 341 632 363 9 9 -2 6 -25 -7 -102 -59
-170 -91 -173 -81 -2 6 -11 11 -19 11 -9 0 -93 25 -187 56 l-171 56 -120 -5
c-94 -4 -155 -14 -285 -45 -91 -23 -188 -44 -217 -48 -58 -7 -134 3 -114 15 9
6 1 11 -23 15 -51 10 -243 123 -294 174 -24 24 -53 63 -63 88 -65 145 -12 553
118 924 111 314 368 627 621 754 153 77 263 83 385 23z m-1393 -251 c8 -73 7
-102 -1 -113 -37 -44 -488 -259 -664 -316 -152 -49 -293 -68 -365 -48 -23 6
-27 18 -52 131 -15 69 -26 131 -23 138 2 6 0 12 -4 12 -5 0 -11 7 -15 15 -3 8
38 -17 92 -56 191 -139 236 -148 379 -73 203 107 497 330 588 446 l50 64 2
-50 c2 -28 8 -95 13 -150z m261 134 c56 -16 67 -36 88 -157 25 -149 43 -185
99 -197 67 -15 48 -41 -148 -203 -316 -261 -515 -388 -750 -478 -50 -19 -94
-35 -97 -35 -8 0 6 195 22 324 16 124 40 182 92 225 19 16 99 62 177 102 281
147 472 273 509 338 l18 31 -35 15 c-20 9 -76 18 -126 22 -71 5 -90 9 -90 21
0 13 15 14 103 9 56 -4 118 -11 138 -17z m-1786 -18 c64 -18 30 -27 -98 -27
-152 0 -183 -10 -279 -89 -88 -72 -154 -178 -271 -436 -62 -138 -139 -467
-162 -695 -3 -33 -9 -73 -12 -90 -6 -33 11 -25 21 10 3 11 4 -23 2 -75 -4 -99
-24 -171 -76 -282 -33 -69 -59 -100 -132 -160 -76 -62 -110 -72 -222 -63 -101
7 -150 -3 -139 -30 3 -9 1 -26 -5 -38 -6 -12 -13 -51 -15 -87 -2 -36 -12 -83
-22 -105 -10 -22 -17 -44 -16 -48 1 -4 -4 -17 -10 -28 -10 -19 -7 -19 35 5 26
14 48 21 51 16 4 -6 -1 -10 -9 -10 -9 0 -16 -4 -16 -10 0 -14 6 -13 58 15 l47
25 -35 -30 c-42 -37 -223 -130 -253 -130 -29 0 -57 29 -57 59 0 31 4 38 108
209 57 93 74 127 56 113 -14 -11 -42 -25 -62 -32 -20 -6 -39 -15 -42 -18 -9
-11 -78 -32 -128 -38 -122 -14 -244 66 -257 170 -3 29 -8 64 -11 80 -3 15 -1
27 4 27 5 0 12 14 16 30 6 35 63 126 95 154 11 11 21 25 21 33 0 7 4 13 8 13
13 0 40 68 47 115 15 94 60 298 87 395 56 196 119 302 227 380 19 14 46 35 60
46 23 19 114 81 160 109 9 5 40 25 69 43 123 78 457 225 498 220 15 -2 35 14
73 60 91 109 217 186 331 202 68 9 206 5 255 -8z m158 -372 c-5 -19 -23 -39
-23 -25 0 9 20 45 24 45 2 0 2 -9 -1 -20z m-26 -82 c-3 -7 -5 -2 -5 12 0 14 2
19 5 13 2 -7 2 -19 0 -25z m1674 -170 c-72 -74 -172 -202 -142 -184 6 4 11 2
11 -3 0 -6 -8 -11 -17 -12 -10 0 -13 -3 -6 -6 9 -3 6 -11 -8 -26 -11 -12 -18
-28 -16 -37 1 -8 -4 -20 -11 -26 -8 -6 -16 -25 -18 -42 -3 -25 0 -32 14 -32
13 0 14 -2 3 -9 -10 -6 -10 -10 -1 -16 6 -4 9 -14 6 -22 -3 -8 4 -27 16 -41
11 -15 18 -19 15 -10 -4 12 -2 15 8 12 10 -4 12 -21 9 -65 -3 -35 -1 -59 5
-59 5 0 12 8 14 18 3 9 5 2 6 -15 0 -18 0 -33 -2 -33 -2 0 -35 11 -74 25 -39
13 -103 30 -142 36 -39 7 -71 15 -71 18 0 13 158 258 223 348 56 76 237 263
255 263 3 0 -32 -37 -77 -82z m-1446 -58 c62 -122 88 -297 50 -346 -14 -17
-14 -14 -9 37 7 74 -18 188 -58 269 -45 89 -45 89 -14 55 l27 -30 -17 30 c-10
17 -29 44 -43 60 l-26 30 33 -30 c19 -16 44 -50 57 -75z m1262 -92 c-49 -60
-204 -300 -227 -351 -27 -58 -25 -67 10 -67 17 0 30 -3 30 -7 0 -9 -161 -87
-172 -85 -5 1 -8 -4 -8 -12 0 -8 -9 -18 -21 -21 -11 -4 -18 -9 -15 -12 2 -3
49 20 102 51 54 31 112 58 129 61 37 7 182 -29 207 -52 16 -14 18 -33 18 -147
0 -78 5 -153 14 -184 12 -47 77 -169 98 -183 5 -3 13 -34 18 -70 26 -166 33
-198 61 -271 26 -67 29 -81 17 -95 -11 -14 -11 -16 4 -10 12 4 26 -8 52 -46
20 -29 36 -58 36 -65 0 -6 6 -12 13 -12 6 0 26 -19 42 -41 17 -23 53 -61 81
-85 l51 -44 -8 -46 c-24 -130 -77 -305 -143 -471 -42 -107 -43 -122 -16 -151
18 -19 29 -21 117 -18 96 2 181 23 166 41 -5 4 0 5 9 2 10 -3 17 -3 16 1 -2 4
7 18 19 32 56 64 63 74 63 86 0 7 9 18 20 24 11 6 20 15 20 21 0 18 40 99 49
99 5 0 19 24 31 53 12 28 37 84 54 122 18 39 39 86 46 105 8 19 16 37 20 40 3
3 14 22 25 43 l20 38 8 -50 c8 -46 4 -61 -58 -226 -74 -198 -196 -473 -232
-522 -12 -17 -36 -37 -53 -45 -16 -7 -30 -16 -30 -20 0 -4 -13 -5 -30 -1 -21
4 -30 2 -30 -7 0 -10 -3 -10 -15 0 -8 7 -26 9 -43 5 -47 -10 -485 33 -550 54
-98 32 -125 44 -178 78 -28 18 -56 33 -63 33 -6 0 -46 -25 -88 -57 -133 -98
-201 -133 -259 -133 -56 0 -176 -28 -239 -56 -22 -10 -46 -17 -54 -15 -8 1
-10 -2 -5 -10 4 -8 3 -10 -4 -5 -14 8 -38 -4 -201 -101 -167 -101 -175 -105
-256 -137 -100 -40 -95 -52 -120 304 -8 118 -21 276 -30 350 -15 135 -13 172
13 353 6 40 6 55 -2 47 -5 -5 -20 -10 -32 -10 -29 0 -142 -57 -227 -114 -38
-25 -73 -46 -78 -46 -5 0 -9 -4 -9 -8 0 -4 -30 -28 -67 -52 -38 -24 -69 -48
-71 -52 -2 -4 -9 -8 -16 -8 -14 0 -69 -56 -85 -88 -20 -38 5 -153 56 -254 58
-119 -16 -71 -81 52 -31 57 -35 61 -45 42 -6 -11 -12 -29 -14 -39 -1 -10 -6
-23 -10 -30 -8 -13 2 -65 58 -298 38 -155 77 -384 68 -398 -3 -4 1 -14 7 -22
19 -23 4 -151 -42 -360 l-11 -50 -13 37 c-10 31 -10 53 3 130 11 67 14 138 10
253 -4 138 -9 177 -36 280 -37 142 -63 285 -61 334 3 56 0 69 -10 43 -8 -20
-12 -21 -30 -10 -27 17 -73 113 -98 208 -20 74 -54 285 -67 410 -3 36 -17 97
-31 135 -57 163 -86 264 -91 320 -6 67 13 177 54 309 14 44 26 90 28 101 5 36
126 388 146 424 10 20 19 41 19 46 0 14 61 97 66 92 3 -2 -19 -55 -47 -118
-56 -123 -153 -387 -137 -371 5 5 30 47 54 93 50 93 49 77 -2 -51 -70 -174
-120 -411 -102 -480 10 -38 66 -152 129 -265 21 -38 42 -77 46 -85 3 -8 9 -17
12 -20 3 -3 22 -28 40 -57 27 -39 42 -52 65 -56 28 -4 72 8 86 23 3 3 22 14
43 25 20 11 37 23 37 27 0 5 7 8 16 8 19 0 69 29 132 77 24 18 50 33 57 33 8
0 18 6 22 13 10 16 49 37 68 37 8 0 12 6 9 13 -2 7 7 19 20 27 27 14 32 29 40
140 3 36 14 112 25 170 11 58 23 119 25 135 3 17 10 45 15 63 5 18 10 35 10
37 1 3 8 21 16 41 8 20 15 41 15 46 0 6 7 8 15 4 17 -6 21 9 5 19 -6 3 -8 17
-6 31 4 20 -6 32 -52 69 -74 59 -71 57 -112 85 -103 71 -320 267 -320 289 0
28 47 6 108 -52 97 -90 284 -227 312 -227 5 0 10 -4 10 -10 0 -5 11 -12 25
-16 14 -3 25 -10 25 -15 0 -6 8 -5 19 1 25 13 27 13 45 -5 24 -24 45 -6 62 54
26 95 71 245 79 264 6 14 0 20 -26 29 -19 6 -77 33 -130 60 -119 59 -181 119
-177 173 1 19 3 35 5 35 1 0 11 -17 22 -38 11 -22 36 -53 56 -70 42 -37 205
-117 256 -126 85 -15 583 117 792 210 107 47 388 204 452 253 56 41 62 38 22
-11z m3 -178 c0 -5 -4 -10 -10 -10 -5 0 -10 5 -10 10 0 6 5 10 10 10 6 0 10
-4 10 -10z m-1889 -181 c-9 -22 -10 -22 -10 -3 -1 11 2 24 6 27 12 12 14 0 4
-24z m-129 -234 c13 -29 -7 -92 -44 -138 -27 -33 -82 -51 -97 -33 -8 10 -4 12
17 8 17 -2 35 3 47 15 36 32 74 136 43 117 -7 -5 -9 -1 -6 13 5 17 2 19 -16
15 -19 -5 -19 -4 -7 11 20 25 50 21 63 -8z m5339 -251 c63 -20 186 -64 274
-99 178 -70 174 -68 445 -190 107 -49 258 -117 335 -151 137 -62 140 -64 142
-96 2 -26 1 -29 -6 -13 -13 29 -40 51 -91 73 -25 10 -67 29 -93 41 -27 12 -55
20 -63 17 -8 -3 -13 -2 -10 3 6 9 -8 16 -149 81 -49 23 -101 47 -115 54 -14 8
-56 26 -95 40 -38 15 -79 32 -89 38 -41 22 -229 88 -253 88 -7 0 -13 -10 -12
-22 0 -13 3 -17 6 -10 5 14 43 17 43 3 0 -5 -6 -11 -12 -14 -7 -2 -10 -8 -6
-12 4 -4 14 -2 22 4 15 13 36 7 36 -9 0 -5 -7 -7 -15 -4 -8 4 -15 1 -15 -6 0
-7 -8 -10 -20 -7 -13 3 -20 0 -20 -9 0 -20 -18 -17 -23 4 -3 9 -5 -3 -6 -28 0
-34 2 -41 10 -30 8 11 12 12 16 3 2 -7 11 -13 18 -13 19 0 27 -30 10 -36 -20
-8 -19 -20 5 -54 19 -27 20 -29 3 -39 -17 -10 -16 -11 5 -17 16 -5 22 -14 22
-34 0 -16 4 -30 10 -32 5 -1 11 -25 13 -51 5 -52 14 -69 26 -48 5 8 7 -5 4
-31 -6 -49 13 -101 27 -78 4 7 13 9 19 6 16 -10 14 -26 -4 -26 -20 0 -19 -17
1 -28 14 -8 13 -12 -10 -35 l-26 -26 38 6 37 6 -22 -22 c-28 -27 -28 -29 -2
-50 12 -10 20 -24 17 -31 -3 -11 -9 -9 -23 8 -11 12 -26 22 -35 22 -11 -1 -8
-7 9 -21 22 -18 24 -24 14 -50 -7 -18 -8 -31 -2 -35 6 -3 7 -14 4 -25 -4 -10
-3 -51 1 -91 7 -61 9 -68 16 -43 6 27 7 26 2 -5 -3 -19 -5 -48 -5 -63 0 -15
-4 -25 -8 -23 -8 6 -24 173 -25 271 -1 78 -9 80 -179 61 -202 -24 -385 -51
-393 -59 -4 -4 -1 -33 6 -64 7 -32 15 -52 18 -44 2 7 -1 31 -8 52 -7 22 -10
42 -6 46 8 8 313 48 447 59 l86 6 7 -88 c12 -161 111 -993 118 -1000 4 -3 294
51 399 75 52 12 129 33 172 47 43 15 81 23 85 20 3 -4 7 -17 9 -29 51 -447 60
-540 54 -598 -1 -13 -22 -17 -128 -22 -135 -7 -300 -26 -445 -53 -72 -13 -88
-19 -88 -34 0 -10 6 -80 14 -156 23 -225 46 -518 65 -839 l18 -300 -49 -100
c-28 -55 -75 -144 -106 -199 l-55 -98 -138 143 -138 144 -1 270 c0 303 -39
1037 -55 1053 -7 8 -474 -103 -698 -165 -70 -20 -130 -33 -134 -29 -3 3 -14
74 -24 158 -17 152 -63 453 -75 495 -8 27 -9 27 196 48 172 19 667 88 674 96
7 7 -62 442 -100 624 -19 94 -40 191 -45 217 -5 26 -17 62 -25 80 -10 23 -13
25 -9 8 4 -14 10 -43 15 -65 4 -22 24 -119 43 -215 51 -251 112 -629 102 -638
-9 -9 -488 -76 -732 -103 -62 -7 -117 -15 -123 -19 -8 -5 -7 -36 5 -111 30
-202 45 -307 60 -444 8 -78 21 -145 28 -151 9 -10 30 -7 92 12 149 45 704 184
737 184 4 0 8 -31 8 -69 0 -38 6 -177 14 -308 18 -289 27 -608 16 -538 -5 28
-9 92 -9 143 -1 51 -6 102 -11 113 -7 13 -7 19 -1 19 7 0 7 9 1 26 -6 15 -8
41 -5 58 4 17 2 42 -4 56 -9 23 -10 21 -9 -15 3 -64 -3 -171 -9 -157 -2 7 -22
12 -44 12 -21 0 -39 5 -39 10 0 6 6 10 14 10 8 0 17 6 20 13 5 10 7 10 12 0 6
-13 34 -18 34 -7 0 4 -8 13 -17 20 -17 12 -17 14 5 34 27 26 28 46 3 60 -25
13 -51 13 -51 0 0 -5 14 -10 30 -10 17 0 30 -4 30 -9 0 -6 -8 -10 -17 -9 -41
1 -138 -16 -144 -25 -4 -6 -15 -6 -25 -2 -17 8 -17 9 4 12 14 3 22 11 22 25 0
20 -1 20 -20 3 -13 -11 -27 -15 -43 -11 -19 4 -26 1 -30 -14 -6 -25 -27 -26
-27 -2 0 29 -17 49 -31 35 -6 -6 -18 -9 -25 -6 -8 3 -17 -2 -20 -11 -7 -18
-24 -22 -24 -5 0 6 -6 17 -14 24 -16 16 -38 1 -29 -21 3 -9 -2 -14 -17 -14
-15 0 -20 5 -17 14 3 8 -1 20 -9 26 -11 10 -14 10 -14 0 0 -9 -11 -10 -37 -6
-21 4 -57 9 -80 12 -24 4 -43 10 -43 15 0 17 -77 10 -84 -7 -5 -13 -17 -15
-69 -10 -53 4 -58 3 -34 -6 43 -18 32 -31 -19 -23 -32 4 -44 3 -39 -4 4 -7 -3
-11 -16 -11 -13 0 -33 -10 -46 -22 -22 -21 -24 -21 -17 -3 4 11 12 24 18 28 6
5 2 6 -9 2 -26 -10 -35 -10 -65 0 -23 7 -23 7 -7 -9 9 -10 17 -25 17 -34 0
-13 -2 -13 -15 4 -14 19 -14 18 -15 -3 0 -20 -5 -23 -40 -23 -22 0 -40 -4 -40
-10 0 -5 -4 -10 -10 -10 -5 0 -7 7 -3 16 5 14 2 16 -23 10 -38 -10 -39 -12
-26 -40 7 -17 7 -27 -1 -35 -8 -8 -14 -1 -24 27 -7 20 -13 47 -13 60 0 46 -19
20 -25 -35 -4 -32 -9 -67 -13 -78 -3 -11 -7 -22 -7 -25 -11 -40 -45 -106 -67
-129 -10 -11 -18 -26 -19 -33 0 -9 -2 -9 -5 -2 -3 7 9 34 26 60 52 83 64 141
64 309 -1 117 -5 164 -20 215 -12 43 -19 97 -19 160 -1 125 1 118 -45 189 -39
60 -41 65 -34 121 13 113 -51 213 -174 271 -26 12 -48 23 -49 24 -12 7 -115
715 -158 1075 -14 118 -27 229 -29 247 -4 27 1 35 32 56 36 25 362 217 367
217 2 0 99 58 217 128 569 342 918 532 978 532 15 0 78 -16 141 -36z m-3039
-252 c28 -18 39 -33 44 -61 24 -143 94 -305 168 -388 65 -75 72 -85 54 -78
-12 5 -15 0 -13 -19 3 -19 0 -23 -13 -18 -15 5 -14 2 2 -23 l20 -30 -40 29
c-160 118 -276 343 -309 600 l-7 49 29 -18 c15 -10 45 -29 65 -43z m975 -138
c-3 -3 -12 -4 -19 -1 -8 3 -5 6 6 6 11 1 17 -2 13 -5z m78 -17 l50 -13 -66
-37 c-36 -20 -69 -37 -72 -37 -4 0 -29 -13 -55 -30 -27 -16 -53 -30 -58 -30
-5 0 21 18 59 41 37 22 65 45 61 50 -3 6 5 7 22 3 21 -5 25 -4 19 6 -5 8 -4
11 1 7 6 -3 16 -1 24 5 13 8 13 9 -1 5 -9 -3 -22 -1 -30 5 -10 7 -2 8 25 4 46
-6 43 -1 -10 18 -49 18 -34 20 31 3z m2355 -121 c0 -3 -4 -8 -10 -11 -5 -3
-10 -1 -10 4 0 6 5 11 10 11 6 0 10 -2 10 -4z m795 -26 c10 -11 16 -20 13 -20
-3 0 -13 9 -23 20 -10 11 -16 20 -13 20 3 0 13 -9 23 -20z m-19 -37 c22 -33
22 -93 0 -93 -44 2 -84 88 -54 118 17 17 29 11 54 -25z m-7448 -125 c-1 -18
-4 -35 -7 -38 -17 -13 -261 -719 -261 -754 0 -17 -2 -18 -10 -6 -46 71 56 442
191 700 51 96 72 129 86 130 1 0 1 -15 1 -32z m7423 -5 c13 -16 12 -17 -3 -4
-17 13 -22 21 -14 21 2 0 10 -8 17 -17z m-3401 -123 c0 -11 -4 -20 -9 -20 -5
0 -7 9 -4 20 3 11 7 20 9 20 2 0 4 -9 4 -20z m2740 10 c0 -5 -4 -10 -9 -10 -6
0 -13 5 -16 10 -3 6 1 10 9 10 9 0 16 -4 16 -10z m-6599 -127 c13 -16 12 -17
-3 -4 -10 7 -18 15 -18 17 0 8 8 3 21 -13z m6563 -72 c1 -27 -2 -44 -6 -38 -9
14 -11 103 -2 94 3 -3 7 -28 8 -56z m-6414 -1 c8 -5 11 -10 5 -10 -5 0 -17 5
-25 10 -8 5 -10 10 -5 10 6 0 17 -5 25 -10z m160 -32 c9 -5 -4 -6 -35 -2 -67
9 -93 23 -29 17 27 -3 56 -10 64 -15z m100 5 c0 -5 -11 -9 -25 -9 -14 -1 -22
2 -19 7 6 11 44 12 44 2z m6177 -25 c-3 -8 -6 -5 -6 6 -1 11 2 17 5 13 3 -3 4
-12 1 -19z m-6158 -92 c1 -42 -5 -29 -12 24 -4 30 -3 38 3 25 5 -11 9 -33 9
-49z m6151 -53 c-11 -17 -11 -17 -6 0 3 10 7 42 8 70 l2 52 3 -52 c2 -29 -1
-61 -7 -70z m-21 -55 c-1 -68 -6 -61 -11 15 -2 26 0 47 4 47 5 0 7 -28 7 -62z
m35 -14 c3 -8 2 -12 -4 -9 -6 3 -10 1 -10 -6 0 -7 -2 -10 -5 -7 -5 5 4 38 10
38 2 0 6 -7 9 -16z m-6123 -117 c6 -10 13 -40 15 -65 5 -45 3 -52 -57 -141
-80 -120 -158 -204 -213 -230 -65 -32 -70 -26 -23 32 23 28 90 124 149 212
l107 160 -3 70 c-3 65 -2 67 6 25 5 -25 14 -53 19 -63z m6096 26 c-3 -10 -5
-4 -5 12 0 17 2 24 5 18 2 -7 2 -21 0 -30z m10 -60 c-3 -10 -5 -4 -5 12 0 17
2 24 5 18 2 -7 2 -21 0 -30z m-7137 -18 c-13 -14 -28 -25 -32 -25 -5 0 -26
-16 -46 -35 -20 -19 -45 -38 -54 -41 -10 -3 -18 -10 -18 -15 0 -6 -4 -8 -9 -5
-5 3 -25 -25 -45 -63 -153 -292 46 -674 408 -778 287 -83 563 82 572 343 4
130 26 148 40 33 13 -113 -34 -247 -121 -346 -25 -28 -45 -57 -45 -63 0 -52
-271 -337 -475 -500 -165 -132 -374 -319 -433 -386 -24 -29 -63 -81 -86 -115
-22 -35 -55 -71 -71 -81 -37 -21 -145 -36 -145 -20 0 6 6 9 13 6 22 -8 117 92
109 115 -3 9 0 11 8 6 8 -5 11 -4 6 3 -3 6 16 34 44 63 27 28 47 55 44 60 -2
5 4 14 16 21 11 7 20 17 20 21 0 10 21 33 147 162 50 52 95 95 99 95 4 0 24
18 45 40 21 22 43 40 48 40 6 0 8 6 5 14 -3 8 0 17 7 22 8 4 10 3 5 -4 -14
-23 10 -12 28 13 10 14 22 25 26 25 3 0 34 27 68 60 34 33 66 60 71 60 5 0 11
7 15 15 3 10 -3 17 -19 21 -14 3 -22 10 -19 15 3 5 -5 9 -18 9 -13 0 -58 8
-100 19 -43 10 -75 14 -72 10 3 -5 -1 -9 -8 -10 -20 -1 -208 -227 -408 -490
-47 -61 -89 -117 -95 -123 -5 -7 -14 -19 -20 -28 -5 -8 -26 -40 -46 -69 -20
-30 -48 -77 -63 -104 -39 -71 -49 -79 -88 -71 -52 10 -156 63 -230 117 -37 28
-68 53 -68 54 0 2 47 100 104 217 57 117 136 285 175 373 81 179 120 244 183
300 42 38 102 121 114 157 3 10 10 18 16 18 6 0 7 -8 3 -17 -4 -12 -3 -15 4
-8 7 7 2 35 -16 87 -21 61 -31 78 -49 82 -13 4 -24 11 -24 17 0 6 -4 7 -10 4
-5 -3 -10 -16 -10 -28 0 -18 -2 -19 -10 -7 -8 13 -10 13 -10 -1 0 -9 -7 -22
-15 -29 -8 -7 -13 -16 -10 -20 2 -4 -11 -21 -30 -39 -19 -17 -35 -38 -35 -45
0 -8 -4 -16 -8 -18 -14 -6 -59 -92 -67 -128 -4 -19 -11 -41 -16 -50 -16 -28
-39 -92 -39 -107 0 -8 -7 -21 -15 -29 -8 -9 -15 -26 -15 -39 0 -13 -5 -27 -11
-30 -6 -4 -8 -14 -5 -22 3 -8 2 -12 -3 -9 -5 3 -11 -2 -15 -12 -6 -19 -16 -44
-79 -194 -25 -61 -41 -111 -37 -119 5 -6 0 -27 -11 -46 -10 -18 -19 -38 -19
-43 0 -9 -35 -66 -65 -105 -8 -10 -15 -23 -15 -28 0 -5 -7 -6 -16 -3 -9 3 -12
2 -9 -5 8 -12 -14 -41 -25 -34 -4 2 -16 -5 -26 -16 -10 -11 -31 -32 -46 -47
-16 -15 -28 -32 -28 -39 0 -7 -5 -13 -11 -13 -5 0 -8 -4 -4 -9 3 -5 1 -12 -4
-16 -6 -3 -8 -12 -4 -20 3 -8 0 -15 -6 -15 -21 0 -11 -27 14 -38 36 -17 97
-15 123 4 26 18 52 75 52 115 0 16 5 29 10 29 6 0 34 -17 63 -38 71 -53 134
-89 225 -128 69 -30 74 -40 20 -35 -13 2 -16 -3 -12 -14 5 -11 0 -18 -17 -22
-22 -6 -22 -7 -3 -14 16 -7 17 -8 2 -8 -10 -1 -18 -5 -18 -10 0 -5 8 -12 18
-14 9 -3 2 -5 -17 -6 -19 -1 -90 22 -171 54 -128 51 -144 55 -220 55 -77 0
-83 2 -111 29 -51 51 -34 107 66 221 102 116 224 391 367 825 49 149 91 288
94 310 24 165 69 253 187 368 66 65 98 104 119 150 39 83 86 137 145 169 53
29 155 50 187 38 27 -9 10 -18 -61 -31 -66 -12 -96 -27 -137 -65 -57 -54 -140
-271 -107 -282 8 -3 9 -7 4 -11 -14 -8 -26 -61 -14 -61 5 0 5 -15 0 -37 -11
-49 -11 -55 1 -48 6 3 10 1 10 -4 0 -6 -4 -11 -9 -11 -5 0 -3 -32 5 -71 23
-123 89 -242 186 -336 71 -68 186 -141 162 -101 -4 7 -3 8 5 4 6 -4 9 -11 6
-16 -7 -11 78 -50 145 -66 65 -16 196 -18 205 -4 3 6 16 10 29 10 12 0 31 7
42 15 10 8 25 15 32 15 17 0 43 26 35 34 -4 3 -51 6 -105 6 -198 0 -394 77
-505 198 -48 53 -112 159 -134 223 -41 119 -36 277 12 404 25 66 99 149 159
177 19 9 44 25 55 35 32 30 80 62 84 57 3 -2 -6 -15 -19 -29z m7137 -37 c-3
-7 -5 -2 -5 12 0 14 2 19 5 13 2 -7 2 -19 0 -25z m21 -128 c0 -22 -1 -22 -8 5
-4 17 -8 39 -8 50 0 16 2 15 8 -5 4 -14 8 -36 8 -50z m22 -100 c1 -19 7 -71
13 -115 13 -89 4 -82 102 -71 l50 6 -55 -14 c-30 -7 -66 -16 -80 -20 -21 -6
-25 -3 -26 16 0 13 -4 52 -8 88 -14 126 -16 176 -6 160 5 -8 10 -31 10 -50z
m27 -7 c-3 -10 -5 -4 -5 12 0 17 2 24 5 18 2 -7 2 -21 0 -30z m-4257 -88 c-33
-96 -77 -263 -110 -425 -44 -215 -100 -668 -100 -806 0 -52 -2 -55 -40 -79
-22 -14 -41 -25 -44 -25 -4 0 -4 -3 24 300 33 352 69 573 145 895 40 172 40
172 98 205 28 16 53 28 55 26 2 -2 -11 -43 -28 -91z m1096 60 c3 -8 -33 -99
-81 -202 -146 -314 -140 -293 -140 -475 0 -87 -3 -158 -7 -158 -9 0 -23 68
-19 93 1 9 -3 17 -9 17 -6 0 -8 10 -5 23 3 12 1 44 -5 71 -7 34 -7 52 0 61 6
7 13 37 15 66 4 40 3 50 -6 39 -8 -12 -9 -10 -4 10 10 44 209 431 227 444 10
7 15 16 11 19 -3 4 -1 7 6 7 6 0 14 -7 17 -15z m3164 -5 c0 -5 -5 -10 -11 -10
-5 0 -7 5 -4 10 3 6 8 10 11 10 2 0 4 -4 4 -10z m-5744 -199 c79 -396 107
-673 102 -991 -2 -150 -5 -181 -15 -164 -8 14 -13 84 -14 205 -4 387 -19 525
-102 949 -6 30 -10 73 -10 94 1 27 -2 35 -8 25 -6 -10 -9 -7 -9 12 0 35 12 45
22 18 5 -12 20 -79 34 -148z m1357 157 c16 -12 14 -24 -18 -158 -19 -80 -51
-224 -70 -320 -20 -96 -39 -177 -43 -180 -4 -4 -38 -19 -77 -35 -79 -33 -170
-80 -330 -170 -201 -114 -256 -139 -274 -128 -19 12 -27 98 -32 378 l-4 190
-55 41 c-61 46 -143 120 -120 108 8 -4 43 -29 78 -56 36 -27 74 -48 88 -48 36
0 184 77 363 189 209 131 244 150 326 177 78 26 143 30 168 12z m-1243 -88
l45 -42 -55 43 c-68 53 -81 64 -55 51 11 -6 40 -30 65 -52z m-1003 14 c-3 -3
-12 -4 -19 -1 -8 3 -5 6 6 6 11 1 17 -2 13 -5z m6900 0 c-3 -3 -12 -4 -19 -1
-8 3 -5 6 6 6 11 1 17 -2 13 -5z m-87 -14 c-8 -5 -22 -9 -30 -9 -10 0 -8 3 5
9 27 12 43 12 25 0z m47 4 c-3 -3 -12 -4 -19 -1 -8 3 -5 6 6 6 11 1 17 -2 13
-5z m-5782 -64 c10 -11 16 -20 13 -20 -3 0 -13 9 -23 20 -10 11 -16 20 -13 20
3 0 13 -9 23 -20z m575 -74 c-29 -27 -230 -127 -247 -123 -13 3 -9 8 17 18 19
8 80 37 135 65 117 59 114 58 95 40z m2400 -153 c0 -10 3 -42 6 -70 5 -36 3
-53 -4 -53 -6 0 -9 8 -6 18 3 11 1 11 -6 -3 -6 -11 -24 -26 -40 -33 -43 -19
-116 -87 -130 -122 -10 -24 -10 -49 -2 -116 7 -48 9 -91 5 -97 -3 -6 -1 -7 5
-3 15 9 15 1 2 -25 -16 -28 -48 -23 -85 14 -46 46 -51 74 -26 156 12 38 21 92
21 120 0 101 34 143 156 196 92 39 104 41 104 18z m575 -78 c102 -49 171 -156
147 -229 -9 -30 -10 -30 -12 -6 -2 25 -2 25 -10 -3 -11 -37 -1 -61 45 -117 66
-79 77 -122 48 -201 -16 -45 -15 -49 7 -118 20 -65 22 -84 18 -238 -4 -180 -8
-196 -65 -263 -15 -18 -50 -43 -78 -56 -66 -31 -122 -31 -169 1 -36 24 -38 25
-190 18 -84 -3 -165 -3 -179 1 -72 18 -134 148 -94 198 12 15 40 19 380 55 32
3 55 9 50 14 -8 7 -251 -12 -372 -30 -49 -8 -71 -7 -96 3 -40 17 -76 66 -82
114 -7 49 13 119 35 126 9 3 122 23 251 45 129 23 236 43 239 46 17 17 -26 11
-470 -66 -59 -10 -70 -10 -92 5 -42 27 -59 71 -54 142 7 117 21 125 333 189
182 38 255 60 255 76 0 6 -7 6 -18 0 -10 -5 -97 -26 -193 -45 -96 -20 -212
-45 -259 -55 -46 -11 -85 -19 -86 -18 -11 18 -34 177 -30 202 8 40 38 80 75
100 42 21 194 62 321 85 63 11 140 27 170 35 81 20 115 18 175 -10z m3072 -17
c-3 -7 -5 -2 -5 12 0 14 2 19 5 13 2 -7 2 -19 0 -25z m-4497 2 c0 -5 -4 -10
-10 -10 -5 0 -10 5 -10 10 0 6 5 10 10 10 6 0 10 -4 10 -10z m-13 -167 c-3
-10 -5 -2 -5 17 0 19 2 27 5 18 2 -10 2 -26 0 -35z m-3897 2 c6 4 7 -1 3 -11
-3 -10 -2 -15 3 -12 5 3 22 -8 38 -24 16 -15 26 -28 22 -28 -13 0 -69 42 -106
78 l-35 35 32 -22 c18 -12 37 -19 43 -16z m2820 -97 c0 -13 -4 -61 -10 -108
-17 -150 -40 -403 -41 -463 l-2 -57 -56 -32 c-31 -17 -121 -70 -201 -117 -80
-47 -173 -100 -207 -117 -35 -17 -60 -33 -57 -36 3 -4 -8 -9 -25 -13 -17 -4
-31 -11 -31 -16 0 -5 -3 -8 -7 -7 -5 1 -21 -4 -37 -11 -16 -6 -31 -9 -35 -6
-6 6 -6 13 9 385 l9 235 -32 25 c-47 36 -161 142 -170 158 -5 7 26 -16 69 -52
43 -36 92 -73 110 -82 l31 -17 109 60 c60 33 167 93 239 133 148 83 302 160
322 160 7 0 13 -10 13 -22z m4710 2 c0 -5 -5 -10 -11 -10 -5 0 -7 5 -4 10 3 6
8 10 11 10 2 0 4 -4 4 -10z m47 4 c-3 -3 -12 -4 -19 -1 -8 3 -5 6 6 6 11 1 17
-2 13 -5z m-124 -22 c-46 -13 -53 -18 -54 -41 -1 -26 -1 -26 -10 3 -4 17 -7
31 -6 32 4 4 92 22 107 22 8 0 -9 -7 -37 -16z m-6055 -23 c-2 -6 -6 -9 -8 -8
-3 2 -19 -5 -35 -15 -29 -17 -55 -56 -55 -82 0 -7 -7 -17 -16 -22 -14 -8 -15
-18 -8 -58 9 -57 6 -125 -7 -138 -5 -6 -9 -24 -9 -42 0 -18 -5 -34 -11 -36 -6
-2 -13 -35 -16 -73 -3 -39 -10 -76 -16 -82 -6 -9 -6 -13 2 -13 6 0 11 -7 11
-16 0 -22 30 -73 60 -104 62 -61 131 -112 146 -106 8 3 12 2 9 -4 -3 -6 -1
-10 4 -10 6 0 11 4 11 8 0 11 28 219 35 258 5 26 -3 44 -41 100 -26 38 -52 72
-58 76 -6 4 -8 10 -5 13 4 3 22 -14 42 -37 20 -24 52 -61 71 -82 24 -26 34
-46 31 -60 -2 -12 -6 -86 -10 -166 -3 -80 -11 -185 -16 -235 -6 -49 -11 -95
-12 -102 -1 -21 -29 -24 -56 -6 -68 46 -64 47 -107 -36 -21 -42 -47 -85 -56
-95 -10 -11 -18 -23 -18 -27 0 -5 -23 -57 -51 -116 -28 -59 -55 -117 -60 -128
-9 -20 -149 -286 -202 -384 -15 -29 -25 -57 -21 -63 4 -7 3 -8 -4 -4 -8 5 -12
0 -12 -12 0 -11 -6 -22 -13 -25 -15 -6 -82 -137 -78 -155 1 -7 -4 -11 -11 -10
-8 2 -14 -8 -16 -24 -2 -16 -7 -28 -11 -28 -5 0 -14 -15 -22 -32 -7 -18 -16
-35 -19 -38 -4 -3 -24 -36 -45 -75 -22 -38 -50 -80 -63 -91 -13 -12 -20 -24
-16 -26 5 -3 3 -3 -4 -2 -16 4 -52 -17 -52 -30 0 -6 5 -5 12 2 7 7 17 12 22
12 6 0 0 -7 -12 -16 -13 -9 -31 -13 -42 -9 -12 4 -20 2 -20 -5 0 -6 5 -8 10
-5 6 3 10 4 10 1 0 -3 -66 -39 -148 -80 -280 -142 -349 -202 -365 -318 -13
-88 -72 -116 -118 -57 -26 34 -42 99 -28 113 5 6 9 23 9 38 0 31 27 90 70 153
31 46 127 216 255 455 48 91 123 226 165 300 43 74 94 167 115 205 21 39 50
90 65 115 15 25 66 110 113 190 203 348 400 660 416 660 25 0 27 -59 2 -102
-43 -76 -100 -173 -191 -323 -139 -231 -253 -437 -333 -604 -38 -80 -103 -216
-144 -301 -41 -85 -84 -175 -95 -200 -11 -25 -24 -53 -29 -62 -13 -25 -12 -26
24 -22 37 4 78 23 90 41 4 7 19 13 33 13 14 0 23 4 19 10 -3 6 1 13 9 16 9 3
16 10 16 15 0 5 7 17 16 27 37 42 94 117 94 125 0 4 9 17 20 29 11 12 20 28
20 35 0 7 5 13 10 13 6 0 10 5 10 10 0 6 9 20 20 32 11 12 20 28 20 35 0 13
80 136 93 141 4 2 7 12 7 22 0 10 7 20 15 24 9 3 12 12 8 22 -4 11 -3 15 4 11
7 -4 14 5 18 22 3 16 13 32 21 35 8 3 14 15 14 26 0 11 4 20 8 20 4 0 24 31
43 70 18 38 37 70 42 70 4 0 7 9 7 21 0 11 4 18 9 14 5 -3 12 4 16 15 3 11 11
20 16 20 5 0 9 8 9 18 0 10 7 27 15 38 8 12 11 24 8 28 -3 3 -2 6 4 6 12 0 68
109 65 126 -1 7 5 14 13 18 9 3 14 10 11 15 -3 5 1 14 9 21 8 7 15 19 15 26 0
8 4 14 9 14 9 0 21 20 55 87 6 13 14 23 19 23 4 0 7 14 7 31 0 21 -12 46 -37
77 -21 26 -45 55 -53 66 -8 10 -22 26 -30 35 -23 25 -62 145 -62 193 -1 34 8
59 38 109 25 41 52 109 73 180 42 146 49 165 80 202 35 42 139 87 129 56z
m424 -39 c5 0 8 -5 8 -10 0 -6 -16 2 -35 17 -19 15 -35 32 -35 36 0 4 12 -4
27 -18 15 -14 31 -25 35 -25z m2271 7 c46 -20 57 -37 74 -119 24 -115 79 -287
117 -368 38 -78 42 -100 27 -129 -8 -14 -19 -17 -57 -14 -26 3 -76 -1 -111 -7
-35 -7 -75 -12 -88 -12 -14 0 -22 -5 -18 -11 4 -6 1 -7 -6 -2 -15 9 -101 -14
-101 -27 0 -5 -4 -7 -8 -4 -12 7 -83 -19 -75 -28 4 -4 0 -4 -9 -1 -24 10 -59
-12 -51 -32 5 -13 2 -15 -11 -10 -10 4 -15 3 -11 -3 3 -6 -1 -10 -10 -10 -16
0 -47 -16 -76 -39 -27 -22 -121 -73 -142 -77 -11 -2 -38 -12 -61 -22 -22 -11
-59 -27 -81 -37 -22 -10 -46 -25 -54 -33 -13 -13 -12 -14 9 -7 14 4 59 23 100
42 117 54 251 104 269 101 9 -2 20 -20 27 -43 6 -22 15 -51 21 -65 6 -14 21
-50 33 -80 47 -118 96 -205 175 -309 26 -34 62 -87 81 -118 l34 -56 -1 -176
c-2 -253 9 -278 220 -497 118 -123 148 -163 221 -299 58 -108 70 -126 83 -118
6 4 8 0 4 -11 -4 -9 -3 -15 2 -12 4 3 17 -2 27 -12 26 -22 61 -42 75 -42 6 0
25 -6 42 -14 18 -8 41 -16 52 -18 11 -2 19 -9 18 -15 -1 -6 18 -13 42 -16 24
-4 64 -18 89 -32 26 -14 51 -23 56 -20 6 4 7 -1 3 -12 -7 -17 -6 -17 20 0 23
15 27 15 27 2 0 -8 5 -15 11 -15 6 0 8 9 4 23 -7 22 -7 22 9 2 15 -20 15 -20
16 1 0 12 -20 75 -43 140 -244 665 -383 979 -670 1514 -51 96 -113 211 -137
255 -76 143 -88 161 -115 175 -25 13 -25 15 -9 27 10 7 32 13 49 13 25 0 37
-9 66 -47 141 -190 579 -1073 758 -1530 10 -27 55 -140 101 -253 45 -113 98
-250 117 -305 19 -55 62 -166 94 -247 69 -171 75 -220 33 -275 -30 -39 -78
-66 -103 -58 -10 3 -30 33 -46 70 -37 87 -84 128 -240 206 -186 92 -309 145
-556 234 -85 31 -178 65 -206 76 -29 10 -77 27 -105 38 -137 49 -205 78 -230
99 -70 59 -130 177 -323 632 -241 569 -262 622 -271 670 -4 16 -11 30 -16 30
-6 0 -8 9 -5 21 7 27 -12 81 -26 72 -6 -4 -8 0 -4 10 3 10 2 17 -3 17 -5 0 -6
7 -3 17 4 11 3 14 -5 9 -8 -5 -12 1 -12 18 0 14 -4 27 -10 31 -5 3 -7 12 -3
20 3 8 0 15 -7 15 -8 0 -7 8 5 26 12 19 14 29 6 37 -8 8 -11 7 -11 -2 0 -7 -6
-11 -15 -7 -13 5 -47 -7 -151 -54 -30 -14 -50 -17 -70 -11 -25 8 -67 -11 -329
-144 -165 -84 -349 -178 -408 -209 -59 -31 -119 -56 -132 -56 l-25 0 0 128 c0
70 5 185 10 255 l9 128 -136 133 c-92 91 -133 138 -128 146 5 9 4 11 -4 6 -11
-7 -50 29 -51 47 0 17 21 5 29 -15 5 -13 11 -21 14 -18 5 5 34 -21 200 -177
57 -53 86 -73 105 -73 28 0 88 33 442 247 368 222 701 418 800 471 89 47 331
147 410 170 19 5 43 13 53 17 9 4 17 3 17 -3 0 -5 -11 -13 -25 -16 -13 -3 -36
-11 -50 -16 -25 -9 -25 -11 -10 -34 16 -24 6 -44 -15 -31 -5 3 -10 2 -10 -3 0
-5 -15 -15 -32 -23 -18 -7 -44 -20 -58 -29 -14 -10 -97 -54 -185 -100 -314
-161 -485 -267 -485 -299 0 -18 18 -13 24 7 7 19 58 54 211 145 117 70 392
207 415 207 10 0 17 -10 18 -27 2 -24 14 -95 26 -153 9 -46 40 -101 60 -105
44 -11 121 -13 133 -3 7 6 22 8 33 5 11 -3 20 -1 20 4 0 5 10 8 23 8 12 -1 42
3 67 9 25 7 65 12 90 12 25 0 53 7 64 15 18 13 17 20 -23 182 -23 92 -45 176
-48 186 -3 13 2 20 16 24 12 3 21 9 21 13 0 12 -64 19 -77 8 -9 -7 -13 -7 -13
0 0 6 12 15 28 20 l27 10 -28 11 c-15 6 -49 8 -75 6 l-47 -5 40 15 c22 9 44
20 49 25 14 14 51 12 89 -3z m-226 -53 c-3 -3 -12 -4 -19 -1 -8 3 -5 6 6 6 11
1 17 -2 13 -5z m3530 -16 c-3 -8 -6 -5 -6 6 -1 11 2 17 5 13 3 -3 4 -12 1 -19z
m-5496 -15 c13 -16 12 -17 -3 -4 -17 13 -22 21 -14 21 2 0 10 -8 17 -17z
m-598 -38 c4 -8 2 -17 -3 -20 -6 -4 -10 3 -10 14 0 25 6 27 13 6z m7124 -37
c-3 -7 -5 -2 -5 12 0 14 2 19 5 13 2 -7 2 -19 0 -25z m-7107 -18 c0 -5 -2 -10
-4 -10 -3 0 -8 5 -11 10 -3 6 -1 10 4 10 6 0 11 -4 11 -10z m40 -80 c0 -5 -2
-10 -4 -10 -3 0 -8 5 -11 10 -3 6 -1 10 4 10 6 0 11 -4 11 -10z m20 -35 c0 -8
-2 -15 -4 -15 -2 0 -6 7 -10 15 -3 8 -1 15 4 15 6 0 10 -7 10 -15z m121 -62
c13 -16 12 -17 -3 -4 -17 13 -22 21 -14 21 2 0 10 -8 17 -17z m-2266 -82 c-3
-6 -11 -11 -16 -11 -5 0 -4 6 3 14 14 16 24 13 13 -3z m2336 -8 c13 -16 12
-17 -3 -4 -10 7 -18 15 -18 17 0 8 8 3 21 -13z m35 -60 c-10 -10 -19 5 -10 18
6 11 8 11 12 0 2 -7 1 -15 -2 -18z m75 -90 c13 -16 12 -17 -3 -4 -10 7 -18 15
-18 17 0 8 8 3 21 -13z m5179 -23 c0 -5 -4 -10 -10 -10 -5 0 -10 5 -10 10 0 6
5 10 10 10 6 0 10 -4 10 -10z m-5145 -10 c3 -6 -1 -7 -9 -4 -18 7 -21 14 -7
14 6 0 13 -4 16 -10z m5121 -11 c8 -14 -11 -33 -25 -25 -11 7 -4 36 9 36 5 0
12 -5 16 -11z m-116 -9 c18 0 21 -3 13 -11 -14 -14 -83 -3 -83 13 0 6 9 8 23
4 12 -3 33 -6 47 -6z m-4970 -10 c0 -5 -4 -10 -10 -10 -5 0 -10 5 -10 10 0 6
5 10 10 10 6 0 10 -4 10 -10z m-1537 -34 c102 -37 139 -139 101 -274 -21 -74
-49 -119 -84 -137 -33 -17 -110 -20 -110 -5 0 6 13 10 30 10 36 0 103 56 130
109 23 47 36 106 21 97 -6 -4 -11 -2 -11 3 0 6 5 11 10 11 6 0 10 5 10 11 0 5
-4 7 -10 4 -5 -3 -10 -1 -10 4 0 6 -5 11 -11 11 -6 0 -8 -8 -4 -19 11 -35 -13
-32 -34 5 -12 19 -25 33 -30 29 -5 -3 -12 -1 -16 5 -3 5 -1 10 6 10 16 0 5 11
-13 14 -7 1 -19 5 -26 10 -7 4 -16 5 -20 1 -4 -4 0 -10 8 -13 57 -20 96 -121
65 -168 -8 -13 -21 -21 -29 -18 -8 3 -17 1 -21 -5 -3 -6 -13 -11 -21 -11 -8 0
-13 4 -10 9 3 4 -1 17 -10 27 -14 18 -15 18 -9 -3 5 -17 2 -23 -10 -23 -12 0
-16 -6 -12 -20 7 -27 4 -26 -35 13 -18 18 -45 39 -60 46 -15 8 -29 20 -32 27
-10 25 20 15 61 -21 56 -48 79 -44 25 4 -28 26 -59 43 -92 51 -28 7 -50 17
-50 22 0 10 27 6 64 -8 9 -4 16 -1 16 6 0 7 7 10 15 6 8 -3 15 -4 15 -2 0 3 3
12 7 22 4 11 3 15 -5 10 -22 -13 -22 13 0 30 15 11 17 14 6 10 -51 -18 -53
-18 -29 3 20 18 32 20 75 16 50 -6 51 -6 21 9 l-30 14 40 2 40 2 -30 9 c-16 5
-46 8 -65 7 -41 -3 -100 -34 -100 -53 0 -7 -7 -18 -15 -25 -20 -17 -19 -8 6
39 42 82 171 123 272 87z m5461 -42 c3 -8 2 -12 -4 -9 -6 3 -10 10 -10 16 0
14 7 11 14 -7z m-5944 -219 c0 -13 -29 -61 -47 -77 -20 -18 -134 -59 -162 -57
-19 1 -11 4 44 18 22 6 58 27 80 47 22 20 31 32 20 27 -11 -6 -31 -7 -45 -2
-21 6 -22 7 -5 9 11 1 38 10 60 20 43 20 55 23 55 15z m334 -80 c3 -8 1 -15
-3 -15 -5 0 -11 7 -15 15 -3 8 -1 15 3 15 5 0 11 -7 15 -15z m-1154 -10 c0
-21 -48 -122 -86 -183 -37 -57 -40 -66 -21 -57 6 4 5 0 -4 -7 -9 -7 -26 -29
-38 -48 -11 -19 -44 -59 -73 -87 -28 -29 -48 -56 -44 -60 9 -10 93 82 168 184
120 163 142 187 184 201 24 8 57 11 86 7 45 -7 145 -50 181 -78 29 -24 38 -73
26 -151 -15 -107 -26 -139 -65 -191 -20 -26 -36 -57 -36 -69 0 -11 14 -65 31
-119 17 -53 31 -107 31 -120 -1 -40 -38 -106 -72 -127 -43 -26 -66 -25 -77 3
-5 13 -17 29 -26 37 -19 16 -99 171 -109 214 -7 30 -95 196 -97 184 -5 -27 -3
-68 4 -68 4 0 7 -5 7 -10 0 -7 -29 -8 -82 -4 -82 6 -83 5 -60 -13 l23 -19 -51
-23 c-46 -21 -57 -22 -91 -12 -35 11 -39 15 -39 45 0 18 11 53 23 79 15 28 21
51 16 59 -15 23 -11 32 69 140 42 58 106 151 142 206 64 99 80 117 80 87z
m8037 -47 c-3 -8 -6 -5 -6 6 -1 11 2 17 5 13 3 -3 4 -12 1 -19z m-7474 5 c-7
-2 -21 -2 -30 0 -10 3 -4 5 12 5 17 0 24 -2 18 -5z m604 -35 c-3 -8 -6 -5 -6
6 -1 11 2 17 5 13 3 -3 4 -12 1 -19z m6870 -110 c-3 -7 -5 -2 -5 12 0 14 2 19
5 13 2 -7 2 -19 0 -25z m-7287 -108 c6 -11 9 -20 7 -20 -2 0 -12 9 -22 20 -10
11 -13 20 -7 20 6 0 16 -9 22 -20z m-81 -106 c13 -9 35 -42 50 -73 14 -31 34
-67 44 -81 30 -43 23 -112 -20 -188 -43 -77 -85 -124 -105 -117 -9 4 -19 -4
-26 -20 -11 -24 -25 -32 -77 -49 -19 -6 -20 -1 -20 122 0 119 -2 133 -34 219
-32 89 -33 94 -17 118 9 14 22 26 29 26 56 5 98 -31 123 -109 14 -43 19 -87
19 -174 0 -124 10 -127 20 -6 6 73 1 100 -41 255 -13 51 -14 66 -4 78 16 19
30 19 59 -1z m-205 -197 c33 -66 49 -168 41 -262 -8 -90 -20 -127 -50 -155
-20 -18 -31 -22 -61 -17 -34 6 -40 3 -76 -38 -34 -38 -45 -45 -76 -45 -21 0
-52 9 -69 20 -29 17 -32 23 -27 52 11 69 15 80 27 75 19 -7 128 55 151 86 28
38 35 172 13 238 -14 40 -13 47 1 71 18 31 59 49 83 37 8 -4 27 -32 43 -62z
m-680 -82 c3 -8 1 -15 -4 -15 -6 0 -10 7 -10 15 0 8 2 15 4 15 2 0 6 -7 10
-15z m7061 -275 c7 -22 -1 -40 -17 -40 -7 0 -7 4 1 13 14 17 4 28 -17 19 -15
-5 -15 -4 -3 11 18 22 28 21 36 -3z m235 -11 c0 -5 -4 -9 -10 -9 -5 0 -10 7
-10 16 0 8 5 12 10 9 6 -3 10 -10 10 -16z m391 -856 c13 -16 12 -17 -3 -4 -10
7 -18 15 -18 17 0 8 8 3 21 -13z m126 -78 c17 -15 21 -23 11 -19 -10 3 -18 11
-18 16 0 6 -7 7 -16 4 -8 -3 -13 -2 -9 3 3 5 -1 12 -7 14 -9 4 -10 6 -1 6 7 1
25 -10 40 -24z m836 -239 c-19 -34 -137 -149 -186 -181 -27 -17 -80 -14 -93 7
-4 7 2 8 17 3 33 -10 24 -3 -49 40 -35 20 -61 39 -59 42 3 2 39 -12 81 -32 71
-34 79 -36 113 -24 24 7 63 39 108 85 73 76 81 83 68 60z m-373 -116 c13 -8
13 -10 -2 -10 -9 0 -20 5 -23 10 -8 13 5 13 25 0z m-7555 -1359 c114 -44 122
-49 153 -95 18 -27 41 -81 53 -120 30 -105 85 -274 107 -333 11 -29 18 -53 16
-53 -2 0 -26 47 -54 104 -50 106 -63 125 -76 105 -4 -8 -9 -7 -16 2 -7 10 -8
5 -4 -16 l6 -30 -14 25 c-8 14 -31 70 -51 126 -43 120 -92 211 -127 237 -13
10 -40 20 -60 21 -19 2 -40 6 -47 10 -7 5 -11 0 -11 -13 0 -14 -6 -21 -20 -21
-22 0 -27 -16 -7 -23 25 -8 -58 -198 -167 -380 -49 -82 -66 -121 -71 -160 -12
-96 50 -328 130 -487 55 -109 85 -150 111 -150 8 0 12 -4 9 -10 -10 -17 70
-11 153 11 42 11 122 40 178 64 78 34 107 42 129 37 l28 -8 -33 -32 c-75 -76
-299 -161 -445 -169 l-91 -6 -37 32 c-20 18 -49 58 -64 89 -15 31 -31 60 -36
63 -21 15 -92 261 -83 286 4 9 13 12 24 9 18 -6 17 2 -9 131 -16 77 -29 171
-29 212 0 72 3 81 81 255 45 100 92 206 106 236 38 85 72 114 123 103 14 -3
79 -27 145 -52z m5901 -166 c120 -45 319 -164 406 -243 41 -37 61 -68 72 -115
6 -27 2 -24 -66 33 -74 63 -151 112 -268 170 -153 77 -224 85 -366 45 -204
-59 -264 -94 -299 -177 -18 -44 -28 -50 -19 -12 4 17 2 30 -7 36 -11 8 -10 9
4 4 20 -6 23 7 3 23 -7 6 -12 23 -10 39 2 15 1 19 -2 10 -3 -10 -10 -18 -15
-18 -13 0 -11 12 8 40 52 78 106 112 243 153 150 45 220 48 316 12z m119 -165
c143 -71 220 -120 298 -192 l57 -53 20 -99 c35 -174 51 -326 48 -458 -2 -135
5 -172 19 -91 15 89 6 281 -21 433 -14 80 -31 177 -37 215 -6 39 -17 85 -25
103 -17 39 -18 82 -4 82 20 0 75 -32 107 -63 33 -31 46 -61 58 -132 3 -22 18
-87 32 -145 22 -90 25 -121 21 -215 -4 -88 -9 -118 -26 -150 -17 -30 -22 -55
-21 -105 1 -36 -2 -82 -6 -102 -7 -39 11 -116 25 -101 16 16 52 219 54 295 0
42 4 71 8 65 5 -8 8 -8 8 -1 0 6 -3 13 -6 16 -3 4 -6 55 -7 115 -1 59 -6 117
-11 128 -9 18 -8 18 7 7 25 -21 77 -107 77 -128 0 -10 26 -50 57 -89 168 -209
284 -455 353 -750 30 -128 80 -375 79 -389 -1 -18 -27 57 -29 84 -2 21 -3 22
-8 5 l-5 -20 -8 20 c-6 13 -7 2 -4 -30 7 -72 -6 -37 -70 185 -122 418 -149
485 -304 747 -51 86 -71 105 -71 65 0 -15 2 -15 10 -2 5 8 10 10 10 5 0 -6 -6
-17 -12 -23 -10 -10 -10 -17 -1 -32 9 -13 9 -20 1 -22 -7 -3 -5 -14 5 -35 9
-17 13 -33 10 -37 -4 -3 -1 -6 5 -6 7 0 12 -15 12 -34 0 -24 5 -36 18 -39 9
-3 3 -5 -15 -6 -26 -1 -30 -4 -26 -21 3 -11 12 -20 19 -20 8 0 13 -9 13 -22
-1 -13 2 -32 7 -43 8 -19 7 -19 -10 -2 -20 20 -36 14 -36 -13 0 -10 -8 -33
-17 -52 -32 -63 -33 -66 -21 -70 6 -2 8 -10 4 -16 -4 -7 -16 -10 -27 -7 -11 4
-19 2 -19 -5 0 -6 5 -8 10 -5 6 3 10 -5 10 -18 0 -18 -7 -27 -25 -31 -17 -4
-25 -13 -25 -27 0 -19 -2 -20 -17 -8 -15 12 -16 12 -11 -8 4 -15 2 -20 -7 -17
-7 3 -15 -5 -19 -19 -6 -27 -56 -85 -56 -66 0 7 -3 10 -6 7 -3 -4 -6 -9 -6
-12 1 -2 -24 -30 -53 -61 -89 -92 -139 -102 -310 -61 -300 73 -589 208 -700
326 -24 26 -26 30 -8 21 12 -6 25 -16 28 -21 3 -6 13 -10 20 -10 8 0 41 -17
72 -37 178 -113 548 -250 703 -260 77 -5 88 -3 113 17 54 43 175 251 164 283
-2 7 -10 -5 -17 -26 -9 -22 -19 -36 -27 -33 -12 5 -53 -43 -53 -63 0 -6 -6
-11 -12 -11 -7 0 -26 -14 -42 -30 -27 -28 -54 -41 -42 -21 4 5 -5 6 -21 2
-118 -31 -723 197 -723 273 0 18 54 6 157 -35 124 -49 221 -79 259 -79 19 0
33 -4 30 -8 -2 -4 12 -8 32 -9 20 0 71 -3 111 -6 88 -7 101 0 101 55 0 34 3
39 19 33 12 -4 20 0 24 12 4 10 13 36 21 58 19 50 19 80 0 175 -24 118 -44
260 -46 325 -1 33 -3 52 -5 43 -5 -20 -23 -24 -23 -5 0 6 -8 0 -17 -14 -45
-73 -234 -147 -339 -134 -30 3 -81 20 -114 36 -106 53 -174 155 -276 411 -37
92 -71 165 -75 162 -16 -9 -10 20 11 53 10 18 30 39 44 48 32 22 206 83 281
101 90 20 136 11 270 -56z m-648 -292 c-3 -8 -6 -5 -6 6 -1 11 2 17 5 13 3 -3
4 -12 1 -19z m-4883 -133 c48 -38 78 -87 69 -112 -8 -21 -23 -15 -23 9 0 14
-29 50 -82 102 -103 101 -128 133 -63 80 28 -22 72 -58 99 -79z m763 83 c15
-42 9 -87 -17 -138 -22 -44 -25 -54 -10 -45 15 9 13 2 -14 -46 -14 -24 -41
-60 -62 -79 l-36 -35 26 40 c14 22 30 46 36 53 16 18 -1 15 -23 -5 -16 -15
-15 -10 7 34 14 29 26 59 26 68 0 8 5 15 12 15 6 0 8 3 5 7 -4 3 -3 11 2 17
17 21 40 86 31 86 -6 0 -22 -19 -37 -42 -31 -50 -83 -108 -96 -108 -4 0 -5 5
-2 10 9 14 -8 13 -23 -2 -6 -6 -14 -10 -16 -7 -3 2 12 15 32 28 23 15 32 18
23 8 -22 -27 3 -20 29 8 13 14 20 25 16 25 -5 0 3 15 16 33 14 17 30 49 37 70
15 45 24 47 38 5z m4097 -62 c-9 -48 -19 -84 -22 -81 -3 3 3 43 13 90 10 47
20 84 22 81 2 -2 -3 -43 -13 -90z m-4309 -126 c-3 -5 2 -10 12 -10 13 -1 10
-5 -11 -17 -37 -19 -161 -63 -178 -62 -7 0 10 9 37 19 28 10 43 19 35 19 -13
1 -13 2 0 11 8 5 20 10 25 10 6 0 3 -5 -5 -10 -23 -15 5 -12 45 5 20 8 35 18
34 22 -2 13 1 23 7 23 3 0 2 -4 -1 -10z m-235 -80 c-14 -4 -45 -8 -70 -8 l-45
1 45 7 c25 4 56 7 70 8 l25 0 -25 -8z m37 -16 c-3 -3 -12 -4 -19 -1 -8 3 -5 6
6 6 11 1 17 -2 13 -5z m-72 -15 c-22 -4 -71 -7 -110 -7 l-70 1 65 7 c36 4 85
7 110 7 l45 1 -40 -9z m437 -217 c1 -170 -14 -302 -42 -387 -9 -28 -10 -27 -5
10 3 22 10 78 15 125 6 47 12 96 15 108 3 13 2 21 -2 19 -5 -3 -6 22 -2 56 3
34 2 67 -3 73 -4 6 -5 26 -1 44 4 24 3 31 -5 26 -7 -4 -13 -17 -13 -29 -1 -20
-2 -21 -6 -2 -3 11 -11 24 -19 28 -11 6 -9 16 11 47 32 50 22 51 -29 3 l-40
-38 39 47 c22 25 46 44 53 42 7 -2 10 1 7 6 -3 6 -3 15 1 21 17 29 26 -34 26
-199z m5518 68 c0 -5 -4 -10 -10 -10 -5 0 -10 5 -10 10 0 6 5 10 10 10 6 0 10
-4 10 -10z m-5580 -30 c0 -11 5 -20 10 -20 6 0 10 -11 10 -25 0 -14 -4 -25
-10 -25 -5 0 -10 -8 -10 -17 0 -10 -5 -25 -10 -33 -7 -11 -10 8 -9 63 1 42 6
77 10 77 5 0 9 -9 9 -20z m-1459 -274 c5 -6 9 -15 9 -20 0 -13 -29 28 -50 69
-8 17 -19 30 -25 30 -5 0 -15 -25 -22 -55 -11 -53 -11 -51 -12 67 -1 67 2 128
5 137 4 9 22 -32 46 -102 22 -64 44 -121 49 -126z m1486 172 c-3 -8 -6 -5 -6
6 -1 11 2 17 5 13 3 -3 4 -12 1 -19z m-30 -86 c-3 -12 -5 -11 -6 6 0 12 -6 22
-12 22 -5 0 -7 5 -3 11 9 16 27 -16 21 -39z m5423 -7 c0 -5 -5 -3 -10 5 -5 8
-10 20 -10 25 0 6 5 3 10 -5 5 -8 10 -19 10 -25z m-6140 4 c-81 -55 -368 -163
-420 -157 -17 2 12 16 90 42 63 22 160 59 215 82 97 42 150 57 115 33z m697
-36 c-3 -10 -5 -4 -5 12 0 17 2 24 5 18 2 -7 2 -21 0 -30z m-10 -55 c-3 -7 -5
-2 -5 12 0 14 2 19 5 13 2 -7 2 -19 0 -25z m5611 -54 c2 -14 -6 -24 -23 -32
-22 -10 -25 -9 -25 8 0 11 5 20 10 20 6 0 10 7 10 16 0 22 24 12 28 -12z
m-287 -197 c-10 -9 -11 -8 -5 6 3 10 9 15 12 12 3 -3 0 -11 -7 -18z m-7802
-1057 c38 45 43 55 33 71 -7 10 -12 21 -12 24 0 3 29 5 65 5 36 0 65 -3 65 -6
0 -3 -32 -35 -70 -71 l-70 -65 19 -26 c10 -15 40 -63 66 -107 25 -44 56 -90
68 -102 l20 -23 -50 0 c-65 0 -92 21 -143 113 l-40 72 0 -68 c0 -38 5 -77 10
-88 10 -18 7 -19 -66 -19 l-76 0 16 25 c15 23 17 55 14 260 -3 221 -4 235 -23
249 -26 18 -19 25 57 50 l63 21 5 -184 5 -183 44 52z m1763 30 c-4 -259 -3
-282 13 -300 18 -20 17 -20 -63 -20 -45 0 -82 3 -82 8 0 4 7 16 15 26 12 16
15 63 15 251 0 219 -1 233 -20 250 -11 10 -18 20 -15 23 7 8 129 48 136 45 3
-1 4 -128 1 -283z m3748 -26 c40 53 43 59 27 71 -26 19 -10 25 67 24 70 0 70
0 46 -17 -14 -9 -49 -40 -79 -69 l-54 -53 26 -33 c14 -19 40 -62 57 -96 17
-33 42 -74 56 -90 13 -16 24 -32 24 -35 0 -3 -22 -6 -50 -6 -60 0 -76 14 -128
115 l-37 70 -3 -69 c-2 -39 2 -74 8 -80 20 -20 9 -26 -52 -26 l-63 0 -2 257
c-2 245 -3 257 -24 279 l-21 22 33 7 c18 4 51 15 73 25 l41 17 5 -185 5 -185
45 57z m4408 -7 c0 -171 3 -252 11 -260 24 -24 10 -32 -51 -29 l-63 3 0 261
c0 257 0 260 -22 278 l-23 18 53 17 c28 9 59 21 67 25 24 14 29 -42 28 -313z
m188 -263 l16 -24 -68 0 -69 0 3 259 c3 228 2 260 -13 274 -18 19 -12 37 13
37 9 0 35 9 57 18 l40 18 3 -278 c2 -236 5 -283 18 -304z m475 452 c-1 -78 3
-126 9 -126 5 0 10 4 10 10 0 13 54 40 83 40 27 0 64 -32 78 -67 5 -13 9 -86
9 -160 0 -110 3 -140 16 -154 15 -16 11 -17 -56 -21 l-71 -3 3 157 c3 174 -1
189 -49 172 l-28 -9 -3 -138 c-1 -83 2 -145 8 -157 10 -19 7 -20 -61 -20 -64
0 -70 2 -63 18 5 9 10 125 12 256 3 235 2 239 -19 262 -13 13 -21 24 -18 24 2
1 33 11 69 23 36 12 66 22 68 21 2 -1 3 -59 3 -128z m-7691 -2 l0 -126 31 26
c41 35 83 34 120 -3 l29 -29 0 -149 c0 -118 3 -153 16 -171 l15 -22 -68 0 -68
0 0 156 c0 138 -2 158 -17 168 -13 8 -23 8 -35 0 -16 -10 -18 -31 -21 -154 -2
-96 1 -147 9 -156 10 -12 -1 -14 -65 -14 l-77 0 16 31 c14 26 16 65 13 260 -3
228 -3 229 -27 245 -23 17 -23 17 45 39 38 13 72 23 77 24 4 1 7 -56 7 -125z
m1422 -156 c2 -156 7 -291 12 -300 7 -16 1 -18 -64 -18 -65 0 -71 2 -64 18 5
9 10 125 12 257 3 236 2 240 -19 258 -12 10 -20 19 -18 21 8 6 114 44 126 45
9 1 13 -67 15 -281z m-3036 225 c15 -5 18 -49 8 -102 -8 -40 -21 -39 -39 2
-28 67 -84 92 -128 57 -31 -25 -36 -63 -11 -98 8 -12 51 -49 95 -82 89 -68
113 -105 112 -171 -1 -78 -41 -130 -122 -157 -50 -17 -84 -15 -145 10 -48 20
-55 26 -60 58 -18 107 5 133 44 49 29 -61 52 -79 103 -79 46 0 87 36 87 76 0
29 -19 49 -130 137 -75 59 -102 108 -96 170 6 60 34 99 88 126 37 19 53 21
112 16 37 -4 74 -9 82 -12z m6137 6 c55 -11 57 -13 56 -43 0 -17 -3 -49 -7
-71 -8 -43 -11 -41 -42 20 -8 16 -30 38 -48 48 -27 16 -37 17 -61 7 -16 -6
-33 -22 -39 -34 -17 -37 13 -80 106 -153 64 -50 89 -77 104 -111 35 -77 12
-149 -61 -199 -49 -33 -107 -38 -182 -15 l-64 20 -3 71 c-2 39 1 71 6 71 5 0
17 -18 27 -40 10 -23 34 -55 53 -71 28 -25 41 -30 66 -25 37 7 76 48 76 79 0
33 -21 57 -100 118 -142 107 -169 211 -78 296 46 43 94 51 191 32z m2205 -31
c32 -124 145 -467 162 -490 l21 -28 -96 0 c-52 0 -95 3 -95 6 0 4 7 12 15 18
13 10 13 19 -4 76 l-18 65 -74 -4 c-41 -2 -75 -4 -77 -6 -1 -1 -10 -28 -19
-59 -15 -52 -15 -58 1 -74 9 -10 16 -20 16 -23 0 -2 -29 -5 -65 -6 -62 -2 -81
7 -51 24 22 13 51 81 94 223 64 211 77 269 63 283 -9 9 -2 15 31 24 77 20 84
18 96 -29z m-11028 7 c-22 -23 -25 -37 -28 -125 -3 -57 0 -100 5 -100 10 0
143 195 143 210 0 4 -7 10 -15 14 -8 3 -15 10 -15 16 0 6 32 10 80 10 44 0 80
-3 80 -7 0 -5 -13 -15 -28 -24 -30 -17 -162 -179 -162 -198 0 -5 24 -48 53
-93 30 -46 67 -108 83 -137 43 -82 126 -166 182 -187 59 -22 74 -34 40 -34
-47 0 -153 39 -214 78 -77 50 -123 104 -179 214 -25 48 -48 88 -50 88 -3 0 -5
-47 -5 -105 0 -94 2 -106 22 -125 12 -11 20 -22 17 -24 -2 -2 -48 -1 -102 2
l-98 5 21 22 c19 20 20 33 20 252 l0 230 -25 11 c-50 23 -26 32 87 32 l111 0
-23 -25z m4964 1 c50 -25 76 -68 76 -129 0 -96 -56 -164 -160 -194 l-58 -18
-7 -69 c-7 -65 -6 -71 15 -88 13 -10 21 -20 19 -22 -7 -6 -189 -15 -189 -9 0
2 10 13 23 23 21 18 22 24 25 244 l3 226 -25 23 c-14 14 -26 28 -26 31 0 4 60
6 133 4 105 -2 140 -7 171 -22z m4746 4 c11 -11 20 -29 20 -40 0 -26 -34 -60
-62 -60 -50 0 -76 63 -41 102 21 24 58 23 83 -2z m510 -85 l0 -55 41 0 c33 0
40 -3 37 -17 -2 -13 -14 -19 -41 -21 l-38 -3 3 -142 3 -142 33 3 c39 3 43 -20
10 -55 -24 -26 -84 -32 -110 -10 -42 34 -48 57 -48 199 0 76 -3 138 -7 138 -5
0 -14 4 -22 9 -12 8 -9 15 15 39 16 16 44 48 62 70 47 59 62 55 62 -13z
m-3482 -66 c-2 -20 -10 -25 -41 -27 -38 -3 -38 -4 -22 -22 26 -29 17 -141 -13
-173 -24 -25 -82 -47 -126 -47 -14 0 -26 -2 -26 -4 0 -2 -3 -11 -6 -19 -4 -11
11 -16 78 -22 96 -8 131 -23 148 -64 16 -40 -1 -91 -45 -135 -80 -80 -252 -67
-286 21 -11 31 14 89 42 98 19 6 19 7 -1 32 -11 14 -20 30 -20 36 0 17 42 57
59 57 12 0 11 4 -5 18 -38 30 -57 80 -52 134 10 96 71 142 178 132 50 -5 74
-3 96 9 33 18 47 10 42 -24z m-6271 -5 c13 -8 29 -24 37 -37 19 -28 29 -98 18
-115 -6 -9 -39 -16 -91 -19 -79 -6 -81 -6 -81 -32 0 -37 31 -94 59 -108 28
-13 64 -3 99 29 20 20 22 20 22 3 0 -10 -20 -38 -45 -63 -43 -42 -47 -44 -90
-40 -56 7 -88 27 -123 80 -23 36 -27 52 -27 112 1 157 116 256 222 190z m343
11 c16 -8 34 -24 40 -34 5 -11 10 -80 10 -153 1 -96 5 -140 15 -158 8 -14 14
-28 15 -32 0 -5 -30 -8 -67 -8 l-68 0 0 156 c0 136 -2 158 -17 167 -13 9 -22
7 -37 -7 -19 -18 -21 -31 -21 -156 0 -92 4 -140 12 -148 9 -9 -5 -12 -65 -12
-70 0 -93 9 -67 25 6 4 10 67 10 157 0 127 -3 154 -17 170 -9 10 -14 20 -12
22 2 2 32 6 67 10 58 7 62 6 62 -13 0 -20 1 -19 36 4 43 29 64 31 104 10z
m304 5 c49 -18 61 -52 66 -200 5 -121 7 -135 23 -132 9 2 17 -3 17 -11 0 -21
-32 -46 -67 -53 -26 -5 -34 -2 -48 20 l-17 26 -32 -25 c-43 -33 -78 -32 -118
4 -60 54 -39 139 48 188 21 13 49 23 62 23 20 0 22 5 22 54 0 37 -5 58 -16 67
-23 19 -48 -1 -55 -45 -8 -48 -24 -64 -47 -50 -19 13 -27 45 -17 81 11 45 117
77 179 53z m694 -24 c26 -26 27 -30 30 -166 3 -130 5 -140 23 -140 30 0 22
-28 -13 -50 -18 -11 -38 -20 -45 -20 -13 0 -39 24 -45 42 -3 9 -15 4 -37 -15
-44 -36 -75 -35 -117 7 -76 76 -23 178 109 210 24 6 27 11 27 47 0 46 -14 79
-35 79 -20 0 -45 -40 -45 -71 0 -32 -33 -45 -56 -21 -17 17 -13 64 9 90 40 49
150 53 195 8z m352 14 c44 -32 54 -76 46 -216 -5 -102 -4 -125 9 -137 8 -9 15
-18 15 -21 0 -3 -30 -6 -68 -6 l-67 0 4 153 c3 168 -2 186 -54 173 l-25 -6 0
-148 c0 -102 4 -152 12 -160 9 -9 -5 -12 -65 -12 -74 0 -77 1 -67 19 5 11 10
84 10 166 0 120 -3 149 -16 162 -21 22 -9 30 59 38 49 6 57 4 57 -10 0 -15 4
-15 33 4 41 26 81 27 117 1z m804 -1 c46 -37 76 -122 53 -153 -8 -10 -33 -18
-67 -22 -92 -9 -100 -12 -100 -38 0 -33 41 -89 74 -101 22 -8 35 -5 67 13 43
25 45 24 24 -18 -50 -96 -173 -93 -241 7 -31 46 -39 130 -20 196 31 108 142
169 210 116z m375 -155 c1 -160 9 -181 56 -150 26 17 26 17 23 144 -2 70 -5
133 -8 141 -4 10 6 17 30 21 19 4 45 10 58 14 l22 7 0 -171 c0 -142 2 -172 15
-176 24 -10 17 -32 -15 -49 -41 -21 -65 -19 -80 10 l-13 24 -29 -24 c-47 -39
-112 -31 -140 18 -8 13 -15 77 -19 162 -3 77 -9 149 -13 161 -7 18 -2 21 46
30 44 7 54 6 60 -6 4 -8 7 -79 7 -156z m461 157 c12 -24 13 -71 1 -90 -9 -14
-22 -11 -53 11 -15 10 -21 10 -35 -5 -26 -26 -32 -236 -9 -272 l16 -25 -81 0
-82 0 19 21 c16 18 18 38 19 169 0 135 -2 150 -19 163 -24 18 -15 23 57 31
l57 7 0 -28 0 -28 18 21 c35 44 76 55 92 25z m153 -308 c12 -19 31 -16 53 8
16 17 18 36 18 127 -1 59 -4 121 -8 137 -7 30 -6 31 49 41 31 5 58 6 61 2 3
-4 4 -80 2 -169 -3 -143 -1 -162 15 -173 23 -18 22 -21 -17 -40 -50 -23 -74
-21 -82 9 -3 14 -8 25 -11 25 -3 0 -18 -11 -35 -25 -55 -47 -119 -26 -147 48
-6 16 -11 86 -11 157 0 75 -4 131 -10 135 -22 14 -7 23 48 31 l57 9 5 -155 c3
-85 9 -161 13 -167z m1292 313 c18 -8 41 -28 49 -44 19 -38 29 -103 18 -120
-5 -7 -42 -15 -90 -19 -90 -7 -94 -11 -71 -70 26 -70 82 -92 133 -52 34 27 42
20 21 -21 -19 -36 -69 -70 -105 -70 -48 0 -112 42 -137 89 -55 106 -3 283 90
310 45 13 53 13 92 -3z m215 -17 l0 -31 35 31 c37 33 44 35 69 25 18 -7 22
-79 6 -104 -7 -12 -12 -11 -29 5 -18 16 -25 16 -45 6 -22 -12 -24 -21 -30
-131 -6 -102 -5 -123 10 -144 l16 -26 -81 0 -81 0 15 24 c13 19 17 56 18 164
2 125 0 142 -17 161 -11 12 -17 21 -15 22 24 6 116 27 122 28 4 0 7 -13 7 -30z
m500 18 c39 -20 70 -74 70 -123 0 -24 -5 -46 -10 -49 -6 -4 -44 -9 -85 -12
-84 -7 -88 -11 -59 -82 24 -62 87 -77 137 -33 27 24 32 7 8 -31 -28 -46 -62
-67 -109 -67 -167 0 -211 298 -58 391 36 22 71 24 106 6z m372 -16 l33 -29 3
-154 c2 -84 8 -157 13 -163 19 -19 7 -25 -56 -25 l-65 0 0 154 c0 124 -3 156
-15 166 -12 10 -20 9 -40 -4 -25 -16 -25 -18 -25 -151 0 -78 4 -136 10 -140
26 -16 3 -25 -66 -25 l-76 0 16 25 c24 36 23 290 -1 317 -20 22 -15 27 34 39
57 13 83 11 83 -6 0 -12 6 -11 33 5 45 28 81 25 119 -9z m946 18 c17 -6 39
-23 49 -37 17 -26 18 -35 23 -274 0 -11 8 -18 20 -18 29 0 24 -25 -9 -49 -39
-28 -67 -26 -87 4 l-16 25 -30 -25 c-33 -28 -54 -31 -93 -13 -35 16 -69 72
-61 103 10 39 56 86 115 114 l56 27 -3 44 c-4 44 -16 70 -33 70 -17 0 -39 -33
-39 -59 0 -38 -22 -56 -49 -41 -14 7 -21 21 -21 39 0 72 94 119 178 90z m242
-15 l0 -26 31 26 c37 31 63 33 107 6 100 -61 94 -288 -9 -361 -33 -23 -80 -29
-111 -15 -16 7 -18 1 -18 -63 0 -58 4 -74 19 -88 11 -9 18 -20 15 -25 -3 -4
-43 -8 -89 -8 l-85 0 20 33 c18 29 20 50 20 253 0 185 -2 224 -15 234 -8 7
-15 16 -15 20 0 6 78 31 123 39 4 0 7 -11 7 -25z m451 9 c39 -23 49 -63 49
-206 0 -110 1 -119 20 -124 29 -8 25 -20 -12 -43 -44 -26 -64 -25 -84 5 l-16
25 -30 -25 c-72 -60 -159 4 -145 108 7 53 38 81 114 103 l55 16 -6 52 c-4 28
-12 55 -17 61 -17 17 -43 -10 -53 -53 -9 -37 -13 -42 -37 -42 -62 0 -43 90 25
121 52 23 100 24 137 2z m219 -9 l0 -26 31 26 c43 36 91 35 130 -3 l29 -29 0
-149 c0 -118 3 -153 16 -171 l15 -22 -68 0 -68 0 3 147 c4 165 -3 191 -50 180
-24 -6 -25 -11 -31 -98 -10 -130 -9 -187 3 -210 10 -18 7 -19 -60 -19 -67 0
-70 1 -60 19 5 11 10 83 10 162 0 119 -3 145 -17 161 -9 10 -14 21 -10 24 4 5
92 29 120 33 4 1 7 -11 7 -25z m949 12 c15 -8 36 -27 45 -41 21 -32 33 -120
18 -129 -6 -4 -48 -9 -93 -13 l-81 -6 6 -36 c7 -45 35 -83 70 -96 22 -8 35 -5
67 13 34 20 39 20 39 6 0 -9 -18 -34 -40 -56 -38 -38 -43 -40 -89 -36 -87 9
-143 70 -156 174 -9 65 8 125 48 171 52 59 112 77 166 49z m372 -15 l29 -29 0
-144 c0 -111 3 -149 15 -164 8 -10 15 -22 15 -26 0 -5 -30 -8 -67 -8 l-68 0 3
147 c3 118 0 152 -11 168 -13 17 -18 18 -41 7 l-26 -12 0 -143 c0 -98 4 -147
12 -155 9 -9 -5 -12 -65 -12 -42 0 -77 2 -77 4 0 2 7 20 15 39 23 56 21 242
-4 289 l-18 37 49 10 c68 15 78 14 78 -9 0 -18 2 -18 36 5 50 34 88 32 125 -4z
m184 -458 c-40 -81 -112 -119 -177 -94 -23 9 -28 17 -28 45 0 64 53 83 62 23
5 -37 37 -33 53 7 22 52 22 441 0 450 -30 11 -14 25 48 38 l62 13 3 -214 c2
-213 2 -215 -23 -268z m311 454 c19 -23 22 -41 29 -166 7 -140 7 -141 31 -141
32 0 30 -13 -7 -44 -38 -32 -64 -33 -92 -2 l-22 24 -28 -24 c-39 -33 -81 -31
-118 5 -24 24 -29 38 -29 77 0 42 4 51 38 83 21 20 57 42 80 49 42 13 42 13
42 61 0 87 -55 96 -74 13 -8 -34 -14 -42 -32 -42 -49 0 -56 58 -11 101 34 32
57 39 116 35 44 -2 59 -8 77 -29z m514 18 c46 -24 54 -49 58 -193 l4 -134 24
6 c14 4 24 2 24 -4 0 -18 -47 -59 -76 -66 -22 -6 -32 -2 -51 20 l-23 27 -31
-25 c-39 -33 -79 -33 -112 0 -61 61 -39 149 47 189 28 13 59 26 69 29 13 4 17
16 17 50 0 56 -8 76 -29 76 -23 0 -41 -20 -41 -46 0 -37 -11 -54 -35 -54 -38
0 -50 24 -34 68 24 64 120 93 189 57z m1253 -5 c36 -29 47 -76 47 -207 0 -103
2 -112 20 -118 27 -9 25 -20 -9 -44 -39 -28 -65 -26 -88 5 l-19 26 -29 -26
c-36 -33 -75 -33 -114 0 -27 23 -31 32 -31 79 0 69 23 98 101 126 33 12 61 25
64 29 2 3 1 28 -3 56 -6 44 -10 49 -32 49 -21 0 -28 -8 -42 -50 -19 -57 -43
-66 -67 -24 -13 24 -13 29 3 53 41 64 146 88 199 46z m-7023 -653 c0 -8 -9
-22 -19 -31 -39 -35 -64 -116 -69 -217 -5 -117 14 -202 63 -276 40 -60 31 -78
-19 -40 -39 30 -89 122 -106 196 -15 65 -7 162 21 235 31 83 129 184 129 133z
m520 -6 c16 -31 -7 -70 -25 -41 -8 12 -52 13 -59 2 -3 -5 -8 -28 -12 -50 -6
-42 -6 -42 24 -42 55 0 53 -40 -2 -43 l-26 -2 0 -137 0 -138 -36 0 -36 0 4
135 c3 128 2 134 -17 137 -28 4 -32 38 -6 45 12 3 21 10 21 17 0 31 24 91 45
112 32 32 109 34 125 5z m2076 -33 c86 -102 103 -276 41 -412 -29 -64 -83
-126 -108 -126 -25 0 -24 1 11 56 50 80 65 137 65 254 -1 93 -4 112 -28 165
-15 33 -35 67 -43 77 -9 9 -13 22 -9 27 9 15 36 -1 71 -41z m-2316 12 c12 -6
16 -17 13 -30 -5 -18 -14 -20 -84 -20 l-79 0 0 -65 0 -65 65 0 c63 0 65 -1 65
-25 0 -24 -2 -25 -65 -25 l-65 0 0 -76 0 -77 88 6 88 7 -4 -30 -4 -30 -122 0
-121 0 3 212 c1 117 2 216 2 221 0 11 198 9 220 -3z m2152 -218 l3 -212 -35 0
-35 0 3 175 c2 96 1 175 -2 175 -4 0 -15 -5 -25 -12 -19 -12 -51 -5 -51 11 0
14 122 93 131 84 4 -4 9 -104 11 -221z m-557 208 c3 -5 -15 -23 -41 -39 -44
-27 -104 -100 -104 -126 0 -10 8 -10 37 0 46 16 90 5 122 -32 20 -23 23 -34
19 -91 -4 -61 -7 -67 -46 -103 -48 -45 -86 -50 -138 -19 -67 42 -90 142 -58
250 22 75 116 170 168 170 19 0 38 -4 41 -10z m335 -205 l0 -215 -36 0 -35 0
1 168 c1 92 1 170 1 175 -1 4 -15 0 -31 -8 -28 -14 -31 -14 -37 0 -3 9 -1 21
5 27 16 16 106 67 120 67 9 1 12 -48 12 -214z m-1532 89 c26 -18 47 -56 55
-102 6 -29 3 -34 -19 -42 -14 -6 -54 -10 -90 -10 -37 0 -64 -4 -64 -10 0 -6 6
-26 14 -45 18 -41 52 -53 110 -37 23 6 43 8 46 6 9 -10 -18 -40 -53 -57 -61
-31 -129 -1 -167 73 -18 34 -16 130 4 168 34 66 112 93 164 56z m245 7 c26
-10 39 -41 26 -62 -6 -11 -13 -9 -32 9 -27 25 -59 29 -77 7 -16 -19 -9 -47 15
-60 96 -49 127 -92 105 -145 -17 -40 -56 -63 -106 -62 -59 0 -84 16 -84 52 0
35 19 39 45 10 27 -29 79 -24 83 8 4 24 -22 62 -42 62 -6 0 -28 14 -49 31 -31
25 -37 37 -37 68 0 69 77 110 153 82z m543 -12 c16 -13 18 -45 4 -54 -5 -3
-18 3 -30 15 -23 23 -50 26 -68 8 -24 -24 -12 -47 42 -82 57 -36 86 -69 86
-98 0 -27 -56 -85 -89 -91 -58 -12 -121 21 -121 62 0 16 46 13 60 -4 15 -18
51 -20 68 -3 24 24 11 47 -50 90 -49 34 -64 50 -66 72 -9 73 31 110 107 101
24 -3 50 -10 57 -16z m-386 -108 c0 -126 8 -149 49 -136 39 12 44 31 42 145
l-2 110 35 0 36 0 2 -135 c1 -74 2 -143 2 -152 1 -12 -8 -19 -25 -21 -20 -2
-28 2 -32 19 l-6 22 -31 -27 c-36 -30 -50 -32 -89 -11 -40 20 -49 54 -53 188
l-3 117 37 0 38 0 0 -119z m935 89 c17 -18 17 -21 1 -45 -18 -27 -35 -32 -54
-13 -24 24 -8 78 23 78 7 0 20 -9 30 -20z m-1 -206 c19 -18 21 -45 4 -62 -39
-39 -100 17 -63 58 22 24 38 25 59 4z m2725 -1947 c31 -51 120 -130 176 -158
43 -20 65 -24 150 -24 93 -1 100 -2 103 -22 3 -23 -36 -57 -135 -117 -129 -77
-347 -166 -408 -166 -41 0 -42 27 -3 68 105 111 127 215 83 382 -20 77 -3 96
34 37z m803 -164 c54 -31 73 -67 72 -133 -2 -127 -87 -200 -231 -200 -40 0
-73 3 -73 8 0 12 41 305 46 331 5 23 7 24 80 18 45 -3 87 -13 106 -24z m1395
11 c9 -24 -10 -49 -38 -49 -24 0 -36 23 -25 51 7 19 55 18 63 -2z m940 -145
c74 -218 73 -204 18 -204 -44 0 -46 1 -57 38 l-11 37 -97 0 -97 0 -19 -35
c-16 -31 -44 -55 -44 -38 0 3 19 35 41 71 125 198 191 293 202 290 7 -2 36
-74 64 -159z m259 124 c-3 -21 -16 -102 -28 -180 l-23 -143 -43 0 c-39 0 -42
2 -37 23 3 12 14 80 25 152 31 200 25 185 72 185 l41 0 -7 -37z m-2122 -87
c72 -30 52 -97 -34 -115 -28 -6 -58 -11 -65 -11 -18 0 -21 -61 -5 -91 12 -21
49 -25 83 -8 21 10 21 10 3 -5 -20 -16 -81 -21 -111 -10 -23 9 -45 57 -45 100
0 54 34 119 73 138 40 19 59 20 101 2z m299 4 c43 1 43 0 26 -127 -15 -117
-15 -116 -60 -110 -21 3 -42 1 -45 -4 -3 -5 -24 -9 -48 -9 -32 0 -48 6 -65 24
-21 22 -23 33 -19 88 6 98 62 156 138 142 19 -3 52 -5 73 -4z m311 -15 c6 -11
12 -22 13 -24 1 -1 12 7 25 18 29 28 61 36 87 21 24 -12 25 -35 8 -155 l-12
-80 -33 -3 c-17 -2 -32 0 -32 5 0 4 7 51 15 103 16 108 10 125 -32 94 -25 -18
-30 -32 -42 -112 l-14 -92 -34 0 c-29 0 -33 3 -29 23 3 12 10 57 17 101 13 96
4 114 -40 72 -21 -21 -30 -40 -35 -79 -15 -114 -16 -117 -47 -117 -33 0 -35 7
-19 110 21 138 18 130 50 130 24 0 30 -4 30 -22 l0 -21 23 20 c41 38 83 41
101 8z m570 9 c19 -18 19 -13 5 -111 -17 -126 -16 -123 -51 -123 l-31 0 7 48
c19 133 20 172 3 172 -9 0 -30 -12 -47 -27 -26 -24 -32 -39 -42 -110 l-11 -83
-33 0 c-31 0 -33 1 -28 33 3 17 11 70 17 117 l12 85 34 3 c30 3 33 1 28 -17
-7 -26 -6 -26 39 4 42 29 76 32 98 9z m236 5 c12 -8 10 -9 -7 -4 -37 10 -68
-31 -81 -106 -19 -106 11 -158 66 -112 17 14 24 37 33 108 15 118 14 115 49
115 26 0 30 -3 30 -27 -1 -21 -25 -198 -30 -209 -2 -8 -61 -8 -64 0 -2 7 -8 7
-17 -1 -16 -15 -83 -17 -109 -3 -30 16 -44 73 -30 128 13 56 34 85 75 106 35
18 64 20 85 5z m-1680 -13 c0 -13 4 -13 28 0 15 7 34 14 42 14 8 -1 1 -7 -17
-15 -46 -20 -64 -55 -76 -145 l-11 -80 -34 0 c-34 0 -35 0 -29 38 3 20 11 74
18 120 l11 82 34 0 c23 0 34 -5 34 -14z m1170 -3 c0 -10 -7 -61 -15 -113 -8
-52 -15 -98 -15 -102 0 -5 -13 -8 -30 -8 -35 0 -35 1 -20 117 16 123 16 123
50 123 22 0 30 -5 30 -17z m-1891 -125 c-12 -23 -24 -68 -27 -100 -2 -32 -8
-61 -12 -63 -5 -3 -31 11 -60 30 -29 19 -70 38 -91 41 -21 4 -39 10 -39 14 0
4 19 13 43 20 46 14 141 60 172 84 33 25 37 18 14 -26z"/>
<path d="M6210 16420 c0 -5 7 -6 17 -3 10 4 14 2 10 -4 -5 -7 0 -9 13 -6 30 8
24 20 -10 21 -16 0 -30 -3 -30 -8z"/>
<path d="M8348 16372 c-20 -22 -54 -67 -78 -101 -40 -60 -42 -65 -35 -117 6
-51 5 -55 -33 -106 -45 -61 -66 -97 -59 -105 8 -8 190 103 219 134 39 41 48
72 32 105 -17 33 -65 68 -93 68 -12 0 -21 3 -21 7 0 17 107 143 122 143 4 0
17 -9 28 -20 13 -13 20 -15 20 -7 0 7 -5 18 -12 25 -22 22 -55 13 -90 -26z
m14 -171 c37 -42 35 -64 -9 -111 -37 -38 -161 -115 -171 -106 -2 3 14 28 37
57 44 55 47 65 31 119 -7 25 -7 41 1 57 17 33 75 25 111 -16z"/>
<path d="M6236 16381 c-3 -5 1 -11 9 -14 9 -4 12 -1 8 9 -6 16 -10 17 -17 5z"/>
<path d="M7120 16321 c0 -19 56 -71 76 -71 10 0 14 3 9 8 -6 4 -27 23 -47 41
-21 19 -38 29 -38 22z"/>
<path d="M6911 16308 c0 -7 4 -22 9 -33 7 -17 9 -15 9 13 1 17 -3 32 -9 32 -5
0 -10 -6 -9 -12z"/>
<path d="M6770 16192 c0 -12 19 -26 26 -19 2 2 -2 10 -11 17 -9 8 -15 8 -15 2z"/>
<path d="M6986 15917 c-3 -67 -9 -147 -12 -177 -5 -50 -2 -60 26 -104 38 -60
52 -54 16 7 l-27 45 17 115 c16 112 13 220 -5 232 -5 2 -11 -51 -15 -118z"/>
<path d="M7335 15425 l-60 -13 75 4 c41 2 76 8 78 14 4 12 -15 11 -93 -5z"/>
<path d="M6980 15380 c-22 -7 -21 -8 12 -9 20 -1 40 4 43 9 7 12 -19 12 -55 0z"/>
<path d="M6591 16681 c-12 -16 -21 -35 -21 -43 0 -10 3 -9 10 2 5 8 10 11 10
6 0 -5 11 1 24 13 14 13 22 29 19 37 -8 21 -19 17 -42 -15z m19 -17 c-18 -21
-24 -10 -8 15 7 12 14 17 16 11 2 -6 -2 -17 -8 -26z"/>
<path d="M6731 16684 c0 -11 3 -14 6 -6 3 7 2 16 -1 19 -3 4 -6 -2 -5 -13z"/>
<path d="M6530 16598 l-23 -33 28 27 c16 15 26 30 23 33 -3 4 -16 -9 -28 -27z"/>
<path d="M9147 15294 c-68 -16 -196 -81 -247 -124 -37 -32 -26 -40 18 -13 17
10 22 11 15 3 -27 -29 -11 -30 30 -2 103 71 214 112 302 112 77 0 89 10 33 27
-53 16 -77 15 -151 -3z"/>
<path d="M8579 14226 c-53 -19 -108 -55 -126 -82 -20 -31 -8 -46 13 -16 23 34
94 70 149 77 68 9 128 -8 175 -51 74 -67 91 -149 51 -255 -15 -41 -16 -49 -5
-34 95 120 30 316 -119 360 -61 18 -90 18 -138 1z"/>
<path d="M8409 14114 c-7 -9 -16 -41 -20 -73 -8 -70 11 -138 47 -172 l27 -24
-29 44 c-35 54 -45 146 -21 204 17 41 16 45 -4 21z"/>
<path d="M10875 14080 c-3 -6 1 -7 9 -4 18 7 21 14 7 14 -6 0 -13 -4 -16 -10z"/>
<path d="M10700 13989 c-116 -61 -232 -130 -227 -136 3 -2 38 16 78 40 41 24
110 63 154 86 70 38 109 62 95 60 -3 0 -48 -22 -100 -50z"/>
<path d="M10380 13806 c-203 -116 -256 -148 -265 -158 -5 -6 6 -2 25 8 220
125 336 196 318 194 -2 0 -37 -20 -78 -44z"/>
<path d="M9885 13520 c-3 -6 1 -7 9 -4 18 7 21 14 7 14 -6 0 -13 -4 -16 -10z"/>
<path d="M9495 13310 c-27 -16 -46 -30 -42 -30 4 0 31 13 60 30 29 16 48 30
42 30 -5 0 -32 -14 -60 -30z"/>
<path d="M9420 13270 c-9 -6 -10 -10 -3 -10 6 0 15 5 18 10 8 12 4 12 -15 0z"/>
<path d="M9340 13225 c-14 -8 -20 -14 -14 -15 5 0 19 7 30 15 24 18 16 19 -16
0z"/>
<path d="M12911 12294 c0 -11 3 -14 6 -6 3 7 2 16 -1 19 -3 4 -6 -2 -5 -13z"/>
<path d="M12881 11704 c1 -76 5 -150 9 -164 5 -14 7 43 3 135 -3 88 -7 162 -9
164 -2 2 -4 -58 -3 -135z"/>
<path d="M12912 11550 c0 -17 4 -30 9 -30 11 0 12 47 1 54 -5 3 -9 -8 -10 -24z"/>
<path d="M10430 9333 c0 -6 8 -17 18 -24 16 -13 16 -13 2 6 -8 11 -16 22 -17
24 -2 2 -3 0 -3 -6z"/>
<path d="M10410 9314 c0 -13 18 -39 24 -34 2 3 -2 14 -10 24 -8 11 -14 16 -14
10z"/>
<path d="M6864 15064 c3 -9 9 -28 12 -42 3 -15 12 -44 20 -65 8 -20 14 -49 14
-62 0 -18 5 -25 19 -25 15 0 18 5 13 22 -5 19 -4 20 10 8 17 -16 13 -40 -7
-40 -20 0 -26 -28 -8 -34 9 -4 18 -4 21 -1 3 3 0 5 -6 5 -7 0 -12 5 -12 10 0
6 15 10 33 11 19 0 26 3 17 7 -14 6 -16 19 -11 61 1 11 7 8 25 -8 24 -22 66
-23 66 0 0 5 5 9 11 9 8 0 7 -5 -1 -15 -7 -9 -10 -19 -6 -22 4 -4 11 -2 15 5
4 7 15 10 24 6 10 -3 17 -1 17 6 0 6 -4 8 -10 5 -5 -3 -10 -2 -10 4 0 5 -10
13 -22 16 -13 4 -33 16 -45 27 -12 11 -29 18 -37 15 -9 -4 -15 -3 -15 1 4 25
-3 33 -22 27 -13 -5 -19 -3 -15 3 3 5 -13 26 -37 46 -45 39 -63 45 -53 20z
m62 -93 c-4 -5 -1 -11 6 -13 8 -3 6 -7 -5 -11 -17 -6 -24 12 -10 26 9 10 15 8
9 -2z m42 -32 c-3 -8 -7 -3 -11 10 -4 17 -3 21 5 13 5 -5 8 -16 6 -23z m-41
-46 c-3 -10 -5 -4 -5 12 0 17 2 24 5 18 2 -7 2 -21 0 -30z m126 20 c-3 -7 -9
-10 -14 -7 -14 8 -11 21 5 21 8 0 12 -6 9 -14z"/>
<path d="M7240 14890 c0 -5 5 -10 10 -10 6 0 10 5 10 10 0 6 -4 10 -10 10 -5
0 -10 -4 -10 -10z"/>
<path d="M6990 14880 c0 -5 5 -10 11 -10 5 0 7 5 4 10 -3 6 -8 10 -11 10 -2 0
-4 -4 -4 -10z"/>
<path d="M7175 14875 c-40 -13 -40 -13 -9 -14 17 -1 37 6 44 14 7 8 11 15 9
14 -2 -1 -22 -7 -44 -14z"/>
<path d="M7035 14861 c-6 -11 13 -26 22 -17 4 3 1 6 -6 6 -7 0 -9 5 -6 10 3 6
4 10 1 10 -3 0 -7 -4 -11 -9z"/>
<path d="M6970 14830 c0 -5 15 -10 33 -9 27 0 29 2 12 9 -28 12 -45 12 -45 0z"/>
<path d="M8207 15234 c-72 -84 -304 -242 -494 -338 -111 -55 -159 -95 -173
-144 -6 -20 -19 -100 -30 -177 -11 -77 -23 -151 -26 -163 -2 -13 -1 -21 4 -18
5 3 14 45 21 93 26 193 44 274 63 299 25 31 60 53 203 129 270 143 439 268
468 348 9 24 7 22 -36 -29z"/>
<path d="M8166 15131 c8 -8 43 -8 38 0 -2 4 -13 7 -24 6 -10 -1 -17 -3 -14 -6z"/>
<path d="M8120 15100 c0 -5 6 -10 13 -10 8 0 7 -3 -3 -9 -8 -6 -17 -8 -20 -6
-3 2 -6 -5 -6 -16 0 -10 6 -19 14 -19 7 0 11 4 8 8 -3 5 3 14 14 22 15 11 16
15 5 27 -16 16 -25 17 -25 3z"/>
<path d="M8067 15059 c7 -7 15 -10 18 -7 3 3 -2 9 -12 12 -14 6 -15 5 -6 -5z"/>
<path d="M8155 15059 c-4 -6 -5 -12 -2 -15 2 -3 7 2 10 11 7 17 1 20 -8 4z"/>
<path d="M8128 14953 c-10 -2 -18 -11 -18 -18 0 -23 16 -25 33 -4 26 29 23 32
-15 22z"/>
<path d="M8170 14906 c0 -20 0 -39 0 -43 0 -4 13 -8 30 -9 16 -1 27 2 24 7 -3
5 -12 9 -20 9 -9 0 -14 10 -14 29 0 17 -4 33 -10 36 -6 4 -10 -8 -10 -29z"/>
<path d="M8131 14886 c-10 -12 -8 -13 8 -9 12 3 21 9 21 14 0 14 -16 11 -29
-5z"/>
<path d="M8140 14862 c0 -7 8 -21 17 -30 14 -14 14 -17 2 -20 -8 -1 -20 -12
-28 -24 l-13 -21 29 22 c59 44 66 51 59 58 -4 4 -11 1 -17 -7 -8 -13 -12 -11
-29 10 -11 14 -20 19 -20 12z"/>
<path d="M5725 15050 c-3 -5 -2 -10 4 -10 5 0 13 5 16 10 3 6 2 10 -4 10 -5 0
-13 -4 -16 -10z"/>
<path d="M5693 15017 c-4 -7 -28 -21 -53 -32 -25 -10 -52 -24 -60 -30 -8 -6
-73 -40 -143 -75 -71 -36 -136 -72 -145 -81 -9 -8 -25 -18 -34 -22 -40 -15
-216 -133 -257 -171 -58 -55 -83 -96 -116 -191 -25 -74 -28 -91 -26 -220 2
-246 11 -287 66 -314 35 -17 115 -21 115 -6 0 6 3 5 8 -1 4 -6 22 -11 39 -10
36 1 46 17 58 90 8 46 43 126 56 126 4 0 -1 -21 -11 -46 -22 -50 -28 -174 -9
-174 6 0 9 -6 7 -12 -6 -17 14 -36 46 -44 23 -5 34 1 76 43 27 28 57 66 65 86
8 21 19 37 25 37 5 0 12 21 16 46 6 42 4 49 -17 65 -13 10 -34 19 -46 19 -21
0 -72 -18 -83 -30 -3 -3 -14 -12 -24 -20 -18 -14 -18 -14 -6 6 20 32 75 65
117 71 34 4 43 1 69 -26 l31 -32 7 73 c16 164 50 326 70 343 7 6 15 21 19 35
3 14 12 47 21 73 8 26 11 45 7 42 -5 -3 -7 4 -4 15 3 11 9 20 14 20 5 0 6 7 3
15 -4 8 -1 15 6 15 7 0 10 7 6 15 -3 8 -1 15 4 15 5 0 12 17 16 38 4 20 20 66
36 102 16 35 26 70 23 78 -3 8 0 10 7 6 7 -5 9 -2 5 8 -3 9 1 24 8 35 8 10 15
21 15 26 0 12 -18 8 -27 -6z"/>
<path d="M7620 14090 c-18 -12 -2 -12 25 0 13 6 15 9 5 9 -8 0 -22 -4 -30 -9z"/>
<path d="M7814 14071 c-43 -26 -74 -73 -74 -112 0 -69 81 -129 156 -114 44 8
100 57 114 100 33 99 -100 184 -196 126z m155 -38 c28 -29 32 -40 27 -66 -9
-47 -67 -97 -112 -97 -47 0 -90 26 -109 66 -20 43 -19 47 12 85 57 67 125 72
182 12z"/>
<path d="M6610 13790 c0 -5 5 -10 10 -10 6 0 10 5 10 10 0 6 -4 10 -10 10 -5
0 -10 -4 -10 -10z"/>
<path d="M6571 13554 c0 -11 3 -14 6 -6 3 7 2 16 -1 19 -3 4 -6 -2 -5 -13z"/>
<path d="M5981 11074 c0 -11 3 -14 6 -6 3 7 2 16 -1 19 -3 4 -6 -2 -5 -13z"/>
<path d="M11548 13603 c7 -3 16 -2 19 1 4 3 -2 6 -13 5 -11 0 -14 -3 -6 -6z"/>
<path d="M11740 12950 c0 -5 5 -10 11 -10 5 0 7 5 4 10 -3 6 -8 10 -11 10 -2
0 -4 -4 -4 -10z"/>
<path d="M9807 12920 c-35 -28 -52 -83 -37 -119 11 -26 30 -41 73 -55 44 -14
107 52 107 111 0 70 -86 108 -143 63z m108 -15 c32 -31 31 -56 -1 -94 -33 -39
-74 -41 -109 -6 -28 27 -30 37 -14 68 30 58 85 72 124 32z"/>
<path d="M11156 10636 c3 -9 11 -16 16 -16 13 0 5 23 -10 28 -7 2 -10 -2 -6
-12z"/>
<path d="M11200 10630 c0 -5 4 -10 9 -10 6 0 13 5 16 10 3 6 -1 10 -9 10 -9 0
-16 -4 -16 -10z"/>
<path d="M10880 10620 c0 -5 5 -10 11 -10 5 0 7 5 4 10 -3 6 -8 10 -11 10 -2
0 -4 -4 -4 -10z"/>
<path d="M5150 11249 c0 -5 5 -7 10 -4 6 3 10 8 10 11 0 2 -4 4 -10 4 -5 0
-10 -5 -10 -11z"/>
<path d="M8501 11620 c-18 -33 -20 -44 -12 -72 l11 -33 -6 38 c-3 22 -1 37 6
37 5 0 9 3 8 8 -1 4 4 18 11 30 7 13 11 26 9 28 -3 2 -14 -14 -27 -36z"/>
<path d="M10076 10667 c-18 -47 -20 -67 -8 -67 9 0 37 99 30 106 -3 2 -13 -15
-22 -39z"/>
<path d="M10111 10614 c0 -11 3 -14 6 -6 3 7 2 16 -1 19 -3 4 -6 -2 -5 -13z"/>
<path d="M8250 11040 c0 -5 -7 -10 -17 -10 -9 0 -14 -3 -10 -6 10 -10 58 5 52
16 -8 13 -25 13 -25 0z"/>
<path d="M7432 10510 c0 -14 2 -19 5 -12 2 6 2 18 0 25 -3 6 -5 1 -5 -13z"/>
<path d="M7423 10430 c0 -25 2 -35 4 -22 2 12 2 32 0 45 -2 12 -4 2 -4 -23z"/>
<path d="M4590 10285 c7 -9 15 -13 17 -11 7 7 -7 26 -19 26 -6 0 -6 -6 2 -15z"/>
<path d="M4631 10253 c7 -12 15 -20 18 -17 3 2 -3 12 -13 22 -17 16 -18 16 -5
-5z"/>
<path d="M3821 9894 c0 -11 3 -14 6 -6 3 7 2 16 -1 19 -3 4 -6 -2 -5 -13z"/>
<path d="M3948 6488 c5 -5 16 -8 23 -6 8 3 3 7 -10 11 -17 4 -21 3 -13 -5z"/>
<path d="M3988 6472 c-17 -7 -17 -8 0 -18 15 -10 18 -8 18 7 0 11 0 19 -1 18
0 0 -8 -4 -17 -7z"/>
<path d="M10481 5500 c1 -34 14 -66 22 -53 4 6 0 26 -8 44 -13 31 -14 32 -14
9z"/>
<path d="M10630 5506 c0 -9 5 -16 10 -16 6 0 10 4 10 9 0 6 -4 13 -10 16 -5 3
-10 -1 -10 -9z"/>
<path d="M10401 5214 c0 -11 3 -14 6 -6 3 7 2 16 -1 19 -3 4 -6 -2 -5 -13z"/>
<path d="M10505 5088 c3 -16 1 -28 -4 -28 -5 0 -9 -8 -9 -17 0 -10 -2 -31 -6
-48 -3 -16 3 -5 14 25 16 42 18 60 10 75 -9 17 -10 16 -5 -7z"/>
<path d="M5136 5435 c4 -8 8 -15 10 -15 2 0 4 7 4 15 0 8 -4 15 -10 15 -5 0
-7 -7 -4 -15z"/>
<path d="M5115 5410 c3 -5 8 -10 11 -10 2 0 4 5 4 10 0 6 -5 10 -11 10 -5 0
-7 -4 -4 -10z"/>
<path d="M5105 5321 c-3 -5 -1 -12 5 -16 5 -3 10 1 10 9 0 18 -6 21 -15 7z"/>
<path d="M12097 3792 c-15 -53 -27 -100 -27 -104 0 -5 28 -8 61 -8 58 0 61 1
56 22 -28 104 -53 188 -57 188 -3 0 -17 -44 -33 -98z"/>
<path d="M6008 3875 c-1 -63 -2 -127 -2 -142 -1 -23 3 -27 19 -25 11 2 33 16
48 31 22 21 29 40 34 83 11 104 -17 168 -72 168 l-25 0 -2 -115z"/>
<path d="M7724 3829 c-14 -23 -17 -148 -4 -179 15 -36 39 -36 57 0 15 30 17
128 3 164 -10 27 -43 35 -56 15z"/>
<path d="M7671 3436 c-20 -24 -9 -69 19 -83 43 -22 108 -16 135 12 29 28 31
47 9 69 -21 21 -146 22 -163 2z"/>
<path d="M1578 3829 c-17 -9 -38 -66 -38 -102 0 -15 7 -18 38 -15 l37 3 3 51
c3 56 -11 79 -40 63z"/>
<path d="M2223 3663 c-34 -33 -40 -55 -23 -97 10 -28 47 -36 56 -12 3 7 4 42
2 77 l-3 64 -32 -32z"/>
<path d="M2880 3653 c-39 -49 -9 -140 34 -104 11 10 16 31 16 72 0 67 -15 77
-50 32z"/>
<path d="M4077 3828 c-13 -11 -36 -78 -37 -111 0 -5 19 -7 43 -5 l42 3 -3 50
c-4 59 -20 82 -45 63z"/>
<path d="M6346 3779 c-18 -60 -15 -69 23 -69 41 0 55 21 47 75 -6 39 -10 45
-31 45 -20 0 -27 -8 -39 -51z"/>
<path d="M7082 3827 c-9 -11 -31 -86 -32 -110 0 -5 17 -7 38 -5 36 3 37 4 40
45 5 63 -21 101 -46 70z"/>
<path d="M8397 3670 c-30 -24 -44 -78 -28 -109 13 -23 49 -29 56 -8 9 31 15
137 7 137 -5 0 -21 -9 -35 -20z"/>
<path d="M8726 3798 c-2 -7 -7 -68 -10 -134 -6 -130 1 -153 42 -140 27 9 43
51 49 131 7 94 -11 149 -50 153 -16 2 -29 -2 -31 -10z"/>
<path d="M9074 3667 c-32 -27 -46 -64 -37 -97 7 -28 34 -33 55 -12 15 15 18
31 16 77 l-3 58 -31 -26z"/>
<path d="M10252 3828 c-9 -12 -31 -87 -32 -111 0 -5 17 -7 38 -5 l37 3 0 60
c0 47 -3 60 -16 63 -9 1 -21 -3 -27 -10z"/>
<path d="M11082 3657 c-39 -41 -23 -128 21 -112 8 4 17 23 21 43 15 92 1 115
-42 69z"/>
<path d="M11616 3659 c-29 -34 -33 -75 -12 -105 12 -15 18 -17 33 -8 14 9 19
26 21 78 2 37 -1 66 -7 66 -5 0 -21 -14 -35 -31z"/>
<path d="M12865 3666 c-13 -13 -27 -36 -31 -51 -8 -31 10 -75 30 -75 24 0 36
25 42 89 8 69 -1 77 -41 37z"/>
<path d="M7670 2945 c-16 -20 -8 -96 14 -130 23 -35 61 -33 81 5 17 33 20 93
5 121 -13 24 -81 27 -100 4z"/>
<path d="M6526 3008 c-8 -13 -17 -33 -21 -45 -6 -22 -4 -23 51 -23 l57 0 -7
33 c-11 55 -55 74 -80 35z"/>
<path d="M11341 559 c-13 -88 -21 -163 -18 -166 10 -9 74 17 94 40 50 54 74
149 53 211 -13 41 -53 76 -85 76 -21 0 -23 -9 -44 -161z"/>
<path d="M13645 557 c-27 -45 -51 -85 -53 -89 -2 -5 35 -8 83 -8 66 0 86 3 82
13 -2 6 -14 47 -27 90 -13 42 -26 77 -29 77 -3 -1 -28 -38 -56 -83z"/>
<path d="M11877 597 c-8 -13 -20 -40 -25 -60 -9 -32 -8 -37 6 -37 26 0 79 36
84 57 14 54 -36 84 -65 40z"/>
<path d="M12157 608 c-26 -20 -47 -83 -47 -142 0 -67 7 -86 30 -86 41 0 60 32
74 125 7 50 11 93 7 96 -14 15 -48 18 -64 7z"/>
<path d="M2675 9880 c-3 -5 -1 -10 4 -10 6 0 11 5 11 10 0 6 -2 10 -4 10 -3 0
-8 -4 -11 -10z"/>
<path d="M2563 9863 c-7 -3 -13 -9 -13 -15 0 -6 8 -7 18 -4 13 5 12 2 -4 -11
-36 -30 -60 -142 -34 -158 6 -3 10 -17 10 -30 0 -13 5 -27 12 -31 7 -5 9 -2 5
9 -4 11 -2 14 8 10 8 -3 12 -9 9 -14 -3 -5 17 -8 45 -8 52 2 120 -29 160 -72
11 -12 24 -18 30 -14 7 3 11 3 10 -2 -3 -18 2 -29 26 -57 30 -34 34 -20 5 17
-11 14 -20 29 -20 33 0 4 9 -1 20 -11 11 -10 20 -24 20 -32 0 -8 5 -11 12 -7
7 4 8 3 4 -5 -10 -15 83 -103 102 -96 8 3 10 0 6 -7 -5 -7 -2 -9 9 -5 10 4 14
2 12 -6 -3 -7 13 -31 35 -55 22 -24 40 -47 40 -51 0 -5 6 -11 14 -14 10 -4 12
0 9 14 -3 10 -9 19 -14 19 -5 0 -9 6 -9 14 0 14 29 30 38 21 3 -3 2 -5 -3 -5
-4 0 4 -10 19 -21 15 -12 25 -28 22 -35 -7 -18 8 -18 23 0 10 11 2 21 -36 52
-85 68 -246 207 -303 260 -105 100 -208 167 -238 157 -7 -3 -19 1 -27 7 -12
10 -15 10 -15 0 0 -6 -6 -10 -12 -7 -16 5 -11 42 9 82 26 49 33 65 33 69 0 7
-25 13 -37 9z m417 -487 c0 -6 -7 -1 -15 10 -8 10 -15 23 -15 28 0 6 7 1 15
-10 8 -10 15 -23 15 -28z m111 -71 c1 -17 -18 -17 -25 0 -4 11 -1 15 10 13 8
-2 15 -7 15 -13z"/>
<path d="M2627 9812 c-19 -20 -23 -37 -7 -27 10 6 33 45 27 45 -2 0 -11 -8
-20 -18z"/>
<path d="M2590 9770 c0 -5 5 -10 11 -10 5 0 7 5 4 10 -3 6 -8 10 -11 10 -2 0
-4 -4 -4 -10z"/>
<path d="M2737 9686 c24 -14 107 -76 185 -138 162 -129 213 -166 207 -151 -2
6 -38 37 -79 69 -41 32 -111 88 -155 125 -104 86 -153 119 -179 119 -16 0 -10
-6 21 -24z"/>
<path d="M3262 9396 c7 -8 17 -12 22 -9 4 3 2 9 -5 14 -22 13 -31 11 -17 -5z"/>
<path d="M3300 9383 c0 -5 14 -19 30 -31 17 -13 30 -19 29 -15 0 11 -59 56
-59 46z"/>
<path d="M3140 9366 c0 -2 7 -7 16 -10 8 -3 12 -2 9 4 -6 10 -25 14 -25 6z"/>
<path d="M3187 9334 c3 -7 9 -14 14 -14 14 0 10 17 -5 23 -10 4 -13 1 -9 -9z"/>
<path d="M3237 9339 c7 -7 15 -10 18 -7 3 3 -2 9 -12 12 -14 6 -15 5 -6 -5z"/>
<path d="M3370 9320 c0 -5 5 -10 10 -10 6 0 10 5 10 10 0 6 -4 10 -10 10 -5 0
-10 -4 -10 -10z"/>
<path d="M3450 9101 c0 -5 5 -13 10 -16 6 -3 10 -2 10 4 0 5 -4 13 -10 16 -5
3 -10 2 -10 -4z"/>
<path d="M3296 9035 c10 -8 26 -14 34 -14 11 0 10 3 -4 14 -11 8 -27 15 -35
15 -11 0 -10 -4 5 -15z"/>
<path d="M3353 9035 c0 -8 6 -15 13 -15 20 0 26 17 8 24 -21 8 -21 8 -21 -9z"/>
<path d="M3417 9025 c-11 -16 -13 -23 -5 -20 15 6 42 45 31 45 -5 0 -16 -12
-26 -25z"/>
<path d="M3450 9000 c0 -5 5 -10 11 -10 5 0 7 5 4 10 -3 6 -8 10 -11 10 -2 0
-4 -4 -4 -10z"/>
<path d="M3370 8974 c0 -8 5 -12 10 -9 6 3 10 10 10 16 0 5 -4 9 -10 9 -5 0
-10 -7 -10 -16z"/>
<path d="M3440 8961 c0 -4 23 -40 50 -80 28 -40 50 -74 50 -76 0 -11 114 -185
121 -185 13 0 11 7 -8 37 -10 15 -12 24 -5 20 7 -5 12 -3 12 5 -1 15 -50 98
-50 84 0 -5 -23 24 -52 65 -29 41 -51 76 -51 79 1 3 -7 8 -17 12 -12 4 -17 13
-14 21 3 9 -3 16 -15 20 -12 3 -21 2 -21 -2z"/>
<path d="M3546 8957 c3 -10 9 -15 12 -12 3 3 0 11 -7 18 -10 9 -11 8 -5 -6z"/>
<path d="M3515 8950 c3 -5 8 -10 11 -10 2 0 4 5 4 10 0 6 -5 10 -11 10 -5 0
-7 -4 -4 -10z"/>
<path d="M3410 8926 c0 -2 8 -10 18 -17 15 -13 16 -12 3 4 -13 16 -21 21 -21
13z"/>
<path d="M3530 8925 c0 -5 5 -17 10 -25 5 -8 10 -10 10 -5 0 6 -5 17 -10 25
-5 8 -10 11 -10 5z"/>
<path d="M3601 8855 c37 -71 105 -175 114 -175 4 0 -123 209 -145 240 -6 8 8
-21 31 -65z"/>
<path d="M3440 8885 c0 -5 5 -17 10 -25 5 -8 10 -10 10 -5 0 6 -5 17 -10 25
-5 8 -10 11 -10 5z"/>
<path d="M3470 8842 c0 -7 6 -22 13 -34 18 -32 47 -63 47 -51 0 6 -7 16 -15
23 -8 7 -15 18 -15 24 -1 15 -30 53 -30 38z"/>
<path d="M3850 8546 c0 -8 -6 -21 -14 -29 -14 -14 -16 -40 -4 -52 6 -6 38 67
38 85 0 6 -4 10 -10 10 -5 0 -10 -6 -10 -14z"/>
<path d="M3691 8504 c-1 -12 8 -32 19 -45 17 -20 19 -20 12 -4 -6 11 -15 31
-20 45 -10 23 -11 23 -11 4z"/>
<path d="M3755 8440 c3 -5 8 -10 11 -10 2 0 4 5 4 10 0 6 -5 10 -11 10 -5 0
-7 -4 -4 -10z"/>
</g>
</svg>
