<?xml version="1.0" standalone="no"?>
<!DOCTYPE svg PUBLIC "-//W3C//DTD SVG 20010904//EN"
 "http://www.w3.org/TR/2001/REC-SVG-20010904/DTD/svg10.dtd">
<svg version="1.0" xmlns="http://www.w3.org/2000/svg"
 width="2048.000000pt" height="2048.000000pt" viewBox="0 0 2048.000000 2048.000000"
 preserveAspectRatio="xMidYMid meet">

<g transform="translate(0.000000,2048.000000) scale(0.100000,-0.100000)"
fill="#000000" stroke="none">
<path d="M11370 19660 c-114 -13 -260 -46 -376 -85 -105 -35 -354 -151 -354
-165 0 -4 -11 -12 -25 -18 -14 -6 -25 -18 -25 -27 0 -8 -6 -25 -12 -36 -11
-18 -10 -23 14 -42 18 -15 26 -29 23 -42 -4 -15 6 -27 42 -51 61 -40 86 -46
114 -26 37 26 181 93 187 87 3 -3 -4 -29 -16 -58 -53 -132 -205 -672 -262
-932 -41 -187 -52 -314 -30 -355 11 -20 10 -25 -6 -37 -10 -7 -38 -13 -64 -13
-45 0 -90 -21 -90 -41 0 -6 -10 -19 -22 -30 l-23 -19 29 -24 c20 -17 24 -25
15 -29 -11 -4 -8 -11 10 -26 13 -12 29 -21 37 -21 8 0 14 -5 14 -10 0 -6 17
-18 38 -28 20 -9 40 -21 43 -26 4 -5 25 -4 50 2 38 10 44 9 57 -9 17 -24 27
-24 52 1 12 12 65 32 128 49 246 67 519 189 720 321 114 76 234 200 274 287
54 115 36 231 -50 321 -58 61 -119 97 -223 131 l-80 27 121 79 c152 99 280
227 331 330 48 98 52 183 13 263 -35 73 -113 149 -187 185 -119 58 -309 85
-467 67z m90 -94 c0 -2 -7 -6 -15 -10 -8 -3 -15 -1 -15 4 0 6 7 10 15 10 8 0
15 -2 15 -4z m78 -3 c-10 -2 -28 -2 -40 0 -13 2 -5 4 17 4 22 1 32 -1 23 -4z
m95 0 c-7 -2 -19 -2 -25 0 -7 3 -2 5 12 5 14 0 19 -2 13 -5z m12 -153 c80 -12
111 -35 121 -87 8 -44 -1 -63 -74 -154 -59 -74 -181 -178 -299 -257 -72 -49
-272 -156 -278 -150 -3 2 32 110 76 239 88 259 89 270 30 305 -17 10 -30 23
-28 29 5 14 183 62 271 73 98 13 102 13 181 2z m229 -255 c-4 -8 -11 -15 -16
-15 -6 0 -5 6 2 15 7 8 14 15 16 15 2 0 1 -7 -2 -15z m-104 -130 c-20 -24
-150 -128 -155 -123 -4 3 154 136 164 137 2 1 -2 -6 -9 -14z m-210 -165 c0 -5
-5 -10 -11 -10 -5 0 -7 5 -4 10 3 6 8 10 11 10 2 0 4 -4 4 -10z m-30 -20 c0
-5 -5 -10 -11 -10 -5 0 -7 5 -4 10 3 6 8 10 11 10 2 0 4 -4 4 -10z m99 -313
c164 -82 46 -231 -334 -417 -191 -94 -402 -183 -409 -172 -6 11 21 128 65 277
22 77 49 169 59 205 13 48 22 66 36 68 56 8 184 34 219 43 131 33 292 32 364
-4z m-848 -94 c-8 -15 -10 -15 -11 -2 0 17 10 32 18 25 2 -3 -1 -13 -7 -23z
m-26 -112 c-4 -28 -11 -53 -16 -57 -12 -7 -11 4 3 65 14 64 22 59 13 -8z m-18
-88 c-3 -10 -11 -42 -18 -70 -7 -29 -16 -53 -21 -53 -4 0 -6 6 -3 13 2 6 9 38
15 70 6 31 16 57 21 57 6 0 8 -8 6 -17z m113 -18 c0 -8 -4 -15 -10 -15 -5 0
-7 7 -4 15 4 8 8 15 10 15 2 0 4 -7 4 -15z m835 -5 c-3 -5 -16 -15 -28 -21
-22 -12 -22 -12 -3 10 19 21 43 30 31 11z m-851 -64 c-3 -15 -8 -25 -11 -23
-2 3 -1 17 3 31 3 15 8 25 11 23 2 -3 1 -17 -3 -31z m746 10 c0 -2 -8 -10 -17
-17 -16 -13 -17 -12 -4 4 13 16 21 21 21 13z m-70 -51 c-7 -9 -29 -23 -49 -32
-20 -10 -56 -29 -81 -43 -58 -33 -159 -74 -166 -67 -3 3 14 13 38 23 24 11 92
45 153 76 126 65 122 63 105 43z m-823 -57 c-3 -8 -6 -5 -6 6 -1 11 2 17 5 13
3 -3 4 -12 1 -19z m893 -8 c0 -5 -5 -10 -11 -10 -5 0 -7 5 -4 10 3 6 8 10 11
10 2 0 4 -4 4 -10z m-61 -43 c-31 -18 -121 -65 -191 -99 -10 -4 -23 -8 -30 -7
-7 0 16 15 52 33 36 18 91 47 124 64 66 36 100 43 45 9z m-319 -45 c0 -11 -46
-32 -68 -32 -10 1 -3 9 18 20 39 21 50 24 50 12z m-90 -42 c0 -5 -7 -10 -16
-10 -8 0 -12 5 -9 10 3 6 10 10 16 10 5 0 9 -4 9 -10z m-70 -24 c0 -3 -4 -8
-10 -11 -5 -3 -10 -1 -10 4 0 6 5 11 10 11 6 0 10 -2 10 -4z m240 -5 c0 -5
-14 -14 -31 -20 -49 -17 -58 -13 -19 8 41 22 50 24 50 12z m-330 -41 c0 -5 -5
-10 -11 -10 -5 0 -7 5 -4 10 3 6 8 10 11 10 2 0 4 -4 4 -10z m216 -15 c-11 -8
-27 -15 -35 -15 -13 1 -12 4 3 15 11 8 27 15 35 15 13 -1 12 -4 -3 -15z m-92
-39 c-11 -8 -34 -17 -50 -20 -25 -5 -23 -3 11 14 47 23 68 26 39 6z m-129 -56
c-11 -5 -27 -9 -35 -9 -9 0 -8 4 5 9 11 5 27 9 35 9 9 0 8 -4 -5 -9z"/>
<path d="M8750 19236 c-39 -22 -88 -89 -101 -139 -16 -63 1 -110 53 -147 77
-56 132 -48 198 26 70 80 83 152 38 209 -40 51 -140 78 -188 51z"/>
<path d="M6668 19203 c-14 -13 -20 -14 -32 -4 -11 10 -17 8 -28 -8 -8 -11
-109 -121 -224 -243 -116 -123 -239 -254 -274 -293 -127 -140 -334 -347 -338
-336 -2 6 19 95 47 198 62 235 118 457 125 503 8 46 -43 140 -75 140 -12 0
-32 9 -46 20 -29 23 -53 26 -70 9 -9 -9 -20 -9 -43 1 -28 11 -33 11 -54 -9
-12 -11 -27 -21 -33 -21 -24 0 -44 -43 -64 -136 -11 -54 -38 -175 -59 -269
-139 -604 -296 -1456 -316 -1717 -9 -111 0 -127 133 -251 21 -20 23 -20 41 -3
19 16 21 16 40 -11 17 -23 24 -26 38 -17 21 12 31 29 39 67 5 26 6 27 29 12
17 -11 26 -13 31 -5 4 6 7 81 7 168 0 154 11 261 45 452 21 125 79 389 85 396
3 2 36 -28 74 -68 248 -264 480 -455 669 -551 150 -77 184 -90 214 -84 15 3
33 1 38 -4 14 -14 100 -22 107 -10 3 5 -22 25 -56 44 -60 34 -119 77 -104 77
4 0 24 -9 46 -20 76 -39 248 -53 199 -17 -9 7 -14 17 -12 23 2 6 -20 23 -49
39 -143 76 -217 142 -686 601 l-206 201 75 68 c247 229 765 770 825 863 39 60
41 68 16 81 -13 7 -17 18 -14 43 5 48 -16 65 -57 44 -16 -9 -33 -20 -36 -26
-12 -19 -26 -11 -16 8 10 19 4 62 -8 62 -4 0 -14 -7 -23 -17z m-338 -516 c0
-2 -10 -12 -22 -23 l-23 -19 19 23 c18 21 26 27 26 19z m-71 -73 c-90 -98
-250 -256 -254 -252 -5 4 264 278 273 278 3 0 -5 -12 -19 -26z m-899 -845
c-16 -124 -81 -513 -86 -518 -10 -11 16 218 41 344 7 39 21 114 31 168 9 53
19 95 21 93 2 -2 -1 -42 -7 -87z m117 -1 c-3 -8 -6 -5 -6 6 -1 11 2 17 5 13 3
-3 4 -12 1 -19z m-11 -75 c-10 -10 -19 5 -10 18 6 11 8 11 12 0 2 -7 1 -15 -2
-18z m-11 -62 c-4 -17 -11 -31 -16 -31 -9 0 -3 43 8 63 10 17 15 -3 8 -32z
m-25 -123 c-6 -29 -15 -89 -21 -132 -5 -44 -12 -82 -15 -85 -14 -15 18 258 34
283 12 20 13 -14 2 -66z m1098 -193 c20 -14 32 -25 27 -25 -12 0 -75 38 -75
45 0 10 11 5 48 -20z m-1141 -57 c-3 -8 -6 -5 -6 6 -1 11 2 17 5 13 3 -3 4
-12 1 -19z m1378 -8 c-3 -5 -10 -10 -16 -10 -5 0 -9 5 -9 10 0 6 7 10 16 10 8
0 12 -4 9 -10z m51 -5 c10 -8 14 -15 7 -15 -19 0 -43 11 -43 21 0 13 14 11 36
-6z"/>
<path d="M16620 18943 c-33 -13 -55 -42 -97 -133 -137 -293 -408 -1090 -395
-1165 5 -34 47 -79 65 -72 10 4 17 13 17 22 0 8 17 44 38 79 20 34 53 93 72
130 19 36 45 79 58 94 23 27 23 27 -1 -18 -14 -25 -53 -99 -87 -165 -34 -66
-66 -124 -71 -130 -14 -14 -11 -35 5 -35 22 0 38 25 264 400 195 326 422 751
422 792 -1 63 -120 188 -185 194 -16 2 -43 5 -60 8 -16 3 -37 3 -45 -1z m-322
-948 c-6 -14 -13 -23 -15 -21 -5 5 15 46 22 46 3 0 -1 -11 -7 -25z m-49 -126
c-17 -40 -35 -85 -40 -98 -5 -13 -12 -21 -16 -18 -3 4 4 27 16 52 11 24 21 48
21 52 0 11 42 94 46 90 2 -1 -10 -37 -27 -78z m-79 -186 c-12 -26 -24 -43 -27
-36 -5 13 36 98 44 90 2 -3 -5 -27 -17 -54z"/>
<path d="M9405 18806 c-148 -69 -309 -272 -421 -531 -49 -114 -55 -122 -113
-167 -34 -27 -66 -48 -70 -48 -4 0 7 87 26 193 38 222 52 401 34 436 -31 57
-153 83 -213 43 -53 -35 -71 -68 -63 -117 4 -31 -2 -85 -19 -172 -14 -71 -37
-191 -51 -268 -60 -323 -169 -693 -279 -951 -83 -193 -97 -206 -141 -131 -36
63 -35 162 4 275 20 57 24 79 14 71 -12 -11 -65 -103 -68 -119 0 -3 -6 -14
-12 -26 -26 -45 -39 -103 -36 -150 3 -36 1 -45 -7 -34 -12 18 -13 100 -1 132
16 43 23 100 11 93 -14 -8 -37 -62 -66 -153 -21 -67 -22 -76 -9 -120 8 -25 12
-48 10 -50 -3 -3 -7 3 -10 12 -14 44 -18 50 -22 39 -9 -24 18 -90 60 -143 55
-70 137 -116 224 -125 53 -6 68 -4 108 16 122 61 233 256 349 609 30 91 71
242 91 335 56 255 50 240 98 276 23 18 57 46 76 63 30 28 33 29 26 9 -15 -52
-8 -157 14 -204 53 -112 182 -178 289 -148 37 10 63 28 123 88 41 42 98 111
126 153 l52 77 6 -32 c16 -82 69 -160 140 -206 33 -21 52 -26 109 -26 l69 0
60 65 c43 47 74 94 109 169 27 56 47 105 44 108 -8 9 -43 -36 -68 -87 -22 -46
-113 -150 -131 -150 -5 0 17 28 48 62 32 34 64 76 71 94 7 17 24 45 37 60 36
45 59 85 53 92 -7 7 -6 8 -76 -78 -72 -89 -127 -148 -156 -167 -23 -15 -26
-15 -42 1 -13 13 -18 39 -20 120 -4 118 19 274 70 478 l32 128 -39 41 c-72 73
-127 89 -147 42 -7 -16 -13 -30 -15 -32 -1 -2 -19 11 -39 28 -47 42 -73 51
-142 51 -39 0 -73 -8 -107 -24z m201 -180 c6 -15 -88 -236 -143 -336 -71 -131
-232 -328 -255 -314 -6 4 -7 29 -3 63 19 157 153 430 262 532 63 60 127 86
139 55z m-133 -451 c-3 -9 -8 -14 -10 -11 -3 3 -2 9 2 15 9 16 15 13 8 -4z
m-51 -87 c-7 -7 -12 -8 -12 -2 0 14 12 26 19 19 2 -3 -1 -11 -7 -17z m-21 -41
c-10 -9 -11 -8 -5 6 3 10 9 15 12 12 3 -3 0 -11 -7 -18z m-910 -335 c-36 -145
-62 -233 -73 -246 -4 -6 -8 -16 -8 -24 0 -32 -136 -350 -146 -340 -2 3 11 41
31 84 49 107 127 340 169 504 39 153 48 179 54 162 2 -7 -10 -69 -27 -140z
m-237 -646 c-3 -9 -10 -16 -15 -16 -6 0 -5 9 1 21 13 24 24 20 14 -5z"/>
<path d="M12444 18808 c-195 -76 -444 -418 -499 -684 -28 -137 12 -233 124
-301 72 -43 126 -51 182 -25 60 26 147 99 215 180 31 37 61 69 65 70 5 2 9
-17 9 -41 0 -31 10 -63 31 -103 40 -76 62 -99 125 -129 53 -25 91 -26 139 -2
43 21 87 75 50 61 -23 -9 -19 -3 44 64 l58 63 12 -48 c17 -67 57 -120 119
-161 143 -91 272 -30 465 220 16 21 16 19 -1 -17 -11 -22 -27 -65 -36 -95 -10
-31 -30 -80 -45 -110 l-27 -55 -190 -95 c-219 -111 -312 -170 -406 -258 -82
-77 -118 -144 -118 -218 0 -132 101 -239 263 -279 127 -32 217 4 352 140 94
93 176 208 237 330 39 77 139 325 160 393 12 40 22 50 113 109 55 36 111 75
124 87 18 16 23 17 18 5 -17 -48 -19 -158 -4 -210 32 -108 135 -189 239 -189
72 0 132 36 232 139 43 45 80 81 82 81 2 0 1 -19 -2 -43 -12 -86 29 -170 110
-224 38 -26 58 -33 98 -33 44 0 59 6 112 44 73 53 216 184 216 198 0 6 -6 5
-15 -2 -9 -7 -18 -10 -21 -7 -3 3 6 13 20 22 27 18 34 35 15 35 -5 0 -37 -22
-69 -48 -79 -63 -181 -118 -205 -109 -48 19 16 260 182 676 44 112 45 115 29
147 -9 19 -30 40 -48 49 -18 9 -43 22 -56 29 -14 8 -35 11 -55 7 -38 -8 -84
-71 -179 -251 -78 -146 -150 -257 -220 -340 -55 -65 -145 -141 -182 -154 -18
-6 -19 -2 -13 61 7 85 39 188 134 425 95 240 96 244 48 297 -24 26 -44 40 -53
36 -8 -3 -26 2 -40 11 -41 27 -82 27 -109 2 -13 -12 -23 -30 -23 -39 0 -10
-14 -45 -30 -78 -32 -63 -138 -322 -145 -356 -18 -85 -29 -98 -146 -176 -63
-42 -115 -75 -117 -74 -2 1 8 36 22 76 13 41 54 173 91 294 36 121 72 241 80
267 25 78 20 105 -25 148 -25 24 -53 40 -77 44 -57 9 -60 8 -67 -19 -4 -14
-11 -25 -16 -25 -5 0 -31 21 -57 48 -48 48 -102 72 -159 72 -193 0 -505 -324
-594 -615 -11 -39 -33 -83 -48 -100 -53 -59 -77 -88 -64 -81 6 4 12 5 12 3 0
-3 -18 -15 -41 -26 -49 -26 -63 -18 -80 43 -21 76 17 268 107 542 43 130 46
143 33 169 -19 38 -76 83 -116 91 -28 6 -34 3 -51 -25 l-19 -32 -18 28 c-56
86 -171 115 -281 71z m212 -193 c8 -20 -82 -186 -179 -329 -98 -145 -249 -297
-272 -275 -9 10 26 130 63 216 70 162 210 343 297 384 48 22 84 24 91 4z
m1047 -96 c12 -7 25 -17 29 -22 9 -14 -90 -210 -160 -317 -97 -150 -271 -303
-301 -266 -30 37 50 252 147 393 64 93 210 223 250 223 7 0 23 -5 35 -11z
m-1495 -314 c-6 -14 -13 -23 -15 -21 -5 5 15 46 22 46 3 0 -1 -11 -7 -25z
m222 -126 c-7 -11 -14 -19 -16 -16 -7 7 7 37 17 37 6 0 5 -9 -1 -21z m560 -67
c0 -11 -11 -24 -25 -30 -39 -18 -41 -15 -10 18 34 35 35 36 35 12z m-670 -46
c0 -2 -8 -10 -17 -17 -16 -13 -17 -12 -4 4 13 16 21 21 21 13z m2447 -298 c-3
-7 -5 -2 -5 12 0 14 2 19 5 13 2 -7 2 -19 0 -25z m-1243 -63 c-4 -8 -8 -15
-10 -15 -2 0 -4 7 -4 15 0 8 4 15 10 15 5 0 7 -7 4 -15z m-105 -62 c-47 -105
-144 -262 -212 -343 -81 -96 -138 -140 -183 -140 -32 0 -37 4 -55 46 -47 106
28 221 236 360 50 34 113 73 140 89 28 15 59 34 70 41 34 24 35 16 4 -53z m62
-40 c-12 -20 -14 -14 -5 12 4 9 9 14 11 11 3 -2 0 -13 -6 -23z m-301 -7 c0 -3
-26 -20 -58 -40 -32 -19 -87 -64 -122 -100 -35 -36 -67 -63 -70 -61 -4 2 -7
-1 -7 -8 -1 -7 -10 -34 -22 -62 -19 -47 -20 -48 -21 -18 0 17 4 34 10 38 5 3
7 11 4 18 -4 13 38 73 74 107 52 49 212 143 212 126z m290 -20 c0 -9 -96 -185
-123 -226 -39 -58 -128 -162 -134 -156 -3 2 21 35 52 73 31 37 60 73 65 80 21
26 120 209 120 220 0 7 5 13 10 13 6 0 10 -2 10 -4z m-380 -476 c0 -5 -5 -10
-11 -10 -5 0 -7 5 -4 10 3 6 8 10 11 10 2 0 4 -4 4 -10z"/>
<path d="M8172 18679 c-62 -31 -143 -108 -192 -184 -23 -36 -45 -65 -48 -65
-2 0 -2 25 1 55 13 126 -21 169 -143 180 -61 6 -67 4 -99 -23 -33 -28 -34 -31
-21 -61 16 -39 2 -130 -71 -478 -5 -24 -13 -63 -17 -87 -9 -45 -24 -65 -172
-228 -30 -33 -68 -69 -85 -81 -21 -14 -14 -4 21 34 92 97 223 273 212 284 -2
3 -47 -39 -98 -91 -157 -158 -344 -284 -423 -284 -37 0 -83 25 -98 52 -13 24
-21 149 -11 165 4 6 25 13 47 17 110 21 289 154 373 280 60 90 86 161 85 241
0 145 -99 238 -235 222 -259 -31 -562 -478 -567 -835 -1 -140 69 -251 200
-317 157 -79 305 -47 467 101 65 59 182 209 241 307 13 21 25 37 27 35 2 -2
-3 -40 -11 -83 -8 -44 -14 -103 -15 -132 0 -44 5 -58 31 -88 17 -19 40 -35 52
-35 11 0 29 -8 39 -17 17 -15 20 -15 35 -1 12 13 20 14 34 5 15 -9 24 -7 46 9
23 18 29 31 35 81 12 111 92 403 139 508 36 82 102 176 167 238 59 55 62 57
104 51 63 -8 89 -8 130 0 69 13 127 86 83 103 -13 5 -13 8 5 20 21 15 20 15
-17 55 -21 21 -50 46 -65 54 -41 21 -135 18 -186 -7z m-939 -242 c9 -25 -13
-111 -48 -185 -37 -78 -111 -164 -182 -212 -39 -26 -43 -27 -43 -10 0 34 138
294 190 358 50 61 73 75 83 49z"/>
<path d="M15515 18421 c-149 -43 -283 -142 -330 -243 -58 -124 -27 -200 150
-373 67 -66 130 -135 139 -153 16 -32 16 -33 -11 -58 -62 -58 -193 -103 -317
-111 -76 -4 -92 -2 -102 12 -10 14 -15 14 -33 3 -23 -14 -26 -24 -11 -33 20
-12 10 -27 -14 -21 -31 8 -54 -17 -36 -39 7 -8 20 -15 30 -15 28 0 31 -11 7
-30 l-22 -18 25 -10 c14 -5 34 -19 44 -31 11 -11 26 -21 34 -21 8 0 39 -12 69
-26 50 -25 61 -26 141 -21 207 14 408 121 471 250 32 66 29 148 -9 224 -30 59
-68 99 -229 242 -95 84 -104 102 -65 142 55 57 230 129 315 129 23 0 25 -27 5
-74 -18 -44 -6 -68 22 -43 11 10 36 22 56 28 49 13 91 69 90 119 -2 75 -65
148 -153 178 -50 17 -196 14 -266 -7z m-272 -1028 c-7 -2 -21 -2 -30 0 -10 3
-4 5 12 5 17 0 24 -2 18 -5z"/>
<path d="M16003 17370 c-70 -51 -93 -151 -53 -229 20 -40 82 -87 100 -76 5 3
18 1 28 -4 37 -19 163 83 178 145 23 93 -68 194 -175 194 -25 0 -50 -9 -78
-30z"/>
<path d="M10493 17210 c-222 -28 -417 -83 -599 -170 -89 -42 -224 -123 -224
-135 0 -2 52 23 116 56 125 63 248 106 409 140 141 30 431 38 576 15 220 -35
400 -121 539 -257 69 -67 160 -187 160 -211 0 -5 -30 17 -67 47 -73 60 -246
151 -353 185 -189 60 -465 85 -666 61 -139 -17 -405 -75 -562 -122 -120 -36
-559 -201 -739 -278 -444 -190 -773 -407 -1041 -686 -269 -280 -423 -567 -467
-870 -16 -112 -19 -221 -6 -229 4 -3 11 30 14 73 9 110 32 217 78 356 142 427
506 776 1197 1144 177 95 374 191 389 191 4 0 -42 -27 -103 -58 -389 -204
-731 -485 -1019 -837 -101 -124 -120 -152 -129 -189 -4 -17 -25 -59 -45 -95
-61 -105 -145 -277 -192 -396 -40 -101 -50 -116 -119 -186 -127 -128 -238
-199 -390 -249 -132 -43 -233 -48 -312 -15 -40 16 -14 -16 35 -43 152 -87 361
-91 566 -12 41 16 76 28 77 27 2 -1 -32 -72 -75 -157 -225 -451 -263 -902 -99
-1183 18 -31 38 -57 44 -57 14 0 129 74 139 90 4 6 -10 0 -31 -14 -22 -14 -56
-32 -77 -41 l-38 -16 -20 45 c-30 68 -42 152 -36 251 10 169 52 321 149 550
74 173 91 196 67 95 -47 -204 -52 -463 -14 -645 14 -66 39 -185 54 -265 50
-251 110 -388 222 -502 37 -37 71 -68 77 -68 6 0 -5 23 -24 51 -19 28 -41 74
-48 103 -20 69 -28 190 -18 251 l8 50 41 -85 c64 -136 253 -410 283 -410 4 0
-12 39 -36 87 -50 99 -55 124 -16 73 15 -19 49 -59 76 -88 l49 -53 -11 -77
c-16 -101 -15 -203 2 -332 23 -166 54 -240 167 -390 63 -83 411 -422 469 -457
79 -47 163 -61 222 -38 14 5 26 -11 64 -87 131 -261 257 -402 564 -631 74 -55
141 -106 148 -112 12 -11 41 -111 42 -146 0 -11 -34 -34 -99 -67 -309 -158
-571 -390 -638 -565 -14 -34 -17 -83 -17 -262 l-1 -220 -105 -38 c-208 -75
-368 -141 -553 -228 -193 -92 -345 -148 -662 -245 -354 -108 -470 -146 -493
-161 -13 -8 -26 -12 -28 -10 -3 3 -9 32 -14 65 -4 32 -15 72 -23 88 -17 32
-95 109 -145 143 -18 13 -39 35 -46 49 -34 65 -161 490 -181 605 -8 45 -31
136 -51 202 -35 116 -36 125 -35 270 0 83 6 254 13 380 8 141 12 406 10 685
-5 685 -28 835 -143 933 -121 104 -289 56 -334 -94 -17 -58 -31 -261 -39 -574
-3 -104 -14 -302 -25 -440 -12 -137 -30 -367 -42 -510 -23 -293 -30 -335 -59
-398 -32 -67 -106 -90 -147 -44 -36 38 -98 175 -176 387 -126 342 -151 407
-267 686 -61 148 -134 325 -162 394 -79 193 -186 418 -228 481 -43 62 -113
115 -167 125 -47 9 -125 -1 -168 -22 -53 -25 -103 -80 -116 -127 -22 -84 -11
-126 151 -537 59 -151 149 -403 200 -560 51 -157 140 -415 198 -575 112 -309
142 -403 142 -447 l0 -27 -94 6 c-90 6 -96 5 -154 -24 -107 -54 -230 -140
-257 -181 -24 -37 -32 -72 -51 -249 -7 -61 -40 -101 -122 -147 -129 -73 -171
-133 -180 -256 -4 -61 1 -81 82 -320 47 -140 111 -343 141 -450 60 -207 139
-428 186 -522 l29 -57 -73 -49 c-145 -98 -189 -173 -218 -370 -22 -150 -32
-195 -70 -322 -51 -169 -48 -164 -147 -189 -122 -29 -288 -114 -392 -199 -135
-110 -271 -257 -308 -332 -46 -94 -81 -270 -157 -790 -34 -232 -37 -247 -67
-290 -56 -79 -347 -453 -654 -840 -401 -505 -432 -565 -384 -755 39 -155 239
-723 455 -1290 59 -154 115 -303 125 -331 76 -216 207 -412 397 -595 183 -176
364 -278 603 -339 147 -38 211 -29 555 80 326 102 486 146 689 186 139 27 140
28 245 97 105 69 506 354 569 404 l32 26 0 -41 c0 -50 -43 -280 -110 -597 -65
-304 -147 -729 -156 -806 l-7 -59 6057 0 6056 0 15 37 c51 122 228 672 240
748 9 52 20 92 30 99 9 7 21 49 31 107 18 108 18 109 -56 449 -17 80 -71 343
-120 585 -160 792 -291 1397 -450 2075 -44 190 -113 485 -151 655 -39 171 -88
377 -109 459 -31 121 -36 154 -28 178 24 67 7 120 -125 382 -70 138 -179 375
-243 526 -238 560 -398 900 -511 1082 -68 110 -176 221 -301 308 -122 86 -357
231 -529 326 -142 79 -829 427 -1123 569 -91 44 -219 111 -285 149 -66 38
-161 93 -210 121 -235 136 -473 243 -601 270 -77 17 -82 20 -107 59 -14 22
-46 60 -71 84 -60 57 -74 99 -141 418 -85 402 -102 440 -235 529 -101 67 -367
172 -491 193 l-44 8 -3 159 c-3 168 7 250 38 320 10 22 26 58 35 80 l17 40 17
-60 c19 -66 33 -96 53 -112 11 -9 13 8 14 92 2 103 29 265 45 265 5 0 9 -6 9
-12 0 -22 21 -90 26 -85 3 2 13 40 24 83 20 83 66 206 127 336 35 76 37 78 87
92 105 31 169 85 334 284 174 209 284 389 326 531 33 111 12 371 -43 546 -18
57 -18 61 -1 85 26 38 87 207 117 327 23 90 28 102 36 82 5 -13 12 -84 15
-158 4 -117 7 -132 18 -116 75 102 122 465 95 725 -7 62 -11 114 -9 115 2 2
39 -30 82 -72 l79 -75 -6 -126 c-4 -94 -2 -121 6 -107 6 11 13 68 15 127 3 60
6 108 9 108 2 0 27 -12 56 -26 38 -20 71 -28 122 -30 l70 -4 -53 16 c-61 17
-115 49 -155 92 l-28 30 12 82 c36 246 -49 528 -250 834 -40 59 -70 110 -68
112 2 3 40 -6 83 -18 106 -30 350 -34 402 -5 17 10 32 21 32 25 0 4 -27 5 -59
4 -79 -5 -167 18 -279 74 -76 37 -111 62 -192 141 -120 115 -172 183 -279 372
-120 210 -207 320 -392 498 -219 209 -590 432 -813 488 -169 43 -323 32 -453
-31 -37 -18 -69 -32 -70 -30 -1 1 -9 46 -17 100 -37 253 -204 428 -502 528
-62 21 -152 45 -201 54 -104 19 -442 27 -550 14z m-708 -496 c-38 -13 -77 -23
-85 -21 -17 4 105 45 135 45 11 0 -11 -11 -50 -24z m2415 -168 c169 -31 375
-128 615 -289 162 -109 361 -293 489 -450 55 -69 182 -265 175 -272 -2 -2 -36
35 -74 83 -91 112 -379 402 -475 478 -390 311 -718 446 -1004 413 -42 -4 -81
-11 -86 -14 -6 -3 -10 -2 -10 3 0 8 84 34 175 55 40 9 121 6 195 -7z m-866
-1578 c-5 -7 -3 -8 5 -4 7 5 20 1 29 -8 9 -9 46 -36 81 -59 72 -47 191 -160
191 -182 0 -7 3 -15 8 -17 11 -4 81 -161 145 -323 107 -274 127 -325 127 -335
0 -5 -20 -7 -48 -3 -113 13 -405 -38 -596 -104 -166 -57 -227 -100 -307 -220
-27 -40 -46 -73 -41 -73 12 0 55 49 81 93 13 20 24 37 27 37 6 0 -28 -72 -49
-103 -19 -28 -18 -45 1 -33 6 3 20 25 31 49 11 23 32 56 47 72 l26 30 -20 -36
c-11 -20 -27 -48 -37 -63 l-18 -27 29 7 c16 4 74 26 129 49 191 80 463 142
662 152 l122 6 10 -26 c9 -23 41 -163 45 -194 1 -9 -42 -14 -164 -17 -464 -14
-783 -168 -925 -449 -18 -37 -37 -88 -41 -113 -6 -41 -9 -45 -28 -39 -104 33
-125 36 -221 31 -119 -6 -241 -41 -304 -87 -24 -17 -44 -29 -44 -27 -74 151
-190 264 -333 322 l-54 22 64 32 c73 36 88 39 106 17 7 -9 27 -26 44 -38 28
-19 29 -19 16 -2 -8 11 -28 30 -43 43 -32 28 -26 41 27 66 82 39 282 210 381
326 38 44 70 78 72 76 12 -11 -182 -307 -253 -386 -30 -34 -53 -64 -50 -67 9
-9 169 131 228 199 154 178 308 440 422 718 45 112 47 113 40 60 -20 -179
-108 -507 -174 -655 -46 -103 -110 -203 -168 -267 -30 -32 -51 -58 -47 -58 4
0 46 27 95 61 144 98 294 277 386 461 135 269 224 604 255 956 9 109 16 142
26 142 8 0 11 -5 7 -12z m2512 -236 c82 -123 145 -252 178 -365 35 -122 60
-347 38 -347 -4 0 -25 57 -46 128 -71 233 -155 486 -185 560 -16 39 -27 72
-23 72 4 0 21 -22 38 -48z m-4050 -429 c-4 -10 -23 -94 -42 -188 -19 -93 -46
-222 -61 -285 l-27 -116 -143 -1 -143 -2 64 83 c35 45 75 101 90 125 15 24 30
41 32 38 5 -5 -14 -46 -26 -57 -41 -37 -60 -108 -31 -118 8 -3 11 0 7 7 -4 6
1 14 11 18 24 9 44 29 36 37 -4 3 1 6 9 6 15 0 32 17 80 80 9 12 20 40 23 61
4 22 11 36 17 33 5 -3 7 -13 3 -23 -4 -11 -3 -13 4 -6 16 16 27 100 12 91 -7
-5 -9 -16 -5 -28 4 -15 3 -18 -6 -13 -11 7 -10 31 4 80 4 11 0 7 -8 -10 -8
-16 -18 -29 -23 -27 -4 1 -8 -1 -8 -5 0 -5 -17 -30 -38 -57 -67 -89 -39 -30
59 119 52 81 98 153 101 161 3 8 7 14 10 14 3 0 2 -8 -1 -17z m2435 -325 c10
-20 23 -40 29 -43 5 -3 10 -10 10 -15 0 -5 -28 8 -62 29 -35 21 -73 41 -84 45
-19 6 -22 16 -27 119 -3 61 -9 123 -12 137 -6 21 38 -61 146 -272z m-2559 60
c-7 -7 -12 -8 -12 -2 0 14 12 26 19 19 2 -3 -1 -11 -7 -17z m346 -130 c-23
-71 -37 -120 -69 -231 l-22 -78 -21 20 c-11 11 -34 24 -49 30 l-28 11 34 43
c40 49 116 167 146 226 12 23 23 41 25 41 2 0 -5 -28 -16 -62z m2186 -69 c50
-17 98 -38 108 -47 19 -20 63 -139 73 -202 7 -43 20 -70 34 -70 13 0 41 59 52
110 l11 53 19 -24 c11 -13 51 -77 90 -142 40 -65 76 -120 80 -123 16 -9 21 23
10 61 -8 31 -8 35 5 24 15 -13 74 -130 74 -148 0 -7 -33 -11 -98 -11 l-97 0
-14 33 c-22 48 -118 139 -191 179 -69 38 -176 74 -257 87 -35 5 -47 11 -44 22
9 30 29 136 36 182 3 26 9 47 12 47 3 0 47 -14 97 -31z m303 -81 c-3 -8 -6 -5
-6 6 -1 11 2 17 5 13 3 -3 4 -12 1 -19z m22 -48 c11 -24 11 -24 -3 -6 -9 11
-16 24 -16 30 0 12 5 7 19 -24z m-3514 -100 c-10 -11 -22 -20 -26 -20 -4 0 2
11 14 24 12 14 24 23 26 20 2 -2 -4 -13 -14 -24z m3128 -59 c97 -25 203 -81
266 -137 55 -50 111 -148 137 -244 27 -97 25 -324 -5 -445 -67 -279 -251 -472
-516 -541 -101 -27 -360 -27 -465 0 -247 63 -415 198 -529 423 -34 66 -66 162
-57 170 9 9 37 -6 35 -19 -5 -41 4 -70 32 -97 17 -17 25 -31 19 -31 -6 0 -8
-4 -5 -10 17 -28 55 10 55 54 0 18 -10 46 -24 64 -22 30 -24 31 -29 12 -3 -13
-10 -18 -21 -14 -21 8 -20 24 2 40 16 12 16 14 -1 31 -14 15 -22 16 -47 6 -35
-13 -35 -13 -48 57 -13 69 0 195 28 270 47 126 163 240 325 320 113 55 177 75
320 101 140 26 415 21 528 -10z m-2529 -28 c-4 -10 -19 -52 -32 -94 l-25 -76
-92 -6 c-90 -6 -258 -38 -302 -57 -13 -5 -23 -7 -23 -3 0 22 94 195 113 207
28 19 189 44 291 45 71 1 77 -1 70 -16z m264 1 c14 -4 21 -12 18 -21 -3 -7
-16 -53 -28 -101 -12 -48 -22 -88 -23 -88 0 -1 -40 7 -90 17 -49 10 -105 19
-122 19 -18 0 -33 2 -33 5 0 3 28 44 62 90 l63 85 65 0 c36 0 75 -3 88 -6z
m-848 -104 c0 -5 -6 -10 -14 -10 -8 0 -18 -5 -22 -11 -4 -8 1 -9 17 -4 13 4
21 5 18 1 -6 -6 5 -80 17 -119 4 -13 -5 -22 -43 -39 -26 -11 -79 -41 -117 -65
-37 -24 -70 -42 -73 -40 -10 11 11 57 26 57 14 0 14 -2 1 -11 -12 -8 -12 -10
-1 -7 8 2 15 11 17 20 1 9 12 27 23 40 12 12 19 28 17 35 -7 17 37 12 44 -5 4
-9 11 -4 20 15 25 47 38 56 45 32 11 -33 18 -14 10 29 -4 28 -12 42 -26 45
-10 3 -19 1 -19 -4 0 -5 -7 -9 -15 -9 -18 0 -18 -1 -5 -34 7 -20 6 -24 -5 -20
-7 3 -11 12 -8 20 3 8 1 14 -5 14 -6 0 -12 -6 -15 -12 -2 -7 -8 -9 -13 -5 -9
9 24 42 76 75 39 24 50 27 50 12z m-40 -56 c0 -3 -7 -12 -15 -20 -16 -17 -18
-14 -9 10 6 15 24 23 24 10z m-122 -86 c-8 -18 -20 -44 -26 -58 -7 -18 -11
-20 -11 -8 -1 20 40 110 47 103 3 -2 -2 -19 -10 -37z m798 12 c98 -13 276 -72
349 -115 33 -20 81 -57 107 -83 79 -77 153 -243 160 -361 3 -40 1 -45 -22 -51
-17 -4 -26 -14 -28 -30 -1 -14 -7 -44 -13 -67 -15 -55 -5 -91 27 -104 23 -8
26 -14 20 -41 -12 -62 -75 -199 -120 -262 -123 -173 -342 -293 -592 -327 -233
-31 -430 35 -625 209 -95 84 -237 330 -274 472 -26 98 -17 243 20 334 45 111
180 233 342 308 72 34 82 31 83 -27 0 -16 4 -37 9 -44 10 -16 13 -8 26 71 7
43 25 56 117 83 64 18 229 43 298 44 25 0 77 -4 116 -9z m3195 -10 c102 -25
182 -51 176 -56 -2 -2 -32 3 -66 12 -35 8 -65 13 -68 11 -2 -3 5 -8 16 -12 27
-8 28 -29 1 -22 -11 3 -18 1 -14 -4 7 -13 48 -11 61 2 6 6 17 8 24 3 9 -5 -1
-12 -31 -20 l-45 -11 38 -8 c20 -4 40 -11 43 -16 7 -11 8 -12 -73 5 -37 8 -85
17 -106 20 -33 6 -37 9 -31 31 4 15 2 25 -5 25 -6 0 -11 -9 -11 -19 0 -11 -4
-22 -9 -25 -6 -4 -9 91 -2 102 3 5 20 2 102 -18z m-127 -12 c3 -13 1 -27 -4
-32 -16 -16 -48 -17 -54 -1 -4 10 -14 13 -34 9 -32 -6 -48 7 -38 31 4 11 22
15 65 15 52 0 59 -2 65 -22z m-84 -52 c0 -9 -30 -14 -35 -6 -4 6 3 10 14 10
12 0 21 -2 21 -4z m458 -47 c-3 -8 -7 -3 -11 10 -4 17 -3 21 5 13 5 -5 8 -16
6 -23z m321 -9 c91 -46 153 -171 191 -384 45 -246 12 -390 -140 -617 -113
-170 -330 -409 -412 -455 -49 -27 -61 -29 -153 -29 -81 0 -106 4 -129 18 -17
12 -32 15 -37 10 -5 -5 -34 -79 -64 -164 -68 -190 -165 -386 -249 -502 -173
-241 -607 -634 -971 -879 -209 -141 -281 -172 -460 -198 -157 -22 -260 -6
-375 57 -166 91 -659 415 -870 572 -143 106 -331 292 -395 391 -99 152 -190
353 -321 710 -55 150 -78 209 -112 290 -3 8 17 -2 45 -22 74 -53 176 -105 257
-130 101 -32 303 -31 426 1 349 93 545 264 651 569 19 56 39 97 50 103 11 5
19 17 19 25 0 8 -4 12 -10 9 -12 -8 -13 37 0 90 5 23 5 44 0 50 -5 6 -15 50
-23 98 l-14 88 30 25 c106 89 311 122 436 71 30 -12 57 -29 62 -37 4 -8 13
-46 19 -85 7 -38 16 -74 20 -80 4 -5 10 -23 14 -39 6 -26 5 -28 -8 -17 -9 8
-16 24 -16 37 0 25 -14 32 -25 13 -7 -11 27 -67 67 -109 13 -14 50 -65 83
-115 78 -116 191 -228 286 -282 198 -112 457 -147 724 -96 297 55 509 277 581
607 9 39 18 135 21 213 l6 142 46 7 c25 4 51 11 58 16 16 13 63 -1 64 -21 6
-89 10 -133 19 -171 5 -25 17 -121 27 -213 14 -142 19 -166 30 -151 17 24 101
221 139 329 19 54 37 90 45 90 8 0 15 9 17 20 4 22 61 85 106 117 69 50 178
63 245 28z m-399 -6 c0 -8 -5 -12 -10 -9 -6 4 -8 11 -5 16 9 14 15 11 15 -7z
m-4306 -79 c3 -8 1 -15 -4 -15 -6 0 -10 7 -10 15 0 8 2 15 4 15 2 0 6 -7 10
-15z m-134 -369 c0 -27 -16 -36 -65 -36 -39 0 -53 23 -22 38 60 29 87 29 87
-2z m-125 4 c-3 -6 1 -17 10 -26 12 -12 13 -19 4 -30 -6 -8 -15 -11 -20 -8
-13 7 -11 74 2 74 5 0 7 -5 4 -10z m1818 -80 c-3 -11 -9 -20 -14 -20 -10 0
-12 33 -3 43 12 12 22 -3 17 -23z m-8 -87 c-11 -46 -18 -46 -29 0 -5 23 -3 27
15 27 18 0 20 -4 14 -27z m-1770 -18 c45 -28 61 -47 92 -107 57 -108 75 -139
110 -191 18 -26 28 -47 23 -47 -5 0 -13 7 -18 16 -28 51 -244 213 -256 192
-35 -60 -51 -167 -39 -260 8 -59 20 -36 27 54 8 97 23 158 37 158 21 0 57 -25
143 -103 49 -44 105 -89 125 -100 l35 -21 -39 -8 c-21 -5 -47 -16 -56 -24 -30
-27 -58 -99 -65 -167 -13 -130 48 -192 276 -282 36 -15 71 -29 78 -32 6 -3 12
0 12 7 0 12 -50 89 -74 113 -8 8 -12 17 -9 21 13 12 11 101 -2 131 -7 17 -18
44 -23 62 -15 45 -74 133 -90 133 -7 0 -10 5 -7 10 11 17 20 11 58 -39 34 -44
74 -143 147 -361 5 -14 20 -54 35 -90 42 -104 93 -243 100 -272 6 -23 4 -28
-11 -29 -124 -6 -189 27 -350 182 -259 248 -316 314 -379 442 -78 158 -97 463
-38 582 39 76 75 83 158 30z m-1828 -630 c50 -21 71 -41 98 -96 57 -111 73
-293 77 -854 2 -338 -1 -514 -16 -760 -10 -176 -16 -354 -14 -395 3 -50 19
-119 46 -205 23 -71 46 -162 52 -202 11 -82 118 -445 155 -530 14 -31 23 -58
21 -61 -13 -12 -160 97 -286 211 -78 71 -124 100 -175 111 -24 5 -281 13 -635
20 -30 1 -67 -2 -82 -7 -26 -7 -31 -2 -79 70 -85 127 -197 269 -234 298 -37
27 -45 45 -21 45 19 0 25 19 20 72 -4 52 -38 156 -55 172 -9 8 -10 6 -4 -9 5
-11 8 -30 8 -42 -1 -13 3 -23 9 -23 5 0 7 -4 4 -8 -2 -4 2 -37 9 -72 7 -36 12
-67 9 -69 -5 -5 -9 10 -28 99 -9 41 -30 109 -46 150 -81 204 -200 547 -197
562 3 10 2 16 -2 15 -3 -1 -6 1 -6 4 0 3 -5 12 -12 20 -6 8 -30 75 -52 149
-61 201 -152 467 -182 535 -15 33 -39 90 -53 128 -14 37 -37 96 -51 131 -14
36 -25 71 -25 78 0 8 -4 18 -9 23 -5 6 -16 37 -26 70 -9 33 -21 65 -25 70 -16
20 -23 112 -11 148 7 20 30 51 51 71 90 81 222 71 301 -22 46 -56 187 -353
293 -620 52 -130 130 -320 174 -422 43 -102 118 -293 165 -425 122 -339 150
-408 197 -479 56 -86 109 -106 185 -70 86 41 102 118 145 704 40 539 50 697
50 840 0 201 17 418 35 470 36 103 126 145 222 105z m5773 -1380 c13 -278 35
-540 56 -655 15 -89 57 -194 106 -266 15 -23 28 -46 28 -52 0 -20 -158 -178
-280 -280 -146 -121 -351 -260 -536 -362 -166 -91 -196 -115 -235 -196 -30
-61 -32 -71 -37 -209 -3 -80 -8 -148 -12 -150 -19 -12 -366 -95 -459 -110
-123 -20 -248 -11 -411 30 -121 31 -128 34 -262 109 l-107 60 1 93 c1 83 -1
96 -23 127 -30 42 -58 65 -124 101 -92 51 -187 119 -195 139 -12 33 -2 109 20
167 12 30 25 56 29 59 3 3 26 38 50 78 24 39 45 72 47 72 2 0 3 -46 2 -102 -1
-57 -3 -93 -5 -80 -3 12 -8 22 -12 22 -4 0 -4 25 -1 55 3 30 5 55 4 55 -7 0
-89 -130 -105 -164 -26 -58 -25 -187 2 -170 5 3 9 -2 9 -10 0 -19 20 -22 21
-3 0 7 3 6 6 -3 8 -20 33 -44 33 -31 0 5 -4 13 -10 16 -5 3 -10 11 -10 17 0 6
10 3 21 -8 22 -19 22 -19 10 3 -15 30 -15 32 17 30 22 -2 30 4 41 30 12 28 18
31 45 27 18 -3 26 -2 20 3 -6 4 -13 18 -16 30 -5 20 -4 21 13 12 15 -8 20 -6
25 8 3 10 9 25 12 33 11 29 8 78 -5 73 -15 -6 -17 -33 -3 -33 6 0 10 -8 10
-17 0 -14 -3 -14 -20 5 -11 12 -20 25 -20 31 0 5 -6 12 -12 15 -7 3 -3 3 9 1
12 -3 24 -1 28 5 3 6 -3 10 -14 10 -23 0 -28 15 -8 23 6 3 2 6 -11 6 -21 1
-23 -3 -21 -32 2 -18 0 -38 -4 -44 -4 -7 0 -24 9 -38 14 -21 14 -25 1 -25 -30
0 -37 23 -26 91 25 148 -8 456 -119 1131 l-18 107 40 -23 c23 -12 40 -28 38
-35 -1 -7 2 -10 8 -6 5 3 74 -37 154 -89 378 -250 457 -293 570 -308 86 -11
244 8 351 43 144 48 400 224 718 496 158 135 409 377 502 485 l50 58 2 -113
c1 -61 7 -215 13 -342z m-6951 -959 c28 -14 68 -48 93 -78 43 -51 186 -249
243 -336 l28 -43 -21 -22 c-35 -37 -55 -97 -55 -163 1 -126 88 -243 237 -318
107 -54 123 -69 142 -130 21 -66 14 -94 -33 -139 -47 -47 -83 -61 -130 -52
-47 8 -102 64 -251 254 -58 75 -124 156 -146 181 -23 25 -70 79 -106 120 -116
133 -185 205 -193 202 -5 -1 -6 2 -3 6 7 11 -32 48 -40 39 -4 -4 1 -9 10 -13
9 -3 16 -10 16 -14 0 -5 -23 3 -52 17 -85 41 -101 46 -95 29 4 -10 -5 -18 -27
-26 -32 -10 -74 -46 -65 -54 2 -2 35 1 72 6 98 15 138 -3 241 -106 130 -129
266 -285 343 -392 39 -54 101 -135 137 -178 76 -93 83 -114 59 -164 -21 -43
-88 -82 -141 -82 -69 0 -176 69 -329 213 -50 45 -121 106 -159 135 -65 49 -72
52 -129 52 -76 0 -156 20 -219 56 -56 31 -59 16 -5 -28 46 -38 138 -69 216
-73 65 -4 85 -14 160 -79 l22 -19 -42 -33 c-45 -37 -184 -112 -225 -123 -14
-4 -27 -12 -30 -19 -6 -20 49 -14 116 12 59 23 195 106 208 127 3 5 42 -25 87
-66 99 -93 197 -158 264 -178 116 -35 236 30 250 135 5 31 9 38 22 33 43 -17
71 -15 118 5 104 44 151 133 120 226 -9 27 -14 50 -13 51 2 2 36 -3 77 -11 76
-15 141 -25 171 -26 10 0 35 -24 56 -52 49 -66 103 -121 156 -157 67 -46 183
-101 213 -101 24 0 20 4 -27 28 -89 45 -134 77 -205 144 -57 52 -125 135 -125
151 0 3 10 7 22 10 42 11 9 20 -89 22 -268 8 -529 129 -599 280 -45 95 -22
217 49 269 32 24 20 24 467 12 319 -8 315 -7 426 -108 115 -105 203 -171 308
-234 128 -76 190 -134 206 -194 16 -60 7 -167 -25 -280 -14 -50 -45 -190 -69
-313 -55 -275 -69 -330 -113 -436 -44 -108 -88 -174 -186 -281 -43 -47 -89
-103 -102 -125 -13 -22 -67 -146 -120 -275 -133 -326 -124 -308 -165 -320
-266 -76 -510 -71 -776 16 -259 85 -563 278 -580 369 -4 25 4 63 31 144 20 61
38 111 41 111 2 0 15 -22 29 -50 14 -27 28 -50 31 -50 18 0 -14 76 -76 186
-67 117 -161 306 -173 349 -3 11 -20 58 -37 105 -17 47 -54 162 -81 255 -28
94 -90 285 -137 425 -85 250 -87 257 -87 352 0 91 2 99 30 140 21 30 51 54 99
79 80 43 124 81 143 127 7 18 20 82 27 142 9 68 21 121 33 142 21 36 220 176
288 202 51 20 111 13 174 -18z m4711 -2326 c0 -5 -5 -10 -11 -10 -5 0 -7 5 -4
10 3 6 8 10 11 10 2 0 4 -4 4 -10z m-275 -1688 c-3 -3 -11 0 -18 7 -9 10 -8
11 6 5 10 -3 15 -9 12 -12z m-20 -102 c3 -5 1 -10 -4 -10 -6 0 -11 5 -11 10 0
6 2 10 4 10 3 0 8 -4 11 -10z m-8 -116 c-3 -3 -12 -4 -19 -1 -8 3 -5 6 6 6 11
1 17 -2 13 -5z m-337 -3394 c0 -5 -4 -10 -10 -10 -5 0 -10 5 -10 10 0 6 5 10
10 10 6 0 10 -4 10 -10z m5639 -709 c133 -180 274 -250 477 -237 104 6 124 0
124 -34 0 -75 -551 -363 -757 -396 -46 -7 -73 6 -73 35 0 9 20 37 46 61 137
135 176 303 119 525 -13 54 -22 102 -19 106 12 21 34 5 83 -60z m-5729 49 c0
-5 -2 -10 -4 -10 -3 0 -8 5 -11 10 -3 6 -1 10 4 10 6 0 11 -4 11 -10z m-55
-110 c3 -5 1 -10 -4 -10 -6 0 -11 5 -11 10 0 6 2 10 4 10 3 0 8 -4 11 -10z
m45 0 c0 -5 -4 -10 -10 -10 -5 0 -10 5 -10 10 0 6 5 10 10 10 6 0 10 -4 10
-10z m8835 -116 c38 -38 -18 -116 -62 -88 -28 17 -29 69 -1 88 28 20 42 20 63
0z m-1989 -23 c62 -28 82 -47 105 -96 23 -49 24 -124 3 -195 -21 -69 -98 -149
-169 -174 -62 -22 -255 -35 -255 -17 0 7 16 120 35 252 19 133 35 246 35 251
0 20 191 3 246 -21z m-6946 -65 c0 -3 -4 -8 -10 -11 -5 -3 -10 -1 -10 4 0 6 5
11 10 11 6 0 10 -2 10 -4z m70 -16 c0 -5 -4 -10 -9 -10 -6 0 -13 5 -16 10 -3
6 1 10 9 10 9 0 16 -4 16 -10z m7570 -68 c19 -9 41 -29 50 -44 13 -25 13 -31
0 -55 -23 -40 -71 -64 -147 -71 l-68 -7 0 -57 c1 -90 49 -122 126 -82 40 20
48 12 12 -12 -15 -10 -51 -20 -79 -22 -96 -8 -148 44 -148 148 0 132 71 219
179 220 22 0 56 -8 75 -18z m418 9 c45 0 62 -3 62 -13 -1 -7 -11 -85 -23 -173
l-23 -160 -44 -3 c-24 -2 -46 2 -50 8 -5 7 -15 6 -36 -5 -63 -32 -150 -11
-179 45 -23 45 -19 136 9 195 38 82 93 118 171 110 28 -3 78 -5 113 -4z m436
-4 c9 -7 18 -22 19 -35 0 -12 3 -22 5 -22 3 0 22 16 43 35 47 42 104 48 135
14 18 -20 18 -24 0 -167 -10 -81 -21 -152 -23 -159 -3 -8 -23 -13 -49 -13 -52
0 -50 -11 -24 163 10 71 16 135 13 143 -9 23 -33 16 -67 -18 -34 -34 -33 -28
-62 -245 -6 -43 -6 -43 -48 -43 -24 0 -45 2 -48 5 -2 3 4 62 14 132 27 187 19
212 -48 151 -35 -33 -37 -39 -50 -134 -22 -162 -19 -154 -70 -154 -24 0 -44 4
-44 9 0 14 40 293 45 319 5 19 12 22 51 22 l47 0 -7 -32 -6 -32 27 26 c16 14
37 30 48 36 27 15 77 15 99 -1z m-1239 -17 c-8 -24 -2 -25 28 -6 12 8 40 17
62 20 l40 6 -39 -15 c-81 -31 -98 -62 -120 -210 -9 -61 -16 -114 -16 -118 0
-4 -23 -7 -50 -7 -47 0 -50 1 -45 23 5 25 45 304 45 318 0 5 23 9 51 9 46 0
50 -2 44 -20z m1670 -7 c-10 -56 -45 -302 -45 -312 0 -6 -20 -11 -45 -11 -54
0 -53 -11 -23 198 l21 152 48 0 c47 0 48 -1 44 -27z m-2685 -160 c-34 -66 -53
-147 -48 -200 5 -53 -20 -65 -62 -29 -47 39 -121 74 -188 90 l-57 13 55 16
c64 19 239 104 290 141 19 14 36 25 37 26 1 0 -11 -26 -27 -57z"/>
<path d="M9725 14129 c-4 -6 -5 -12 -2 -15 2 -3 7 2 10 11 7 17 1 20 -8 4z"/>
<path d="M9468 13792 c-13 -26 -13 -27 11 -29 16 -1 20 2 11 7 -7 4 -10 17 -7
29 7 29 1 26 -15 -7z"/>
<path d="M11660 13499 c-155 -27 -289 -87 -346 -153 -50 -59 -42 -62 23 -9
111 90 277 144 448 146 61 1 128 -3 150 -10 22 -6 67 -19 100 -28 33 -10 87
-31 120 -47 51 -24 56 -26 35 -7 -34 29 -131 74 -205 95 -72 19 -249 27 -325
13z"/>
<path d="M11690 13414 c-159 -34 -304 -140 -374 -273 -41 -79 -49 -121 -14
-75 57 74 182 174 251 200 15 5 13 -1 -8 -43 -52 -99 -40 -219 30 -305 20 -24
38 -51 41 -61 6 -16 17 -17 129 -11 68 4 131 3 141 -1 11 -5 35 -10 54 -11 19
-1 40 -4 46 -6 7 -1 14 2 15 7 2 6 -6 11 -18 13 -29 4 -29 14 -2 38 36 33 62
96 67 165 4 57 1 75 -22 125 -15 33 -39 71 -53 87 -23 23 -24 27 -8 27 45 0
171 -74 238 -141 58 -58 67 -72 67 -103 0 -45 11 -46 34 -3 9 17 23 43 31 57
12 22 12 28 -8 63 -34 60 -152 165 -221 198 -136 64 -281 82 -416 53z m180
-218 c0 -36 -68 -52 -97 -23 -35 35 21 75 70 51 15 -8 27 -21 27 -28z"/>
<path d="M8910 13251 c0 -5 7 -12 16 -15 24 -9 27 -7 10 9 -17 17 -26 19 -26
6z"/>
<path d="M8890 13230 c0 -6 7 -10 15 -10 8 0 15 2 15 4 0 2 -7 6 -15 10 -8 3
-15 1 -15 -4z"/>
<path d="M9415 13211 c-141 -34 -266 -105 -323 -185 -14 -20 -28 -36 -33 -36
-4 0 -10 -8 -13 -17 -4 -10 15 3 41 29 101 100 160 135 288 173 74 22 110 27
200 27 124 0 200 -19 318 -78 37 -19 67 -30 67 -26 0 14 -91 67 -166 97 -93
38 -258 44 -379 16z"/>
<path d="M9418 13126 c-161 -48 -279 -148 -353 -299 -25 -52 -49 -111 -52
-131 -5 -34 -2 -39 43 -79 26 -23 59 -52 72 -64 38 -35 43 -28 20 25 -32 69
-28 126 10 194 38 67 148 173 217 210 45 24 155 62 155 53 0 -1 -15 -12 -32
-22 -79 -47 -121 -208 -84 -321 18 -54 92 -146 126 -157 29 -9 24 -21 -12 -35
-22 -9 -28 -14 -17 -17 9 -2 38 7 66 21 60 31 204 81 255 90 34 6 41 13 64 62
23 49 26 65 22 137 -3 58 -10 95 -26 126 -12 25 -20 46 -18 49 7 6 43 -16 102
-64 31 -25 58 -44 60 -42 6 6 -48 88 -86 131 -18 21 -64 56 -101 78 -132 79
-285 98 -431 55z m360 -188 c7 -7 12 -21 12 -33 0 -41 -46 -59 -91 -35 -24 13
-25 56 -1 69 23 14 65 14 80 -1z"/>
<path d="M8816 13004 c-72 -70 -104 -125 -131 -229 -20 -78 -19 -126 5 -220
24 -92 71 -194 136 -290 56 -83 144 -191 144 -176 0 14 -54 235 -103 416 -97
365 -105 421 -67 466 l19 24 1 -27 c0 -26 45 -87 56 -76 11 11 41 158 32 158
-5 0 -6 5 -3 10 3 6 0 10 -7 10 -8 0 -45 -30 -82 -66z"/>
<path d="M12825 13219 c-11 -17 1 -21 15 -4 8 9 8 15 2 15 -6 0 -14 -5 -17
-11z"/>
<path d="M13332 12959 c-71 -15 -153 -118 -267 -335 l-67 -128 26 -55 c50
-111 48 -124 -45 -234 -69 -81 -92 -128 -82 -167 8 -30 35 -25 104 20 68 44
128 64 168 57 32 -6 92 34 155 104 72 80 54 81 -25 1 -39 -40 -80 -74 -92 -76
-12 -2 -49 -9 -82 -15 -33 -5 -81 -17 -107 -25 -44 -14 -48 -14 -48 2 0 28
-32 -11 -33 -42 -2 -27 -17 -37 -17 -11 0 27 37 89 82 139 87 97 97 147 48
249 l-30 62 21 28 c12 16 36 60 55 97 39 80 133 221 177 267 51 54 121 56 170
7 15 -15 27 -22 27 -16 0 17 -57 69 -82 74 -13 2 -38 1 -56 -3z"/>
<path d="M10481 12698 c0 -13 -3 -36 -7 -52 -5 -21 -4 -27 5 -22 7 5 11 -1 11
-15 0 -18 -3 -20 -12 -11 -9 9 -23 -19 -60 -126 -50 -143 -54 -157 -39 -148 5
4 20 2 33 -3 21 -8 20 -9 -10 -9 -41 1 -49 -7 -56 -57 -4 -27 -3 -32 2 -15 l8
25 14 -25 c7 -14 18 -28 23 -32 7 -4 6 -12 -2 -22 -8 -9 -9 -16 -4 -16 5 0 14
-17 20 -37 9 -32 11 -34 12 -12 1 31 31 36 32 5 2 -49 12 -82 48 -149 70 -134
96 -173 106 -158 6 11 -9 44 -79 166 -52 89 -56 122 -31 235 22 97 30 330 15
417 -11 70 -30 109 -29 61z m-101 -417 c0 -6 -4 -13 -10 -16 -5 -3 -10 1 -10
9 0 9 5 16 10 16 6 0 10 -4 10 -9z m23 -55 c-3 -4 -9 -2 -14 5 -13 22 -11 31
5 17 8 -7 12 -17 9 -22z m17 -56 c0 -5 -2 -10 -4 -10 -3 0 -8 5 -11 10 -3 6
-1 10 4 10 6 0 11 -4 11 -10z"/>
<path d="M13106 12592 c-2 -4 25 -17 61 -28 35 -12 61 -18 56 -13 -14 14 -112
49 -117 41z"/>
<path d="M12980 12129 c0 -5 5 -7 10 -4 6 3 10 8 10 11 0 2 -4 4 -10 4 -5 0
-10 -5 -10 -11z"/>
<path d="M10432 12080 c0 -14 2 -19 5 -12 2 6 2 18 0 25 -3 6 -5 1 -5 -13z"/>
<path d="M10441 12034 c0 -11 3 -14 6 -6 3 7 2 16 -1 19 -3 4 -6 -2 -5 -13z"/>
<path d="M10838 11973 c-24 -6 -23 -23 1 -23 28 0 52 11 45 21 -5 9 -17 10
-46 2z"/>
<path d="M10495 11920 c3 -5 8 -10 11 -10 2 0 4 5 4 10 0 6 -5 10 -11 10 -5 0
-7 -4 -4 -10z"/>
<path d="M11670 11571 c-27 -16 -113 -29 -345 -56 -389 -44 -633 -89 -985
-185 -101 -27 -201 -50 -222 -50 -75 0 -62 -47 40 -153 157 -162 323 -248 472
-246 44 1 43 1 -23 15 -103 22 -175 57 -183 88 -10 41 2 71 49 119 47 48 109
77 232 107 111 28 54 23 -120 -11 -227 -44 -243 -45 -285 -17 -45 30 -52 70
-17 93 76 49 506 153 807 194 108 15 395 41 452 41 41 0 50 -4 59 -23 8 -18 7
-32 -4 -60 -24 -55 -57 -71 -167 -78 -87 -6 -347 -50 -495 -83 -90 -21 -51
-19 87 5 217 37 376 16 456 -60 31 -30 28 -41 -20 -87 -52 -49 -101 -81 -193
-128 -79 -40 -69 -48 17 -12 226 93 468 364 468 526 0 53 -40 84 -80 61z"/>
<path d="M10838 11243 c6 -2 18 -2 25 0 6 3 1 5 -13 5 -14 0 -19 -2 -12 -5z"/>
<path d="M10788 11233 c6 -2 18 -2 25 0 6 3 1 5 -13 5 -14 0 -19 -2 -12 -5z"/>
<path d="M8930 11730 c0 -5 5 -10 11 -10 5 0 7 5 4 10 -3 6 -8 10 -11 10 -2 0
-4 -4 -4 -10z"/>
<path d="M6693 9267 c-42 -47 -94 -127 -83 -127 14 0 39 28 81 93 34 51 35 71
2 34z"/>
<path d="M11823 10353 c4 -3 1 -13 -6 -22 -10 -14 -10 -14 4 -4 9 7 20 9 25 5
4 -4 2 1 -5 11 -7 9 -16 17 -19 17 -3 0 -2 -3 1 -7z"/>
<path d="M11835 10279 c-9 -14 -2 -20 14 -10 8 6 9 11 3 15 -6 3 -14 1 -17 -5z"/>
<path d="M11919 10275 c-6 -22 16 -52 26 -35 3 6 2 10 -4 10 -5 0 -11 10 -13
23 -3 21 -4 21 -9 2z"/>
<path d="M11900 10225 c0 -18 -31 -20 -48 -3 -9 9 -12 7 -12 -9 0 -11 -7 -24
-16 -27 -8 -3 -13 -10 -10 -14 3 -5 -4 -15 -15 -22 -20 -15 -27 -50 -9 -50 5
0 7 -7 3 -16 -4 -12 -2 -15 8 -12 8 3 13 13 13 22 -1 9 4 16 12 16 8 0 14 -4
14 -10 0 -5 5 -10 11 -10 8 0 8 4 0 13 -8 11 -5 19 12 35 12 11 27 21 32 21 6
0 12 8 14 18 2 10 7 21 12 24 11 7 1 39 -12 39 -5 0 -9 -7 -9 -15z m-50 -76
c0 -5 -4 -9 -10 -9 -5 0 -10 7 -10 16 0 8 5 12 10 9 6 -3 10 -10 10 -16z"/>
<path d="M11640 10206 c0 -2 7 -7 16 -10 8 -3 12 -2 9 4 -6 10 -25 14 -25 6z"/>
<path d="M11625 10170 c-3 -6 1 -7 9 -4 18 7 21 14 7 14 -6 0 -13 -4 -16 -10z"/>
<path d="M11645 10130 c3 -5 8 -10 11 -10 2 0 4 5 4 10 0 6 -5 10 -11 10 -5 0
-7 -4 -4 -10z"/>
<path d="M10340 10100 c0 -5 5 -10 11 -10 5 0 7 5 4 10 -3 6 -8 10 -11 10 -2
0 -4 -4 -4 -10z"/>
<path d="M11550 10100 c-12 -8 -11 -10 8 -10 12 0 22 5 22 10 0 13 -11 13 -30
0z"/>
<path d="M10421 10047 c2 -1 13 -9 24 -17 19 -14 19 -14 6 3 -7 9 -18 17 -24
17 -6 0 -8 -1 -6 -3z"/>
<path d="M11680 10030 c0 -5 5 -10 10 -10 6 0 10 5 10 10 0 6 -4 10 -10 10 -5
0 -10 -4 -10 -10z"/>
<path d="M11740 10036 c0 -2 7 -9 15 -16 9 -7 15 -8 15 -2 0 5 -7 12 -15 16
-8 3 -15 4 -15 2z"/>
<path d="M11645 10010 c-3 -5 1 -10 10 -10 9 0 13 5 10 10 -3 6 -8 10 -10 10
-2 0 -7 -4 -10 -10z"/>
<path d="M11702 9980 c-13 -11 -22 -24 -20 -28 1 -5 17 4 33 19 34 32 23 39
-13 9z"/>
<path d="M11490 9931 c0 -13 43 -22 55 -10 7 7 4 8 -7 4 -11 -4 -18 -2 -18 4
0 6 -7 11 -15 11 -8 0 -15 -4 -15 -9z"/>
<path d="M11597 9865 c3 -8 9 -12 14 -9 12 7 11 11 -5 17 -10 4 -13 1 -9 -8z"/>
<path d="M11571 9849 c8 -15 8 -24 0 -32 -14 -14 -14 -27 -1 -27 6 0 10 6 10
14 0 8 6 17 13 20 10 5 10 7 0 12 -7 3 -13 12 -13 20 0 8 -5 14 -10 14 -7 0
-7 -7 1 -21z"/>
<path d="M11525 9811 c6 -19 -17 -51 -36 -51 -6 0 -3 -7 6 -16 17 -18 25 -15
29 11 1 9 8 20 15 25 10 6 10 12 2 29 -14 26 -24 28 -16 2z"/>
<path d="M11468 9723 c7 -3 16 -2 19 1 4 3 -2 6 -13 5 -11 0 -14 -3 -6 -6z"/>
<path d="M10142 9645 c0 -16 2 -22 5 -12 2 9 2 23 0 30 -3 6 -5 -1 -5 -18z"/>
<path d="M10143 9595 c-3 -9 -3 -18 -1 -21 3 -3 8 4 11 16 6 23 -1 27 -10 5z"/>
<path d="M11228 9593 c7 -3 16 -2 19 1 4 3 -2 6 -13 5 -11 0 -14 -3 -6 -6z"/>
<path d="M11220 9573 c0 -5 15 -9 33 -10 23 -2 28 0 17 7 -18 12 -50 13 -50 3z"/>
<path d="M11110 9480 c0 -30 -4 -40 -16 -40 -8 0 -12 -5 -9 -10 5 -8 11 -7 21
1 10 8 14 8 14 1 0 -6 7 -9 15 -6 14 6 14 8 -1 19 -12 8 -15 21 -12 43 2 18 1
32 -4 32 -4 0 -8 -18 -8 -40z"/>
<path d="M11180 9510 l-25 -7 25 -11 c23 -9 23 -11 6 -17 -11 -5 -21 -3 -27 6
-7 11 -11 11 -21 1 -10 -10 -10 -15 2 -22 31 -20 61 -4 65 34 2 14 3 26 2 25
-1 -1 -13 -4 -27 -9z"/>
<path d="M10777 9421 c3 -12 9 -21 14 -21 14 0 11 16 -5 29 -12 10 -13 8 -9
-8z"/>
<path d="M10730 9400 c0 -25 16 -44 25 -30 4 7 0 19 -9 28 -13 14 -16 14 -16
2z"/>
<path d="M11046 9395 c-3 -8 -1 -15 3 -15 5 0 11 7 15 15 3 8 1 15 -3 15 -5 0
-11 -7 -15 -15z"/>
<path d="M10881 9374 c0 -11 3 -14 6 -6 3 7 2 16 -1 19 -3 4 -6 -2 -5 -13z"/>
<path d="M10916 9364 c-4 -10 -1 -14 6 -12 15 5 23 28 10 28 -5 0 -13 -7 -16
-16z"/>
<path d="M10990 9370 c0 -13 11 -13 30 0 12 8 11 10 -7 10 -13 0 -23 -4 -23
-10z"/>
<path d="M10845 9350 c3 -5 8 -10 11 -10 2 0 4 5 4 10 0 6 -5 10 -11 10 -5 0
-7 -4 -4 -10z"/>
<path d="M10750 9330 c-8 -5 -12 -11 -9 -14 2 -3 11 -1 19 4 8 5 12 11 9 14
-2 3 -11 1 -19 -4z"/>
<path d="M10768 9299 c-17 -18 -17 -19 7 -25 27 -7 33 -19 13 -27 -8 -3 -6 -6
4 -6 15 -1 48 -41 33 -41 -3 0 -1 -9 5 -20 7 -13 18 -19 28 -16 9 3 35 -1 57
-8 22 -8 42 -12 44 -10 2 2 -14 23 -35 46 -21 24 -52 60 -68 81 -27 34 -31 36
-47 21 -16 -15 -17 -14 -12 5 7 26 -6 26 -29 0z m62 -34 c0 -8 -4 -15 -10 -15
-5 0 -10 7 -10 15 0 8 5 15 10 15 6 0 10 -7 10 -15z m23 -30 c4 -8 2 -17 -3
-20 -6 -4 -10 3 -10 14 0 25 6 27 13 6z"/>
<path d="M10175 9237 c-4 -10 -5 -21 -1 -24 10 -10 18 4 13 24 -4 17 -4 17
-12 0z"/>
<path d="M10200 9223 c0 -21 3 -24 9 -14 5 8 7 20 4 28 -8 21 -13 15 -13 -14z"/>
<path d="M10790 9210 c0 -5 5 -10 10 -10 6 0 10 5 10 10 0 6 -4 10 -10 10 -5
0 -10 -4 -10 -10z"/>
<path d="M10185 9180 c3 -5 10 -10 16 -10 5 0 9 5 9 10 0 6 -7 10 -16 10 -8 0
-12 -4 -9 -10z"/>
<path d="M10501 9060 c0 -8 4 -24 9 -35 5 -13 9 -14 9 -5 0 8 -4 24 -9 35 -5
13 -9 14 -9 5z"/>
<path d="M10285 9030 c3 -5 8 -10 11 -10 2 0 4 5 4 10 0 6 -5 10 -11 10 -5 0
-7 -4 -4 -10z"/>
<path d="M10260 9009 c0 -5 5 -7 10 -4 6 3 10 8 10 11 0 2 -4 4 -10 4 -5 0
-10 -5 -10 -11z"/>
<path d="M10310 9015 c0 -5 5 -17 10 -25 5 -8 10 -10 10 -5 0 6 -5 17 -10 25
-5 8 -10 11 -10 5z"/>
<path d="M10220 8980 c0 -24 15 -27 24 -4 9 22 8 24 -9 24 -8 0 -15 -9 -15
-20z"/>
<path d="M10285 8990 c-3 -5 -1 -10 4 -10 6 0 11 5 11 10 0 6 -2 10 -4 10 -3
0 -8 -4 -11 -10z"/>
<path d="M10517 8971 c-4 -17 -3 -21 5 -13 5 5 8 16 6 23 -3 8 -7 3 -11 -10z"/>
<path d="M10260 8970 c0 -5 5 -10 11 -10 5 0 7 5 4 10 -3 6 -8 10 -11 10 -2 0
-4 -4 -4 -10z"/>
<path d="M10490 8905 c0 -14 2 -25 4 -25 2 0 6 11 8 25 3 14 1 25 -3 25 -5 0
-9 -11 -9 -25z"/>
<path d="M10570 8782 c0 -17 4 -34 10 -37 6 -4 7 6 3 27 -8 44 -13 48 -13 10z"/>
<path d="M10591 8725 c1 -19 18 -51 18 -35 0 8 -4 22 -9 30 -5 8 -9 11 -9 5z"/>
<path d="M10290 8710 c0 -5 5 -10 11 -10 5 0 7 5 4 10 -3 6 -8 10 -11 10 -2 0
-4 -4 -4 -10z"/>
<path d="M10561 8704 c0 -11 3 -14 6 -6 3 7 2 16 -1 19 -3 4 -6 -2 -5 -13z"/>
<path d="M10611 8634 c0 -11 3 -14 6 -6 3 7 2 16 -1 19 -3 4 -6 -2 -5 -13z"/>
<path d="M6208 8323 c-26 -61 -76 -289 -89 -403 -16 -139 -8 -226 30 -329 36
-96 55 -133 45 -86 -4 17 -14 50 -23 75 -13 35 -16 83 -15 225 0 170 3 189 37
343 21 90 35 167 32 172 -3 5 1 10 7 13 9 3 10 8 2 16 -7 8 -15 1 -26 -26z"/>
<path d="M5845 6950 c-44 -10 -109 -19 -145 -19 -46 -1 -61 -4 -50 -11 36 -23
232 2 276 35 23 18 19 17 -81 -5z"/>
<path d="M6235 6898 c-25 -57 -115 -305 -115 -316 0 -2 7 1 15 8 23 19 152
370 136 370 -5 0 -21 -28 -36 -62z"/>
<path d="M16165 1019 c-9 -27 -67 -460 -62 -465 3 -3 24 0 47 6 64 17 134 92
156 166 46 158 5 271 -108 299 -19 5 -29 3 -33 -6z"/>
<path d="M16908 863 c-24 -27 -46 -75 -53 -116 -8 -43 2 -47 59 -23 64 27 97
103 60 140 -20 21 -47 20 -66 -1z"/>
<path d="M17292 863 c-48 -19 -91 -230 -60 -298 15 -33 57 -34 94 -2 24 21 29
36 46 153 17 122 17 130 1 141 -17 13 -57 16 -81 6z"/>
</g>
</svg>
