<?xml version="1.0" standalone="no"?>
<!DOCTYPE svg PUBLIC "-//W3C//DTD SVG 20010904//EN"
 "http://www.w3.org/TR/2001/REC-SVG-20010904/DTD/svg10.dtd">
<svg version="1.0" xmlns="http://www.w3.org/2000/svg"
 width="2048.000000pt" height="2048.000000pt" viewBox="0 0 2048.000000 2048.000000"
 preserveAspectRatio="xMidYMid meet">

<g transform="translate(0.000000,2048.000000) scale(0.100000,-0.100000)"
fill="#000000" stroke="none">
<path d="M11456 17442 c-3 -5 18 -28 48 -50 96 -73 193 -204 235 -317 22 -58
43 -191 34 -208 -3 -5 -15 13 -28 40 -114 244 -447 434 -873 498 -53 8 -145
15 -204 15 -163 0 -259 -15 -678 -109 -389 -87 -486 -102 -655 -102 -82 -1
-170 4 -195 10 -55 13 -91 14 -109 2 -44 -28 69 -107 187 -131 31 -7 63 -14
71 -16 8 -3 -52 -38 -135 -78 -204 -101 -297 -170 -498 -371 -262 -262 -432
-361 -691 -402 -70 -11 -73 -39 -12 -98 64 -61 159 -105 256 -118 l80 -10 -32
-38 c-110 -128 -209 -396 -223 -602 -10 -154 33 -304 111 -381 42 -43 55 -37
55 25 0 40 35 165 49 173 5 3 11 -25 15 -62 14 -139 71 -285 121 -312 16 -9
28 -30 40 -72 19 -70 71 -173 115 -229 l32 -39 -59 -58 c-104 -100 -140 -212
-130 -405 10 -210 84 -365 248 -523 109 -103 177 -138 274 -141 l70 -1 45 -70
c63 -97 94 -133 181 -207 181 -154 448 -288 824 -415 l170 -57 3 -62 3 -61
-70 0 c-38 0 -99 -7 -136 -15 -51 -12 -126 -15 -338 -14 -250 1 -278 -1 -346
-21 -118 -33 -205 -79 -402 -208 -264 -172 -336 -209 -570 -292 -185 -66 -243
-105 -270 -183 -11 -31 -11 -41 0 -59 12 -19 11 -23 -5 -36 -23 -18 -159 -82
-173 -82 -14 0 -14 1 9 51 23 53 26 164 5 223 -13 37 -12 39 20 82 18 24 39
60 45 80 19 55 6 157 -25 210 l-26 45 30 61 c77 154 -6 342 -169 381 -21 5
-33 23 -63 94 -59 138 -59 142 -62 388 -2 210 -4 238 -27 325 -48 178 -98 260
-189 306 -61 30 -154 33 -215 5 -50 -23 -111 -92 -126 -145 -21 -73 -13 -217
23 -381 18 -82 35 -177 39 -210 9 -79 -5 -178 -32 -227 -19 -33 -30 -41 -78
-54 -118 -33 -153 -47 -198 -82 -55 -41 -65 -53 -94 -107 -18 -33 -22 -58 -23
-145 l-2 -105 -51 -98 c-65 -121 -67 -161 -20 -275 34 -82 35 -91 23 -222 l-7
-85 45 -85 c35 -67 46 -100 52 -155 10 -103 37 -156 115 -228 54 -49 69 -70
74 -101 10 -53 87 -231 138 -317 66 -112 192 -238 280 -282 129 -65 218 -60
455 27 107 40 327 131 443 185 25 11 50 20 55 20 6 0 30 -27 55 -60 53 -71
145 -144 201 -159 22 -6 56 -8 77 -4 38 6 135 56 208 105 40 27 138 85 307
181 49 27 91 47 94 44 7 -7 -12 -377 -27 -526 -5 -52 -16 -176 -25 -275 -16
-184 -62 -475 -94 -600 l-19 -70 67 -6 c36 -4 185 -10 331 -13 146 -3 380 -10
520 -15 140 -6 406 -15 590 -21 184 -6 434 -15 555 -20 121 -5 312 -12 425
-15 113 -3 252 -8 310 -11 472 -23 1109 -40 1098 -29 -7 8 -82 13 -268 20
-183 6 -396 16 -450 20 -63 5 -66 8 -15 15 49 6 50 7 18 15 -18 4 -33 13 -33
19 1 20 35 52 58 53 25 2 51 28 52 51 0 6 7 12 15 12 8 0 15 3 15 8 0 4 13 16
30 27 16 11 29 27 27 35 -1 9 5 14 15 14 14 -1 17 4 13 25 -3 14 -2 20 1 14 8
-18 34 -16 34 2 0 20 17 19 29 -2 10 -17 10 -17 11 1 0 12 5 16 14 13 10 -4
13 -1 9 9 -3 7 0 14 7 14 10 0 10 3 0 15 -17 21 -6 29 20 15 33 -17 34 -6 3
24 l-28 28 25 -3 c29 -5 61 18 53 37 -4 10 3 14 22 14 14 0 34 7 43 16 15 15
13 16 -19 10 -24 -5 -30 -4 -20 3 21 14 -2 66 -25 57 -10 -4 -18 1 -21 14 -4
15 -17 21 -53 26 -53 7 -61 11 -76 39 -6 11 -20 24 -32 30 -12 5 -22 15 -22
22 0 7 -9 13 -20 13 -11 0 -20 7 -20 15 0 8 -4 15 -10 15 -5 0 -10 20 -10 44
0 34 -4 46 -17 49 -16 4 -16 5 -2 6 9 0 20 8 23 17 4 9 2 13 -5 8 -8 -4 -7 0
0 15 7 11 19 21 27 21 8 0 13 4 10 9 -4 5 14 22 39 38 25 15 45 31 45 36 0 4
4 7 10 7 5 0 37 13 72 29 35 17 95 42 133 56 101 38 153 65 160 83 5 14 7 14
15 2 11 -17 177 -524 214 -651 51 -177 44 -245 -44 -427 -28 -57 -50 -106 -50
-109 0 -2 7 -3 15 -1 9 2 38 50 64 109 107 231 106 234 -100 867 -38 117 -69
214 -69 216 0 2 15 13 33 23 58 34 154 132 171 172 18 47 13 71 -36 156 -19
33 -69 119 -110 190 -103 179 -131 230 -293 545 -223 433 -285 527 -407 613
-114 81 -190 111 -533 207 -113 31 -219 69 -285 100 -99 47 -111 50 -183 50
-93 0 -93 0 -97 135 -4 129 -2 145 18 152 73 27 363 175 442 227 191 125 396
282 485 371 50 49 92 89 95 88 252 -53 545 123 685 412 58 120 75 191 75 317
0 173 -42 289 -141 391 l-57 59 48 102 c41 87 67 165 94 289 6 23 10 26 20 17
16 -13 28 17 45 114 20 113 7 341 -24 419 -7 16 -4 16 44 -3 29 -11 64 -20 79
-20 27 0 92 33 92 47 0 5 -24 32 -54 61 -60 58 -81 96 -127 234 -39 117 -120
280 -188 381 -185 274 -492 468 -766 484 -99 6 -100 6 -65 21 59 24 190 43
255 37 112 -11 237 -53 303 -101 31 -23 27 -5 -9 39 -42 51 -102 90 -179 117
-122 42 -313 26 -407 -35 -13 -8 -33 -22 -46 -30 l-23 -15 17 68 c25 93 23
158 -5 247 -44 140 -140 250 -271 311 -73 35 -168 54 -179 36z m-253 -1549 c3
-10 20 -40 36 -68 17 -27 35 -60 40 -71 17 -39 157 -197 247 -281 83 -77 120
-108 190 -158 15 -11 39 -29 53 -41 14 -12 40 -28 56 -37 17 -9 45 -29 63 -46
31 -29 33 -30 40 -10 7 17 9 15 21 -18 8 -20 43 -84 78 -141 35 -57 68 -115
74 -129 13 -34 35 -186 54 -373 9 -85 20 -182 26 -215 13 -76 43 -145 63 -145
14 0 96 157 136 260 28 71 82 151 118 174 92 59 205 55 301 -12 98 -68 156
-180 174 -337 15 -134 -6 -244 -73 -383 -47 -96 -62 -117 -149 -203 -79 -78
-112 -103 -181 -137 -95 -46 -176 -63 -260 -53 -60 7 -160 40 -160 53 0 4 7 5
15 2 21 -9 19 10 -4 30 -19 18 -21 16 -59 -62 -109 -219 -268 -379 -526 -527
-320 -184 -805 -355 -1076 -380 -72 -7 -239 9 -250 23 -3 4 -11 7 -17 8 -39 3
-44 5 -38 14 3 6 -1 7 -9 4 -11 -4 -16 0 -16 12 0 9 -2 15 -5 12 -6 -6 -105
43 -170 83 -22 14 -48 28 -57 32 -10 3 -18 11 -18 17 0 5 -5 10 -10 10 -6 0
-22 11 -36 25 -14 14 -30 25 -36 25 -6 0 -5 7 3 18 13 15 12 16 -3 3 -18 -14
-53 -8 -44 7 6 10 -56 42 -79 42 -8 0 -14 6 -13 13 2 6 -5 11 -15 11 -10 -1
-16 0 -13 3 9 9 -54 55 -69 50 -10 -4 -12 -1 -8 10 4 10 2 14 -4 10 -6 -4 -24
0 -39 8 -20 10 -23 15 -11 15 16 0 16 1 0 18 -11 11 -21 14 -25 8 -3 -5 -8 2
-10 15 -2 14 -11 25 -23 28 -25 4 -44 30 -45 57 0 16 -8 23 -30 28 -23 4 -30
11 -31 31 -2 44 -5 50 -17 47 -7 -1 -12 7 -12 18 0 12 -7 20 -16 20 -12 0 -15
6 -11 22 3 11 -1 34 -9 51 -9 16 -13 40 -10 53 5 17 2 24 -9 24 -21 0 -19 30
3 30 16 1 16 1 -1 14 -16 13 -16 15 -2 30 9 9 12 16 6 16 -5 0 -13 -4 -16 -10
-8 -13 -25 -13 -25 1 0 6 9 13 19 16 12 3 17 11 14 19 -3 9 2 14 13 15 14 0
15 2 5 6 -8 3 -20 -2 -28 -12 -7 -10 -15 -16 -18 -14 -3 3 5 16 16 28 l21 23
-21 14 c-26 19 -15 46 27 66 31 15 38 55 12 75 -11 9 -12 15 -4 20 39 27 74
57 74 65 0 5 16 24 35 42 19 19 35 39 35 45 0 6 7 14 15 17 8 4 15 12 15 20 0
8 5 14 11 14 8 0 8 5 -1 15 -8 9 -9 15 -2 15 6 0 14 -4 17 -10 3 -5 14 -9 23
-9 15 1 15 2 0 6 -41 10 -1 31 45 24 4 0 7 3 7 8 0 5 3 16 6 25 5 12 -1 16
-22 16 -22 0 -25 3 -14 10 21 13 5 23 -19 11 -11 -6 -22 -7 -25 -2 -6 10 26
21 62 21 12 0 22 4 22 8 0 4 -53 7 -117 5 -105 -3 -124 -1 -173 19 -180 76
-189 343 -15 507 79 75 169 115 269 119 90 5 137 -7 207 -50 100 -61 161 -178
162 -308 1 -88 -15 -141 -55 -192 -16 -21 -27 -38 -23 -38 3 0 -3 -10 -15 -22
-20 -22 -24 -36 -20 -72 1 -10 -4 -23 -12 -27 -10 -7 -9 -9 4 -9 9 0 20 5 23
10 3 6 12 10 18 10 7 0 6 -4 -3 -10 -11 -7 -12 -13 -3 -32 7 -13 13 -45 16
-73 10 -135 90 -189 295 -201 73 -4 92 -2 92 8 0 8 -9 20 -20 28 -11 8 -20 19
-20 26 0 14 -38 49 -46 41 -8 -8 -53 36 -47 46 3 5 -4 15 -16 23 -14 10 -20
25 -19 49 1 19 4 32 8 30 4 -2 5 7 2 20 -3 18 0 25 12 25 9 0 16 5 16 10 0 6
9 10 20 10 11 0 20 5 20 10 0 6 6 10 14 10 7 0 19 7 26 15 7 9 20 15 29 14 36
-3 62 2 56 11 -3 6 4 10 17 10 14 0 18 -3 11 -8 -6 -4 14 -7 45 -6 119 3 299
-42 324 -80 5 -6 8 -7 8 -1 0 17 -77 95 -94 95 -10 0 -15 4 -12 9 4 5 -11 20
-31 32 -21 13 -45 30 -53 39 -8 9 -21 15 -27 13 -7 -3 -13 2 -13 11 0 9 -7 16
-15 16 -8 0 -15 7 -15 15 0 8 -4 15 -9 15 -5 0 -17 3 -25 6 -12 5 -15 2 -10
-10 3 -9 1 -16 -5 -16 -6 0 -11 5 -11 10 0 6 -9 10 -20 10 -11 0 -20 4 -20 10
0 5 -6 7 -14 4 -9 -3 -17 3 -21 15 -6 21 -25 29 -25 11 0 -5 -5 -10 -11 -10
-5 0 -8 4 -4 9 3 5 1 12 -5 16 -18 11 -12 35 8 29 14 -5 15 -4 2 5 -8 6 -21
11 -27 11 -16 0 -53 36 -53 51 0 6 -7 9 -15 6 -11 -5 -12 -1 -5 18 7 20 6 25
-5 25 -9 0 -15 10 -15 25 0 14 -5 25 -11 25 -5 0 -8 4 -4 9 3 5 0 13 -6 16 -5
4 -8 13 -5 21 3 7 1 16 -4 19 -6 4 -10 15 -10 26 0 11 -7 22 -15 25 -10 4 -13
13 -10 25 4 11 2 19 -4 19 -6 0 -11 11 -11 25 0 16 -6 25 -15 25 -8 0 -15 8
-15 18 0 11 -11 32 -24 47 -14 16 -23 32 -20 37 3 4 0 8 -6 8 -6 0 -8 4 -5 10
8 13 -31 54 -44 46 -7 -4 -8 -1 -5 8 3 9 1 16 -5 16 -6 0 -11 7 -11 15 0 8 -9
19 -20 25 -11 6 -20 18 -20 26 0 10 -6 14 -15 10 -18 -7 -20 5 -3 22 9 9 8 15
-6 25 -17 12 -17 16 -3 44 l16 30 -27 -5 c-26 -4 -26 -4 -8 11 19 14 19 19 7
82 -14 81 -8 98 9 23 18 -81 21 -88 32 -88 10 0 6 131 -6 180 -3 14 -4 19 0
12 3 -6 11 -9 16 -6 6 4 17 -1 25 -11 11 -16 13 -17 13 -2 0 11 12 18 38 22
46 8 97 19 232 49 58 13 121 27 140 31 29 6 91 23 189 51 9 3 0 -4 -19 -15
-19 -11 -44 -20 -56 -21 -11 0 -29 -7 -40 -16 -19 -15 -19 -16 1 -9 11 4 35 9
53 12 18 3 35 10 38 14 3 5 12 9 20 9 8 0 34 9 57 21 23 11 55 22 71 24 16 3
32 9 35 14 3 5 25 15 49 22 24 7 49 21 56 31 7 10 16 15 19 12 4 -4 22 7 42
25 20 17 39 31 43 31 4 0 19 11 34 25 15 14 30 25 34 24 3 0 39 29 79 65 40
36 78 66 84 66 6 0 11 6 11 13 0 8 12 19 26 25 14 7 22 17 19 22 -3 6 0 10 8
10 8 0 17 -8 20 -17z m-457 -288 c-11 -8 -25 -15 -30 -15 -6 1 0 7 14 15 32
19 40 18 16 0z m-46 -29 c0 -2 -9 -6 -20 -9 -11 -3 -18 -1 -14 4 5 9 34 13 34
5z m-135 -56 c-3 -5 -11 -10 -16 -10 -6 0 -7 5 -4 10 3 6 11 10 16 10 6 0 7
-4 4 -10z m-885 -370 c0 -5 -12 -10 -27 -9 l-28 1 25 8 c14 4 26 8 28 9 1 1 2
-3 2 -9z m50 0 c0 -5 -7 -7 -15 -4 -8 4 -15 8 -15 10 0 2 7 4 15 4 8 0 15 -4
15 -10z m-134 -9 c-3 -5 -32 -12 -63 -16 -32 -4 -86 -17 -120 -30 -35 -12 -63
-19 -63 -15 0 11 93 40 175 55 39 7 71 14 73 14 2 1 1 -3 -2 -8z m-148 -71 c7
-11 9 -20 4 -20 -4 0 -13 9 -20 20 -7 11 -9 20 -4 20 4 0 13 -9 20 -20z m-113
0 c-3 -5 -11 -10 -16 -10 -6 0 -7 5 -4 10 3 6 11 10 16 10 6 0 7 -4 4 -10z
m85 -13 c11 -5 9 -6 -4 -4 -11 1 -21 9 -23 17 -3 10 -2 11 4 4 4 -6 15 -14 23
-17z m-120 -1 c0 -2 -7 -7 -16 -10 -8 -3 -12 -2 -9 4 6 10 25 14 25 6z m-54
-31 c-11 -8 -24 -15 -28 -15 -5 0 -14 -4 -21 -10 -59 -48 -77 -61 -77 -53 1 8
16 21 84 67 40 27 75 36 42 11z m34 -85 c0 -5 -4 -10 -10 -10 -5 0 -10 5 -10
10 0 6 5 10 10 10 6 0 10 -4 10 -10z m-200 -40 c-6 -11 -13 -20 -16 -20 -2 0
0 9 6 20 6 11 13 20 16 20 2 0 0 -9 -6 -20z m433 -17 c-7 -2 -19 -2 -25 0 -7
3 -2 5 12 5 14 0 19 -2 13 -5z m-193 -33 c0 -5 -7 -10 -16 -10 -8 0 -12 5 -9
10 3 6 10 10 16 10 5 0 9 -4 9 -10z m-35 -20 c3 -5 1 -10 -4 -10 -6 0 -11 5
-11 10 0 6 2 10 4 10 3 0 8 -4 11 -10z m3 -28 c6 6 13 10 14 7 2 -2 -26 -33
-62 -69 -35 -36 -57 -53 -47 -38 9 15 14 33 12 41 -3 7 4 22 15 32 18 16 20
17 14 2 -8 -21 3 -22 22 -2 9 8 11 15 5 15 -6 0 -11 5 -11 11 0 8 4 8 13 0 10
-8 17 -7 25 1z m-83 -12 c3 -5 1 -10 -4 -10 -6 0 -11 5 -11 10 0 6 2 10 4 10
3 0 8 -4 11 -10z m-286 -260 c9 -5 22 -61 23 -97 0 -13 3 -23 7 -23 3 0 7 -15
8 -33 2 -30 6 -48 33 -142 13 -46 8 -229 -10 -380 -12 -103 -7 -250 10 -270 6
-7 7 -15 4 -18 -4 -3 -3 -14 1 -24 5 -10 10 -28 12 -40 2 -12 10 -34 18 -50 8
-15 15 -33 15 -39 0 -19 60 -134 70 -134 5 0 6 -7 3 -17 -4 -11 -3 -14 5 -9 7
4 12 3 12 -3 0 -5 12 -28 27 -50 19 -30 29 -38 35 -29 7 10 8 9 6 -2 -3 -20
23 -60 39 -60 7 0 13 -4 13 -10 0 -5 7 -10 16 -10 8 0 12 -4 9 -10 -3 -5 1
-10 10 -10 8 0 21 -11 27 -25 6 -13 20 -28 32 -31 12 -4 36 -20 54 -36 18 -15
38 -25 44 -22 7 4 8 2 4 -4 -5 -8 1 -12 14 -12 12 0 19 -4 16 -9 -6 -9 95 -71
120 -75 7 -1 18 -6 25 -12 20 -15 145 -74 157 -74 5 0 23 -7 38 -15 16 -8 37
-15 47 -15 9 0 17 -4 17 -10 0 -5 6 -10 14 -10 8 0 18 -5 21 -11 4 -5 -10 -3
-32 6 -21 9 -56 23 -78 31 -22 8 -51 19 -65 25 -14 6 -38 17 -55 24 -235 102
-400 208 -530 339 -211 213 -285 440 -257 783 14 173 15 326 2 473 -5 58 -12
152 -14 210 l-5 105 15 -85 c8 -46 18 -87 23 -90z m249 115 c-6 -14 -13 -23
-15 -21 -5 5 15 46 22 46 3 0 -1 -11 -7 -25z m-608 -251 c-8 -8 -23 -20 -34
-26 -14 -6 -11 -1 8 16 32 29 45 34 26 10z m567 -46 c-3 -8 -6 -5 -6 6 -1 11
2 17 5 13 3 -3 4 -12 1 -19z m-652 -48 c-9 -16 -18 -30 -21 -30 -2 0 2 14 11
30 9 17 18 30 21 30 2 0 -2 -13 -11 -30z m678 -10 c3 -11 1 -18 -4 -14 -5 3
-9 12 -9 20 0 20 7 17 13 -6z m307 -289 c-17 -5 -21 -9 -12 -15 14 -9 16 -26
2 -26 -5 0 -10 7 -10 15 0 8 -8 15 -17 16 -15 0 -15 2 2 9 11 5 29 8 40 8 16
0 15 -2 -5 -7z m-33 -47 c-3 -3 -12 -4 -19 -1 -8 3 -5 6 6 6 11 1 17 -2 13 -5z
m-12 -24 c3 -5 -1 -10 -9 -10 -9 0 -16 5 -16 10 0 6 4 10 9 10 6 0 13 -4 16
-10z m-15 -24 c0 -11 -19 -15 -25 -6 -3 5 1 10 9 10 9 0 16 -2 16 -4z m-30
-36 c0 -5 -7 -7 -15 -4 -8 4 -12 10 -9 15 6 11 24 2 24 -11z m-40 -30 c0 -5
-2 -10 -4 -10 -3 0 -8 5 -11 10 -3 6 -1 10 4 10 6 0 11 -4 11 -10z m-30 -30
c0 -5 -2 -10 -4 -10 -3 0 -8 5 -11 10 -3 6 -1 10 4 10 6 0 11 -4 11 -10z
m-1870 -30 c86 -44 145 -154 184 -342 11 -55 16 -133 16 -270 0 -212 8 -263
59 -387 17 -41 31 -77 31 -82 0 -4 -14 -4 -31 1 -17 5 -90 19 -163 31 -120 19
-184 39 -127 39 24 0 23 15 -5 74 -8 16 -14 42 -14 57 0 15 -4 30 -9 33 -4 3
-11 20 -15 38 -4 18 -18 50 -32 71 -14 21 -26 47 -27 58 -1 10 -4 19 -7 19 -3
0 -10 12 -16 28 -6 15 -21 50 -32 78 -12 28 -24 70 -28 93 -4 23 -10 44 -14
46 -5 3 -6 14 -3 25 3 11 0 33 -6 49 -16 37 -22 171 -9 195 7 12 6 22 -1 29
-7 7 -5 14 7 23 15 12 14 12 -7 7 -13 -3 -26 -14 -28 -25 -3 -10 -9 -18 -14
-18 -5 0 -2 16 6 36 44 106 177 149 285 94z m-303 -202 c-2 -13 -4 -5 -4 17
-1 22 1 32 4 23 2 -10 2 -28 0 -40z m3 -49 c0 -5 -4 -9 -10 -9 -5 0 -10 7 -10
16 0 8 5 12 10 9 6 -3 10 -10 10 -16z m57 -131 c-3 -8 -6 -5 -6 6 -1 11 2 17
5 13 3 -3 4 -12 1 -19z m58 -663 c281 -32 511 -68 561 -86 49 -19 101 -63 122
-105 20 -39 33 -117 26 -161 -7 -46 -42 -108 -61 -108 -6 0 -14 -3 -18 -7 -7
-7 -18 -6 -180 17 -187 26 -468 58 -515 59 -25 1 -46 -3 -48 -9 -9 -26 148
-49 638 -95 134 -13 152 -23 176 -108 29 -98 -6 -209 -74 -240 -46 -20 -170
-20 -427 2 -357 30 -345 30 -345 13 0 -8 10 -17 23 -20 68 -18 359 -39 539
-41 l208 -1 12 -30 c21 -49 16 -163 -9 -210 -53 -101 -88 -109 -408 -95 -251
11 -288 14 -303 24 -6 3 -13 2 -17 -4 -4 -6 -11 -8 -16 -5 -5 4 -17 1 -26 -4
-16 -9 -15 -13 3 -10 4 0 10 -5 15 -13 11 -17 171 -25 456 -24 169 1 214 -2
218 -12 11 -30 4 -105 -14 -140 -38 -73 -100 -113 -215 -137 -73 -15 -262 -31
-224 -19 9 3 18 11 21 17 3 9 -12 12 -54 10 -33 0 -57 2 -55 6 3 4 -9 8 -27 8
-47 0 -117 9 -124 17 -3 3 -14 6 -24 6 -13 0 -17 5 -12 18 6 15 5 15 -10 3
-15 -12 -17 -11 -17 3 0 9 -2 16 -4 16 -2 0 -12 3 -22 7 -13 5 -15 3 -9 -8 7
-11 -23 9 -45 31 -3 3 -14 7 -25 8 -37 7 -54 31 -48 68 4 22 2 34 -6 34 -6 0
-3 8 7 18 9 11 25 34 35 51 12 23 22 31 33 27 8 -3 13 -2 9 3 -3 5 -2 11 2 14
5 2 4 3 -2 2 -5 -1 -11 13 -12 31 -1 20 3 34 10 35 11 0 -55 28 -78 33 -21 4
-95 62 -101 79 -3 9 -9 17 -14 17 -4 0 -11 18 -15 39 -7 41 9 81 32 81 7 0 15
11 19 25 3 14 14 30 24 35 13 7 17 18 14 35 -3 20 0 25 16 25 28 0 25 20 -2
21 -22 1 -22 1 2 9 17 5 19 8 8 9 -10 1 -18 6 -18 11 0 6 -6 10 -13 10 -7 0
-19 9 -27 20 -8 11 -20 20 -27 20 -7 0 -13 5 -13 10 0 6 -7 10 -14 10 -8 0
-27 16 -42 36 l-28 35 -13 -23 c-14 -22 -14 -22 -8 12 3 19 24 66 47 104 23
39 47 81 55 95 8 18 13 20 13 9 0 -9 3 -18 8 -21 4 -2 1 -2 -5 -1 -14 4 -17
-6 -5 -21 11 -16 37 -12 37 5 0 8 11 17 24 20 29 7 100 130 75 130 -8 0 -14 6
-14 13 0 8 -16 27 -35 43 -19 16 -33 35 -30 42 2 6 -2 12 -10 12 -8 0 -15 5
-15 10 0 6 -6 5 -14 -2 -7 -7 -12 -18 -9 -24 2 -7 0 -15 -6 -19 -18 -11 -12
25 11 66 47 83 196 165 283 154 17 -2 93 -11 170 -20z m3944 -262 c6 -21 24
-52 39 -68 23 -24 27 -36 21 -53 -6 -15 -14 -20 -26 -16 -15 5 -16 4 -3 -6 11
-9 12 -13 3 -17 -7 -2 -13 -10 -13 -17 0 -7 -8 -23 -18 -34 l-19 -22 -11 25
c-6 14 -9 32 -5 41 4 12 2 15 -8 12 -8 -3 -13 -15 -12 -27 2 -11 -2 -21 -8
-21 -7 0 -9 -10 -4 -27 5 -23 4 -25 -10 -13 -8 7 -18 10 -22 6 -3 -3 -1 -6 5
-6 6 0 14 -9 17 -21 7 -21 7 -21 19 2 7 14 8 27 3 30 -5 4 -5 9 1 13 20 12 22
-26 3 -52 -24 -34 -77 -83 -114 -106 -27 -16 -28 -16 -52 8 -29 29 -34 20 -6
-10 18 -20 18 -21 0 -32 -26 -17 -33 -15 -62 12 -20 19 -27 21 -31 9 -3 -8 -1
-11 5 -8 6 4 7 -3 3 -19 -4 -16 -2 -26 5 -26 6 0 11 5 11 10 0 6 7 10 15 10
25 0 17 -17 -12 -25 -16 -3 -57 -20 -93 -37 -47 -22 -93 -34 -165 -43 -95 -12
-217 -6 -233 10 -4 4 2 6 13 4 11 -2 26 0 33 5 8 5 18 4 25 -3 6 -6 26 -11 45
-11 30 0 33 2 22 15 -7 8 -25 15 -39 15 -26 0 -79 29 -54 30 6 0 15 -4 18 -10
3 -5 16 -10 28 -10 21 0 21 1 -3 13 -14 7 -26 21 -28 32 -4 17 -3 18 13 2 17
-18 55 -23 55 -8 0 5 -6 11 -12 13 -9 3 -8 9 4 21 9 9 21 17 26 17 6 0 8 10 6
23 -2 12 -2 16 2 10 7 -15 34 -17 34 -3 0 14 27 12 34 -2 4 -7 4 -3 2 10 -2
12 0 20 4 17 5 -3 11 -1 15 5 3 5 0 10 -7 10 -24 0 16 20 41 20 19 0 21 2 11
15 -10 12 -7 17 14 26 14 7 26 18 26 26 0 7 5 13 12 13 6 0 31 9 55 21 35 17
46 19 58 9 13 -11 15 -8 15 19 0 18 4 30 10 26 5 -3 19 0 30 7 17 11 22 11 30
-2 8 -12 10 -9 10 12 0 20 4 26 14 22 8 -3 28 6 43 20 15 14 37 26 48 26 20 1
20 1 1 15 -17 13 -18 15 -3 15 9 0 17 7 17 15 0 8 9 15 19 15 14 0 18 5 14 20
-3 11 0 20 6 20 6 0 11 -7 11 -15 0 -25 17 -17 22 10 3 14 1 25 -4 25 -5 0 -6
6 -1 13 4 6 8 32 9 57 2 92 7 93 15 3 5 -51 13 -110 18 -130z m-1162 201 c-3
-3 -12 -4 -19 -1 -8 3 -5 6 6 6 11 1 17 -2 13 -5z m1354 -230 c30 -9 83 -31
119 -49 66 -33 119 -52 220 -79 501 -131 624 -204 772 -456 70 -118 99 -172
199 -370 51 -102 129 -250 173 -330 44 -80 93 -170 109 -200 17 -30 38 -64 47
-75 30 -35 110 -181 116 -213 9 -44 -1 -68 -21 -52 -44 36 -212 -21 -562 -192
-526 -255 -583 -276 -615 -225 -15 24 -48 121 -48 143 0 22 73 66 493 301 53
30 97 57 97 60 0 5 -144 -70 -313 -164 -96 -53 -239 -123 -251 -123 -4 0 -1 8
5 18 9 14 9 23 0 38 -10 17 -11 16 -5 -7 4 -18 1 -26 -9 -26 -10 0 -12 9 -7
36 4 20 11 45 15 55 6 13 5 17 -2 13 -6 -4 -13 -2 -15 5 -2 6 -12 9 -21 5 -14
-5 -15 -11 -7 -33 13 -33 23 -149 10 -118 -4 12 -11 36 -14 55 -3 19 -24 124
-46 234 -63 309 -64 464 -5 697 60 233 161 438 283 571 26 28 38 45 27 37 -81
-59 -192 -228 -260 -397 -110 -272 -138 -514 -96 -824 10 -75 17 -149 14 -165
-3 -22 -2 -26 6 -14 8 11 10 -1 9 -45 -1 -33 -6 -63 -12 -67 -7 -5 -7 -8 2 -8
11 0 12 -18 7 -88 -5 -54 -3 -102 4 -127 7 -26 7 -41 1 -43 -6 -2 -7 -9 -3
-15 3 -6 8 -36 10 -66 1 -31 7 -57 12 -59 6 -2 7 -10 4 -18 -3 -8 0 -14 7 -14
7 0 10 -6 7 -14 -3 -8 1 -17 9 -20 9 -3 13 -10 10 -14 -3 -5 4 -18 14 -30 11
-12 20 -26 20 -32 0 -5 10 -10 23 -10 12 0 29 -5 37 -10 11 -8 8 -9 -13 -4
-22 5 -26 3 -21 -10 3 -9 17 -16 30 -16 13 0 24 -4 24 -10 0 -5 -6 -10 -12
-10 -9 0 -8 -4 2 -10 25 -16 33 -11 26 15 -5 20 -2 27 16 35 22 8 21 9 -7 10
l-30 2 30 9 c23 6 33 17 40 41 9 29 7 36 -15 57 l-25 23 28 -6 c20 -5 27 -3
27 9 0 8 7 15 16 15 13 0 14 3 4 15 -10 11 -9 18 4 30 9 9 16 24 17 33 0 9 12
-8 26 -38 30 -67 138 -355 147 -391 4 -21 -6 -44 -50 -110 -90 -135 -84 -141
-84 82 0 205 -9 379 -19 379 -3 0 -5 -136 -3 -303 l3 -304 -33 -44 c-19 -24
-48 -65 -65 -90 l-32 -46 -66 -2 c-79 -2 -1703 60 -1920 74 -99 6 -424 16
-655 19 l-195 4 1 23 c1 13 13 74 27 134 34 148 64 335 77 475 5 63 12 135 15
160 17 161 31 357 50 695 3 55 12 170 20 255 21 227 62 819 66 958 1 22 3 29
6 17 8 -32 25 -48 34 -33 6 9 13 8 28 -6 11 -10 27 -16 36 -13 9 4 15 1 15 -8
0 -14 10 -17 67 -20 11 0 28 -7 37 -14 11 -9 30 -11 60 -7 27 4 47 3 51 -4 3
-5 17 -7 30 -4 19 5 24 1 27 -18 l3 -23 28 28 c16 16 26 34 23 42 -6 15 14 16
25 1 4 -4 10 -3 13 3 4 6 2 11 -3 11 -6 0 -11 7 -11 16 0 8 5 12 11 8 8 -4 9
4 5 27 l-6 34 17 -35 c76 -160 110 -216 160 -261 57 -53 138 -102 213 -130
435 -159 992 98 1229 568 31 63 25 76 -8 16 -123 -223 -301 -403 -496 -501
-143 -71 -356 -118 -497 -108 -118 8 -168 20 -263 65 -90 42 -185 123 -234
200 -33 51 -71 151 -71 185 1 21 1 21 13 1 7 -11 18 -21 25 -23 17 -3 40 20
34 36 -5 17 15 15 22 -3 15 -40 65 5 66 59 1 14 6 8 14 -16 16 -45 76 -128
118 -163 157 -132 445 -136 703 -10 196 96 355 256 399 402 6 18 2 25 -18 34
-27 13 -26 29 3 29 9 0 42 -7 72 -16z m-1266 -14 c-3 -5 -17 -10 -31 -10 -13
0 -24 -4 -24 -10 0 -5 -7 -10 -15 -10 -8 0 -15 -3 -15 -8 0 -4 -9 -13 -20 -20
-18 -11 -19 -11 -9 5 17 28 71 63 97 63 13 0 20 -4 17 -10z m-242 -30 c86 0
88 0 76 -21 -6 -12 -14 -17 -18 -12 -8 14 -454 16 -446 3 7 -12 -11 -20 -49
-23 -15 -1 -30 -7 -34 -13 -4 -6 -18 -15 -31 -19 -20 -6 -23 -4 -18 9 6 14 3
15 -14 5 -12 -6 -18 -17 -15 -25 4 -11 0 -13 -19 -8 -14 4 -25 2 -25 -4 0 -6
-8 -8 -19 -5 -23 6 -61 -32 -62 -61 0 -19 -1 -20 -8 -3 -6 16 -9 17 -19 4 -7
-8 -9 -22 -6 -32 6 -15 3 -17 -19 -11 -21 5 -25 3 -21 -9 4 -8 9 -15 13 -15 4
0 22 -14 40 -31 19 -17 40 -28 48 -24 11 3 13 1 9 -10 -5 -14 6 -19 42 -18 6
1 12 -3 12 -8 0 -5 9 -9 19 -9 10 0 21 -7 25 -15 7 -20 23 -19 30 3 8 27 -3
-231 -20 -458 -13 -184 -50 -517 -53 -481 -2 22 -30 -19 -31 -44 0 -12 -9 -38
-20 -60 -11 -22 -20 -48 -20 -58 0 -10 -4 -15 -10 -12 -5 3 -10 -1 -10 -9 0
-9 -14 -25 -30 -38 -17 -12 -37 -33 -46 -46 -15 -23 -15 -24 7 -17 21 7 22 6
7 -9 -10 -9 -24 -13 -35 -10 -14 5 -15 4 -4 -4 12 -9 9 -14 -17 -29 -18 -10
-32 -21 -32 -25 0 -5 -5 -8 -12 -8 -6 0 -27 -12 -47 -27 -20 -16 -40 -27 -44
-25 -7 2 -19 -6 -53 -37 -27 -24 -26 -4 3 50 53 102 38 300 -41 541 -74 227
-161 384 -276 498 -55 55 -151 120 -175 120 -5 -1 4 -8 20 -17 41 -22 122 -89
170 -141 120 -131 224 -351 291 -617 12 -49 18 -111 18 -205 1 -123 -1 -139
-23 -185 -14 -27 -24 -53 -23 -57 1 -5 -2 -8 -7 -8 -5 0 -29 -16 -53 -36 -44
-38 -96 -65 -135 -71 -28 -4 -29 2 -4 28 37 40 55 137 48 267 -15 280 -150
624 -315 803 -83 90 -151 124 -225 115 -36 -5 -57 -14 -69 -29 -18 -22 -18
-22 -18 -1 0 33 41 86 90 116 25 15 110 51 190 79 206 73 320 129 525 261 362
232 417 251 715 243 102 -3 225 -5 273 -5z m-310 -37 c-7 -2 -21 -2 -30 0 -10
3 -4 5 12 5 17 0 24 -2 18 -5z m427 -17 c0 -2 -8 -10 -17 -17 -16 -13 -17 -12
-4 4 13 16 21 21 21 13z m-600 -46 c0 -5 -2 -10 -4 -10 -3 0 -8 5 -11 10 -3 6
-1 10 4 10 6 0 11 -4 11 -10z m497 -172 c-3 -7 -5 -2 -5 12 0 14 2 19 5 13 2
-7 2 -19 0 -25z m83 -3 c0 -5 -5 -3 -10 5 -5 8 -10 20 -10 25 0 6 5 3 10 -5 5
-8 10 -19 10 -25z m-156 -140 c-4 -8 -8 -15 -10 -15 -2 0 -4 7 -4 15 0 8 4 15
10 15 5 0 7 -7 4 -15z m-3077 -198 c-9 -29 -18 -63 -20 -77 -3 -19 -5 -17 -6
9 0 19 4 61 11 93 9 44 14 54 21 42 6 -10 4 -34 -6 -67z m1481 -157 c7 -12 18
-18 24 -14 7 4 8 3 4 -5 -10 -16 3 -51 19 -51 7 0 15 5 17 11 4 12 108 -91
139 -137 32 -48 78 -151 89 -197 5 -24 12 -78 16 -120 6 -69 4 -77 -11 -77
-13 0 -16 -6 -11 -24 10 -39 -1 -53 -37 -50 -18 2 -23 1 -12 -2 32 -9 39 -22
10 -16 -24 4 -26 2 -20 -17 5 -18 2 -21 -19 -21 -19 0 -26 -5 -26 -20 0 -13
-7 -20 -18 -20 -11 0 -27 -9 -37 -20 -10 -11 -21 -17 -26 -15 -4 3 -11 1 -14
-5 -4 -6 -16 -8 -27 -4 -19 6 -19 5 -2 -22 l19 -27 -28 18 c-24 15 -33 16 -67
6 -44 -13 -56 -35 -14 -25 19 5 25 4 20 -5 -4 -6 -13 -11 -19 -11 -7 0 -31 -9
-52 -20 -22 -11 -46 -18 -54 -15 -9 3 -24 -6 -37 -22 -13 -16 -26 -24 -31 -19
-4 5 -2 11 5 13 14 5 16 23 2 23 -5 0 -12 -11 -16 -25 -6 -22 -9 -24 -23 -13
-9 7 -26 19 -38 26 -20 10 -23 10 -23 -3 0 -9 7 -18 15 -21 25 -10 17 -23 -12
-20 -38 5 -37 4 -23 21 6 8 9 19 5 25 -3 5 -1 10 4 10 17 0 13 27 -4 34 -8 3
-15 15 -15 26 0 11 -5 20 -11 20 -7 0 -9 -8 -5 -20 20 -66 21 -63 -5 -55 -13
4 -26 11 -29 16 -3 4 -14 7 -25 6 -14 -1 -19 3 -17 16 2 10 -2 25 -8 32 -7 8
-9 18 -6 23 3 6 -1 15 -9 22 -13 11 -15 8 -17 -16 -1 -20 -3 -14 -7 16 -3 25
-3 47 2 48 15 7 6 32 -12 32 -24 0 -41 20 -37 45 5 27 -4 40 -16 24 -6 -10 -7
-6 -2 11 4 14 12 29 18 33 6 4 -2 5 -19 2 l-30 -6 28 16 c33 19 35 37 5 50
-13 6 -24 16 -24 23 -1 6 -3 15 -4 20 -1 4 -2 11 -1 15 1 5 -9 5 -21 2 -32
-10 -22 -3 45 34 56 31 59 32 73 14 14 -17 14 -16 4 5 -9 18 -7 26 11 45 51
55 75 139 57 204 -8 28 -6 39 8 54 23 26 27 25 46 -21 9 -22 12 -38 7 -35 -5
4 -9 -8 -9 -24 0 -18 -5 -31 -12 -31 -8 0 -6 -6 5 -17 18 -19 57 -25 57 -9 0
6 5 5 12 -2 10 -9 8 -16 -5 -29 -10 -10 -17 -13 -17 -5 0 6 -7 9 -15 6 -12 -5
-13 -10 -4 -20 9 -11 8 -18 -1 -29 -10 -12 -9 -15 4 -15 9 0 20 8 23 18 4 9
14 24 22 32 13 13 14 13 7 -5 -16 -40 -18 -55 -7 -55 6 0 11 8 11 18 1 16 1
16 11 -1 8 -13 7 -22 -1 -33 -10 -11 -9 -14 5 -14 12 0 16 -6 12 -20 -3 -10 0
-21 6 -23 6 -2 11 -20 10 -40 -1 -20 3 -34 8 -31 16 10 9 -9 -8 -22 -16 -12
-15 -13 10 -14 15 0 30 6 33 14 7 17 -25 207 -37 222 -5 6 -6 14 -2 18 4 4 3
10 -3 14 -6 4 -22 27 -34 52 -13 25 -34 60 -48 78 -14 18 -23 34 -21 36 4 3
252 109 279 119 24 9 24 8 38 -13z m-1394 -230 c5 -51 4 -70 -3 -59 -14 22
-27 157 -13 144 5 -5 13 -44 16 -85z m1097 19 c11 -21 0 -38 -23 -39 -13 0 -9
18 5 23 9 3 9 7 -2 20 -8 11 -9 17 -3 17 6 0 16 -10 23 -21z m-1050 -52 c-10
-9 -11 -8 -5 6 3 10 9 15 12 12 3 -3 0 -11 -7 -18z m429 -181 c0 -3 -4 -8 -10
-11 -5 -3 -10 -1 -10 4 0 6 5 11 10 11 6 0 10 -2 10 -4z m-280 -78 c24 -8 29
-13 18 -17 -14 -5 -13 -12 4 -61 19 -57 26 -79 27 -93 1 -5 6 -5 12 -2 6 4 9
1 8 -6 -2 -8 7 -35 19 -61 12 -26 22 -53 22 -60 -1 -20 -77 120 -102 187 -12
33 -28 71 -35 85 -22 43 -20 45 27 28z m656 -55 c-10 -10 -19 5 -10 18 6 11 8
11 12 0 2 -7 1 -15 -2 -18z m574 -263 c0 -5 -2 -10 -4 -10 -3 0 -8 5 -11 10
-3 6 -1 10 4 10 6 0 11 -4 11 -10z m-1084 -32 c9 -18 26 -43 37 -55 11 -13 16
-23 11 -23 -9 0 -74 90 -74 103 0 15 10 6 26 -25z m944 -48 c0 -5 -5 -10 -11
-10 -5 0 -7 5 -4 10 3 6 8 10 11 10 2 0 4 -4 4 -10z m-40 -40 c0 -5 -4 -10
-10 -10 -5 0 -10 5 -10 10 0 6 5 10 10 10 6 0 10 -4 10 -10z m3830 -139 c0 -6
-4 -13 -10 -16 -5 -3 -10 1 -10 9 0 9 5 16 10 16 6 0 10 -4 10 -9z m179 -395
c-2 -2 -22 -7 -44 -10 l-40 -5 40 13 c36 12 55 13 44 2z m-54 -137 c11 -16 1
-19 -13 -3 -7 8 -8 14 -3 14 5 0 13 -5 16 -11z m-19 -45 c-4 -9 -9 -15 -11
-12 -3 3 -3 13 1 22 4 9 9 15 11 12 3 -3 3 -13 -1 -22z m554 -314 c0 -5 -5
-10 -11 -10 -5 0 -7 5 -4 10 3 6 8 10 11 10 2 0 4 -4 4 -10z m5 -40 c-3 -5
-12 -7 -20 -3 -21 7 -19 13 6 13 11 0 18 -4 14 -10z m-140 -110 c3 -5 -1 -10
-9 -10 -9 0 -16 5 -16 10 0 6 4 10 9 10 6 0 13 -4 16 -10z m-208 -206 c-3 -3
-12 -4 -19 -1 -8 3 -5 6 6 6 11 1 17 -2 13 -5z"/>
<path d="M10852 15485 c-16 -13 -35 -38 -42 -55 -12 -29 -34 -44 -26 -17 3 6
7 27 10 45 5 30 4 33 -17 30 -13 -2 -29 -16 -38 -36 -11 -21 -19 -28 -22 -20
-4 10 -10 8 -21 -6 -30 -37 -14 -186 20 -186 8 0 14 10 15 23 1 21 1 21 8 -3
9 -32 37 -38 46 -10 l6 20 17 -20 c16 -20 20 -20 72 -8 85 19 427 16 512 -5
115 -28 224 -76 318 -138 49 -32 91 -59 94 -59 14 0 3 42 -25 99 -38 76 -150
192 -239 251 -105 67 -247 99 -473 105 -71 2 -131 6 -135 9 -13 14 -53 4 -80
-19z"/>
<path d="M10301 15439 c-24 -5 -47 -11 -50 -15 -10 -11 113 6 123 16 12 12
-10 11 -73 -1z"/>
<path d="M9880 15350 c0 -5 5 -10 11 -10 5 0 7 5 4 10 -3 6 -8 10 -11 10 -2 0
-4 -4 -4 -10z"/>
<path d="M9881 15154 c0 -11 3 -14 6 -6 3 7 2 16 -1 19 -3 4 -6 -2 -5 -13z"/>
<path d="M11137 15019 c-21 -5 -48 -16 -60 -24 -27 -19 -24 -19 38 1 28 9 84
19 125 23 l75 8 -70 1 c-38 0 -87 -4 -108 -9z"/>
<path d="M11159 14989 c-48 -11 -148 -70 -188 -111 -71 -72 -122 -213 -120
-333 l2 -70 8 61 c17 134 48 204 120 268 162 147 456 130 616 -36 113 -117
135 -259 56 -366 -32 -42 -58 -59 -140 -87 -37 -13 -60 -24 -51 -24 33 -2 150
48 178 74 46 44 82 128 88 204 13 181 -114 352 -305 411 -69 21 -195 26 -264
9z"/>
<path d="M11037 14973 c-4 -3 -7 -11 -7 -17 0 -6 5 -5 12 2 6 6 9 14 7 17 -3
3 -9 2 -12 -2z"/>
<path d="M11189 14834 c-59 -18 -141 -93 -168 -154 -14 -30 -21 -66 -21 -110
0 -115 63 -215 173 -272 34 -18 57 -22 116 -20 64 1 80 6 123 33 162 104 187
327 51 462 -72 72 -169 94 -274 61z m207 -159 c20 -31 11 -45 -31 -45 -37 0
-60 26 -49 54 10 26 61 20 80 -9z"/>
<path d="M9590 14731 c-131 -43 -210 -154 -210 -296 0 -107 78 -218 186 -266
42 -19 47 -19 106 -4 122 31 192 95 224 204 39 133 -22 287 -138 347 -36 19
-131 27 -168 15z m205 -182 c0 -19 -6 -25 -31 -27 -36 -4 -59 18 -49 47 13 42
80 25 80 -20z"/>
<path d="M12535 14370 c-70 -36 -126 -87 -166 -149 -38 -58 -37 -80 6 -114 40
-31 61 -89 51 -139 -8 -44 -58 -103 -107 -128 -21 -11 -39 -24 -39 -28 0 -27
61 -44 76 -21 3 6 15 8 26 6 20 -6 68 31 68 52 0 7 6 24 14 40 8 15 11 33 7
39 -5 8 -12 -2 -21 -27 -7 -22 -16 -38 -21 -36 -10 7 27 101 39 98 6 -1 9 8 8
21 0 13 -4 22 -7 20 -10 -6 -20 42 -13 63 5 15 4 15 -5 3 -6 -8 -11 -10 -11
-4 0 6 -16 32 -36 58 l-36 47 28 37 c64 84 119 122 189 129 35 4 55 2 55 -5 0
-5 11 -13 24 -16 14 -3 38 -18 55 -32 l31 -26 0 41 c0 34 -5 44 -35 67 -54 41
-107 43 -180 4z"/>
<path d="M10998 14283 c7 -3 16 -2 19 1 4 3 -2 6 -13 5 -11 0 -14 -3 -6 -6z"/>
<path d="M9822 14191 c-8 -4 -14 -12 -15 -17 -1 -5 -10 -9 -19 -8 -14 0 -15
-3 -6 -20 10 -19 11 -19 25 0 17 22 35 54 31 54 -2 0 -9 -4 -16 -9z"/>
<path d="M9654 14118 l-19 -23 25 20 c14 11 27 21 29 22 2 2 0 3 -6 3 -5 0
-18 -10 -29 -22z"/>
<path d="M9607 14116 c-4 -10 -1 -13 9 -9 7 3 14 9 14 14 0 14 -17 10 -23 -5z"/>
<path d="M10473 13900 c-56 -34 -30 -57 27 -25 14 8 37 14 53 15 17 0 27 5 27
15 0 22 -68 19 -107 -5z"/>
<path d="M12471 13864 c0 -11 3 -14 6 -6 3 7 2 16 -1 19 -3 4 -6 -2 -5 -13z"/>
<path d="M12510 13870 c0 -5 5 -10 11 -10 5 0 7 5 4 10 -3 6 -8 10 -11 10 -2
0 -4 -4 -4 -10z"/>
<path d="M11115 13706 c-24 -37 -97 -60 -302 -96 -60 -10 -146 -26 -193 -35
-218 -40 -266 -47 -420 -61 -272 -23 -394 -18 -403 17 -8 30 -55 25 -63 -5 -7
-28 1 -46 21 -46 7 0 46 -37 86 -82 143 -159 273 -226 454 -235 331 -17 647
143 813 412 27 44 53 78 57 77 9 -4 25 18 25 35 0 16 -28 43 -45 43 -8 0 -22
-11 -30 -24z m-95 -86 c0 -21 -30 -68 -59 -93 -55 -46 -284 -107 -529 -141
-151 -21 -359 -21 -411 0 -37 15 -98 70 -88 81 3 2 23 6 44 9 21 2 106 11 188
19 210 22 619 86 820 128 33 8 35 7 35 -3z"/>
<path d="M9280 13660 c0 -11 4 -20 9 -20 5 0 11 9 14 20 3 13 0 20 -9 20 -8 0
-14 -9 -14 -20z"/>
<path d="M12188 13513 c7 -3 16 -2 19 1 4 3 -2 6 -13 5 -11 0 -14 -3 -6 -6z"/>
<path d="M9320 13420 c0 -11 5 -20 10 -20 6 0 10 9 10 20 0 11 -4 20 -10 20
-5 0 -10 -9 -10 -20z"/>
<path d="M9408 13203 c6 -2 18 -2 25 0 6 3 1 5 -13 5 -14 0 -19 -2 -12 -5z"/>
<path d="M9210 14749 c0 -5 5 -7 10 -4 6 3 10 8 10 11 0 2 -4 4 -10 4 -5 0
-10 -5 -10 -11z"/>
<path d="M6761 12295 c1 -19 18 -51 18 -35 0 8 -4 22 -9 30 -5 8 -9 11 -9 5z"/>
<path d="M6700 12172 c0 -5 7 -15 15 -22 8 -7 15 -9 15 -6 0 4 -7 14 -15 22
-8 9 -15 11 -15 6z"/>
<path d="M6968 11563 c7 -3 16 -2 19 1 4 3 -2 6 -13 5 -11 0 -14 -3 -6 -6z"/>
<path d="M7120 11549 c0 -5 5 -7 10 -4 6 3 10 8 10 11 0 2 -4 4 -10 4 -5 0
-10 -5 -10 -11z"/>
<path d="M7418 11193 c-16 -2 -28 -8 -28 -13 0 -5 13 -5 29 0 16 4 32 6 35 2
3 -3 6 0 6 6 0 7 -3 11 -7 11 -5 -1 -20 -4 -35 -6z"/>
<path d="M11030 12370 c-8 -5 -11 -12 -7 -16 4 -4 15 0 24 9 18 18 8 23 -17 7z"/>
<path d="M11102 12306 c7 -8 15 -12 17 -11 5 6 -10 25 -20 25 -5 0 -4 -6 3
-14z"/>
<path d="M10973 12303 c9 -2 25 -2 35 0 9 3 1 5 -18 5 -19 0 -27 -2 -17 -5z"/>
<path d="M11170 12279 c0 -5 5 -7 10 -4 6 3 10 8 10 11 0 2 -4 4 -10 4 -5 0
-10 -5 -10 -11z"/>
<path d="M10985 12230 c3 -5 8 -10 11 -10 2 0 4 5 4 10 0 6 -5 10 -11 10 -5 0
-7 -4 -4 -10z"/>
<path d="M10961 12194 c0 -11 3 -14 6 -6 3 7 2 16 -1 19 -3 4 -6 -2 -5 -13z"/>
<path d="M10950 12161 c0 -6 4 -13 10 -16 6 -3 7 1 4 9 -7 18 -14 21 -14 7z"/>
<path d="M11010 12124 c-14 -8 -18 -13 -10 -13 24 1 55 15 44 21 -5 2 -20 -1
-34 -8z"/>
<path d="M10925 12080 c3 -5 10 -10 16 -10 5 0 9 5 9 10 0 6 -7 10 -16 10 -8
0 -12 -4 -9 -10z"/>
<path d="M10770 12064 c0 -8 5 -12 10 -9 6 3 10 10 10 16 0 5 -4 9 -10 9 -5 0
-10 -7 -10 -16z"/>
<path d="M10557 12045 c3 -8 9 -12 14 -9 12 7 11 11 -5 17 -10 4 -13 1 -9 -8z"/>
<path d="M10730 12021 c0 -12 -6 -21 -14 -21 -7 0 -19 -7 -27 -16 -8 -10 -21
-13 -38 -9 -20 4 -22 3 -11 -5 16 -11 77 -14 67 -3 -4 3 7 15 24 25 30 18 35
38 11 46 -7 2 -12 -6 -12 -17z"/>
<path d="M10813 12033 c-34 -5 -79 -53 -48 -53 8 0 15 5 15 10 0 6 8 10 18 10
9 0 28 9 42 20 14 11 21 19 15 18 -5 -1 -24 -3 -42 -5z"/>
<path d="M10661 12016 c-8 -10 -9 -16 -1 -21 5 -3 13 1 16 10 9 22 -1 29 -15
11z"/>
<path d="M10556 12001 c-4 -5 3 -7 14 -4 23 6 26 13 6 13 -8 0 -17 -4 -20 -9z"/>
<path d="M10570 11976 c0 -9 40 -13 46 -5 3 5 -6 9 -20 9 -14 0 -26 -2 -26 -4z"/>
<path d="M10086 12133 c-6 -14 -5 -15 5 -6 7 7 10 15 7 18 -3 3 -9 -2 -12 -12z"/>
<path d="M9345 11040 c-4 -17 -5 -34 -2 -36 2 -3 7 10 11 27 8 42 0 50 -9 9z"/>
<path d="M9335 10960 c-3 -5 -2 -17 3 -26 8 -14 10 -12 10 9 0 29 -3 33 -13
17z"/>
<path d="M9340 10896 c0 -8 4 -17 9 -20 5 -4 7 3 4 14 -6 23 -13 26 -13 6z"/>
<path d="M12890 10880 c-9 -6 -10 -10 -3 -10 6 0 15 5 18 10 8 12 4 12 -15 0z"/>
<path d="M12928 10883 c7 -3 16 -2 19 1 4 3 -2 6 -13 5 -11 0 -14 -3 -6 -6z"/>
<path d="M12796 10851 c-4 -5 3 -7 14 -4 23 6 26 13 6 13 -8 0 -17 -4 -20 -9z"/>
<path d="M11835 10800 c3 -5 8 -10 11 -10 2 0 4 5 4 10 0 6 -5 10 -11 10 -5 0
-7 -4 -4 -10z"/>
<path d="M12540 10740 c-30 -16 -51 -29 -47 -30 10 0 107 49 107 55 0 7 1 7
-60 -25z"/>
<path d="M11836 10735 c-3 -8 -1 -15 3 -15 5 0 11 7 15 15 3 8 1 15 -3 15 -5
0 -11 -7 -15 -15z"/>
<path d="M11852 10711 c-8 -5 -12 -17 -10 -27 5 -18 5 -18 13 1 5 11 13 23 19
27 16 11 -6 10 -22 -1z"/>
<path d="M11856 10618 c10 -36 26 -58 20 -28 -3 14 -6 31 -6 38 0 6 -5 12 -11
12 -6 0 -8 -9 -3 -22z"/>
<path d="M11917 10288 c7 -27 33 -68 33 -52 0 12 -29 74 -35 74 -2 0 -1 -10 2
-22z"/>
<path d="M11970 10237 c0 -9 -5 -17 -11 -17 -5 0 -7 -5 -4 -10 4 -6 12 -4 22
6 12 11 13 18 4 27 -8 8 -11 7 -11 -6z"/>
<path d="M11976 9343 c15 -16 15 -17 -2 -24 -17 -7 -18 -8 -1 -8 23 -1 34 28
16 40 -23 15 -31 10 -13 -8z"/>
<path d="M8190 11623 c1 -11 26 -43 34 -43 11 0 6 21 -8 36 -16 15 -26 18 -26
7z"/>
<path d="M8030 11550 c-9 -6 -10 -10 -3 -10 6 0 15 5 18 10 8 12 4 12 -15 0z"/>
<path d="M8160 11550 c0 -5 4 -10 9 -10 6 0 13 5 16 10 3 6 -1 10 -9 10 -9 0
-16 -4 -16 -10z"/>
<path d="M8211 11543 c-6 -11 -21 -17 -43 -17 -31 0 -33 -1 -18 -16 10 -11 17
-13 22 -6 5 8 14 7 28 -2 11 -7 20 -8 20 -3 0 5 12 13 27 18 22 8 24 11 10 16
-9 3 -17 2 -17 -4 0 -6 -4 -8 -10 -4 -5 3 -7 12 -3 20 7 21 -4 19 -16 -2z"/>
<path d="M8074 11541 c3 -5 -9 -12 -28 -15 -27 -5 -33 -10 -29 -25 6 -23 60
-34 68 -14 2 8 1 12 -4 8 -14 -8 -42 6 -35 17 3 5 12 7 20 4 8 -3 14 0 14 6 0
9 3 9 12 0 20 -20 32 -13 13 8 -18 20 -41 28 -31 11z"/>
<path d="M8280 11534 c0 -8 5 -12 10 -9 6 3 10 10 10 16 0 5 -4 9 -10 9 -5 0
-10 -7 -10 -16z"/>
<path d="M7960 11514 c0 -8 -4 -13 -9 -10 -5 4 -7 -3 -4 -14 3 -11 9 -20 13
-20 19 0 39 -33 36 -58 -2 -15 -1 -21 1 -14 2 6 8 12 13 12 4 0 6 9 3 20 -4
14 0 20 11 20 9 0 16 5 16 11 0 5 -8 10 -17 9 -26 -3 -63 11 -63 22 0 6 11 7
26 4 23 -6 24 -5 14 14 -13 24 -40 27 -40 4z"/>
<path d="M8313 11522 c-8 -5 -7 -11 3 -19 15 -14 27 -3 16 14 -4 7 -13 9 -19
5z"/>
<path d="M8236 11484 c-9 -24 -7 -27 9 -10 17 17 19 26 6 26 -5 0 -12 -7 -15
-16z"/>
<path d="M8170 11470 c0 -5 7 -10 15 -10 8 0 15 5 15 10 0 6 -7 10 -15 10 -8
0 -15 -4 -15 -10z"/>
<path d="M7966 11436 c3 -9 11 -16 16 -16 13 0 5 23 -10 28 -7 2 -10 -2 -6
-12z"/>
<path d="M7831 11304 c0 -11 3 -14 6 -6 3 7 2 16 -1 19 -3 4 -6 -2 -5 -13z"/>
<path d="M7779 11233 c-13 -16 -12 -17 4 -4 16 13 21 21 13 21 -2 0 -10 -8
-17 -17z"/>
<path d="M8065 11199 c-4 -6 -5 -12 -2 -15 2 -3 7 2 10 11 7 17 1 20 -8 4z"/>
<path d="M7676 11159 c2 -4 -2 -10 -8 -12 -8 -4 -9 -6 -2 -6 6 -1 17 5 23 12
8 10 7 14 -4 14 -8 0 -12 -4 -9 -8z"/>
<path d="M8015 11059 c-11 -17 1 -21 15 -4 8 9 8 15 2 15 -6 0 -14 -5 -17 -11z"/>
<path d="M8000 10870 c0 -5 5 -10 10 -10 6 0 10 5 10 10 0 6 -4 10 -10 10 -5
0 -10 -4 -10 -10z"/>
<path d="M8320 10870 c0 -5 4 -10 9 -10 6 0 13 5 16 10 3 6 -1 10 -9 10 -9 0
-16 -4 -16 -10z"/>
<path d="M7965 10710 c4 -6 11 -8 16 -5 14 9 11 15 -7 15 -8 0 -12 -5 -9 -10z"/>
<path d="M12720 9709 c0 -5 5 -7 10 -4 6 3 10 8 10 11 0 2 -4 4 -10 4 -5 0
-10 -5 -10 -11z"/>
<path d="M12938 9273 c7 -3 16 -2 19 1 4 3 -2 6 -13 5 -11 0 -14 -3 -6 -6z"/>
<path d="M7100 9131 c-42 -44 -63 -109 -80 -245 -19 -152 -2 -343 37 -419 13
-27 27 -47 30 -44 3 3 -4 26 -16 51 -12 24 -27 75 -33 113 -14 93 -4 341 18
423 17 66 60 139 81 140 16 0 28 20 12 20 -7 0 -29 -17 -49 -39z"/>
<path d="M13680 9081 c0 -4 11 -6 25 -3 14 2 25 6 25 8 0 2 -11 4 -25 4 -14 0
-25 -4 -25 -9z"/>
<path d="M13470 9069 c-60 -9 -183 -17 -354 -24 -59 -3 -111 -7 -115 -10 -4
-2 -68 -9 -142 -15 -74 -6 -197 -17 -274 -25 -77 -8 -268 -26 -425 -40 -157
-14 -294 -27 -306 -30 -20 -4 -92 -10 -239 -20 -101 -6 -187 -23 -196 -37 -12
-18 -8 -19 52 -9 87 15 227 29 674 66 483 40 605 51 730 65 50 5 164 17 255
26 91 9 215 23 275 30 61 8 144 17 185 20 41 4 77 8 79 10 7 7 -142 2 -199 -7z"/>
<path d="M13700 9059 c0 -5 5 -7 10 -4 6 3 10 8 10 11 0 2 -4 4 -10 4 -5 0
-10 -5 -10 -11z"/>
<path d="M13671 8904 c0 -11 3 -14 6 -6 3 7 2 16 -1 19 -3 4 -6 -2 -5 -13z"/>
<path d="M11362 8645 c0 -16 2 -22 5 -12 2 9 2 23 0 30 -3 6 -5 -1 -5 -18z"/>
<path d="M7730 8416 c0 -9 5 -16 10 -16 6 0 10 4 10 9 0 6 -4 13 -10 16 -5 3
-10 -1 -10 -9z"/>
<path d="M7760 8410 c0 -5 7 -10 16 -10 8 0 12 5 9 10 -3 6 -10 10 -16 10 -5
0 -9 -4 -9 -10z"/>
<path d="M7125 8400 c11 -5 36 -9 55 -10 19 -1 44 -5 55 -10 25 -10 17 -13
-78 -35 -176 -39 -206 -93 -214 -385 -6 -195 5 -300 39 -368 29 -57 68 -80
153 -87 102 -10 107 -14 45 -38 -51 -20 -57 -27 -87 -87 -42 -85 -57 -183 -49
-325 6 -115 26 -202 54 -242 10 -13 34 -33 55 -44 41 -22 41 -39 -1 -39 -52
-1 -109 -36 -134 -82 -21 -40 -23 -55 -23 -198 1 -99 6 -169 14 -193 18 -52
56 -94 91 -102 51 -11 33 -22 -47 -28 -150 -11 -193 -90 -193 -357 0 -216 24
-305 94 -350 28 -18 34 -26 22 -28 -37 -8 -7 -27 45 -30 54 -2 292 -23 484
-42 566 -56 984 -95 1280 -120 66 -6 264 -24 440 -40 176 -17 496 -46 710 -65
215 -19 561 -50 770 -70 552 -50 867 -75 970 -75 74 0 172 17 560 95 259 53
495 100 525 106 30 6 125 26 210 44 85 19 191 41 235 49 119 23 650 132 724
150 79 19 105 42 103 92 -1 20 -4 39 -6 42 -3 2 -30 5 -61 6 -37 1 -59 7 -66
16 -7 11 -8 7 -3 -12 3 -16 3 -28 -1 -28 -4 0 -264 -51 -579 -114 -510 -102
-997 -198 -1441 -284 -82 -16 -155 -27 -162 -25 -18 7 -24 41 -30 173 -6 136
8 273 31 319 10 19 26 30 48 35 80 16 577 107 718 131 85 14 238 41 340 60
102 19 298 55 435 80 138 25 332 61 431 80 100 19 184 35 188 35 3 0 7 -26 7
-57 l2 -58 6 57 c3 31 8 58 11 61 3 2 32 11 65 19 65 15 90 42 76 82 -7 17
-18 22 -65 24 -43 2 -56 7 -56 19 0 11 -4 13 -12 6 -12 -10 -61 -21 -122 -29
-16 -2 -88 -15 -160 -29 -72 -13 -147 -27 -166 -30 -19 -2 -55 -9 -80 -14 -25
-5 -79 -14 -120 -21 -41 -6 -131 -22 -200 -36 -69 -13 -260 -46 -425 -74 -165
-28 -349 -59 -410 -69 -60 -10 -150 -24 -200 -31 -49 -7 -107 -17 -128 -22
-52 -12 -267 -48 -293 -48 -11 0 -41 13 -66 29 -25 16 -49 27 -51 24 -3 -3
-11 -2 -17 2 -6 4 -39 8 -73 11 -70 4 -185 20 -265 35 -30 6 -83 11 -118 12
-49 1 -63 4 -60 14 7 17 -9 17 -24 -1 -8 -11 -18 -12 -36 -5 -14 5 -39 9 -55
9 -17 0 -28 3 -26 8 3 4 -2 13 -10 21 -13 12 -14 11 -9 -5 5 -16 1 -19 -23
-19 -16 0 -32 3 -35 6 -4 3 -24 4 -45 2 -22 -2 -42 1 -45 6 -4 6 -14 7 -22 4
-11 -4 -15 0 -12 13 2 15 -3 19 -24 17 -19 -1 -28 3 -28 13 0 8 -4 12 -10 9
-16 -10 -12 -23 10 -30 23 -7 27 -25 6 -25 -8 0 -17 7 -20 16 -5 13 -14 15
-39 10 -22 -4 -27 -3 -17 4 12 7 12 12 2 22 -9 9 -12 9 -12 0 0 -8 -24 -12
-80 -12 -69 0 -80 -2 -80 -17 -1 -14 -5 -12 -21 10 -18 24 -27 27 -82 28 l-62
1 45 12 45 11 -82 3 c-50 2 -83 7 -83 13 0 6 -7 8 -16 5 -9 -4 -28 1 -41 10
-14 8 -28 13 -31 9 -4 -3 0 -10 7 -14 9 -6 10 -11 2 -15 -6 -4 -14 0 -17 8 -3
9 -14 16 -23 16 -9 0 -23 6 -30 13 -10 10 -12 7 -9 -12 2 -14 -2 -25 -10 -27
-7 -1 -8 0 -2 3 8 3 7 9 -1 19 -15 18 -29 18 -29 -1 0 -8 -4 -15 -10 -15 -5 0
-10 7 -10 15 0 22 -22 65 -34 65 -6 0 -5 -5 2 -12 14 -14 16 -48 3 -48 -5 0
-7 9 -4 20 4 14 0 20 -11 20 -9 0 -16 -8 -16 -20 0 -25 -9 -25 -26 -2 -21 27
-17 44 9 38 12 -3 16 -3 10 0 -7 3 -13 23 -13 45 0 21 -4 39 -10 39 -5 0 -10
7 -10 15 0 23 77 21 83 -2 3 -10 5 1 6 25 1 34 4 42 20 42 11 0 26 3 35 6 12
5 16 0 16 -20 0 -31 14 -33 37 -6 10 11 29 20 42 20 19 0 22 -3 13 -12 -20
-20 -14 -38 12 -38 28 0 41 14 30 32 -5 7 -7 30 -5 52 2 24 -2 42 -11 47 -24
16 17 10 48 -6 16 -8 39 -15 52 -15 37 0 24 -19 -18 -26 -22 -4 -40 -10 -40
-14 0 -10 91 -31 102 -24 13 8 9 41 -7 54 -22 18 -18 30 10 30 17 0 25 -5 25
-18 0 -9 11 -29 24 -43 l23 -25 -34 -1 c-41 -1 -51 -9 -34 -26 10 -9 16 -8 28
8 10 13 17 16 20 8 3 -8 15 -10 32 -7 18 4 33 0 44 -11 10 -9 17 -12 17 -6 0
5 -7 17 -16 25 -8 9 -11 16 -5 16 6 0 11 14 11 30 0 28 2 30 39 30 45 0 56 16
36 54 -13 24 -12 25 8 22 16 -2 22 -10 22 -30 -1 -15 5 -26 12 -26 7 0 12 8
11 18 -1 9 0 28 0 41 3 36 20 14 24 -29 3 -34 4 -35 46 -36 l42 -1 -40 4 c-25
3 -40 9 -40 18 0 9 23 15 80 20 44 4 80 11 80 16 0 15 70 10 76 -5 3 -8 12
-12 20 -9 8 3 11 10 8 15 -4 6 4 8 22 5 16 -3 66 -9 112 -13 57 -4 85 -11 89
-20 5 -15 69 -20 75 -6 2 4 38 6 81 4 56 -3 77 -8 77 -18 0 -8 6 -11 15 -8 8
4 12 10 9 15 -3 5 9 9 26 9 18 0 29 -4 25 -10 -3 -5 -1 -10 4 -10 6 0 11 5 11
10 0 15 31 12 64 -5 36 -19 41 -19 61 1 14 15 18 15 41 -1 15 -9 23 -12 20 -6
-5 7 5 11 27 11 20 0 44 8 57 20 13 11 28 20 34 20 18 0 403 58 571 85 83 14
240 38 350 55 110 17 270 42 355 55 464 75 662 108 815 135 94 16 186 30 205
31 19 1 27 3 18 6 -26 7 -22 16 12 31 35 16 60 38 60 55 0 8 -3 8 -12 -1 -7
-7 -17 -8 -30 -1 -23 12 -24 38 0 34 9 -1 16 -9 14 -16 -3 -11 -1 -12 9 -1 24
23 -7 37 -82 37 -38 0 -69 -3 -69 -7 0 -5 -10 -8 -22 -9 l-23 0 23 -9 c13 -6
32 -6 48 0 40 16 96 -5 65 -24 -5 -4 -12 0 -15 6 -5 10 -7 10 -12 1 -3 -7 -18
-13 -34 -13 -15 0 -33 -6 -39 -14 -12 -14 -151 -33 -199 -28 -15 2 -21 -1 -17
-7 9 -15 -11 -14 -36 2 -17 10 -22 9 -33 -5 -14 -19 -42 -26 -31 -8 4 6 -10
10 -37 9 -24 -1 -35 -3 -25 -6 9 -2 17 -8 17 -13 0 -4 -10 -6 -22 -2 -14 3
-19 2 -14 -6 4 -7 1 -12 -8 -12 -9 0 -16 5 -16 10 0 7 -6 7 -19 1 -10 -6 -55
-12 -99 -15 -44 -3 -95 -12 -114 -21 l-33 -15 35 5 c19 2 46 7 60 10 14 3 9
-1 -12 -9 -50 -20 -94 -24 -91 -8 2 7 -7 12 -25 11 -46 -2 -87 -15 -85 -26 4
-19 -100 -30 -294 -33 -12 0 -25 -5 -29 -11 -4 -7 4 -10 22 -9 56 4 48 -2 -21
-17 -95 -19 -115 -22 -225 -28 -52 -3 -115 -9 -140 -14 -25 -5 -49 -7 -54 -3
-19 11 -66 7 -66 -6 0 -7 -5 -10 -10 -7 -6 4 -8 10 -5 15 3 5 -7 10 -22 12
-16 2 26 11 92 21 66 10 145 22 175 27 30 5 73 12 95 15 22 3 119 19 215 35
96 16 202 31 235 35 33 3 94 12 135 20 140 25 215 35 248 33 19 0 37 4 41 10
3 6 44 16 89 22 84 11 146 28 109 29 -10 1 -138 -20 -285 -45 -147 -25 -296
-49 -332 -54 -36 -5 -90 -14 -120 -20 -30 -6 -113 -19 -185 -30 -71 -11 -143
-22 -160 -25 -76 -12 -634 -97 -670 -102 -22 -2 -86 -12 -143 -22 l-103 -18
-17 26 c-14 21 -17 54 -17 206 0 179 14 294 39 314 16 13 143 36 386 71 118
17 289 42 380 55 91 13 264 37 385 54 634 89 940 132 1030 146 55 8 114 15
132 15 19 0 43 9 59 24 25 21 27 27 18 56 -5 19 -16 36 -24 38 -12 4 -13 3 -2
-10 7 -9 10 -23 6 -32 -7 -19 -20 -21 -30 -5 -8 14 -65 7 -129 -16 -27 -10
-57 -20 -65 -23 -24 -7 -100 -14 -162 -15 -44 -1 -58 -5 -58 -16 0 -12 -3 -11
-13 3 -9 12 -19 15 -32 10 -19 -8 -18 -9 5 -15 20 -6 17 -7 -17 -8 -23 -1 -70
-7 -105 -15 -35 -8 -85 -17 -113 -19 -27 -2 -57 -7 -65 -10 -8 -3 -40 -8 -70
-11 -30 -3 -48 -3 -40 0 8 3 22 8 30 11 8 4 21 5 29 4 8 -1 17 3 21 9 4 6 22
12 41 12 19 0 39 4 44 8 6 4 42 11 80 14 80 8 145 23 145 34 0 11 59 33 99 38
51 5 50 14 -1 14 -24 0 -48 -3 -52 -7 -3 -4 -27 -8 -53 -9 -80 -3 -23 13 107
30 143 18 178 20 164 7 -5 -5 -18 -11 -29 -14 -18 -4 -18 -5 3 -6 12 0 30 7
40 17 12 12 30 16 65 14 26 -2 47 -8 47 -14 0 -7 4 -7 13 0 16 14 49 18 65 9
8 -5 12 -3 12 7 0 13 -13 16 -70 16 -70 0 -93 14 -45 26 56 14 86 93 43 114
-21 10 -21 10 -5 -3 9 -8 17 -24 17 -35 0 -35 -40 -53 -123 -55 -41 -1 -73 -5
-71 -9 3 -4 -24 -5 -59 -1 -47 4 -66 2 -72 -7 -6 -10 -4 -12 8 -7 10 3 17 2
17 -3 0 -6 -15 -10 -32 -10 -25 0 -29 3 -18 10 10 6 3 8 -25 4 -69 -9 -86 -14
-80 -24 3 -6 -1 -10 -10 -10 -9 0 -13 5 -10 10 3 6 -1 10 -9 10 -8 0 -20 -8
-25 -17 -6 -10 -11 -12 -11 -5 0 6 -12 12 -27 12 -18 0 -24 -3 -15 -8 8 -6 0
-9 -20 -9 -18 0 -50 -5 -70 -10 -26 -8 -40 -7 -48 1 -9 8 -14 8 -17 -1 -3 -9
-22 -11 -65 -6 -41 4 -59 3 -55 -4 4 -6 19 -9 34 -7 24 4 25 3 8 -5 -27 -13
-68 -13 -60 -1 3 6 -1 10 -10 10 -9 0 -13 -4 -10 -10 6 -10 -26 -14 -73 -10
-13 1 -28 -2 -35 -7 -14 -10 -70 -18 -139 -18 -25 0 -41 -3 -35 -7 7 -5 0 -8
-16 -8 -16 0 -26 4 -22 10 3 6 2 10 -3 10 -6 0 -12 -7 -15 -15 -5 -11 -23 -14
-74 -13 -86 2 -167 -11 -138 -23 14 -5 4 -7 -30 -7 -27 0 -88 -7 -135 -15 -47
-9 -112 -17 -145 -18 -33 -1 -72 -9 -88 -18 -22 -13 -31 -13 -47 -3 -23 14
-33 16 -25 3 8 -15 -15 -25 -28 -12 -6 6 -18 11 -27 10 -10 0 -11 -2 -2 -6 24
-9 0 -23 -41 -23 -23 0 -85 -7 -137 -16 -86 -14 -130 -13 -182 2 -12 4 -18 0
-18 -12 0 -12 -4 -14 -12 -7 -9 7 -40 7 -91 0 l-77 -10 -73 35 -72 36 -280 21
c-318 24 -832 59 -1425 96 -223 14 -558 37 -745 50 -187 14 -446 32 -575 40
-441 28 -974 76 -988 89 -43 41 -37 552 7 589 19 15 190 11 796 -23 204 -11
503 -27 665 -35 162 -8 327 -17 365 -20 39 -3 207 -12 375 -20 168 -9 339 -18
380 -20 176 -12 1339 -65 1421 -65 50 0 88 4 85 9 -3 5 7 12 22 15 57 15 347
43 389 38 24 -2 43 0 43 5 0 5 12 8 28 6 15 -3 47 1 72 7 40 11 365 49 545 65
39 3 97 10 130 15 124 19 233 29 329 30 55 0 102 4 105 8 5 7 261 42 301 42
13 0 13 -1 0 -10 -13 -8 -13 -10 2 -10 9 0 18 5 20 11 2 7 56 14 138 19 149 9
376 43 322 48 -36 4 -34 22 3 22 12 0 25 7 29 15 3 8 12 15 20 15 8 0 17 4 20
8 7 11 -44 7 -344 -29 -135 -16 -308 -36 -385 -44 -77 -8 -239 -26 -360 -40
-310 -36 -447 -52 -710 -80 -126 -14 -313 -35 -415 -46 -134 -16 -213 -20
-285 -16 -55 4 -318 20 -585 37 -267 16 -559 34 -650 40 -214 13 -882 57
-1075 70 -82 5 -190 12 -240 15 -645 35 -833 50 -855 70 -17 15 -80 25 -80 13
0 -4 15 -8 34 -8 19 0 38 -5 42 -11 5 -9 -14 -10 -69 -4 -42 3 -165 13 -274
20 -213 14 -326 22 -413 30 -37 3 -48 1 -35 -5z m6575 -70 c-19 -13 -30 -13
-30 0 0 6 10 10 23 10 18 0 19 -2 7 -10z m-50 -10 c12 -8 11 -10 -7 -10 -12 0
-25 5 -28 10 -8 13 15 13 35 0z m-61 -4 c-2 -2 -31 -6 -64 -9 -39 -4 -50 -3
-30 2 31 9 102 14 94 7z m44 -773 c-7 -2 -19 -2 -25 0 -7 3 -2 5 12 5 14 0 19
-2 13 -5z m-178 -107 c-73 -32 -125 -38 -125 -14 0 6 9 8 20 5 11 -3 23 -1 26
5 3 5 16 7 28 5 11 -3 30 -1 41 3 11 5 25 9 30 9 6 0 -3 -6 -20 -13z m470 4
c-3 -5 -12 -10 -18 -10 -7 0 -6 4 3 10 19 12 23 12 15 0z m-640 -30 c-3 -5
-14 -10 -23 -9 -14 0 -13 2 3 9 27 11 27 11 20 0z m-5636 -34 c5 -3 0 -41 -11
-83 -30 -119 -35 -365 -10 -461 l19 -74 -21 6 c-11 3 -26 0 -33 -5 -17 -15
-59 32 -74 80 -31 105 -28 329 7 451 24 84 38 101 79 95 20 -2 39 -7 44 -9z
m453 -2 c31 -5 36 -8 28 -22 -35 -64 -64 -331 -51 -467 8 -80 30 -162 52 -190
5 -7 -18 -8 -67 -5 -63 4 -78 9 -102 32 -50 47 -67 122 -66 293 1 161 17 257
55 325 19 34 25 37 67 38 26 1 64 -1 84 -4z m4991 -11 c-7 -2 -21 -2 -30 0
-10 3 -4 5 12 5 17 0 24 -2 18 -5z m-105 -12 c13 -1 20 -5 17 -11 -9 -14 -42
-12 -48 3 -3 7 -6 4 -6 -7 -1 -12 -6 -16 -16 -12 -8 3 -35 -1 -60 -8 -45 -14
-85 -11 -85 5 0 5 23 9 50 9 31 0 52 5 55 13 3 6 19 11 38 10 17 -1 42 -2 55
-2z m-428 -10 c0 -12 -48 -23 -106 -23 -42 -1 -57 -11 -31 -21 7 -3 5 -6 -5
-6 -10 -1 -18 -6 -18 -12 0 -6 9 -8 21 -4 13 4 25 2 29 -5 4 -7 16 -9 29 -5
21 6 29 25 11 25 -5 0 -10 -5 -10 -11 0 -5 -5 -7 -11 -3 -17 10 10 24 47 24
16 0 36 6 43 13 9 8 12 8 7 0 -8 -15 12 -21 50 -16 17 3 34 1 38 -5 4 -7 15
-6 33 3 15 8 31 11 36 8 5 -3 13 1 18 8 6 10 11 11 17 3 4 -6 14 -14 22 -17 8
-3 -4 -6 -28 -6 -24 -1 -41 -5 -38 -9 2 -4 -20 -8 -50 -9 -30 0 -51 3 -48 8 9
16 -8 10 -21 -7 -10 -14 -15 -14 -32 -4 -15 10 -25 10 -39 2 -17 -10 -16 -12
11 -13 l30 -1 -30 -9 c-69 -21 -155 -32 -155 -19 0 6 -5 10 -11 10 -5 0 -8 -4
-5 -9 4 -5 -6 -12 -21 -15 -61 -13 -257 -35 -265 -30 -4 3 -8 1 -8 -4 0 -5
-12 -9 -27 -10 -23 -1 -353 -56 -403 -67 -8 -2 -24 -4 -34 -4 -11 -1 -17 -4
-13 -7 7 -8 -24 -44 -34 -38 -4 2 -5 -5 -2 -16 3 -11 1 -20 -5 -20 -12 0 -26
-46 -23 -77 1 -11 -2 -24 -8 -27 -10 -7 -8 42 4 99 l6 30 -15 -30 -16 -30 6
35 c3 19 15 54 26 78 24 47 35 52 173 73 44 6 91 15 105 19 25 8 25 8 -4 9
-24 1 -27 3 -16 16 9 11 25 14 56 10 41 -5 60 7 32 18 -7 3 0 6 15 6 16 1 26
-3 23 -8 -6 -9 68 -5 114 6 25 6 25 6 -5 14 -17 5 5 6 53 2 53 -3 82 -1 82 5
0 6 -6 13 -12 15 -10 4 -10 6 -1 6 6 1 15 -3 18 -9 9 -14 84 -11 125 5 l35 14
-40 -5 c-30 -4 -36 -3 -25 5 8 6 28 11 44 11 17 0 55 5 85 10 31 6 81 14 111
19 30 5 56 9 58 10 1 0 2 -3 2 -8z m50 -1 c-12 -8 -10 -10 10 -10 21 -1 22 -2
8 -10 -9 -6 -23 -7 -32 -4 -24 9 -19 34 7 34 18 0 19 -2 7 -10z m173 3 c-13
-2 -33 -2 -45 0 -13 2 -3 4 22 4 25 0 35 -2 23 -4z m-86 -9 c-3 -3 -12 -4 -19
-1 -8 3 -5 6 6 6 11 1 17 -2 13 -5z m-1194 -81 c-13 -2 -33 -2 -45 0 -13 2 -3
4 22 4 25 0 35 -2 23 -4z m454 1 c-3 -3 -12 -4 -19 -1 -8 3 -5 6 6 6 11 1 17
-2 13 -5z m-200 -46 c-3 -8 -6 -5 -6 6 -1 11 2 17 5 13 3 -3 4 -12 1 -19z
m-114 5 c-7 -2 -21 -2 -30 0 -10 3 -4 5 12 5 17 0 24 -2 18 -5z m-523 -70 c0
-5 -9 -32 -20 -61 -54 -140 -63 -395 -21 -532 12 -36 21 -68 21 -71 0 -3 -13
-6 -30 -7 -16 0 -30 4 -30 9 0 6 -5 7 -10 4 -21 -13 -59 97 -68 195 -14 139
-4 239 35 365 24 77 48 105 89 105 19 0 34 -3 34 -7z m397 -285 c-3 -8 -6 -5
-6 6 -1 11 2 17 5 13 3 -3 4 -12 1 -19z m-30 -50 c-3 -8 -6 -5 -6 6 -1 11 2
17 5 13 3 -3 4 -12 1 -19z m2382 -9 c-18 -11 -46 -12 -53 -1 -3 4 11 9 31 9
25 1 32 -2 22 -8z m-2352 -61 c-2 -13 -4 -3 -4 22 0 25 2 35 4 23 2 -13 2 -33
0 -45z m2023 22 c0 -5 -4 -10 -10 -10 -5 0 -10 5 -10 10 0 6 5 10 10 10 6 0
10 -4 10 -10z m-207 -57 c-7 -2 -19 -2 -25 0 -7 3 -2 5 12 5 14 0 19 -2 13 -5z
m-243 -23 c0 -5 -4 -10 -10 -10 -5 0 -10 5 -10 10 0 6 5 10 10 10 6 0 10 -4
10 -10z m-260 -50 c0 -5 -4 -10 -10 -10 -5 0 -10 5 -10 10 0 6 5 10 10 10 6 0
10 -4 10 -10z m-5153 -13 c1 -2 -3 -34 -8 -72 -6 -39 -9 -144 -7 -235 l3 -165
-35 3 c-46 5 -56 14 -69 67 -24 96 -3 385 30 406 11 6 78 3 86 -4z m5116 6
c-7 -2 -19 -2 -25 0 -7 3 -2 5 12 5 14 0 19 -2 13 -5z m-1266 -45 c-3 -7 -5
-2 -5 12 0 14 2 19 5 13 2 -7 2 -19 0 -25z m553 -18 c0 -5 -7 -10 -15 -10 -8
0 -23 -4 -33 -10 -16 -9 -115 -28 -175 -34 -16 -2 -36 -9 -46 -18 -9 -8 -22
-13 -28 -11 -6 2 -14 -1 -18 -6 -3 -6 -22 -11 -41 -11 -19 0 -34 -4 -34 -10 0
-5 -8 -10 -17 -10 -15 0 -16 2 -3 10 8 5 12 12 8 15 -3 4 -16 0 -28 -7 -18
-11 -23 -11 -33 2 -7 8 -21 15 -31 15 -11 0 -27 13 -37 33 -10 17 -14 32 -9
32 5 0 12 -11 16 -25 8 -31 23 -32 173 -4 90 16 115 18 127 8 12 -10 15 -10
12 0 -3 13 18 18 98 23 23 2 40 6 38 10 -3 4 13 9 33 11 21 2 39 4 41 5 1 1 2
-2 2 -8z m37 4 c-3 -3 -12 -4 -19 -1 -8 3 -5 6 6 6 11 1 17 -2 13 -5z m-557
-104 c0 -5 -4 -10 -10 -10 -5 0 -10 5 -10 10 0 6 5 10 10 10 6 0 10 -4 10 -10z
m-965 -80 c4 -6 -17 -10 -54 -10 -34 0 -61 4 -61 10 0 6 24 10 54 10 30 0 58
-4 61 -10z m-755 -20 c0 -6 -11 -8 -27 -4 -40 10 -41 14 -5 14 18 0 32 -5 32
-10z m245 0 c-3 -5 -12 -10 -18 -10 -7 0 -6 4 3 10 19 12 23 12 15 0z m180 0
c16 -7 11 -9 -22 -9 -23 -1 -45 -6 -49 -12 -3 -6 -17 -8 -29 -5 -13 3 -27 2
-30 -4 -3 -5 -16 -10 -28 -9 -18 0 -15 4 13 16 19 9 45 15 57 14 11 -1 24 3
28 8 7 13 32 13 60 1z m-245 -14 c0 -3 -4 -8 -10 -11 -5 -3 -10 -1 -10 4 0 6
5 11 10 11 6 0 10 -2 10 -4z m368 -8 c8 -10 -6 -13 -62 -14 -65 -2 -67 -1 -27
7 24 5 46 11 49 14 9 9 29 5 40 -7z m-601 -4 c-3 -3 -12 -4 -19 -1 -8 3 -5 6
6 6 11 1 17 -2 13 -5z m1610 -10 c-3 -3 -12 -4 -19 -1 -8 3 -5 6 6 6 11 1 17
-2 13 -5z m-1524 -49 c1 -5 -6 -11 -15 -13 -11 -2 -18 3 -18 13 0 17 30 18 33
0z m-113 -5 c0 -5 -5 -10 -11 -10 -5 0 -7 5 -4 10 3 6 8 10 11 10 2 0 4 -4 4
-10z m63 -37 c-13 -2 -33 -2 -45 0 -13 2 -3 4 22 4 25 0 35 -2 23 -4z m4088
-128 c-18 -8 -45 -15 -60 -16 -14 -1 -37 -5 -51 -10 -20 -6 -16 -7 15 -4 22 3
62 7 88 10 27 2 53 7 58 10 5 4 9 -1 9 -9 0 -10 -9 -16 -22 -17 -68 -2 -118
-10 -163 -23 l-50 -14 45 -2 c41 -2 42 -3 15 -9 -16 -4 -43 -3 -59 2 -23 8
-32 7 -41 -6 -6 -8 -40 -21 -76 -27 -35 -6 -86 -16 -113 -21 -33 -6 -53 -6
-60 1 -7 7 3 10 31 10 23 0 45 5 48 11 5 7 -5 8 -32 4 -54 -9 -65 -14 -59 -24
8 -12 -84 -35 -179 -46 -22 -2 -86 -13 -142 -23 -56 -11 -105 -17 -107 -14
-10 9 4 21 18 16 8 -3 33 1 56 9 l43 14 -71 -1 c-39 0 -69 -3 -67 -6 2 -4 -10
-4 -28 -1 l-32 5 35 8 c19 4 45 5 57 3 12 -3 25 -1 28 5 3 6 17 7 30 4 12 -3
25 -1 29 4 3 5 18 7 33 5 23 -4 25 -2 13 7 -12 10 -11 11 7 7 13 -3 26 -1 29
4 3 5 10 7 15 4 5 -4 14 -3 21 1 7 4 24 8 38 9 14 1 33 5 43 9 10 5 21 6 24 2
3 -3 12 -1 20 5 7 6 13 7 13 2 0 -4 19 -7 41 -5 29 3 37 7 28 13 -9 6 -2 7 18
3 18 -4 39 -2 45 4 11 9 90 26 123 27 6 0 12 3 15 6 6 6 267 66 295 67 13 1 8
-4 -14 -13z m66 9 c-3 -3 -12 -4 -19 -1 -8 3 -5 6 6 6 11 1 17 -2 13 -5z m33
-14 c-5 -10 -6 -21 -2 -25 4 -5 1 -5 -5 -1 -18 10 -16 43 1 43 11 0 12 -5 6
-17z m-4472 -27 c-10 -2 -18 -9 -18 -15 0 -6 -3 -9 -6 -5 -10 10 6 27 24 26
15 -1 15 -2 0 -6z m42 -23 c0 -5 -4 -10 -10 -10 -5 0 -10 5 -10 10 0 6 5 10
10 10 6 0 10 -4 10 -10z m223 -57 c-7 -2 -21 -2 -30 0 -10 3 -4 5 12 5 17 0
24 -2 18 -5z m302 -12 l40 -7 -30 -8 c-18 -5 -31 -4 -33 3 -2 6 -16 8 -33 4
-18 -3 -29 -1 -29 6 0 12 26 13 85 2z m2742 -77 c-3 -3 -12 -4 -19 -1 -8 3 -5
6 6 6 11 1 17 -2 13 -5z m108 -12 c-16 -2 -38 -11 -49 -20 -10 -10 -20 -15
-22 -13 -3 2 -42 -4 -87 -12 -155 -29 -203 -37 -230 -37 -15 0 -27 -4 -27 -9
0 -5 -10 -9 -22 -9 -60 -1 -186 -14 -213 -22 -16 -5 -49 -12 -72 -15 -24 -4
-43 -12 -43 -18 0 -9 -2 -9 -8 0 -5 9 -23 8 -72 -3 -36 -9 -69 -20 -75 -25 -5
-5 -16 -9 -24 -9 -11 0 -10 4 5 15 17 14 14 15 -36 9 -30 -4 -58 -12 -62 -18
-4 -6 -10 -8 -13 -4 -4 3 -22 0 -40 -8 -39 -16 -57 -18 -35 -4 9 6 10 10 3 10
-23 0 -43 -12 -43 -27 0 -10 -7 -14 -20 -10 -11 3 -20 1 -20 -4 0 -5 -12 -9
-26 -9 -22 0 -24 2 -11 15 8 8 24 12 36 10 12 -2 21 0 21 6 0 5 -9 9 -20 9
-44 0 -17 18 38 25 40 5 51 10 37 15 -19 7 7 14 100 26 92 12 295 46 348 58
34 7 123 23 197 35 74 12 170 29 213 37 43 9 80 14 83 11 5 -5 -60 -23 -131
-36 -39 -7 -43 -9 -18 -10 17 0 61 6 98 14 36 9 70 13 75 10 6 -4 10 -3 10 2
0 4 19 7 42 7 24 -1 48 2 53 6 15 12 48 17 70 11 16 -5 14 -7 -10 -9z m-582
-129 c-7 -2 -19 -2 -25 0 -7 3 -2 5 12 5 14 0 19 -2 13 -5z m-396 -59 c-3 -3
-12 -4 -19 -1 -8 3 -5 6 6 6 11 1 17 -2 13 -5z m-268 -25 c-22 -14 -33 -10
-19 6 7 8 17 12 22 9 6 -4 5 -10 -3 -15z m-479 -9 c13 -9 13 -12 -1 -23 -8 -6
-18 -20 -22 -30 -4 -10 -11 -15 -17 -12 -6 3 -7 -1 -4 -9 8 -20 14 -20 30 2
10 14 15 15 26 4 11 -11 10 -12 -4 -7 -13 5 -18 2 -18 -9 0 -10 5 -13 17 -9
13 5 15 3 9 -13 -5 -10 -10 -47 -13 -81 -3 -35 -9 -63 -13 -63 -7 0 -5 54 4
118 2 12 -1 22 -5 22 -5 0 -9 -7 -9 -15 0 -8 -6 -15 -12 -15 -9 0 -9 -3 1 -9
10 -7 12 -22 8 -60 -4 -33 -2 -51 5 -51 5 0 8 -6 5 -14 -3 -8 -4 -16 -1 -19 2
-2 6 -44 8 -93 2 -49 7 -105 10 -124 6 -32 6 -33 -5 -10 l-12 25 -7 -34 c-5
-19 -6 -40 -3 -46 2 -7 -4 -16 -14 -19 -14 -6 -15 -5 -6 5 9 9 9 18 -2 40 -9
16 -11 30 -6 34 5 3 12 -5 14 -17 3 -13 4 -8 4 12 0 20 3 41 7 48 4 7 3 12 -2
12 -5 0 -17 -15 -27 -34 -11 -19 -22 -33 -27 -30 -9 6 12 54 24 54 4 0 9 19 9
43 1 39 2 40 9 12 9 -34 11 -33 15 12 1 18 -1 31 -5 28 -14 -8 -28 19 -39 75
l-10 55 3 -52 c2 -36 -1 -57 -10 -64 -12 -10 -14 5 -14 87 1 104 15 185 45
247 18 38 29 44 55 27z m478 -36 c6 3 5 -5 -1 -19 -11 -23 -12 -23 -15 -4 -2
11 -10 23 -18 26 -8 3 -11 10 -7 16 4 6 11 3 19 -7 7 -10 17 -15 22 -12z
m2287 -124 c-3 -5 -10 -10 -16 -10 -5 0 -9 5 -9 10 0 6 7 10 16 10 8 0 12 -4
9 -10z m-2342 -152 c-3 -160 5 -218 38 -282 20 -38 17 -68 -3 -33 -8 14 -13
16 -24 6 -8 -7 -14 -7 -14 -1 0 5 8 13 17 16 15 6 15 9 3 16 -8 5 -17 7 -20 5
-5 -3 -12 108 -14 215 0 46 13 210 18 210 1 0 1 -69 -1 -152z m2307 138 c0
-19 -244 -85 -287 -78 -6 2 -14 -2 -18 -8 -3 -5 -17 -10 -30 -10 -13 0 -31 -7
-40 -16 -12 -12 -27 -15 -56 -11 -21 3 -37 1 -34 -4 4 -5 -8 -6 -25 -3 -17 4
-30 2 -30 -4 0 -5 -12 -12 -27 -15 -89 -18 -203 -46 -214 -53 -8 -5 -10 -3 -4
6 6 10 2 11 -21 5 -16 -4 -36 -8 -44 -9 -8 0 -17 -4 -20 -7 -5 -7 -116 -30
-165 -35 -16 -1 -30 -3 -30 -5 0 -1 -9 -3 -20 -4 -35 -4 -129 -27 -152 -37
-11 -6 -46 -11 -76 -12 -30 0 -51 -4 -45 -7 5 -4 3 -9 -5 -12 -8 -3 -20 0 -26
6 -9 9 -15 8 -22 -6 -6 -9 -14 -15 -19 -12 -4 3 -42 -4 -83 -14 -41 -10 -86
-16 -100 -14 -14 3 -41 -3 -61 -12 -24 -11 -48 -15 -69 -11 -18 3 -26 2 -19
-2 8 -6 0 -12 -25 -20 -34 -10 -36 -10 -19 3 22 16 6 20 -22 6 -20 -11 -236
-51 -273 -51 -14 0 -30 -5 -36 -11 -5 -5 -33 -12 -61 -14 -39 -3 -52 0 -56 12
-4 9 -5 18 -2 20 4 4 613 127 831 168 77 14 194 37 260 52 66 14 136 28 155
30 19 2 51 8 70 13 44 12 421 87 475 95 22 3 57 10 79 16 21 6 44 8 52 5 8 -3
14 -2 14 2 0 10 197 45 210 37 5 -3 10 -1 10 4 0 6 13 11 29 11 17 0 33 5 36
10 9 14 15 12 15 -4z m45 -45 c-3 -6 -11 -11 -16 -11 -5 0 -4 6 3 14 14 16 24
13 13 -3z m-2838 -188 c-3 -16 -8 -37 -10 -48 -3 -11 -6 -24 -6 -29 -2 -22
-16 8 -18 39 -1 27 1 33 14 28 11 -4 14 -2 11 8 -3 8 -14 13 -24 11 -16 -2
-17 -1 -4 7 28 20 43 13 37 -16z m96 -183 c3 -11 1 -18 -4 -14 -5 3 -9 12 -9
20 0 20 7 17 13 -6z m-23 -6 c0 -8 -4 -12 -10 -9 -5 3 -10 10 -10 16 0 5 5 9
10 9 6 0 10 -7 10 -16z"/>
<path d="M12340 7280 c-14 -5 -18 -9 -10 -10 23 -4 44 1 55 11 11 11 -9 10
-45 -1z"/>
<path d="M12258 7243 c6 -2 18 -2 25 0 6 3 1 5 -13 5 -14 0 -19 -2 -12 -5z"/>
<path d="M12315 7240 c-3 -5 -2 -10 4 -10 5 0 13 5 16 10 3 6 2 10 -4 10 -5 0
-13 -4 -16 -10z"/>
<path d="M11725 6493 c-11 -3 -24 -9 -30 -15 -11 -11 43 -2 80 13 18 7 17 8
-5 7 -14 0 -34 -2 -45 -5z"/>
<path d="M13733 6063 c9 -2 23 -2 30 0 6 3 -1 5 -18 5 -16 0 -22 -2 -12 -5z"/>
<path d="M13660 6040 c-8 -5 -10 -10 -5 -10 6 0 17 5 25 10 8 5 11 10 5 10 -5
0 -17 -5 -25 -10z"/>
<path d="M13618 6013 c7 -3 16 -2 19 1 4 3 -2 6 -13 5 -11 0 -14 -3 -6 -6z"/>
<path d="M13218 5958 c-2 -6 -24 -15 -49 -19 l-44 -8 48 3 c50 4 78 18 59 30
-6 3 -12 1 -14 -6z"/>
<path d="M13295 5960 c-3 -6 1 -7 9 -4 18 7 21 14 7 14 -6 0 -13 -4 -16 -10z"/>
<path d="M11190 5645 c0 -8 2 -15 4 -15 2 0 6 7 10 15 3 8 1 15 -4 15 -6 0
-10 -7 -10 -15z"/>
<path d="M11160 5590 c0 -5 5 -10 11 -10 5 0 7 5 4 10 -3 6 -8 10 -11 10 -2 0
-4 -4 -4 -10z"/>
<path d="M11188 5355 c6 -41 22 -57 22 -22 0 15 -4 27 -9 27 -5 0 -11 6 -14
13 -2 6 -2 -1 1 -18z"/>
<path d="M12778 5243 c7 -3 16 -2 19 1 4 3 -2 6 -13 5 -11 0 -14 -3 -6 -6z"/>
<path d="M11750 5043 c0 -10 4 -14 8 -8 4 6 11 13 16 18 5 4 2 7 -7 7 -10 0
-17 -8 -17 -17z"/>
<path d="M11795 5040 c3 -5 8 -10 11 -10 2 0 4 5 4 10 0 6 -5 10 -11 10 -5 0
-7 -4 -4 -10z"/>
<path d="M7493 8393 c9 -2 23 -2 30 0 6 3 -1 5 -18 5 -16 0 -22 -2 -12 -5z"/>
<path d="M7760 8380 c0 -5 5 -10 11 -10 5 0 7 5 4 10 -3 6 -8 10 -11 10 -2 0
-4 -4 -4 -10z"/>
<path d="M7808 8373 c7 -3 16 -2 19 1 4 3 -2 6 -13 5 -11 0 -14 -3 -6 -6z"/>
<path d="M13795 8350 c-3 -5 1 -10 10 -10 9 0 13 5 10 10 -3 6 -8 10 -10 10
-2 0 -7 -4 -10 -10z"/>
<path d="M13830 8351 c0 -5 17 -12 38 -16 31 -5 38 -10 37 -28 0 -32 -14 -50
-29 -38 -6 5 -17 6 -24 2 -7 -4 -63 -9 -125 -11 -110 -3 -172 -6 -172 -10 0
-10 -178 -15 -192 -7 -6 4 -15 3 -18 -3 -4 -6 -25 -10 -48 -9 -23 1 -53 -2
-67 -6 -24 -6 -24 -6 -6 9 19 16 19 16 -6 16 -15 0 -29 -4 -33 -9 -3 -5 -24
-10 -48 -10 -23 0 -51 -2 -62 -5 -11 -2 -26 -5 -32 -5 -7 -1 -13 -5 -13 -10 0
-9 74 -8 106 3 13 4 26 1 33 -8 10 -11 8 -14 -11 -13 -13 1 -48 -2 -80 -7 -51
-7 -57 -5 -63 13 -6 21 -25 29 -25 11 0 -5 5 -10 10 -10 6 0 10 -4 10 -9 0
-12 -44 -22 -108 -25 -26 -1 -53 -5 -59 -9 -6 -4 -37 -7 -70 -6 -32 1 -85 -4
-117 -11 -33 -6 -73 -9 -88 -6 -18 3 -27 2 -23 -4 4 -6 -17 -10 -54 -10 -38 0
-61 -5 -65 -12 -5 -10 -7 -10 -12 0 -3 6 -10 9 -16 6 -6 -4 -41 -6 -79 -6 -38
0 -71 -4 -74 -9 -4 -5 -21 -9 -40 -9 -19 0 -36 -4 -39 -9 -3 -4 -37 -7 -76 -6
-38 1 -70 -2 -70 -6 0 -5 -7 -9 -16 -9 -8 0 -13 3 -10 8 2 4 -14 6 -36 4 -28
-3 -36 -7 -27 -13 9 -6 10 -9 2 -9 -6 0 -15 5 -18 10 -7 11 -64 14 -89 4 -9
-3 -13 -11 -10 -16 4 -6 -3 -5 -15 1 -15 8 -32 9 -59 2 -20 -6 -55 -9 -77 -7
-22 2 -32 2 -22 -1 30 -8 19 -25 -13 -18 -17 4 -30 2 -30 -3 0 -8 -54 -19
-130 -27 -73 -8 -109 -18 -114 -32 -4 -9 -5 -18 -2 -20 2 -3 51 2 108 11 56 9
148 20 203 26 55 6 244 29 420 50 328 40 688 82 1085 125 266 29 471 52 522
60 29 4 37 1 41 -12 4 -15 5 -15 6 -2 1 17 45 29 106 29 46 0 75 25 75 65 0
36 -11 47 -62 59 -16 3 -28 2 -28 -3z m-1950 -295 c0 -2 -11 -6 -25 -8 -13 -3
-22 -1 -19 3 5 9 44 13 44 5z"/>
<path d="M12315 8150 c3 -5 13 -10 21 -10 8 0 14 5 14 10 0 6 -9 10 -21 10
-11 0 -17 -4 -14 -10z"/>
<path d="M7563 8033 c9 -2 23 -2 30 0 6 3 -1 5 -18 5 -16 0 -22 -2 -12 -5z"/>
<path d="M7260 7788 c0 -5 15 -8 34 -8 19 0 41 -3 50 -6 9 -3 16 -2 16 4 0 6
-23 12 -50 14 -28 1 -50 0 -50 -4z"/>
<path d="M7393 7773 c9 -2 25 -2 35 0 9 3 1 5 -18 5 -19 0 -27 -2 -17 -5z"/>
<path d="M11301 7764 c0 -11 3 -14 6 -6 3 7 2 16 -1 19 -3 4 -6 -2 -5 -13z"/>
<path d="M7498 7763 c17 -2 47 -2 65 0 17 2 3 4 -33 4 -36 0 -50 -2 -32 -4z"/>
<path d="M13734 7676 c4 -12 1 -23 -6 -29 -9 -6 -5 -7 12 -3 14 3 42 6 63 6
20 0 37 5 37 10 0 6 -19 10 -43 10 -24 0 -49 6 -56 13 -12 10 -13 9 -7 -7z"/>
<path d="M13360 7595 c-209 -34 -248 -47 -59 -20 206 29 302 45 307 50 10 9
-41 3 -248 -30z"/>
<path d="M12895 7530 c-104 -15 -298 -42 -430 -59 -240 -32 -362 -54 -240 -44
33 2 105 11 160 19 55 7 168 22 250 33 220 29 509 72 514 77 9 9 -73 1 -254
-26z"/>
<path d="M13208 7503 c6 -2 18 -2 25 0 6 3 1 5 -13 5 -14 0 -19 -2 -12 -5z"/>
<path d="M13772 7478 c2 -5 7 -9 11 -9 4 1 18 1 32 1 39 0 29 16 -11 17 -19 1
-34 -3 -32 -9z"/>
<path d="M13615 7470 c-7 -12 2 -12 30 0 19 8 19 9 -2 9 -12 1 -25 -3 -28 -9z"/>
<path d="M13670 7440 c-9 -6 -10 -10 -3 -10 6 0 15 5 18 10 8 12 4 12 -15 0z"/>
<path d="M12012 7409 c-127 -17 -207 -35 -112 -24 205 22 246 28 255 36 6 6 6
9 0 8 -6 -1 -70 -10 -143 -20z"/>
<path d="M12613 7423 c9 -2 25 -2 35 0 9 3 1 5 -18 5 -19 0 -27 -2 -17 -5z"/>
<path d="M11773 7373 c9 -2 23 -2 30 0 6 3 -1 5 -18 5 -16 0 -22 -2 -12 -5z"/>
<path d="M11610 7360 l-55 -7 60 0 c33 0 74 3 90 7 l30 8 -35 -1 c-19 0 -60
-3 -90 -7z"/>
<path d="M11885 7320 c4 -6 11 -8 16 -5 14 9 11 15 -7 15 -8 0 -12 -5 -9 -10z"/>
<path d="M13705 6840 c-25 -11 1 -11 35 0 20 6 21 8 5 8 -11 0 -29 -3 -40 -8z"/>
<path d="M13610 6821 c0 -5 9 -7 20 -4 11 3 20 7 20 9 0 2 -9 4 -20 4 -11 0
-20 -4 -20 -9z"/>
<path d="M12960 6680 c0 -5 -15 -10 -34 -10 -19 0 -38 -5 -41 -11 -10 -15 66
0 85 17 10 10 10 14 2 14 -7 0 -12 -4 -12 -10z"/>
<path d="M13811 6604 c0 -11 3 -14 6 -6 3 7 2 16 -1 19 -3 4 -6 -2 -5 -13z"/>
<path d="M12313 6583 c9 -2 25 -2 35 0 9 3 1 5 -18 5 -19 0 -27 -2 -17 -5z"/>
<path d="M13375 6570 c-3 -6 1 -7 9 -4 18 7 21 14 7 14 -6 0 -13 -4 -16 -10z"/>
<path d="M13175 6538 c-55 -9 -138 -22 -185 -28 -113 -13 -125 -15 -195 -30
-104 -22 -41 -23 92 -1 71 12 191 32 268 44 76 13 135 25 130 28 -6 3 -55 -3
-110 -13z"/>
<path d="M13323 6553 c9 -2 23 -2 30 0 6 3 -1 5 -18 5 -16 0 -22 -2 -12 -5z"/>
<path d="M13803 6475 c0 -22 2 -30 4 -17 2 12 2 30 0 40 -3 9 -5 -1 -4 -23z"/>
<path d="M12693 6453 c9 -2 23 -2 30 0 6 3 -1 5 -18 5 -16 0 -22 -2 -12 -5z"/>
<path d="M12648 6443 c7 -3 16 -2 19 1 4 3 -2 6 -13 5 -11 0 -14 -3 -6 -6z"/>
<path d="M12448 6418 c-8 -5 8 -6 37 -2 28 3 52 8 54 10 9 8 -78 0 -91 -8z"/>
<path d="M12318 6393 c7 -3 16 -2 19 1 4 3 -2 6 -13 5 -11 0 -14 -3 -6 -6z"/>
<path d="M12240 6381 c0 -4 11 -6 25 -3 14 2 25 6 25 8 0 2 -11 4 -25 4 -14 0
-25 -4 -25 -9z"/>
<path d="M12193 6373 c9 -2 23 -2 30 0 6 3 -1 5 -18 5 -16 0 -22 -2 -12 -5z"/>
<path d="M10860 6340 c0 -5 5 -10 10 -10 6 0 10 5 10 10 0 6 -4 10 -10 10 -5
0 -10 -4 -10 -10z"/>
<path d="M10935 6340 c-3 -5 1 -10 9 -10 9 0 16 5 16 10 0 6 -4 10 -9 10 -6 0
-13 -4 -16 -10z"/>
<path d="M11945 6343 c-16 -2 -88 -13 -160 -24 -71 -12 -139 -21 -152 -21 -12
0 -30 -9 -39 -19 -9 -11 -12 -19 -6 -19 6 0 13 4 16 9 3 4 59 16 123 25 100
14 214 33 298 50 25 5 -40 4 -80 -1z"/>
<path d="M10407 6293 c-13 -12 -7 -23 13 -23 11 0 20 7 20 15 0 15 -21 21 -33
8z"/>
<path d="M10405 6225 c23 -8 83 -10 79 -3 -3 4 -24 8 -47 7 -23 0 -37 -2 -32
-4z"/>
<path d="M13843 6224 c3 -3 22 -6 42 -6 20 0 39 3 42 6 4 3 -15 6 -42 6 -27 0
-46 -3 -42 -6z"/>
<path d="M10080 6210 c0 -5 18 -10 40 -10 24 0 40 -5 40 -12 0 -6 2 -9 5 -6 3
3 3 13 -1 22 -7 18 -84 24 -84 6z"/>
<path d="M10268 6183 c6 -2 18 -2 25 0 6 3 1 5 -13 5 -14 0 -19 -2 -12 -5z"/>
<path d="M11552 6160 c0 -14 2 -19 5 -12 2 6 2 18 0 25 -3 6 -5 1 -5 -13z"/>
<path d="M9953 6120 c0 -25 2 -35 4 -22 2 12 2 32 0 45 -2 12 -4 2 -4 -23z"/>
<path d="M10057 6059 c6 -21 -13 -27 -20 -6 -2 7 -8 8 -13 3 -5 -5 -4 -11 4
-13 6 -3 12 -11 12 -19 0 -8 5 -14 10 -14 6 0 10 7 10 15 0 8 5 15 10 15 15 0
12 27 -4 33 -10 4 -12 0 -9 -14z"/>
<path d="M10140 6070 c0 -5 5 -10 10 -10 6 0 10 5 10 10 0 6 -4 10 -10 10 -5
0 -10 -4 -10 -10z"/>
<path d="M10510 5970 c0 -5 5 -10 10 -10 6 0 10 5 10 10 0 6 -4 10 -10 10 -5
0 -10 -4 -10 -10z"/>
<path d="M10670 5949 c0 -12 25 -22 41 -17 6 2 0 9 -15 16 -16 7 -26 8 -26 1z"/>
<path d="M10650 5920 c20 -13 33 -13 25 0 -3 6 -14 10 -23 10 -15 0 -15 -2 -2
-10z"/>
<path d="M13871 5824 c0 -11 3 -14 6 -6 3 7 2 16 -1 19 -3 4 -6 -2 -5 -13z"/>
<path d="M13873 5755 c0 -27 2 -38 4 -22 2 15 2 37 0 50 -2 12 -4 0 -4 -28z"/>
<path d="M11940 4588 c-24 -13 -53 -36 -64 -51 -21 -28 -21 -38 -21 -665 l0
-637 28 -51 c44 -80 132 -117 219 -94 89 24 129 93 106 183 -10 40 -13 185
-13 647 0 543 -2 598 -17 626 -34 63 -155 84 -238 42z"/>
<path d="M13487 4560 c-106 -58 -121 -205 -28 -283 127 -107 314 -9 299 155
-5 52 -27 89 -71 122 -41 30 -149 33 -200 6z"/>
<path d="M15925 4561 c-42 -11 -66 -25 -95 -56 -24 -26 -25 -31 -28 -198 -5
-252 29 -662 59 -719 17 -31 56 -50 106 -50 73 0 94 30 121 168 45 231 82 532
82 665 0 97 -18 137 -77 172 -36 21 -122 30 -168 18z"/>
<path d="M9990 4520 c-183 -23 -282 -56 -319 -109 -21 -30 -21 -34 -19 -620 3
-580 3 -590 24 -618 57 -77 199 -103 454 -84 240 18 381 70 482 180 79 84 101
147 96 266 -7 140 -54 213 -178 273 l-78 38 33 18 c53 29 116 97 144 156 37
77 37 202 2 275 -69 140 -228 218 -464 229 -56 3 -136 1 -177 -4z m239 -268
c45 -22 71 -59 78 -110 12 -92 -28 -165 -109 -195 -40 -15 -145 -37 -175 -37
-10 0 -13 37 -13 173 0 96 3 177 7 180 3 4 45 7 92 7 62 0 96 -5 120 -18z m54
-582 c54 -37 71 -74 65 -148 -4 -54 -9 -67 -39 -98 -39 -40 -123 -69 -231 -79
l-68 -6 0 182 0 181 118 -4 c107 -3 122 -5 155 -28z"/>
<path d="M4640 4500 c-268 -6 -287 -10 -333 -72 -29 -38 -34 -123 -10 -168 34
-65 67 -75 241 -73 l153 2 -3 -497 c-3 -560 -6 -536 73 -589 34 -22 52 -27
107 -27 85 -1 128 22 160 84 22 44 22 46 22 542 l0 498 140 0 c157 0 190 8
233 59 72 86 49 204 -46 240 -30 12 -303 12 -737 1z"/>
<path d="M8595 4160 c-74 -13 -129 -37 -193 -84 -79 -59 -114 -124 -120 -226
-9 -149 46 -217 255 -324 185 -94 213 -127 158 -182 -22 -22 -31 -25 -67 -19
-53 9 -106 32 -183 79 -69 41 -101 45 -139 15 -59 -46 -74 -130 -33 -190 56
-83 171 -135 326 -145 151 -11 279 30 370 117 98 94 126 240 67 347 -38 68
-91 106 -252 182 -71 34 -141 73 -156 87 -56 54 -21 123 63 123 49 0 73 -13
136 -73 35 -33 48 -40 83 -40 75 0 139 76 125 149 -7 42 -64 108 -115 134 -86
44 -231 66 -325 50z"/>
<path d="M14262 4159 c-113 -14 -188 -47 -257 -110 -105 -97 -92 -224 24 -250
56 -13 93 5 162 76 51 52 61 58 106 62 29 3 59 0 72 -7 31 -16 51 -69 51 -135
l0 -55 -67 0 c-93 0 -194 -23 -278 -64 -92 -43 -135 -81 -170 -153 -62 -127
-28 -284 79 -365 134 -100 314 -84 425 37 l48 53 20 -48 c54 -127 235 -145
310 -31 29 42 29 66 1 127 -20 45 -22 71 -28 314 -7 278 -13 318 -61 397 -71
116 -245 177 -437 152z m152 -654 c-1 -82 -20 -127 -67 -155 -45 -28 -92 -26
-122 5 -49 48 -24 161 42 196 28 15 90 28 123 26 24 -2 25 -4 24 -72z"/>
<path d="M5706 4145 c-174 -49 -305 -177 -367 -355 -27 -78 -37 -248 -20 -332
35 -165 156 -298 320 -348 44 -14 92 -20 160 -20 148 0 257 39 340 121 72 72
90 142 50 193 -39 50 -50 50 -143 3 -100 -52 -188 -73 -243 -58 -83 23 -126
71 -140 157 l-6 34 84 0 c95 0 249 22 323 47 60 19 128 84 146 138 8 23 11 69
8 120 -3 66 -9 91 -31 128 -40 67 -93 116 -166 150 -56 27 -77 31 -165 33 -66
2 -118 -1 -150 -11z m186 -223 c42 -36 47 -132 8 -167 -23 -21 -125 -44 -196
-45 l-52 0 9 41 c20 87 75 167 129 187 31 12 79 4 102 -16z"/>
<path d="M11206 4149 c-251 -62 -421 -314 -403 -598 14 -228 122 -371 332
-443 85 -29 236 -28 325 2 215 72 324 256 194 326 -33 18 -35 18 -62 1 -59
-39 -169 -87 -213 -93 -68 -9 -152 18 -182 59 -26 34 -47 88 -47 118 0 17 9
19 93 19 52 0 136 7 188 16 160 27 241 77 273 171 20 59 20 105 0 173 -31 105
-110 192 -210 230 -67 26 -222 36 -288 19z m166 -220 c23 -12 48 -66 48 -103
0 -45 -21 -75 -64 -90 -42 -15 -206 -39 -214 -32 -15 16 69 187 106 217 27 21
91 26 124 8z"/>
<path d="M12635 4142 c-77 -24 -117 -45 -166 -89 -101 -91 -106 -199 -12 -244
63 -31 111 -16 178 56 54 58 87 75 140 75 65 0 103 -60 105 -166 l0 -31 -97
-6 c-282 -18 -443 -133 -460 -327 -13 -138 68 -258 202 -299 82 -25 133 -26
202 -2 65 22 110 53 148 102 17 21 33 38 36 39 4 0 9 -13 12 -30 10 -49 65
-100 124 -115 68 -18 120 -4 178 47 53 47 57 76 23 147 -21 43 -23 65 -29 301
-7 255 -14 312 -49 380 -28 53 -98 116 -165 147 -54 24 -73 27 -185 30 -98 2
-138 -1 -185 -15z m239 -579 c3 -10 1 -48 -3 -85 -5 -51 -13 -74 -31 -94 -34
-36 -72 -54 -114 -54 -92 0 -105 147 -18 208 56 41 157 55 166 25z"/>
<path d="M6445 4135 c-22 -8 -50 -26 -62 -40 -23 -26 -23 -30 -25 -343 -5
-537 -5 -543 15 -579 42 -78 158 -107 247 -61 75 38 80 57 80 308 0 118 4 232
9 253 18 78 96 157 155 157 14 0 46 -5 71 -12 39 -11 50 -10 78 5 45 24 77 75
84 135 7 59 -7 103 -46 145 -82 89 -261 34 -341 -107 l-30 -51 0 45 c-2 77
-19 112 -70 138 -50 25 -106 28 -165 7z"/>
<path d="M7291 4140 c-49 -12 -84 -42 -98 -84 -18 -54 -29 -528 -14 -630 15
-106 52 -185 113 -242 72 -67 126 -89 223 -89 102 0 156 24 230 100 30 30 57
55 60 55 3 0 5 -11 5 -24 0 -37 41 -89 90 -114 76 -39 151 -20 204 52 20 27
21 41 24 449 3 482 4 473 -78 515 -79 41 -206 18 -247 -44 -14 -22 -18 -69
-24 -297 -4 -150 -12 -287 -18 -306 -19 -63 -81 -111 -144 -111 -18 0 -40 6
-48 13 -44 36 -44 38 -49 363 -5 296 -6 314 -26 341 -40 55 -113 74 -203 53z"/>
<path d="M15045 4141 c-43 -11 -72 -28 -89 -53 -14 -20 -16 -81 -16 -466 l0
-444 33 -33 c59 -59 182 -71 246 -26 56 40 61 66 61 321 0 194 3 236 16 263
30 57 72 103 113 121 37 17 42 17 90 1 29 -9 60 -14 73 -10 88 27 136 168 87
255 -29 51 -69 72 -135 71 -97 -1 -173 -50 -232 -149 l-27 -47 -5 62 c-3 40
-12 71 -26 89 -33 45 -111 64 -189 45z"/>
<path d="M13525 4131 c-16 -4 -40 -13 -53 -20 -49 -26 -50 -29 -55 -466 -6
-428 -13 -514 -48 -596 -28 -65 -48 -75 -104 -53 -56 21 -88 13 -133 -32 -33
-33 -34 -37 -30 -96 4 -58 7 -64 47 -99 59 -53 125 -73 220 -67 96 6 161 38
234 118 132 144 163 324 155 905 -4 336 -6 348 -60 388 -30 23 -120 32 -173
18z"/>
<path d="M15875 3426 c-55 -25 -77 -51 -95 -112 -32 -106 63 -224 179 -224 76
0 143 54 167 137 26 88 -9 167 -90 204 -55 25 -101 24 -161 -5z"/>
</g>
</svg>
