<?xml version="1.0" standalone="no"?>
<!DOCTYPE svg PUBLIC "-//W3C//DTD SVG 20010904//EN"
 "http://www.w3.org/TR/2001/REC-SVG-20010904/DTD/svg10.dtd">
<svg version="1.0" xmlns="http://www.w3.org/2000/svg"
 width="2304.000000pt" height="1728.000000pt" viewBox="0 0 2304.000000 1728.000000"
 preserveAspectRatio="xMidYMid meet">

<g transform="translate(0.000000,1728.000000) scale(0.100000,-0.100000)"
fill="#000000" stroke="none">
<path d="M15070 13985 c-149 -24 -325 -77 -366 -111 -18 -15 -18 -15 6 -9 14
4 66 18 115 32 110 30 328 42 445 24 94 -15 196 -50 267 -93 61 -36 173 -137
173 -155 0 -6 -24 2 -54 18 -123 67 -264 103 -468 119 -149 12 -245 8 -427
-21 -322 -51 -559 -138 -954 -353 -108 -58 -198 -106 -201 -106 -27 0 -286
-179 -330 -229 -21 -23 -16 -29 7 -7 51 51 324 213 316 187 -2 -6 -40 -40 -84
-77 -239 -198 -561 -539 -662 -700 -34 -54 -114 -109 -241 -164 -145 -63 -276
-88 -342 -67 l-25 8 25 -20 c14 -11 45 -28 70 -37 60 -23 243 -28 330 -9 36 7
67 12 69 10 2 -3 -7 -19 -21 -37 -51 -68 -171 -264 -200 -327 -81 -175 -122
-325 -134 -488 -8 -112 10 -130 21 -21 8 90 53 270 90 363 69 173 267 501 325
538 22 13 27 37 7 37 -7 0 -21 -6 -32 -13 -20 -14 -86 -32 -159 -45 -57 -10
-246 -6 -276 6 -21 8 -17 10 35 17 171 21 411 132 609 282 85 64 112 93 87 93
-6 0 -57 -33 -114 -74 -56 -41 -104 -72 -106 -70 -16 16 422 490 441 478 5 -3
7 0 6 6 -2 7 6 17 17 23 30 18 45 34 45 48 0 7 2 10 5 7 3 -3 26 14 51 38 25
24 55 45 67 45 17 1 18 2 4 6 -9 2 -15 8 -12 13 3 5 13 6 22 3 11 -4 14 -2 9
5 -8 14 31 55 44 47 6 -4 10 1 10 10 0 9 5 13 10 10 6 -4 9 -2 8 3 -4 14 73
73 85 65 6 -4 8 0 4 9 -8 23 51 48 64 27 7 -11 9 -8 9 9 0 12 8 26 18 29 9 4
19 9 22 12 7 8 38 27 85 51 22 12 51 27 64 35 14 8 39 12 55 10 28 -4 28 -4 6
3 -24 8 -23 9 20 29 72 32 74 33 100 48 14 8 33 12 44 9 12 -4 16 -2 12 5 -4
6 0 11 8 11 9 0 16 -8 16 -19 0 -11 7 -26 15 -34 12 -13 12 -17 1 -26 -7 -6
-22 -8 -31 -4 -14 5 -17 3 -13 -8 3 -8 -2 -21 -10 -29 -14 -13 -15 -12 -9 5 7
20 7 20 -8 1 -8 -11 -15 -23 -15 -28 0 -4 -7 -8 -15 -8 -8 0 -15 -4 -15 -8 0
-5 -15 -16 -34 -24 -33 -16 -34 -16 -29 4 4 13 12 18 24 15 11 -3 19 -1 19 4
0 5 -13 9 -30 9 -21 0 -30 -5 -30 -16 0 -10 -7 -14 -20 -12 -12 2 -19 8 -18
13 2 6 6 9 10 8 5 -2 8 2 8 7 0 6 10 10 23 11 12 0 16 3 10 6 -7 2 -30 -1 -50
-8 -37 -12 -50 -11 -46 3 2 4 -3 5 -10 3 -13 -5 -15 -54 -3 -73 3 -6 2 -13 -3
-16 -5 -4 -13 3 -16 15 -4 12 -12 18 -21 15 -8 -3 -14 1 -14 9 0 8 -4 15 -9
15 -5 0 -8 -11 -7 -25 1 -17 10 -28 29 -36 l27 -12 -26 -13 c-18 -10 -31 -11
-43 -4 -15 9 -14 9 2 10 9 0 17 4 17 9 0 10 -26 9 -36 -2 -4 -4 -18 -7 -30 -7
-13 0 -26 -4 -29 -10 -4 -6 7 -10 25 -10 25 0 31 -4 26 -15 -4 -10 1 -15 17
-16 12 0 17 -3 10 -5 -7 -3 -11 -11 -9 -17 1 -7 1 -9 -1 -4 -3 4 -13 7 -24 7
-10 0 -19 5 -19 10 0 6 -4 10 -10 10 -5 0 -10 -7 -10 -15 0 -8 -9 -15 -19 -15
-11 0 -23 -5 -27 -11 -4 -7 7 -10 34 -8 23 2 44 0 48 -3 10 -11 -7 -30 -19
-21 -7 5 -30 6 -52 2 -39 -6 -39 -6 -7 -8 25 -1 32 -5 30 -18 -2 -9 7 -22 20
-28 21 -11 21 -12 4 -28 -10 -10 -27 -17 -38 -16 -17 0 -17 2 4 11 30 15 28
25 -8 26 -16 0 -30 -3 -30 -8 0 -20 13 -40 26 -40 8 0 14 -4 14 -10 0 -5 -11
-10 -24 -10 -14 0 -27 -4 -30 -9 -3 -5 -16 -7 -27 -4 -16 4 -20 2 -17 -8 3 -8
14 -13 26 -11 11 2 23 -2 27 -7 3 -7 0 -8 -9 -5 -11 4 -16 0 -16 -15 0 -11 -9
-25 -20 -31 -10 -6 -17 -17 -14 -24 3 -8 0 -17 -7 -22 -8 -4 -10 -3 -5 4 4 7
3 12 -3 12 -5 0 -18 3 -28 6 -17 5 -17 5 0 -6 21 -13 22 -33 3 -49 -10 -8 -16
-9 -21 -1 -4 6 -3 9 2 8 4 -2 10 2 12 7 7 16 -29 18 -55 4 -22 -11 -22 -13 -6
-25 9 -7 26 -14 36 -14 26 0 12 -12 -16 -14 -16 -1 -23 -7 -24 -21 0 -27 -14
-55 -26 -55 -5 0 -17 -7 -25 -16 -9 -8 -24 -13 -34 -11 -15 4 -17 2 -10 -10 6
-11 -1 -26 -25 -51 -19 -20 -37 -44 -40 -54 -3 -10 -10 -18 -15 -18 -5 0 -9
-12 -9 -26 0 -14 -4 -23 -10 -19 -5 3 -11 1 -11 -4 -2 -16 -4 -23 -17 -54 -20
-46 -26 -81 -14 -73 5 3 24 -2 40 -11 l29 -17 -50 -85 c-28 -47 -53 -88 -57
-91 -4 -3 -9 -10 -11 -15 -12 -32 -93 -163 -99 -160 -3 2 -6 -4 -7 -13 -1 -9
-37 -91 -80 -182 -43 -91 -86 -181 -95 -200 l-16 -35 5 40 c12 94 80 281 150
414 28 54 21 67 -14 26 -14 -16 -45 -52 -69 -80 -24 -27 -44 -55 -44 -62 0 -6
-4 -13 -9 -15 -10 -4 -120 -99 -173 -150 -54 -52 -163 -201 -322 -438 -140
-208 -198 -280 -249 -307 -37 -19 -28 -27 28 -25 82 4 180 58 283 156 28 28
52 47 52 44 0 -4 -7 -39 -15 -78 -26 -122 -29 -225 -11 -346 26 -180 76 -303
172 -424 71 -90 169 -159 121 -86 -34 52 -58 167 -64 307 -6 154 5 186 30 84
57 -230 199 -445 374 -566 43 -30 98 -55 89 -41 -3 5 -21 32 -40 60 -34 52
-100 206 -94 223 2 5 21 -15 44 -44 22 -29 69 -74 105 -101 59 -44 272 -176
285 -176 3 0 3 14 -1 31 l-7 31 32 -18 c79 -46 130 -149 200 -399 95 -342 167
-509 284 -665 83 -111 227 -249 396 -379 74 -57 146 -114 160 -127 14 -13 86
-70 160 -127 265 -203 286 -213 444 -204 97 5 147 17 271 65 85 33 165 72 203
97 20 14 40 25 43 25 6 0 177 -201 220 -259 20 -27 19 -58 -2 -46 -17 11 -9
-121 11 -186 49 -160 154 -254 313 -280 69 -12 91 -11 180 4 265 45 503 182
752 432 181 181 301 350 475 671 44 81 80 149 80 150 0 1 22 49 49 106 111
235 119 269 74 302 -32 24 -126 34 -147 17 -11 -10 -21 -9 -44 3 -41 21 -132
95 -132 107 0 15 373 10 437 -7 29 -7 80 -27 113 -44 65 -33 130 -57 225 -85
33 -10 98 -40 145 -67 47 -27 134 -67 195 -87 197 -68 556 -187 760 -254 186
-60 227 -76 375 -145 90 -42 240 -134 346 -212 181 -135 359 -336 537 -605 85
-127 265 -466 347 -650 13 -27 40 -88 62 -135 39 -84 128 -303 128 -314 0 -4
9 -28 21 -54 12 -26 26 -58 31 -72 6 -14 14 -33 19 -42 5 -10 9 -25 9 -33 0
-8 4 -23 10 -33 14 -24 155 -419 228 -638 60 -179 161 -514 220 -729 61 -222
72 -261 87 -330 8 -38 28 -128 45 -200 17 -71 38 -166 46 -210 8 -44 23 -116
34 -160 34 -151 117 -637 140 -825 20 -160 41 -325 45 -355 3 -16 7 -48 9 -70
41 -409 84 -625 171 -851 25 -65 50 -128 55 -139 79 -169 166 -390 180 -460
33 -162 -35 -356 -183 -519 -69 -75 -76 -93 -68 -186 13 -151 -13 -333 -61
-440 -22 -49 -70 -97 -106 -106 -39 -11 -152 28 -289 98 -128 65 -133 67 -145
48 -7 -11 -23 -20 -36 -20 -22 0 -22 1 -8 22 9 12 16 25 16 29 0 7 -104 59
-119 59 -5 0 -13 -25 -16 -55 l-7 -55 -60 0 c-37 0 -57 4 -53 10 3 6 -9 1 -27
-9 -74 -44 -171 -22 -212 48 -37 63 -22 192 31 272 35 53 159 113 187 90 6 -5
21 -12 33 -15 l23 -7 2 252 3 253 30 7 c17 3 111 23 210 44 274 57 369 93 417
158 49 65 53 89 53 307 0 200 -1 206 -25 250 -36 65 -97 94 -283 136 -155 35
-250 55 -347 73 -30 6 -86 18 -125 26 -38 9 -90 20 -115 24 -125 24 -983 197
-1190 241 -30 7 -58 15 -63 19 -4 4 30 26 76 49 199 100 335 311 497 777 22
61 44 124 49 140 15 40 61 192 71 230 4 17 26 100 48 185 23 85 43 171 46 190
5 43 21 133 47 265 26 138 70 447 64 453 -9 9 -16 -5 -20 -36 -2 -17 -9 -57
-14 -89 -6 -32 -20 -114 -31 -183 -11 -69 -24 -143 -29 -165 -34 -159 -85
-378 -97 -420 -85 -300 -145 -490 -201 -635 -141 -366 -237 -529 -374 -631
-72 -54 -151 -87 -304 -126 -104 -26 -122 -28 -330 -27 -187 0 -358 9 -540 29
-22 3 -92 9 -155 15 -97 8 -365 38 -500 55 -19 2 -91 11 -160 20 -69 8 -192
26 -275 40 -82 13 -267 43 -410 65 -281 43 -286 44 -725 119 -975 167 -923
155 -1090 241 -30 15 -80 33 -110 39 -30 6 -111 22 -180 36 -286 57 -380 81
-639 169 -29 10 -41 24 -72 85 -45 87 -59 146 -59 246 0 271 186 655 361 745
55 29 120 33 284 20 174 -13 420 -16 455 -5 14 4 57 29 97 56 194 128 271 154
433 146 68 -3 126 -12 166 -25 72 -25 337 -141 344 -151 12 -18 45 -19 117 -5
42 8 97 17 122 20 63 7 215 32 276 44 27 6 79 24 115 41 171 81 235 87 398 35
133 -43 164 -47 349 -50 l148 -2 145 -58 c80 -33 179 -76 220 -96 84 -42 339
-145 385 -156 55 -12 13 11 -100 56 -60 24 -146 61 -190 83 -119 58 -369 165
-418 178 -23 6 -114 12 -202 13 -103 1 -168 6 -182 14 -59 32 -37 246 35 334
44 53 142 134 225 185 25 16 85 52 134 82 191 117 625 410 653 441 3 3 28 23
55 45 70 55 70 55 58 55 -6 0 -53 -32 -104 -72 -83 -63 -603 -418 -614 -418
-2 0 -46 -28 -97 -61 -51 -34 -113 -74 -137 -90 -25 -16 -48 -26 -52 -22 -8 9
-8 12 57 318 70 330 94 407 165 526 28 48 35 75 11 47 -14 -19 -102 -194 -102
-206 0 -5 -9 -20 -19 -34 -11 -13 -27 -60 -35 -104 -9 -43 -20 -97 -26 -119
-16 -63 -60 -266 -59 -273 1 -4 0 -9 -1 -12 -1 -3 -3 -16 -4 -30 -8 -104 -16
-121 -82 -188 -95 -95 -117 -149 -118 -285 -1 -91 -3 -106 -16 -101 -80 32
-184 55 -250 55 -83 0 -120 -11 -235 -66 -63 -31 -104 -41 -233 -62 -86 -13
-184 -29 -217 -34 -142 -24 -131 -25 -255 34 -238 114 -313 137 -446 137 -160
0 -265 -36 -417 -145 -54 -39 -94 -59 -127 -65 -59 -11 -297 -3 -485 16 -27 3
-77 5 -110 4 l-60 -1 -19 53 c-10 29 -27 71 -38 93 -42 85 -161 396 -198 515
-41 134 -69 224 -105 335 -12 39 -40 141 -61 227 -22 87 -43 158 -47 158 -9 0
-1 -64 13 -115 5 -16 19 -68 30 -115 23 -91 116 -412 130 -445 29 -68 80 -239
73 -245 -17 -16 -171 -138 -228 -181 -33 -25 -130 -94 -215 -154 -175 -122
-186 -130 -150 -120 57 17 345 219 508 357 33 27 85 58 98 58 6 0 24 -35 39
-77 28 -81 36 -99 104 -246 23 -49 41 -92 41 -98 0 -5 -19 -18 -42 -29 -24
-11 -56 -32 -73 -46 -58 -50 -64 -52 -155 -43 -47 5 -105 13 -130 18 -25 6
-121 24 -215 41 -93 18 -231 45 -305 62 -74 16 -197 43 -272 59 -75 15 -172
37 -215 48 -163 41 -216 35 -357 -36 -74 -37 -254 -98 -428 -144 -84 -22 -162
-46 -174 -54 -12 -8 -50 -49 -85 -92 -147 -182 -300 -343 -371 -391 -26 -18
-50 -32 -55 -32 -4 0 -44 12 -88 26 -44 15 -87 27 -95 28 -9 1 -20 5 -26 9 -6
3 -31 9 -55 12 -34 5 -23 -2 51 -28 122 -44 185 -72 221 -98 28 -20 29 -20 29
-1 0 11 23 41 51 68 88 84 289 306 351 387 32 42 69 84 81 92 12 8 103 36 202
64 219 60 321 95 440 151 49 24 107 45 130 47 26 3 99 -9 210 -35 94 -23 213
-50 265 -62 52 -11 114 -25 136 -30 150 -34 559 -112 658 -125 65 -8 122 -18
127 -20 4 -3 -11 -31 -35 -63 -148 -192 -227 -507 -182 -721 l14 -63 -32 6
c-17 4 -125 11 -241 16 -115 5 -228 14 -250 20 -48 12 -61 12 -51 3 4 -4 19
-9 34 -11 14 -2 31 -7 37 -12 14 -11 162 -40 215 -41 79 -2 214 -35 204 -50
-3 -6 4 -7 21 -3 22 5 26 3 23 -11 -2 -13 6 -21 27 -26 18 -5 31 -5 33 1 5 15
22 12 22 -3 0 -9 22 -19 58 -26 149 -33 168 -41 201 -88 36 -51 57 -61 171
-78 122 -20 251 -45 262 -51 5 -3 4 -12 -3 -20 -9 -11 -8 -14 4 -14 8 0 18 6
20 13 3 7 6 5 6 -5 1 -21 17 -24 24 -5 3 9 8 9 17 1 9 -9 4 -14 -19 -22 -17
-6 -31 -12 -31 -14 0 -2 35 -2 78 0 79 4 184 -13 802 -123 135 -24 272 -49
305 -54 33 -5 166 -28 295 -50 129 -22 285 -47 345 -56 145 -21 462 -71 549
-87 70 -12 93 -31 64 -52 -13 -10 -14 -14 -3 -30 9 -12 11 -26 5 -40 -4 -12
-6 -43 -3 -69 3 -26 4 -47 2 -47 -2 0 -202 -49 -444 -109 -242 -60 -539 -132
-660 -161 -121 -28 -242 -58 -270 -65 -27 -8 -97 -25 -154 -39 -56 -14 -106
-27 -109 -30 -9 -10 14 -7 100 15 46 11 101 22 123 25 21 3 43 8 47 10 4 3 8
1 8 -4 0 -6 -17 -13 -37 -16 -52 -8 -65 -11 -85 -20 -10 -5 -29 -9 -43 -10
-14 0 -25 -4 -25 -7 0 -4 -15 -9 -32 -12 -18 -3 -40 -7 -48 -10 -8 -2 -28 -7
-45 -12 -16 -4 -34 -11 -40 -15 -5 -4 -26 -13 -45 -20 -19 -7 -43 -20 -54 -29
-17 -15 -18 -15 -12 4 31 103 29 190 -7 223 -36 33 -63 36 -112 12 -113 -55
-195 -227 -301 -635 -52 -202 -94 -303 -156 -379 -87 -106 -133 -130 -156 -84
-18 38 2 149 67 373 36 125 47 175 39 188 -18 34 -98 49 -131 24 -15 -11 -97
-286 -126 -425 -13 -64 -14 -142 -2 -174 25 -66 100 -100 171 -79 47 14 129
86 171 152 18 27 33 48 34 46 2 -1 -4 -36 -13 -78 -9 -41 -13 -83 -9 -92 10
-26 51 -40 92 -33 42 8 41 6 93 189 20 70 40 126 45 124 4 -1 31 -53 60 -116
76 -168 146 -230 236 -210 54 12 112 59 160 131 25 37 47 66 48 64 2 -1 -4
-33 -13 -69 -16 -62 -16 -68 0 -92 12 -19 25 -25 52 -25 47 0 79 33 100 106
55 191 233 488 304 507 37 10 29 -45 -41 -291 -79 -278 -78 -302 13 -302 55 0
53 -4 103 137 68 186 175 377 244 436 27 22 36 25 48 15 18 -15 14 -39 -37
-223 -21 -77 -42 -161 -45 -186 -17 -119 64 -221 161 -203 29 5 34 10 34 34 0
15 -9 38 -19 51 -22 29 -32 138 -15 160 12 14 63 189 84 282 13 62 4 110 -27
148 -22 25 -32 29 -77 29 -91 0 -159 -58 -243 -208 -19 -35 -37 -62 -38 -60
-2 2 3 28 11 58 8 30 14 78 14 106 0 42 -5 56 -26 78 -31 30 -96 36 -143 12
-41 -22 -131 -124 -171 -194 -54 -97 -61 -102 -39 -32 44 141 50 167 39 194
-11 31 -45 46 -100 46 -45 0 -54 -11 -64 -80 -9 -59 -64 -253 -88 -308 -26
-63 -116 -190 -155 -219 -48 -37 -71 -27 -124 57 -24 40 -63 98 -86 131 l-43
59 28 6 c49 12 156 73 199 114 45 44 83 112 83 149 0 30 -26 78 -49 91 -78 41
-193 -24 -302 -171 -28 -39 -53 -68 -56 -65 -2 2 1 23 7 47 13 48 57 120 130
213 28 35 66 90 85 122 l36 59 117 26 c117 26 869 199 1057 243 699 164 817
194 845 215 17 12 26 30 28 53 4 52 -23 71 -105 74 l-66 3 -3 76 c-3 68 -2 76
14 71 91 -29 659 -93 1392 -157 273 -24 555 -15 680 22 30 9 91 -1 390 -60
195 -38 459 -90 585 -115 127 -25 374 -75 550 -111 176 -36 345 -70 375 -76
133 -25 280 -76 280 -98 0 -15 -35 -39 -65 -44 -16 -3 -57 -14 -90 -26 -61
-20 -289 -71 -321 -71 -10 0 -31 -4 -48 -10 -33 -10 -278 -57 -421 -80 -53 -9
-976 -183 -1060 -200 -27 -6 -111 -22 -185 -36 -74 -14 -178 -34 -230 -44 -52
-10 -147 -28 -210 -40 -63 -11 -135 -24 -160 -30 -25 -5 -108 -21 -185 -35
-77 -14 -207 -39 -290 -55 -143 -28 -197 -37 -221 -39 -6 -1 -19 -22 -29 -48
-18 -48 -91 -165 -107 -171 -4 -2 -3 -13 3 -25 9 -18 9 -20 -1 -10 -10 9 -23
2 -60 -35 -32 -32 -44 -50 -36 -55 6 -5 0 -5 -13 -2 -18 5 -22 4 -16 -6 6 -9
3 -11 -8 -6 -10 3 -17 2 -17 -3 0 -6 -6 -10 -14 -10 -8 0 -18 -5 -22 -11 -4
-7 4 -10 22 -8 16 2 35 0 42 -4 6 -5 17 -5 22 -2 6 3 10 2 10 -3 0 -6 11 -13
25 -16 14 -4 45 -26 70 -50 25 -23 48 -40 51 -37 3 3 3 -1 0 -9 -3 -8 0 -26 7
-40 21 -41 3 -172 -33 -247 -59 -119 -153 -167 -357 -180 l-103 -6 0 27 c0 27
14 133 51 388 15 103 17 143 9 158 -6 11 -7 20 -3 19 4 -1 18 2 30 6 l23 7
-27 22 c-15 11 -31 20 -35 19 -4 -2 -5 4 -2 12 4 8 2 15 -4 15 -5 0 -12 8 -14
18 -7 27 -38 24 -38 -4 0 -30 -18 -40 -37 -22 -13 14 -13 16 1 21 10 4 13 1 9
-9 -3 -7 0 -14 7 -14 7 0 10 8 7 20 -3 11 1 27 10 35 8 8 11 15 6 15 -10 0
-63 -55 -63 -67 0 -4 -27 -21 -59 -37 -48 -24 -67 -28 -107 -24 -27 3 -58 9
-68 13 -14 6 -17 5 -12 -3 4 -7 1 -12 -9 -12 -9 0 -13 5 -10 10 3 6 1 10 -4
10 -6 0 -11 8 -11 18 0 14 2 15 10 2 5 -8 11 -12 15 -9 3 3 -4 14 -15 24 -18
16 -20 16 -20 2 0 -10 -6 -17 -14 -17 -8 0 -17 -7 -20 -16 -4 -11 -13 -14 -27
-11 -13 4 -29 -2 -42 -14 -11 -10 -23 -16 -26 -13 -3 4 0 9 7 11 6 3 12 9 12
15 0 7 -4 7 -12 1 -7 -6 -37 -16 -65 -23 -29 -6 -50 -16 -47 -21 3 -5 -3 -6
-13 -2 -14 6 -13 9 12 19 17 7 35 13 42 14 6 0 14 4 18 10 3 5 -7 5 -25 -1
-17 -6 -46 -9 -65 -7 -19 2 -35 0 -35 -4 0 -22 127 -75 143 -59 6 6 15 4 25
-6 13 -13 35 -14 137 -9 114 6 123 5 140 -14 10 -11 15 -20 10 -20 -4 0 -2 -6
4 -14 9 -11 9 -16 0 -22 -8 -5 -9 -3 -3 7 4 8 -10 -3 -31 -25 -22 -21 -39 -42
-38 -46 1 -3 -3 -7 -10 -7 -7 0 -55 -27 -107 -60 -164 -104 -367 -199 -560
-261 -114 -37 -152 -43 -177 -26 -36 23 -28 54 31 115 56 58 102 123 108 149
2 8 9 21 16 29 7 7 11 20 8 27 -3 8 -1 14 5 14 6 0 9 7 6 15 -4 8 -2 17 3 20
15 9 12 149 -2 163 -10 10 -10 15 2 22 13 8 13 10 -2 10 -9 0 -19 -6 -21 -12
-4 -10 -6 -10 -6 0 -1 7 -6 10 -12 7 -6 -4 -31 1 -56 10 -35 14 -47 15 -53 5
-6 -9 -9 -9 -15 -1 -4 7 -16 9 -28 5 -20 -6 -20 -6 -4 10 25 25 22 27 -24 11
-51 -18 -62 -19 -53 -2 5 8 2 7 -10 -2 -16 -14 -85 -22 -203 -24 -42 -1 -50
-4 -41 -14 12 -15 4 -17 -22 -3 -12 6 -36 5 -76 -6 -33 -9 -85 -17 -116 -19
-32 -2 -61 -6 -65 -8 -9 -5 -88 -18 -143 -23 -75 -7 -246 -33 -485 -74 -99
-17 -283 -48 -410 -70 -126 -22 -336 -58 -465 -80 -129 -23 -278 -48 -330 -56
-52 -8 -108 -19 -125 -24 -16 -5 -73 -14 -125 -20 -52 -7 -126 -18 -165 -26
-38 -8 -90 -17 -115 -20 -25 -2 -65 -9 -90 -14 -25 -5 -76 -14 -115 -20 -121
-19 -130 -21 -147 -26 -9 -2 -56 -11 -105 -18 -99 -16 -814 -138 -968 -167
-55 -10 -179 -32 -275 -50 -161 -30 -192 -33 -385 -33 -239 0 -394 14 -545 50
-124 30 -628 169 -685 189 -22 8 -89 28 -150 44 -60 16 -182 50 -270 76 -88
26 -182 53 -210 60 -84 22 -230 61 -430 115 -301 82 -306 83 -317 72 -13 -13
-48 -3 -48 14 0 8 -4 14 -10 14 -5 0 -10 -7 -10 -15 0 -17 -25 -20 -35 -5 -3
5 -1 10 6 10 32 0 -7 14 -41 15 -39 1 -53 -9 -27 -18 6 -2 8 -8 4 -13 -5 -5
-15 -1 -22 10 -12 16 -12 21 1 33 18 18 18 24 -1 17 -8 -4 -15 -1 -15 5 0 6
-8 11 -17 11 -15 0 -16 -2 -3 -10 12 -8 12 -10 -5 -10 -38 0 -66 12 -61 26 3
8 -1 14 -8 14 -8 0 -16 -5 -18 -12 -3 -8 -15 -4 -37 11 -25 18 -35 21 -41 12
-5 -9 -9 -8 -14 5 -3 9 -9 14 -13 11 -3 -3 -20 0 -38 7 -17 8 -56 17 -84 21
-29 4 -65 13 -79 21 -14 7 -36 11 -48 8 -12 -3 -25 -1 -28 5 -8 12 -46 15 -46
4 0 -9 -49 -33 -67 -33 -7 0 -13 5 -13 10 0 6 -20 10 -45 10 -38 0 -45 3 -43
18 2 11 -3 16 -14 14 -12 -2 -16 2 -12 13 8 21 2 19 -20 -7 -15 -18 -16 -20
-2 -15 11 4 16 1 16 -9 0 -12 -6 -15 -21 -11 -12 3 -29 2 -38 -3 -76 -40 -140
-65 -101 -40 12 8 11 10 -5 10 -12 0 -38 9 -60 20 -37 19 -39 19 -55 2 -11
-11 -14 -25 -10 -37 7 -20 7 -20 12 0 4 15 6 16 7 3 0 -9 -3 -19 -8 -22 -17
-11 -41 6 -41 29 0 13 -5 27 -10 30 -15 9 -23 -21 -11 -43 8 -14 7 -19 -5 -19
-10 0 -14 12 -14 41 0 30 -3 37 -10 26 -5 -8 -10 -12 -10 -7 0 4 -13 1 -30 -8
-16 -9 -30 -11 -30 -6 0 17 -29 0 -35 -20 -5 -14 -10 -17 -18 -10 -8 6 -19 5
-31 -5 -11 -8 -36 -14 -57 -14 -23 0 -39 -5 -43 -15 -3 -9 -12 -12 -22 -8 -15
5 -14 8 6 15 38 14 13 22 -28 9 -21 -7 -47 -11 -58 -8 -11 3 -5 5 16 6 34 2
34 2 12 14 -20 12 -17 13 33 15 32 1 55 -2 55 -8 0 -5 4 -10 10 -10 5 0 7 6 4
14 -6 15 22 30 38 19 7 -3 8 -1 4 5 -4 7 -17 10 -29 7 -37 -10 -106 -11 -100
-2 2 4 -7 5 -21 1 -21 -5 -28 -2 -35 17 l-10 24 0 -22 c-1 -13 4 -23 9 -23 6
0 10 -5 10 -10 0 -6 -6 -10 -13 -9 -16 3 -67 -10 -91 -22 -13 -8 -16 -7 -11 1
4 6 1 17 -5 25 -9 11 -9 15 -1 15 6 0 11 -5 11 -11 0 -7 10 -9 28 -4 56 14 40
21 -40 18 -102 -5 -122 0 -159 38 -25 26 -35 25 -30 -3 0 -5 -6 -8 -14 -8 -8
0 -12 6 -9 14 3 8 1 17 -4 20 -6 3 -12 -1 -16 -9 -3 -8 -11 -15 -17 -15 -8 0
-6 7 5 19 15 16 15 19 1 31 -13 11 -20 9 -45 -15 -16 -15 -27 -33 -23 -38 3
-6 1 -7 -5 -3 -7 4 -22 0 -34 -8 -12 -9 -17 -16 -10 -16 6 0 12 -4 12 -10 0
-5 -9 -10 -20 -10 -11 0 -20 5 -20 10 0 7 -7 7 -21 -1 -21 -11 -42 -9 -84 5
-11 4 -7 0 9 -9 19 -11 40 -15 65 -11 26 4 30 3 16 -3 -67 -31 -88 -32 -122
-9 -28 19 -28 20 -3 14 25 -6 25 -6 3 5 -27 14 -31 31 -5 23 14 -5 14 -4 2 4
-10 8 -18 8 -27 1 -15 -13 -33 -3 -33 17 0 8 -5 14 -11 14 -5 0 -7 -5 -4 -11
4 -6 -3 -5 -15 3 -18 10 -24 10 -27 1 -3 -9 -10 -10 -24 -3 -15 8 -17 7 -13
-5 4 -9 0 -15 -7 -16 -8 0 -23 -2 -34 -5 -83 -16 -140 -16 -171 1 -44 23 -84
85 -86 132 -1 35 -2 34 -8 -12 -4 -27 -8 -38 -8 -23 -1 15 -7 30 -14 34 -7 5
-9 0 -6 -14 3 -12 1 -23 -6 -25 -10 -4 -18 -1 -65 23 -14 6 -21 6 -24 -3 -3
-7 -6 -4 -6 6 -1 18 -21 25 -21 6 0 -5 -5 -7 -10 -4 -8 5 -8 11 0 20 6 7 7 20
4 30 -5 13 -14 0 -31 -46 -13 -35 -24 -72 -25 -82 -4 -34 -54 -60 -105 -54
-59 6 -78 26 -76 79 0 24 -1 37 -4 31 -5 -14 -23 -18 -23 -5 0 5 8 17 19 28
10 11 26 34 34 50 21 37 21 19 2 -36 -35 -98 -7 -149 75 -135 45 8 55 21 85
115 50 156 126 302 217 415 60 76 87 94 104 71 14 -20 9 -47 -42 -221 -45
-151 -55 -263 -29 -312 33 -61 104 -88 170 -63 36 14 123 96 157 149 l28 45 0
-45 c0 -52 35 -111 80 -134 94 -49 210 17 295 166 l24 42 -6 -41 c-4 -28 0
-58 11 -87 57 -148 208 -120 331 60 27 39 27 39 21 10 -16 -77 -18 -135 -6
-150 13 -15 83 -21 114 -9 8 3 31 53 52 117 61 186 165 370 259 456 40 37 49
41 61 30 16 -17 6 -69 -52 -255 -62 -202 -49 -306 43 -349 81 -39 162 2 254
128 61 82 149 243 149 272 0 26 -19 16 -43 -22 -135 -215 -206 -303 -246 -303
-51 0 -48 58 15 280 19 69 38 160 41 202 6 76 5 77 -25 107 -40 41 -105 43
-167 6 -46 -26 -133 -133 -185 -228 -18 -32 -34 -56 -36 -54 -2 2 10 45 26 96
48 150 39 192 -43 204 -52 8 -87 -6 -87 -35 0 -41 -68 -285 -95 -343 -36 -76
-133 -195 -177 -219 -90 -48 -89 44 1 358 33 115 58 213 55 218 -3 4 -28 8
-55 8 -43 0 -51 -3 -61 -25 -14 -30 -19 -31 -35 -5 -37 59 -158 66 -252 15
-59 -33 -135 -109 -175 -178 -16 -26 -47 -95 -71 -152 -74 -181 -200 -312
-221 -229 -10 41 3 119 46 268 46 159 51 232 20 283 -23 38 -73 51 -130 34
-51 -15 -146 -110 -206 -207 -25 -41 -48 -73 -50 -71 -2 2 8 37 21 79 20 57
41 93 91 154 148 181 206 279 233 390 15 61 3 120 -29 149 -25 23 -95 23 -138
1 -109 -56 -225 -306 -332 -716 -12 -47 -37 -116 -56 -155 -63 -134 -164 -246
-207 -229 -41 15 -29 96 54 387 38 131 49 185 42 196 -7 11 -29 17 -71 19 -73
4 -65 15 -133 -186 -78 -229 -154 -363 -225 -397 -84 -40 -87 44 -9 310 55
190 62 228 46 254 -9 14 -103 33 -125 25 -12 -5 -94 -266 -123 -394 -8 -36
-15 -94 -15 -130 -1 -49 -3 -58 -9 -37 -8 28 11 185 30 254 6 20 6 33 0 33 -5
0 -9 -5 -9 -11 0 -8 -4 -8 -12 -2 -7 5 -39 16 -71 23 -32 7 -60 17 -63 22 -3
5 -12 4 -19 -2 -11 -9 -12 -6 -8 12 3 13 3 21 0 18 -6 -5 -66 -187 -72 -218
-8 -40 -88 -240 -108 -270 -37 -54 -100 -84 -187 -88 l-75 -3 66 9 c87 11 150
39 181 81 32 43 91 212 173 494 35 121 83 284 106 363 l42 143 71 -8 c250 -26
407 10 472 109 51 78 32 115 -31 59 -60 -52 -163 -67 -365 -52 -455 35 -461
35 -541 19 -147 -31 -271 -113 -320 -214 -27 -56 -30 -136 -6 -181 37 -70 133
-101 178 -56 27 26 17 44 -20 37 -67 -14 -96 106 -48 197 49 93 163 136 330
125 126 -9 130 -10 113 -44 -18 -36 -67 -180 -177 -522 -106 -329 -133 -403
-165 -446 -24 -33 -63 -47 -86 -33 -9 6 -3 9 18 9 57 0 85 50 164 295 23 72
50 156 60 188 16 50 17 59 5 64 -8 3 -15 11 -15 19 0 19 -29 18 -52 -3 -18
-16 -18 -16 -12 0 5 14 0 17 -28 17 -19 0 -61 7 -93 16 -33 8 -73 13 -90 10
-22 -4 -26 -3 -15 4 13 8 12 10 -3 10 -28 0 -77 29 -77 45 0 8 5 15 10 15 6 0
10 -4 10 -10 0 -5 5 -10 12 -10 6 0 3 9 -7 20 -16 18 -20 19 -27 5 -5 -8 -14
-15 -20 -15 -6 0 -4 8 5 18 14 15 14 23 2 69 -17 65 -11 103 28 176 34 64 83
112 163 157 55 31 72 46 51 47 -7 1 -88 23 -182 51 -393 115 -967 283 -1065
310 -180 51 -628 181 -800 232 -154 46 -468 137 -795 231 -260 74 -509 150
-645 195 -74 25 -179 58 -233 74 -54 16 -103 33 -110 37 -7 4 -16 8 -22 10
-46 10 -56 13 -65 18 -5 3 -22 8 -37 10 -52 9 -131 30 -139 38 -4 4 -17 7 -29
7 -12 0 -64 14 -116 30 -52 17 -125 39 -164 50 -87 23 -112 32 -200 65 -38 15
-84 31 -102 35 -42 10 -90 45 -99 72 -9 31 34 62 112 82 67 17 788 109 1179
150 479 51 650 70 820 92 66 8 158 19 205 25 47 5 104 11 126 14 l42 5 4 -173
c5 -207 5 -210 -33 -202 -22 5 -30 2 -39 -15 -14 -27 -5 -70 16 -70 11 0 12 4
4 19 -6 12 -6 22 -1 26 13 8 21 -9 19 -39 -2 -20 -8 -26 -27 -26 -13 0 -21 3
-18 6 8 9 -11 44 -23 44 -16 0 -11 -60 5 -66 8 -4 15 -14 15 -24 0 -13 11 -19
39 -24 57 -9 67 -57 15 -70 -23 -6 -36 -46 -14 -46 6 0 10 8 10 19 0 14 6 17
25 13 23 -4 24 -6 11 -21 -10 -11 -12 -21 -5 -34 6 -9 7 -17 3 -17 -3 0 0 -7
7 -16 11 -14 27 -15 104 -9 49 3 135 13 190 21 144 22 221 33 300 43 58 8 158
23 290 45 30 5 129 23 220 40 208 38 320 79 346 128 7 13 14 77 16 143 5 142
9 169 27 162 7 -3 86 3 177 14 90 10 180 19 199 19 l35 0 14 -78 c8 -42 15
-99 17 -126 1 -26 5 -54 8 -62 3 -7 1 -16 -5 -19 -5 -4 -7 -10 -4 -15 3 -5 0
-29 -6 -52 -7 -24 -13 -71 -15 -105 -1 -34 -5 -66 -8 -72 -13 -20 51 -28 154
-20 149 11 380 39 415 49 17 5 53 12 80 16 28 3 57 10 66 15 9 4 19 6 22 3 3
-4 30 -1 59 6 146 34 218 58 218 72 0 6 31 15 80 23 23 4 138 48 151 58 24 18
58 89 70 149 13 61 20 68 74 68 35 0 380 40 737 86 70 9 126 19 124 23 -8 13
-379 -16 -706 -54 -218 -26 -200 -26 -200 -2 0 11 6 57 14 101 8 45 19 131 26
191 18 175 40 285 61 315 34 45 48 142 33 219 -10 47 -79 91 -165 105 -72 11
-85 21 -46 35 31 12 115 77 155 120 44 48 59 79 76 152 l15 62 -29 28 c-41 42
-112 34 -227 -23 -83 -42 -73 -49 12 -8 80 38 160 53 195 36 22 -10 25 -18 24
-61 -2 -59 -31 -126 -80 -183 -78 -91 -271 -180 -404 -187 -66 -3 -215 17
-229 30 -3 4 3 6 14 5 11 -1 29 -1 40 0 17 2 16 3 -5 9 -14 4 -36 4 -49 -1
-14 -5 -28 -5 -34 1 -8 8 61 60 113 84 37 18 189 119 246 163 53 41 66 59 93
121 42 97 54 161 49 253 -5 93 -38 164 -78 167 l-25 2 26 -10 c34 -13 69 -101
69 -172 0 -107 -44 -237 -102 -303 -33 -37 -168 -137 -175 -130 -3 2 2 18 11
34 28 54 35 107 22 174 -11 59 -35 119 -36 90 0 -9 -7 -11 -22 -6 l-23 6 22
-23 c61 -66 56 -199 -10 -279 -24 -30 -93 -76 -144 -98 -61 -26 -150 -29 -192
-7 -54 28 -121 134 -121 192 0 15 -4 22 -11 17 -20 -12 -4 -100 25 -145 15
-22 26 -42 24 -44 -8 -8 -138 51 -193 88 -81 55 -118 95 -153 169 -36 78 -45
121 -43 223 1 90 14 140 44 173 11 12 16 22 9 22 -13 0 -44 -44 -63 -90 -31
-79 -10 -275 37 -345 12 -16 20 -55 12 -55 -2 0 -28 10 -58 22 -73 29 -203 31
-243 5 -88 -58 -29 -179 135 -277 32 -19 58 -39 58 -45 0 -6 -21 -12 -46 -13
-85 -3 -154 -68 -154 -143 0 -71 21 -142 50 -169 29 -27 37 -61 46 -187 3 -46
27 -215 46 -318 4 -22 -25 -30 -137 -40 -38 -3 -83 -8 -100 -10 -16 -2 -59 -7
-94 -10 -35 -3 -68 -7 -74 -8 -8 -1 -11 42 -12 136 0 111 3 140 15 148 11 8
12 12 3 16 -10 3 -13 48 -15 166 -1 156 -1 153 -9 -78 -20 -661 -20 -658 -60
-701 -59 -63 -302 -111 -609 -120 -159 -5 -232 -3 -325 10 -146 19 -297 57
-362 89 -89 46 -82 3 -88 538 -3 261 -8 645 -12 854 -3 209 -6 393 -6 408 0
17 11 40 28 57 31 32 104 70 135 70 30 0 24 -27 -7 -34 -79 -17 -93 -80 -26
-109 98 -44 352 -87 506 -87 115 0 300 19 312 32 7 7 2 9 -17 4 -34 -8 -34 -5
-7 93 11 42 45 164 75 271 30 107 65 236 79 285 14 50 37 133 51 185 29 104
57 172 85 209 20 25 25 61 9 61 -14 0 -12 16 4 33 10 9 12 24 7 48 -6 31 -11
21 -59 -121 -28 -85 -70 -222 -92 -305 -22 -82 -54 -195 -70 -250 -16 -55 -36
-126 -45 -158 l-16 -58 -100 2 c-55 1 -102 -1 -105 -3 -2 -3 37 -8 88 -12 50
-3 94 -8 97 -11 2 -3 -3 -27 -12 -53 -9 -26 -26 -84 -37 -128 l-22 -82 -40 -6
c-22 -4 -43 -5 -45 -2 -3 3 -31 161 -47 271 -2 11 -6 27 -9 35 -3 8 -22 132
-42 275 -38 272 -51 342 -67 351 -5 3 -21 1 -36 -4 -63 -24 -82 -24 -91 0 -9
22 -9 22 -17 3 -4 -11 -12 -23 -18 -27 -15 -10 -11 -126 14 -402 12 -126 19
-230 17 -233 -3 -2 -16 -1 -29 2 -19 5 -29 21 -50 83 -15 42 -73 208 -128 367
-56 160 -107 305 -113 323 -5 17 -14 32 -18 32 -14 0 -21 -21 -11 -33 9 -11
100 -271 197 -562 74 -218 145 -448 145 -465 0 -17 -4 -17 -77 2 -43 11 -85
21 -93 22 -17 3 -40 42 -40 68 0 10 -9 41 -20 70 -11 29 -20 65 -20 80 0 14
-4 28 -9 30 -5 2 -13 16 -17 32 -5 23 -4 28 7 22 8 -4 4 1 -9 10 -12 9 -22 24
-22 34 0 10 -7 36 -15 59 -13 39 -13 42 6 60 17 16 19 23 9 40 -6 12 -8 25 -5
30 3 5 -4 26 -14 48 -11 21 -22 46 -25 56 -7 21 -26 23 -26 2 0 -8 4 -15 10
-15 5 0 13 -18 16 -40 4 -22 10 -40 15 -40 13 0 -1 -28 -18 -34 -11 -5 -14 2
-12 32 2 24 -1 36 -9 35 -6 -2 -14 9 -18 25 -3 15 -10 37 -16 48 -5 12 -7 32
-3 44 4 14 3 20 -3 16 -5 -3 -9 4 -9 17 1 12 -2 35 -6 50 -5 16 -4 26 1 23 5
-3 18 1 28 9 11 8 14 14 7 15 -7 0 -13 9 -13 20 0 11 -3 20 -7 20 -15 0 -8 65
10 97 9 18 17 35 17 39 0 12 -48 -45 -55 -65 -7 -22 -55 -35 -55 -15 0 7 6 11
13 8 8 -3 19 2 26 10 13 15 10 19 -34 41 -18 10 -24 24 -55 150 -6 24 3 35 47
60 42 25 45 29 29 40 -13 10 -14 14 -4 18 7 3 8 6 2 6 -6 1 -9 14 -6 31 5 38
-4 74 -24 95 -20 19 -11 33 10 16 21 -18 58 -121 53 -147 -2 -13 3 -26 14 -32
9 -6 22 -28 29 -49 6 -21 14 -44 16 -52 2 -8 7 -12 10 -9 2 3 -4 30 -14 59
-11 30 -27 81 -36 114 -36 132 -77 163 -162 125 -49 -21 -58 -34 -56 -76 2
-25 47 -164 85 -264 3 -8 10 -32 16 -52 8 -31 7 -38 -5 -38 -17 0 -18 -19 -3
-57 32 -79 246 -729 242 -735 -2 -5 -14 -8 -26 -8 -32 0 -137 -62 -161 -94
-16 -21 -21 -41 -20 -84 13 -691 15 -1280 6 -1286 -19 -12 -115 -24 -347 -46
-231 -21 -406 -41 -590 -65 -60 -8 -135 -17 -165 -19 -53 -5 -252 -26 -450
-47 -357 -37 -689 -80 -802 -104 -118 -24 -163 -61 -183 -149 -16 -69 -20
-371 -5 -424 28 -108 95 -148 440 -262 135 -45 246 -83 248 -85 10 -10 -1
-2352 -14 -2717 l-5 -168 514 0 515 0 6 68 c3 37 8 121 11 187 6 128 22 408
30 540 12 188 25 448 26 553 1 62 5 115 9 117 4 2 31 -5 61 -16 59 -22 310
-111 634 -224 404 -141 612 -214 900 -315 507 -178 798 -281 865 -305 284
-101 379 -134 405 -141 17 -4 35 -10 40 -14 6 -3 69 -27 140 -53 291 -103 633
-224 845 -297 124 -43 238 -83 253 -89 44 -17 15107 -15 15107 2 0 9 2 9 8 -1
7 -10 202 -12 943 -10 l934 3 2 65 c4 85 18 217 53 485 66 503 61 375 58 1714
l-3 1225 -65 13 c-36 7 -94 20 -130 29 -36 9 -108 27 -160 40 -420 102 -418
101 -465 107 -17 2 -22 16 -37 112 -10 61 -22 133 -28 160 -11 54 -31 168 -51
280 -6 39 -22 120 -36 180 -13 61 -28 133 -33 160 -5 28 -19 88 -30 135 -11
47 -23 96 -26 110 -49 229 -180 695 -287 1020 -28 85 -52 160 -53 165 -3 16
-84 248 -94 270 -5 11 -18 47 -28 80 -11 33 -29 84 -41 112 -11 29 -18 60 -14
69 4 12 3 15 -5 10 -7 -4 -12 -2 -12 6 0 7 -10 31 -21 53 -12 22 -21 41 -20
42 3 7 -24 93 -30 93 -8 0 -49 93 -49 111 0 16 140 6 435 -32 254 -32 692 -94
770 -109 28 -5 124 -23 214 -40 90 -18 195 -42 232 -54 63 -21 69 -21 69 -5 0
9 -10 19 -22 22 -13 2 -77 17 -143 31 -300 68 -920 161 -1275 192 -47 4 -87 8
-90 9 -3 1 -51 5 -107 9 l-102 8 -20 49 c-12 26 -21 50 -21 53 0 2 -16 39 -35
80 -19 42 -35 78 -35 80 0 11 -227 471 -282 569 -68 124 -211 348 -267 417
-101 126 -152 183 -225 253 -159 156 -368 297 -598 405 -75 35 -283 106 -603
207 -115 36 -255 82 -310 101 -55 19 -141 48 -192 65 -51 17 -129 53 -175 80
-45 27 -94 52 -108 55 -61 13 -170 51 -231 80 -133 65 -144 67 -394 72 l-230
4 -42 41 c-57 54 -73 91 -66 149 l6 47 34 -26 c18 -14 36 -23 39 -20 3 3 7 67
8 143 2 77 8 150 14 164 6 14 17 48 26 77 9 28 42 112 75 185 32 73 76 187 96
253 21 66 57 176 80 245 39 117 64 211 81 305 6 34 8 36 13 17 11 -42 26 -28
43 43 34 134 51 302 45 438 -3 71 -3 126 0 123 28 -28 83 -215 83 -283 0 -24
4 -43 9 -43 34 0 44 268 16 405 -22 111 -70 255 -116 354 -21 46 -39 85 -39
86 0 2 28 -12 63 -31 94 -50 237 -80 237 -50 0 7 14 16 32 20 39 8 32 15 -24
27 -122 28 -262 167 -423 421 -282 444 -524 692 -864 884 -339 192 -677 276
-926 231 -44 -8 -82 -13 -83 -11 -6 5 70 40 146 68 107 38 232 52 331 37 182
-28 358 -115 504 -250 26 -24 50 -42 53 -39 8 9 -94 115 -159 164 -86 65 -223
129 -342 160 -119 31 -313 38 -405 15 -56 -14 -144 -51 -137 -57 2 -2 35 5 73
16 65 19 266 40 253 27 -3 -4 -50 -18 -104 -32 -122 -32 -234 -76 -292 -115
-48 -33 -63 -37 -63 -17 0 8 -13 40 -30 73 -60 122 -202 226 -370 274 -97 27
-265 34 -380 15z m-92 -220 c-3 -3 -36 -8 -74 -11 -38 -3 -72 -8 -76 -10 -4
-2 -9 0 -12 5 -4 5 6 11 21 13 53 7 147 9 141 3z m39 -1 c-3 -3 -12 -4 -19 -1
-8 3 -5 6 6 6 11 1 17 -2 13 -5z m-227 -14 c0 -5 -12 -10 -27 -9 -25 0 -26 1
-8 9 27 12 35 12 35 0z m-60 -14 c0 -11 -19 -15 -25 -6 -3 5 1 10 9 10 9 0 16
-2 16 -4z m-86 -21 c-4 -8 -7 -15 -9 -15 -2 0 -5 7 -9 15 -3 9 0 15 9 15 9 0
12 -6 9 -15z m-39 -6 c12 -19 -5 -23 -22 -6 -16 16 -16 17 -1 17 9 0 20 -5 23
-11z m80 1 c3 -5 -1 -10 -10 -10 -9 0 -13 5 -10 10 3 6 8 10 10 10 2 0 7 -4
10 -10z m-138 -11 c-9 -6 -15 -14 -12 -19 3 -5 1 -11 -5 -15 -11 -7 -13 5 -4
29 3 9 14 16 23 16 14 -1 14 -2 -2 -11z m32 -41 c-12 -5 -27 -7 -33 -4 -6 2
-3 5 7 5 9 1 17 8 17 17 0 14 2 14 16 3 14 -12 13 -14 -7 -21z m51 22 c0 -5
-5 -10 -11 -10 -5 0 -7 5 -4 10 3 6 8 10 11 10 2 0 4 -4 4 -10z m-200 -20 c0
-5 -12 -10 -27 -9 -25 0 -26 1 -8 9 27 12 35 12 35 0z m-85 -25 c-16 -8 -37
-14 -45 -14 -8 0 -1 6 15 14 17 7 37 13 45 13 8 0 2 -6 -15 -13z m-104 -62
c-11 -16 -11 -15 -5 6 4 17 3 21 -6 16 -9 -6 -11 -4 -5 4 5 9 11 9 17 3 7 -7
6 -16 -1 -29z m29 -44 c0 -5 -4 -9 -10 -9 -5 0 -10 7 -10 16 0 8 5 12 10 9 6
-3 10 -10 10 -16z m-300 -139 c0 -11 -4 -20 -10 -20 -5 0 -10 9 -10 20 0 11 5
20 10 20 6 0 10 -9 10 -20z m60 -14 c0 -2 -9 -6 -20 -9 -11 -3 -18 -1 -14 4 5
9 34 13 34 5z m-84 -53 c-10 -10 -19 5 -10 18 6 11 8 11 12 0 2 -7 1 -15 -2
-18z m-56 -79 c0 -8 -5 -12 -10 -9 -6 4 -8 11 -5 16 9 14 15 11 15 -7z m-90
-64 c0 -5 -2 -10 -4 -10 -3 0 -8 5 -11 10 -3 6 -1 10 4 10 6 0 11 -4 11 -10z
m30 0 c0 -5 -5 -10 -11 -10 -5 0 -7 5 -4 10 3 6 8 10 11 10 2 0 4 -4 4 -10z
m-90 -120 c0 -5 -4 -10 -10 -10 -5 0 -10 5 -10 10 0 6 5 10 10 10 6 0 10 -4
10 -10z m750 -1329 c0 -5 34 -55 77 -111 170 -225 430 -446 673 -572 l82 -43
-86 -7 c-149 -11 -459 -101 -525 -152 -17 -13 -30 3 -88 119 -92 182 -141 382
-150 623 -5 112 -3 152 5 152 7 0 12 -4 12 -9z m1236 -661 c45 -21 117 -51
160 -65 106 -37 120 -44 193 -109 81 -73 119 -97 214 -136 65 -27 85 -41 119
-83 55 -71 108 -178 155 -317 4 -11 9 -6 18 14 15 35 24 23 32 -44 3 -28 11
-50 18 -50 6 0 24 27 40 60 18 39 34 59 42 56 23 -9 97 165 109 258 7 51 16
56 38 24 9 -12 18 -19 21 -16 4 3 13 44 21 89 18 108 21 114 38 100 10 -8 24
2 62 50 92 115 212 177 325 166 210 -19 389 -257 389 -518 0 -132 -40 -242
-145 -398 -187 -278 -387 -403 -590 -371 -74 12 -82 9 -97 -28 -14 -37 -68
-222 -68 -235 0 -28 21 16 50 102 45 134 50 143 74 137 70 -17 129 -17 201 -1
42 9 78 15 80 13 2 -1 22 -42 44 -90 23 -49 44 -88 47 -88 3 0 10 14 16 31 6
17 13 26 17 21 19 -30 236 -252 296 -301 67 -56 213 -151 231 -151 40 -1 34
-21 -84 -261 -208 -427 -360 -656 -563 -856 -126 -123 -199 -180 -332 -259
-183 -109 -350 -164 -498 -164 -127 0 -225 45 -265 121 -12 24 -37 264 -28
277 8 12 166 -140 206 -197 29 -41 32 -15 4 33 -14 25 -57 72 -94 104 -37 33
-105 93 -152 135 -47 41 -106 101 -130 133 -25 33 -64 82 -88 110 l-43 52 53
32 c58 36 293 207 348 254 185 157 164 150 -61 -20 -330 -248 -561 -376 -789
-435 -117 -30 -204 -24 -290 18 -62 31 -267 180 -470 342 -52 42 -122 96 -155
121 -33 25 -114 99 -180 165 -215 215 -316 404 -405 755 -30 118 -86 280 -124
359 -35 73 -57 111 -158 280 -37 62 -68 120 -68 127 0 7 10 19 23 25 12 7 24
15 27 19 21 30 201 80 290 80 31 0 78 -9 108 -20 72 -28 81 -25 44 13 -44 45
-40 53 11 22 23 -14 69 -40 102 -56 l60 -31 -82 77 c-75 69 -193 225 -193 254
0 6 27 -15 61 -47 145 -140 309 -202 549 -209 163 -4 157 -11 58 66 -99 78
-215 259 -278 436 -25 69 -20 66 42 -30 49 -75 113 -145 192 -211 l49 -40 -17
-32 c-9 -17 -16 -33 -16 -37 0 -11 49 -4 53 8 3 8 12 5 28 -10 20 -20 21 -23
6 -23 -10 0 -15 -5 -12 -10 5 -8 11 -7 21 1 8 6 24 9 35 6 12 -3 36 1 52 10
21 10 43 13 70 9 36 -6 39 -5 27 9 -19 23 -10 27 139 68 294 82 482 106 679
89 173 -16 351 -22 356 -13 3 4 -27 23 -66 42 -40 19 -99 51 -131 72 -64 41
-205 156 -247 201 -23 25 -20 25 35 -9 33 -20 96 -53 141 -75z m-2083 -22 c39
-116 89 -222 146 -308 l37 -55 -96 -1 c-72 -1 -108 -6 -150 -22 -30 -12 -57
-22 -59 -22 -5 0 9 169 25 305 8 66 14 126 14 134 0 11 4 10 15 -5 14 -18 14
-18 16 9 1 15 3 32 4 37 1 6 3 18 4 27 2 26 6 15 44 -99z m2597 -219 c0 -14
-12 -10 -67 21 -73 42 -67 58 7 19 33 -17 60 -36 60 -40z m1600 -1549 c0 -5
-7 -7 -15 -4 -8 4 -15 8 -15 10 0 2 7 4 15 4 8 0 15 -4 15 -10z m-1770 -1242
c0 -23 -2 -39 -5 -37 -8 9 -12 79 -4 79 5 0 9 -19 9 -42z m-3 -80 c-3 -7 -5
-2 -5 12 0 14 2 19 5 13 2 -7 2 -19 0 -25z m-13452 -1688 c3 -5 1 -10 -5 -10
-7 0 -10 -6 -7 -14 3 -8 -1 -17 -9 -20 -10 -4 -14 2 -14 18 0 33 21 49 35 26z
m19 -65 c-4 -8 -11 -15 -16 -15 -6 0 -8 -12 -4 -27 5 -28 5 -28 -8 2 -13 28
-13 31 7 42 28 16 27 16 21 -2z m87 -358 c-8 -8 -11 -7 -11 4 0 20 13 34 18
19 3 -7 -1 -17 -7 -23z m1831 -707 c34 -12 90 -48 135 -84 43 -35 92 -70 108
-79 30 -15 224 -82 258 -88 23 -5 23 -23 0 -26 -10 -1 -54 -9 -98 -17 -114
-21 -265 -30 -295 -18 l-25 11 25 1 c17 1 4 8 -37 22 -42 14 -63 26 -63 36 0
13 -3 13 -12 4 -10 -10 -10 -15 1 -21 9 -6 10 -10 2 -16 -11 -6 -108 48 -123
70 -17 23 -6 25 16 4 14 -13 29 -24 33 -25 4 0 16 -4 27 -9 11 -5 21 -3 25 4
4 6 18 13 31 16 29 6 30 7 23 33 -3 14 -13 22 -27 22 -17 0 -18 2 -6 10 9 5
19 5 27 -2 7 -5 18 -8 25 -6 8 3 3 13 -14 29 -48 44 -55 48 -66 37 -12 -12
-35 -1 -29 15 2 7 -7 17 -21 24 -31 16 -43 16 -37 0 3 -6 -4 -18 -15 -24 -16
-11 -18 -10 -14 2 4 10 -4 14 -34 13 -48 0 -62 7 -62 31 0 59 126 75 242 31z
m8 -120 c0 -5 -4 -10 -10 -10 -5 0 -10 5 -10 10 0 6 5 10 10 10 6 0 10 -4 10
-10z m-86 -66 c9 -24 7 -28 -9 -14 -17 14 -20 30 -6 30 5 0 12 -7 15 -16z m38
-26 c-7 -7 -12 -8 -12 -2 0 6 3 14 7 17 3 4 9 5 12 2 2 -3 -1 -11 -7 -17z m87
-74 c18 -9 31 -18 29 -20 -8 -7 -62 13 -66 24 -5 16 -1 15 37 -4z m569 -14 c1
-37 -45 -78 -118 -104 -58 -21 -76 -16 -33 9 l28 16 -30 -7 c-58 -14 -169 -10
-182 6 -7 8 -13 10 -13 4 0 -6 -13 -11 -30 -10 -69 2 8 32 130 50 59 9 166 40
180 52 8 8 26 14 41 14 22 0 26 -4 27 -30z m725 -52 c39 -20 46 -40 47 -121 0
-124 -21 -148 -160 -185 -30 -8 -82 -17 -115 -21 l-60 -6 -3 34 c-1 19 3 39
10 44 10 7 10 10 1 14 -7 2 -13 16 -13 29 0 21 -5 24 -35 24 -39 0 -47 15 -13
23 52 14 -2 16 -223 9 -138 -5 -239 -4 -246 1 -7 5 -23 7 -35 4 -13 -3 -32 -1
-43 3 -13 5 25 9 100 11 66 1 131 3 145 5 386 36 571 75 578 122 4 25 30 29
65 10z m-966 -144 c-3 -3 -12 -4 -19 -1 -8 3 -5 6 6 6 11 1 17 -2 13 -5z m46
-1 c-7 -2 -19 -2 -25 0 -7 3 -2 5 12 5 14 0 19 -2 13 -5z m547 -17 c0 -3 -4
-8 -10 -11 -5 -3 -10 -1 -10 4 0 6 5 11 10 11 6 0 10 -2 10 -4z m57 -78 c-3
-8 -6 -5 -6 6 -1 11 2 17 5 13 3 -3 4 -12 1 -19z m299 -90 c-3 -13 -15 -93
-26 -178 -28 -211 -36 -263 -67 -423 -34 -179 -49 -196 -187 -217 -33 -5 -71
-12 -83 -16 -14 -4 -23 -2 -23 4 0 6 17 14 38 18 36 6 72 29 72 46 0 14 -27 9
-40 -7 -7 -9 -19 -14 -27 -11 -7 3 -13 0 -14 -7 0 -9 -2 -9 -6 1 -2 6 -16 12
-29 12 -16 0 -23 4 -18 11 3 6 17 9 30 6 21 -4 24 0 24 24 0 15 5 31 10 34 12
8 13 25 1 25 -5 0 -11 -9 -14 -20 -3 -12 -14 -20 -25 -20 -29 0 -37 18 -11 22
32 4 47 33 31 58 -17 27 -15 30 11 30 18 0 19 -2 7 -10 -12 -8 -12 -10 5 -10
11 0 27 5 35 10 13 8 13 10 -2 10 -24 0 -33 19 -13 27 10 3 21 0 25 -8 5 -7
12 -10 17 -6 4 5 1 12 -6 16 -14 9 -13 11 27 56 16 18 15 32 -3 32 -9 0 -15
-10 -15 -26 0 -19 -3 -22 -12 -13 -9 9 -9 17 2 36 7 14 16 24 19 22 3 -2 11 2
18 9 10 11 10 15 0 19 -9 5 -9 7 1 12 17 8 15 24 -3 24 -7 0 -19 -8 -25 -17
-9 -15 -10 -15 -5 5 4 13 2 29 -5 37 -7 9 -8 15 0 20 5 3 10 0 10 -8 0 -16 37
-30 45 -17 3 5 1 10 -5 12 -11 4 -12 42 -4 112 6 44 4 48 -11 42 -15 -5 -16
-4 -5 9 7 8 19 15 26 15 19 0 18 47 -1 66 -8 9 -15 21 -14 27 0 9 2 8 6 0 8
-20 23 -15 23 7 0 11 -7 20 -15 20 -8 0 -15 5 -15 11 0 6 9 9 20 6 11 -3 18
-2 15 3 -3 4 5 10 18 13 12 3 58 19 102 35 99 37 99 37 91 10z m-349 -84 c-3
-3 -12 -4 -19 -1 -8 3 -5 6 6 6 11 1 17 -2 13 -5z m123 -84 c0 -5 -4 -10 -10
-10 -5 0 -10 5 -10 10 0 6 5 10 10 10 6 0 10 -4 10 -10z m-30 -110 c0 -11 -2
-20 -4 -20 -2 0 -6 9 -9 20 -3 11 -1 20 4 20 5 0 9 -9 9 -20z m-16 -36 c5 -14
4 -15 -9 -4 -17 14 -19 20 -6 20 5 0 12 -7 15 -16z m-49 -184 c3 -5 1 -10 -4
-10 -6 0 -11 5 -11 10 0 6 2 10 4 10 3 0 8 -4 11 -10z m-195 -250 c0 -5 -2
-10 -4 -10 -3 0 -8 5 -11 10 -3 6 -1 10 4 10 6 0 11 -4 11 -10z m-2830 -34 c0
-11 -19 -15 -25 -6 -3 5 1 10 9 10 9 0 16 -2 16 -4z m2839 -17 c-10 -6 -7 -9
11 -10 14 0 19 -3 12 -6 -20 -8 -42 5 -36 22 3 8 11 12 16 9 6 -4 5 -10 -3
-15z m61 11 c12 -8 9 -10 -13 -10 -16 0 -26 4 -22 10 8 12 16 12 35 0z m-2870
-16 c0 -8 -5 -12 -10 -9 -6 4 -8 11 -5 16 9 14 15 11 15 -7z m2929 7 c10 -7 7
-9 -12 -8 -14 1 -23 5 -20 10 6 9 15 9 32 -2z m16916 -68 c77 -19 190 -45 250
-58 119 -26 266 -63 272 -69 3 -3 -11 -105 -57 -421 -11 -77 -23 -158 -25
-180 -3 -22 -10 -69 -15 -105 -5 -36 -16 -117 -24 -180 -9 -63 -27 -196 -40
-295 -14 -99 -32 -234 -41 -300 -39 -294 -52 -379 -57 -365 -3 8 -16 47 -28
85 -23 76 -21 71 -102 255 -66 149 -159 403 -188 515 -19 75 -39 213 -75 525
-21 179 -65 537 -76 618 -4 26 -1 26 206 -25z m-17036 28 c9 -6 -3 -10 -38
-12 -49 -4 -69 5 -33 14 29 8 56 7 71 -2z m110 5 c-10 -9 -79 -14 -79 -5 0 5
19 9 42 9 23 0 39 -2 37 -4z m-221 -15 c8 -5 -22 -8 -75 -8 -78 0 -82 1 -33 7
84 10 94 10 108 1z m-2691 -87 c-3 -3 -12 -4 -19 -1 -8 3 -5 6 6 6 11 1 17 -2
13 -5z m12108 -14 c3 -5 -1 -10 -10 -10 -9 0 -13 5 -10 10 3 6 8 10 10 10 2 0
7 -4 10 -10z m8292 -82 c-3 -8 -6 -5 -6 6 -1 11 2 17 5 13 3 -3 4 -12 1 -19z
m-5 -60 c-8 -8 -9 -4 -5 13 4 13 8 18 11 10 2 -7 -1 -18 -6 -23z m-12 -95
c-11 -17 -11 -17 -6 0 3 10 7 31 7 45 l2 27 4 -27 c2 -15 -1 -35 -7 -45z
m-7410 -57 c0 -2 -7 -7 -16 -10 -8 -3 -12 -2 -9 4 6 10 25 14 25 6z m7402 -38
c-6 -6 -9 0 -9 18 0 23 1 24 9 10 7 -12 7 -21 0 -28z m-11 -69 c-5 -26 -9 -34
-10 -19 -1 27 9 73 15 67 2 -2 0 -23 -5 -48z m-14 -101 c-3 -8 -6 -5 -6 6 -1
11 2 17 5 13 3 -3 4 -12 1 -19z m-17 -188 c0 -5 -5 -10 -11 -10 -5 0 -7 5 -4
10 3 6 8 10 11 10 2 0 4 -4 4 -10z m-13 -42 c-3 -8 -6 -5 -6 6 -1 11 2 17 5
13 3 -3 4 -12 1 -19z m-27 -238 c0 -5 -5 -10 -11 -10 -5 0 -7 5 -4 10 3 6 8
10 11 10 2 0 4 -4 4 -10z m-4943 -6 c-3 -3 -12 -4 -19 -1 -8 3 -5 6 6 6 11 1
17 -2 13 -5z m-109 -10 c25 -7 30 -24 7 -24 -8 0 -15 4 -15 9 0 5 -8 12 -17
14 -10 3 -13 5 -8 6 6 0 20 -2 33 -5z m-43 -18 c7 3 16 1 19 -4 5 -8 -18 -14
-124 -28 -49 -7 -171 -31 -197 -39 -13 -4 -23 -3 -23 3 0 5 44 19 98 31 53 12
114 27 135 33 32 10 40 9 47 -2 7 -12 10 -11 16 5 4 10 9 14 11 8 3 -7 10 -10
18 -7z m-335 -76 c0 -5 -6 -11 -12 -11 -7 -1 -24 -3 -38 -4 -14 -1 -43 -7 -65
-13 -22 -7 -51 -12 -65 -11 -14 0 13 11 60 24 96 26 120 29 120 15z m100 -10
c-8 -5 -22 -9 -30 -9 -10 0 -8 3 5 9 27 12 43 12 25 0z m-170 -34 c-19 -17
-80 -29 -80 -16 0 6 9 11 20 11 33 2 38 4 46 12 4 4 12 7 18 7 6 0 4 -6 -4
-14z m-130 -27 c0 -5 -5 -9 -11 -9 -5 0 -7 5 -4 10 4 7 -14 9 -52 5 l-58 -5
50 13 c48 13 75 8 75 -14z m37 5 c-3 -3 -12 -4 -19 -1 -8 3 -5 6 6 6 11 1 17
-2 13 -5z m-112 -15 c31 -1 23 -4 -38 -15 -68 -12 -396 -84 -525 -114 -23 -5
-50 -10 -60 -10 -34 1 44 27 163 54 66 15 134 32 150 36 17 5 67 15 113 21 45
7 82 16 82 21 0 5 10 6 21 3 16 -5 19 -4 14 6 -6 9 -2 11 16 6 13 -4 42 -7 64
-8z m-10477 -111 c43 -43 -32 -244 -154 -408 -69 -93 -68 -92 -59 -50 19 94
115 349 161 427 27 46 33 50 52 31z m9338 -13 c10 -41 -4 -103 -45 -195 -37
-83 -151 -267 -151 -243 0 24 73 261 101 328 34 83 65 135 79 135 5 0 12 -11
16 -25z m6156 -107 c-7 -7 -12 -8 -12 -2 0 14 12 26 19 19 2 -3 -1 -11 -7 -17z
m-732 -182 c0 -3 -4 -8 -10 -11 -5 -3 -10 -1 -10 4 0 6 5 11 10 11 6 0 10 -2
10 -4z m-125 -36 c-3 -5 -10 -10 -16 -10 -5 0 -9 5 -9 10 0 6 7 10 16 10 8 0
12 -4 9 -10z m-80 -16 c-62 -18 -124 -26 -104 -13 8 5 24 9 36 9 12 0 24 3 26
8 3 4 25 8 49 9 l43 2 -50 -15z m-132 -21 c-7 -2 -19 -2 -25 0 -7 3 -2 5 12 5
14 0 19 -2 13 -5z m-13703 -148 c22 -23 22 -26 7 -57 -8 -18 -32 -78 -52 -133
-69 -188 -172 -335 -235 -335 -17 0 -40 64 -40 114 0 54 49 198 97 284 74 134
167 187 223 127z m8633 11 c14 -36 -40 -138 -95 -179 -57 -43 -182 -97 -195
-84 -7 7 183 222 216 244 51 35 67 39 74 19z m4164 -32 c-3 -3 -12 -4 -19 -1
-8 3 -5 6 6 6 11 1 17 -2 13 -5z m-14394 -429 c-4 -32 -8 -43 -13 -31 -5 14
-13 8 -46 -36 -48 -65 -126 -118 -172 -118 -48 0 -101 28 -123 64 -10 17 -19
36 -19 41 0 6 8 -4 19 -20 43 -72 137 -88 207 -36 62 45 81 67 116 130 18 33
34 58 35 57 2 -2 0 -25 -4 -51z m16827 -41 c-5 -49 -12 -104 -15 -121 -5 -29
-3 -33 16 -33 17 0 20 -4 16 -22 -3 -13 -24 -140 -47 -283 -22 -143 -45 -268
-51 -278 -6 -10 -15 -59 -21 -108 -9 -74 -14 -89 -27 -85 -35 11 -138 34 -173
40 -46 8 -52 17 -30 42 76 86 112 240 112 482 l0 137 61 70 c60 70 111 146
145 217 10 21 19 36 21 34 2 -2 -1 -43 -7 -92z m-16755 -113 c48 -23 110 -17
153 15 20 16 42 35 49 44 8 9 12 11 13 3 0 -7 -17 -25 -37 -40 -21 -15 -40
-31 -43 -35 -3 -3 -22 -9 -43 -13 -57 -11 -118 16 -145 64 -12 21 -22 45 -22
52 0 7 10 -7 23 -31 13 -27 34 -51 52 -59z m12255 49 c0 -5 -2 -10 -4 -10 -3
0 -8 5 -11 10 -3 6 -1 10 4 10 6 0 11 -4 11 -10z m-10896 -35 c3 -8 1 -15 -4
-15 -6 0 -10 7 -10 15 0 8 2 15 4 15 2 0 6 -7 10 -15z m-25 -46 c-22 -13 -31
-11 -17 5 7 8 17 12 22 9 4 -3 2 -9 -5 -14z m71 11 c0 -5 -4 -10 -10 -10 -5 0
-10 5 -10 10 0 6 5 10 10 10 6 0 10 -4 10 -10z m839 -9 c16 -16 17 -20 5 -25
-8 -3 -14 1 -14 9 0 8 -4 15 -10 15 -5 0 -10 5 -10 10 0 15 8 12 29 -9z m-769
-1 c0 -5 -4 -10 -9 -10 -6 0 -13 5 -16 10 -3 6 1 10 9 10 9 0 16 -4 16 -10z
m960 0 c-8 -5 -19 -10 -25 -10 -5 0 -3 5 5 10 8 5 20 10 25 10 6 0 3 -5 -5
-10z m8733 -20 c3 -11 1 -18 -4 -14 -5 3 -9 12 -9 20 0 20 7 17 13 -6z m3672
-4 c38 -58 -45 -126 -97 -79 -22 20 -23 51 -2 81 22 31 78 30 99 -2z m-13325
4 c-8 -5 -19 -10 -25 -10 -5 0 -3 5 5 10 8 5 20 10 25 10 6 0 3 -5 -5 -10z
m877 4 c-3 -3 -12 -4 -19 -1 -8 3 -5 6 6 6 11 1 17 -2 13 -5z m8817 -23 c-2
-3 -12 3 -22 13 -16 17 -16 18 5 5 12 -7 20 -15 17 -18z m511 19 c-3 -5 -14
-10 -23 -10 -15 0 -15 2 -2 10 20 13 33 13 25 0z m-10375 -10 c-14 -4 -40 -5
-59 -2 -24 4 -32 2 -27 -6 5 -8 -2 -12 -19 -12 -15 0 -24 4 -20 10 4 6 11 8
16 5 5 -4 9 -2 9 4 0 6 27 9 63 9 41 -1 54 -4 37 -8z m277 4 c-3 -3 -12 -4
-19 -1 -8 3 -5 6 6 6 11 1 17 -2 13 -5z m668 -4 c3 -5 -1 -10 -10 -10 -9 0
-13 5 -10 10 3 6 8 10 10 10 2 0 7 -4 10 -10z m8989 -9 c3 -4 -6 -6 -19 -3
-14 2 -25 6 -25 8 0 8 39 4 44 -5z m-8204 -35 c0 -3 -4 -8 -10 -11 -5 -3 -10
-1 -10 4 0 6 5 11 10 11 6 0 10 -2 10 -4z m-1250 -16 c0 -5 -5 -10 -11 -10 -5
0 -7 5 -4 10 3 6 8 10 11 10 2 0 4 -4 4 -10z m1210 -21 c0 -6 -4 -7 -10 -4 -5
3 -10 11 -10 16 0 6 5 7 10 4 6 -3 10 -11 10 -16z m90 -4 c0 -17 -28 -20 -50
-4 -13 9 -12 10 3 5 9 -3 17 -1 17 4 0 6 7 10 15 10 8 0 15 -7 15 -15z m40
-41 c0 -9 -5 -14 -12 -12 -18 6 -21 28 -4 28 9 0 16 -7 16 -16z m130 -14 c0
-5 -7 -10 -16 -10 -8 0 -12 5 -9 10 3 6 10 10 16 10 5 0 9 -4 9 -10z m10095
-40 c69 -43 64 -129 -11 -165 -21 -10 -73 -23 -116 -28 l-78 -11 0 -41 c0
-113 54 -152 144 -104 39 20 54 20 41 -1 -14 -22 -90 -50 -136 -50 -56 0 -106
30 -132 80 -28 53 -20 182 15 241 14 24 35 52 46 62 54 49 162 57 227 17z
m362 19 c15 -7 58 -11 96 -10 52 2 67 -1 67 -12 0 -7 -11 -94 -25 -193 -14
-98 -25 -182 -25 -186 0 -5 -27 -8 -61 -8 -47 0 -60 3 -56 13 4 10 -5 9 -31
-5 -73 -37 -165 -17 -202 45 -30 48 -28 166 4 232 49 103 150 157 233 124z
m589 -10 c8 -6 14 -22 14 -35 0 -26 14 -32 27 -10 13 23 84 66 109 66 38 0 72
-21 83 -52 8 -21 4 -71 -14 -196 -14 -92 -25 -168 -25 -169 0 -2 -25 -3 -55
-3 -37 0 -55 4 -55 13 0 6 9 75 20 152 24 167 25 195 6 195 -27 0 -45 -12 -70
-44 -20 -26 -27 -56 -40 -152 -24 -178 -17 -164 -81 -164 -37 0 -55 4 -55 13
0 6 9 71 20 142 25 169 26 205 2 205 -10 0 -33 -15 -52 -34 -34 -33 -36 -38
-55 -177 l-20 -144 -49 -3 c-27 -2 -52 0 -57 5 -4 4 4 94 20 198 l27 190 57 3
57 3 -7 -33 -6 -33 34 32 c19 18 45 37 59 42 29 12 86 7 106 -10z m908 6 c21
-16 47 -80 37 -90 -3 -4 -15 -75 -26 -158 l-21 -152 -48 -3 c-75 -5 -75 -4
-60 78 15 77 25 159 29 230 3 41 1 46 -19 45 -23 0 -65 -24 -95 -54 -17 -17
-38 -129 -47 -245 -1 -21 -7 -43 -12 -48 -5 -5 -33 -8 -63 -6 -42 2 -53 6 -50
18 2 8 16 97 30 197 l26 183 30 5 c16 2 41 3 55 2 21 -2 25 -7 24 -35 l-2 -32
38 30 c21 16 48 34 61 39 36 14 91 12 113 -4z m-2342 -5 c35 0 40 -2 35 -20
-3 -11 -4 -20 -3 -20 1 0 19 9 41 20 41 21 111 28 100 10 -3 -5 -16 -10 -29
-10 -34 0 -87 -40 -107 -80 -10 -19 -26 -93 -36 -165 l-18 -130 -59 -3 -58 -3
5 33 c4 18 16 105 27 193 25 187 25 189 46 181 9 -3 34 -6 56 -6z m1912 -27
c-3 -16 -15 -104 -28 -198 l-22 -170 -58 -3 -57 -3 5 33 c3 18 15 103 27 188
11 85 22 161 24 168 3 8 24 12 59 12 55 0 55 0 50 -27z m-2973 -97 c10 6 10 1
-2 -16 -70 -109 -107 -228 -94 -298 7 -36 -7 -62 -32 -62 -8 0 -34 16 -57 35
-55 44 -136 82 -215 98 l-63 12 89 29 c156 50 358 169 347 204 -5 13 -4 14 4
3 6 -8 15 -10 23 -5z m3756 -428 c-3 -8 -6 -5 -6 6 -1 11 2 17 5 13 3 -3 4
-12 1 -19z"/>
<path d="M17153 10743 c-62 -62 -133 -188 -133 -234 0 -14 14 -47 32 -75 47
-72 45 -120 -9 -206 -49 -78 -56 -98 -43 -118 8 -12 10 -11 10 7 0 25 20 73
30 73 4 0 22 27 40 61 41 78 38 123 -14 198 -20 29 -36 58 -36 63 0 5 20 49
46 98 30 60 62 104 99 139 30 28 50 51 45 51 -5 0 -35 -26 -67 -57z"/>
<path d="M15225 10636 c-139 -22 -235 -56 -282 -99 -35 -31 -27 -41 10 -13 79
60 225 96 417 104 88 4 133 9 115 13 -48 11 -173 8 -260 -5z"/>
<path d="M15271 10580 c-99 -14 -195 -47 -243 -83 -53 -40 -99 -120 -80 -139
9 -9 20 -5 50 24 32 31 90 68 106 68 3 0 2 -22 -1 -48 -7 -66 18 -146 64 -204
73 -90 103 -102 216 -84 42 6 51 13 74 49 50 78 42 205 -19 288 -16 23 -28 43
-26 45 7 7 223 -15 255 -26 34 -12 123 4 107 20 -21 20 -116 61 -175 75 -81
19 -245 27 -328 15z m94 -180 c3 -5 4 -14 0 -20 -8 -13 -35 -1 -35 16 0 16 26
19 35 4z"/>
<path d="M13781 10361 c-57 -20 -102 -49 -109 -71 -3 -7 11 -1 30 13 51 39
111 57 197 58 52 0 70 3 56 9 -34 15 -117 10 -174 -9z"/>
<path d="M13815 10313 c-63 -22 -120 -80 -128 -129 -7 -42 -3 -54 19 -54 9 0
24 -10 35 -22 l18 -23 1 35 c1 41 21 70 70 99 45 27 64 28 50 2 -35 -67 41
-245 136 -318 34 -26 34 -26 79 -9 56 22 81 53 89 111 8 51 -11 133 -45 190
-24 40 -19 43 27 14 19 -11 34 -16 34 -11 0 16 -67 70 -123 99 -67 34 -187 42
-262 16z m285 -159 c0 -17 -22 -14 -28 4 -2 7 3 12 12 12 9 0 16 -7 16 -16z"/>
<path d="M14347 9988 c-9 -99 -49 -282 -86 -399 -17 -53 -31 -106 -31 -118 0
-54 62 -122 163 -180 90 -51 78 -30 -20 35 -59 40 -94 72 -108 96 l-20 37 37
113 c53 162 88 340 88 449 0 67 -17 43 -23 -33z"/>
<path d="M14668 9373 c6 -2 18 -2 25 0 6 3 1 5 -13 5 -14 0 -19 -2 -12 -5z"/>
<path d="M15300 9044 c-46 -24 -175 -61 -385 -110 -66 -16 -112 -30 -103 -32
18 -3 248 49 443 101 85 23 120 36 120 47 0 22 -25 20 -75 -6z"/>
<path d="M14645 8890 c7 -12 74 -25 83 -16 3 4 0 11 -8 16 -20 13 -83 13 -75
0z"/>
<path d="M13570 11040 c0 -5 5 -10 11 -10 5 0 7 5 4 10 -3 6 -8 10 -11 10 -2
0 -4 -4 -4 -10z"/>
<path d="M4631 5004 c0 -11 3 -14 6 -6 3 7 2 16 -1 19 -3 4 -6 -2 -5 -13z"/>
<path d="M4665 4980 c3 -5 11 -10 16 -10 6 0 7 5 4 10 -3 6 -11 10 -16 10 -6
0 -7 -4 -4 -10z"/>
<path d="M4630 4960 c-9 -6 -10 -10 -3 -10 6 0 15 5 18 10 8 12 4 12 -15 0z"/>
<path d="M5060 4770 c-8 -5 -12 -11 -10 -14 3 -2 14 2 24 10 22 15 10 19 -14
4z"/>
<path d="M5650 4229 c0 -5 5 -7 10 -4 6 3 10 8 10 11 0 2 -4 4 -10 4 -5 0 -10
-5 -10 -11z"/>
<path d="M15914 2005 c-16 -12 -16 -14 -3 -15 9 0 22 7 29 15 16 19 0 19 -26
0z"/>
<path d="M19129 849 c-26 -27 -59 -110 -59 -146 0 -29 78 -2 123 42 33 34 37
92 9 118 -26 24 -40 21 -73 -14z"/>
<path d="M19547 838 c-35 -47 -47 -91 -54 -190 -7 -109 5 -148 48 -148 17 0
41 11 59 28 28 25 31 36 52 171 21 140 21 144 3 157 -10 8 -33 14 -51 14 -26
0 -38 -7 -57 -32z"/>
<path d="M14122 13535 c-11 -13 -9 -15 8 -15 11 0 20 7 20 15 0 19 -11 19 -28
0z"/>
<path d="M14165 13540 c-3 -5 1 -10 9 -10 9 0 16 5 16 10 0 6 -4 10 -9 10 -6
0 -13 -4 -16 -10z"/>
<path d="M14071 13471 c-8 -5 -9 -11 -3 -15 5 -3 12 1 16 9 6 17 6 18 -13 6z"/>
<path d="M13895 13410 c3 -5 11 -10 16 -10 6 0 7 5 4 10 -3 6 -11 10 -16 10
-6 0 -7 -4 -4 -10z"/>
<path d="M13830 13380 c-8 -5 -12 -11 -9 -14 2 -3 11 -1 19 4 8 5 12 11 9 14
-2 3 -11 1 -19 -4z"/>
<path d="M13710 13310 c0 -5 4 -10 9 -10 6 0 13 5 16 10 3 6 -1 10 -9 10 -9 0
-16 -4 -16 -10z"/>
<path d="M13710 13279 c0 -5 11 -9 25 -9 14 0 25 2 25 4 0 2 -11 6 -25 8 -14
3 -25 1 -25 -3z"/>
<path d="M13669 13261 c8 -5 11 -16 7 -27 -6 -18 -5 -17 9 0 15 20 6 36 -20
36 -5 0 -4 -4 4 -9z"/>
<path d="M13635 13240 c-3 -5 -1 -10 4 -10 6 0 11 5 11 10 0 6 -2 10 -4 10 -3
0 -8 -4 -11 -10z"/>
<path d="M13650 13200 c0 -5 7 -10 16 -10 8 0 12 5 9 10 -3 6 -10 10 -16 10
-5 0 -9 -4 -9 -10z"/>
<path d="M13645 13160 c-3 -5 3 -10 14 -10 12 0 21 5 21 10 0 6 -6 10 -14 10
-8 0 -18 -4 -21 -10z"/>
<path d="M13580 13130 c0 -5 5 -10 10 -10 6 0 10 5 10 10 0 6 -4 10 -10 10 -5
0 -10 -4 -10 -10z"/>
<path d="M13680 13130 c0 -5 7 -10 15 -10 8 0 15 5 15 10 0 6 -7 10 -15 10 -8
0 -15 -4 -15 -10z"/>
<path d="M13480 13095 c-7 -8 -18 -15 -25 -15 -7 0 -20 -11 -28 -24 -14 -21
-14 -26 -2 -36 9 -8 15 -8 15 -2 0 6 -6 12 -12 15 -7 2 9 17 36 34 26 17 44
33 38 37 -5 3 -15 -1 -22 -9z"/>
<path d="M13620 13100 c0 -5 5 -10 10 -10 6 0 10 5 10 10 0 6 -4 10 -10 10 -5
0 -10 -4 -10 -10z"/>
<path d="M13680 13090 c0 -5 5 -10 10 -10 6 0 10 5 10 10 0 6 -4 10 -10 10 -5
0 -10 -4 -10 -10z"/>
<path d="M13600 13060 c0 -5 5 -10 10 -10 6 0 10 5 10 10 0 6 -4 10 -10 10 -5
0 -10 -4 -10 -10z"/>
<path d="M13671 13014 c0 -11 3 -14 6 -6 3 7 2 16 -1 19 -3 4 -6 -2 -5 -13z"/>
<path d="M13405 12980 c3 -5 8 -10 11 -10 2 0 4 5 4 10 0 6 -5 10 -11 10 -5 0
-7 -4 -4 -10z"/>
<path d="M13570 12976 c0 -9 5 -16 10 -16 6 0 10 4 10 9 0 6 -4 13 -10 16 -5
3 -10 -1 -10 -9z"/>
<path d="M13520 12956 c0 -2 9 -6 20 -9 11 -3 20 -1 20 4 0 5 -9 9 -20 9 -11
0 -20 -2 -20 -4z"/>
<path d="M13335 12620 c3 -5 8 -10 11 -10 2 0 4 5 4 10 0 6 -5 10 -11 10 -5 0
-7 -4 -4 -10z"/>
<path d="M18301 8729 c-40 -72 -72 -132 -69 -134 6 -6 150 245 146 255 -2 4
-36 -50 -77 -121z"/>
<path d="M18958 8623 c7 -3 16 -2 19 1 4 3 -2 6 -13 5 -11 0 -14 -3 -6 -6z"/>
<path d="M19038 8603 c7 -3 16 -2 19 1 4 3 -2 6 -13 5 -11 0 -14 -3 -6 -6z"/>
<path d="M18210 8564 c0 -8 5 -12 10 -9 6 4 8 11 5 16 -9 14 -15 11 -15 -7z"/>
<path d="M18127 8413 c-21 -35 -37 -67 -34 -69 3 -3 21 25 41 62 20 36 36 68
34 69 -2 2 -20 -26 -41 -62z"/>
<path d="M19505 8410 c10 -11 20 -20 23 -20 3 0 -3 9 -13 20 -10 11 -20 20
-23 20 -3 0 3 -9 13 -20z"/>
<path d="M15682 8280 c0 -14 2 -19 5 -12 2 6 2 18 0 25 -3 6 -5 1 -5 -13z"/>
<path d="M15665 8195 c-3 -31 -4 -59 -2 -62 3 -2 9 21 12 52 4 31 5 58 2 61
-2 3 -8 -20 -12 -51z"/>
<path d="M19675 8220 c4 -8 14 -22 21 -30 6 -8 26 -43 44 -78 18 -35 34 -61
37 -58 7 7 -74 151 -94 167 -14 12 -16 12 -8 -1z"/>
<path d="M15653 8040 c0 -25 2 -35 4 -22 2 12 2 32 0 45 -2 12 -4 2 -4 -23z"/>
<path d="M19796 7997 c3 -10 9 -15 12 -12 3 3 0 11 -7 18 -10 9 -11 8 -5 -6z"/>
<path d="M15650 7952 c0 -18 4 -32 8 -32 9 0 8 47 -1 57 -4 3 -7 -8 -7 -25z"/>
<path d="M19836 7900 c3 -14 11 -32 16 -40 6 -10 7 -7 2 10 -3 14 -11 32 -16
40 -6 10 -7 7 -2 -10z"/>
<path d="M15661 7860 c0 -14 4 -32 9 -40 9 -13 10 -13 9 0 -1 8 -5 26 -9 40
l-8 25 -1 -25z"/>
<path d="M15681 7754 c0 -11 3 -14 6 -6 3 7 2 16 -1 19 -3 4 -6 -2 -5 -13z"/>
<path d="M19900 7680 c0 -5 5 -10 11 -10 5 0 7 5 4 10 -3 6 -8 10 -11 10 -2 0
-4 -4 -4 -10z"/>
<path d="M15703 7666 c3 -8 11 -33 17 -55 6 -22 15 -43 20 -46 5 -3 0 22 -11
55 -12 33 -23 60 -26 60 -3 0 -3 -6 0 -14z"/>
<path d="M15786 7457 c3 -10 9 -15 12 -12 3 3 0 11 -7 18 -10 9 -11 8 -5 -6z"/>
<path d="M18538 7278 c-120 -269 -213 -599 -272 -968 -29 -183 -42 -325 -28
-317 5 4 8 -24 6 -71 -2 -50 2 -29 11 58 29 284 113 759 155 870 5 14 25 79
46 145 20 66 61 183 91 259 29 76 52 141 50 143 -3 2 -29 -52 -59 -119z"/>
<path d="M17617 7268 c-32 -77 -103 -266 -124 -328 -8 -25 -18 -54 -23 -65
-34 -83 -160 -456 -160 -472 1 -14 31 60 65 162 19 55 44 125 55 155 12 30 36
98 55 150 32 93 59 166 75 205 25 58 90 248 87 252 -3 2 -16 -25 -30 -59z"/>
<path d="M17156 7245 c-11 -8 -15 -15 -9 -15 6 0 16 7 23 15 16 19 11 19 -14
0z"/>
<path d="M16987 7154 c-27 -14 -47 -28 -44 -30 4 -4 91 39 106 52 13 12 -21 0
-62 -22z"/>
<path d="M19670 7090 c-8 -5 -10 -10 -5 -10 6 0 17 5 25 10 8 5 11 10 5 10 -5
0 -17 -5 -25 -10z"/>
<path d="M19570 7056 c-92 -38 -210 -99 -340 -176 -195 -115 -468 -347 -644
-546 -76 -86 -183 -234 -169 -234 4 0 19 19 33 41 14 22 32 48 40 57 8 10 35
44 60 77 96 127 346 361 520 485 138 98 374 230 525 294 33 14 53 25 45 25 -8
0 -40 -10 -70 -23z"/>
<path d="M20268 7063 c7 -3 16 -2 19 1 4 3 -2 6 -13 5 -11 0 -14 -3 -6 -6z"/>
<path d="M16678 7033 c7 -3 16 -2 19 1 4 3 -2 6 -13 5 -11 0 -14 -3 -6 -6z"/>
<path d="M20481 6951 c30 -22 70 -52 89 -68 48 -39 200 -191 230 -231 14 -18
33 -43 44 -55 17 -21 156 -229 204 -307 37 -60 24 -25 -19 52 -44 77 -108 175
-143 219 -12 14 -34 43 -51 65 -107 138 -236 261 -352 337 -62 40 -63 33 -2
-12z"/>
<path d="M14421 6930 c-1 -22 44 -274 55 -309 11 -34 14 1 4 45 -17 71 -18 76
-25 130 -9 71 -33 164 -34 134z"/>
<path d="M3850 6660 c-9 -6 -10 -10 -3 -10 6 0 15 5 18 10 8 12 4 12 -15 0z"/>
<path d="M4050 6589 c0 -5 5 -7 10 -4 6 3 10 8 10 11 0 2 -4 4 -10 4 -5 0 -10
-5 -10 -11z"/>
<path d="M14480 6581 c0 -19 12 -41 20 -36 10 6 1 45 -11 45 -5 0 -9 -4 -9 -9z"/>
<path d="M4140 6573 c0 -4 5 -15 10 -23 8 -13 10 -13 10 2 0 9 -4 20 -10 23
-5 3 -10 3 -10 -2z"/>
<path d="M14501 6498 c-1 -20 4 -40 9 -43 12 -7 12 32 0 60 -7 16 -9 13 -9
-17z"/>
<path d="M4140 6502 c0 -11 -6 -27 -14 -34 -11 -11 -11 -17 -1 -31 11 -15 13
-11 19 30 3 25 4 49 1 51 -3 3 -5 -4 -5 -16z"/>
<path d="M3071 6466 c-6 -25 -11 -58 -11 -74 0 -30 0 -30 38 -19 20 6 38 11
39 12 7 3 -35 119 -44 122 -6 2 -16 -16 -22 -41z"/>
<path d="M3845 6490 c-3 -5 3 -10 14 -10 22 0 29 -24 10 -35 -6 -4 -8 -13 -5
-20 2 -7 2 -16 -2 -20 -4 -3 -5 -54 -4 -113 3 -123 0 -135 -143 -634 -64 -225
-92 -308 -104 -311 -31 -9 54 -7 116 2 112 17 172 32 195 51 21 16 21 20 8 44
-9 18 -17 23 -24 16 -17 -17 -26 -11 -26 15 0 14 6 28 14 31 22 9 114 -36 141
-68 16 -19 25 -24 25 -14 0 22 -62 68 -117 88 -35 12 -48 21 -46 35 1 10 18
70 38 133 63 200 143 483 154 547 7 34 18 85 27 113 8 29 13 54 10 57 -6 6 -6
8 -36 -92 -12 -38 -28 -83 -36 -98 -8 -16 -14 -36 -14 -44 0 -9 -13 -57 -29
-107 -16 -50 -42 -136 -56 -191 -15 -55 -33 -114 -41 -132 -8 -17 -14 -41 -14
-52 0 -12 -6 -24 -12 -26 -7 -3 -13 -18 -14 -34 -2 -45 -37 -160 -51 -166 -7
-2 -13 0 -13 5 0 6 4 10 9 10 17 0 32 99 20 122 -10 18 -9 20 5 15 12 -5 16 0
16 23 0 17 4 30 8 30 11 0 42 110 42 145 0 15 4 24 10 20 14 -9 12 8 -2 24 -9
9 -9 12 -1 7 8 -4 19 17 33 63 18 55 20 73 10 90 -9 18 -8 27 4 46 9 13 13 31
10 40 -4 8 0 22 7 31 10 13 10 17 -2 25 -8 5 -9 9 -3 9 5 0 16 -6 23 -12 11
-11 11 -9 2 10 -10 18 -9 23 4 28 20 8 11 20 -31 40 -24 12 -34 22 -31 33 3 9
15 42 27 75 11 32 20 66 18 75 -2 9 -18 -24 -37 -74 -18 -49 -41 -98 -50 -109
-15 -17 -16 -16 -21 20 -3 22 -2 62 2 89 3 28 7 76 7 108 1 50 -1 57 -18 57
-11 0 -23 -4 -26 -10z m95 -277 c-1 -5 -7 -19 -15 -33 -10 -18 -14 -20 -15 -8
0 23 11 48 21 48 5 0 9 -3 9 -7z m-73 -205 c-3 -7 -5 -2 -5 12 0 14 2 19 5 13
2 -7 2 -19 0 -25z m-7 -32 c0 -2 -9 -32 -20 -66 -11 -34 -20 -71 -20 -81 0
-11 -4 -19 -10 -19 -5 0 -10 -11 -10 -25 0 -14 -4 -25 -9 -25 -10 0 -8 7 28
120 11 36 21 73 21 83 0 9 5 17 10 17 6 0 10 -2 10 -4z m100 0 c0 -3 -4 -8
-10 -11 -5 -3 -10 -1 -10 4 0 6 5 11 10 11 6 0 10 -2 10 -4z m-173 -248 c-3
-8 -6 -5 -6 6 -1 11 2 17 5 13 3 -3 4 -12 1 -19z m-21 -65 l-16 -28 6 30 c8
38 17 52 21 38 3 -7 -3 -24 -11 -40z m154 -232 c0 -12 -9 -20 -25 -23 -31 -6
-31 -2 -2 23 27 23 27 23 27 0z m-110 -41 c0 -5 -4 -10 -10 -10 -5 0 -10 5
-10 10 0 6 5 10 10 10 6 0 10 -4 10 -10z"/>
<path d="M14041 6468 c6 -13 22 -37 35 -55 13 -17 24 -34 24 -38 0 -7 116
-161 137 -183 32 -33 8 7 -40 67 -29 36 -77 103 -106 149 -52 79 -74 106 -50
60z"/>
<path d="M2685 6460 c3 -5 8 -10 11 -10 2 0 4 5 4 10 0 6 -5 10 -11 10 -5 0
-7 -4 -4 -10z"/>
<path d="M9923 6431 c-62 -29 -69 -49 -43 -131 l22 -67 -30 -30 c-28 -27 -29
-32 -22 -79 11 -64 135 -445 166 -506 19 -37 29 -47 46 -45 18 2 24 -7 39 -58
11 -33 19 -66 19 -72 0 -10 -27 -13 -97 -14 l-98 -2 94 -9 c92 -8 121 -18 121
-42 0 -11 38 -154 72 -266 12 -41 15 -66 8 -68 -5 -2 -10 -13 -10 -25 0 -16 3
-18 9 -8 6 9 11 10 15 3 4 -6 -3 -16 -14 -22 -11 -6 -20 -20 -20 -32 0 -36
-15 -8 -40 72 -41 131 -66 146 -34 20 9 -34 13 -72 10 -83 -4 -16 17 -44 92
-124 254 -271 349 -405 359 -507 6 -65 -24 -115 -80 -133 -34 -12 -43 -10 -87
12 -27 14 -95 62 -152 108 -119 95 -230 176 -375 271 -60 39 -110 80 -122 99
-11 18 -43 104 -71 190 -28 86 -53 157 -57 157 -23 0 74 -309 116 -367 17 -24
93 -83 202 -157 95 -66 205 -144 244 -173 147 -115 187 -142 236 -164 45 -21
53 -30 80 -87 16 -35 29 -70 29 -78 0 -8 7 -22 16 -31 8 -10 38 -54 66 -98 75
-119 150 -218 157 -207 3 6 2 83 -2 172 -4 90 -6 169 -3 176 3 8 13 14 23 14
10 0 43 12 73 26 l55 26 295 -7 c270 -6 421 -14 540 -31 30 -4 42 -3 35 4 -17
16 -206 42 -311 42 -158 0 -434 12 -434 20 0 3 17 12 38 20 52 19 163 132 199
205 58 115 62 270 12 439 -32 107 -124 235 -223 311 -47 36 -249 119 -210 87
5 -4 36 -19 69 -31 159 -62 216 -156 234 -377 l7 -99 8 66 c8 70 2 128 -20
191 -20 57 -4 45 41 -29 52 -88 63 -114 81 -196 29 -140 13 -278 -43 -374 -28
-48 -105 -122 -155 -147 -18 -10 -44 -23 -58 -31 -14 -7 -37 -15 -52 -19 l-27
-6 19 42 c20 44 27 90 11 72 -5 -5 -14 -26 -20 -46 -15 -46 -89 -114 -143
-130 -21 -6 -41 -9 -44 -6 -3 3 -12 50 -21 104 -16 95 -16 98 3 108 59 33 262
297 252 328 -4 10 -47 -45 -151 -194 -64 -91 -97 -113 -163 -109 -55 3 -150
131 -173 232 -15 65 7 144 79 293 55 114 76 176 50 150 -9 -9 -18 -25 -68
-118 l-15 -29 -18 49 c-60 167 -159 486 -153 495 3 6 -1 18 -9 27 -8 9 -29 69
-47 132 -104 374 -206 701 -219 710 -13 8 -38 63 -46 100 -4 19 -16 52 -26 73
-17 33 -24 37 -57 37 -20 0 -56 -9 -79 -19z m117 -67 c12 -36 20 -67 18 -69
-1 -1 -22 -6 -45 -10 -39 -6 -41 -5 -36 14 3 12 1 21 -6 21 -6 0 -11 6 -11 14
0 8 -4 16 -9 18 -5 2 -12 15 -16 29 -6 23 -3 28 22 37 53 20 59 16 83 -54z
m50 -124 c0 -9 -112 -31 -119 -24 -9 9 25 33 59 42 34 9 60 1 60 -18z m-180
-70 c0 -11 -4 -20 -10 -20 -5 0 -10 9 -10 20 0 11 5 20 10 20 6 0 10 -9 10
-20z m58 -111 c13 -41 42 -135 64 -209 21 -74 46 -154 53 -177 8 -26 10 -45 4
-48 -5 -4 -12 2 -15 12 -3 10 -10 29 -14 43 -5 14 -34 106 -65 205 -31 99 -61
193 -66 209 -12 39 -11 48 3 44 7 -3 23 -38 36 -79z m786 -2001 c9 -43 15
-120 15 -179 -1 -90 -3 -101 -15 -84 -8 10 -14 29 -14 41 0 26 -24 44 -50 37
-19 -5 -65 59 -100 141 l-21 50 27 25 c29 26 124 63 136 52 3 -3 13 -40 22
-83z"/>
<path d="M3832 6428 c-14 -14 -16 -38 -3 -38 8 0 23 41 17 47 -1 1 -8 -3 -14
-9z"/>
<path d="M14516 6415 c16 -67 24 -81 20 -36 -3 24 -10 49 -16 55 -9 8 -10 4
-4 -19z"/>
<path d="M17286 6343 c-6 -14 -5 -15 5 -6 7 7 10 15 7 18 -3 3 -9 -2 -12 -12z"/>
<path d="M14540 6325 c0 -20 43 -221 51 -235 15 -27 10 23 -12 122 -19 84 -38
139 -39 113z"/>
<path d="M3770 6310 c0 -5 5 -10 10 -10 6 0 10 5 10 10 0 6 -4 10 -10 10 -5 0
-10 -4 -10 -10z"/>
<path d="M2647 6164 c-8 -8 1 -24 14 -24 5 0 9 7 9 15 0 15 -12 20 -23 9z"/>
<path d="M14260 6160 c0 -5 5 -10 11 -10 5 0 7 5 4 10 -3 6 -8 10 -11 10 -2 0
-4 -4 -4 -10z"/>
<path d="M2659 6116 c6 -8 10 -19 9 -26 -2 -7 3 -15 10 -17 6 -3 12 1 12 7 0
18 -20 50 -32 50 -7 0 -7 -4 1 -14z"/>
<path d="M14327 6079 c7 -7 15 -10 18 -7 3 3 -2 9 -12 12 -14 6 -15 5 -6 -5z"/>
<path d="M14601 6053 c0 -10 4 -27 9 -38 7 -17 9 -15 9 12 1 17 -3 35 -9 38
-5 3 -10 -2 -9 -12z"/>
<path d="M14362 6040 c7 -11 17 -20 22 -20 5 0 1 9 -9 20 -10 11 -20 20 -22
20 -2 0 2 -9 9 -20z"/>
<path d="M2650 6040 c0 -5 5 -10 11 -10 5 0 7 5 4 10 -3 6 -8 10 -11 10 -2 0
-4 -4 -4 -10z"/>
<path d="M3960 6029 c0 -5 5 -7 10 -4 6 3 10 8 10 11 0 2 -4 4 -10 4 -5 0 -10
-5 -10 -11z"/>
<path d="M19289 5953 c-13 -16 -12 -17 4 -4 9 7 17 15 17 17 0 8 -8 3 -21 -13z"/>
<path d="M2740 5825 c0 -18 26 -55 39 -56 9 0 11 -3 4 -5 -9 -4 -7 -17 5 -50
9 -24 20 -44 24 -44 8 0 0 29 -14 47 -5 6 -8 20 -7 30 4 19 -30 83 -43 83 -4
0 -8 -2 -8 -5z"/>
<path d="M21755 5750 c-7 -11 10 -25 35 -27 91 -9 236 -27 300 -38 149 -27
195 -37 210 -42 8 -3 24 -8 35 -9 11 -2 31 -7 45 -11 14 -3 28 -6 31 -5 4 1
56 -9 118 -22 61 -13 111 -20 111 -16 0 10 -91 47 -130 53 -19 3 -64 13 -100
22 -36 9 -83 18 -105 21 -22 3 -76 11 -120 19 -348 60 -421 69 -430 55z"/>
<path d="M5303 5661 c21 -25 45 -62 54 -83 9 -21 20 -38 24 -38 16 0 -44 99
-79 131 l-36 34 37 -44z"/>
<path d="M5453 5564 l-28 -25 33 22 c17 13 32 24 32 26 0 8 -11 1 -37 -23z"/>
<path d="M4802 5564 c10 -10 20 -16 22 -13 3 3 -5 11 -17 18 -21 13 -21 12 -5
-5z"/>
<path d="M4879 5556 c-8 -16 -18 -25 -26 -22 -9 4 -11 1 -7 -6 4 -6 11 -25 15
-42 l7 -31 1 30 c1 17 8 43 16 59 9 16 13 31 11 34 -3 2 -11 -7 -17 -22z"/>
<path d="M12970 5550 c8 -5 20 -10 25 -10 6 0 3 5 -5 10 -8 5 -19 10 -25 10
-5 0 -3 -5 5 -10z"/>
<path d="M13010 5534 c0 -8 149 -74 292 -130 216 -84 454 -148 703 -189 155
-26 182 -29 172 -19 -3 3 -68 16 -144 29 -223 38 -358 71 -533 129 -211 70
-252 85 -382 140 -60 24 -108 43 -108 40z"/>
<path d="M2840 5516 c0 -2 7 -6 15 -10 8 -3 15 -1 15 4 0 6 -7 10 -15 10 -8 0
-15 -2 -15 -4z"/>
<path d="M21815 5511 c6 -11 15 -13 210 -41 39 -5 93 -15 120 -21 28 -5 60
-12 73 -15 17 -3 22 0 22 16 0 19 -16 25 -67 23 -7 -1 -13 2 -13 6 0 3 -15 6
-32 7 -18 0 -71 5 -118 12 -149 19 -202 23 -195 13z"/>
<path d="M5090 5482 c-9 -9 -32 -30 -53 -46 -22 -18 -37 -38 -37 -50 1 -20 2
-20 21 4 40 49 45 55 72 75 15 11 27 23 27 27 0 13 -14 8 -30 -10z"/>
<path d="M5140 5491 c0 -5 7 -11 15 -15 8 -3 15 -1 15 3 0 5 -7 11 -15 15 -8
3 -15 1 -15 -3z"/>
<path d="M12620 5490 c35 -24 54 -31 30 -11 -14 11 -29 21 -35 21 -5 0 -3 -5
5 -10z"/>
<path d="M5166 5444 c-4 -9 -4 -19 -2 -21 8 -8 26 8 26 23 0 19 -16 18 -24 -2z"/>
<path d="M5391 5453 c-1 -18 19 -67 25 -61 3 3 -2 21 -10 39 -8 19 -15 29 -15
22z"/>
<path d="M22255 5450 c-9 -14 28 -26 115 -38 41 -5 83 -13 93 -17 9 -4 17 -3
17 2 0 16 -48 33 -111 40 -33 3 -62 10 -65 14 -7 12 -41 11 -49 -1z"/>
<path d="M4862 5425 c0 -11 3 -29 8 -40 11 -25 11 1 0 35 -6 20 -8 21 -8 5z"/>
<path d="M12741 5408 c19 -18 59 -52 87 -76 69 -58 208 -220 307 -359 44 -61
82 -107 83 -102 7 17 -146 234 -225 319 -110 119 -159 164 -228 211 -57 39
-58 39 -24 7z"/>
<path d="M9762 5418 c-74 -16 -41 -18 64 -4 89 12 93 14 39 14 -33 0 -80 -5
-103 -10z"/>
<path d="M22490 5401 c0 -6 11 -11 24 -11 14 0 31 -6 38 -13 11 -11 16 -10 32
5 19 18 19 18 -6 18 -14 0 -40 3 -57 6 -20 4 -31 3 -31 -5z"/>
<path d="M4053 5355 c0 -22 2 -30 4 -17 2 12 2 30 0 40 -3 9 -5 -1 -4 -23z"/>
<path d="M5180 5380 c-8 -5 -33 -16 -54 -25 -22 -8 -37 -17 -35 -20 7 -7 119
37 119 46 0 11 -11 11 -30 -1z"/>
<path d="M5256 5382 c-3 -5 8 -12 24 -14 17 -3 30 -1 30 4 0 4 -4 8 -9 8 -5 0
-16 3 -24 6 -8 3 -18 1 -21 -4z"/>
<path d="M9650 5373 c-58 -39 -73 -66 -109 -188 -23 -80 -46 -106 -156 -182
-79 -55 -111 -96 -120 -157 -6 -35 -1 -58 29 -130 40 -96 41 -131 4 -195 -10
-19 -22 -61 -25 -95 -7 -80 23 -149 100 -231 61 -63 62 -65 72 -137 5 -38 13
-53 38 -72 53 -39 243 -115 330 -131 126 -22 530 -23 672 -1 60 10 112 19 114
22 11 11 -9 11 -59 1 -72 -14 -666 -12 -745 2 -32 6 -102 31 -154 55 -53 24
-106 47 -118 51 -33 9 -63 53 -63 91 0 31 -32 84 -95 154 -34 39 -67 98 -75
137 -7 29 -3 50 21 109 46 118 47 139 5 232 -41 90 -44 120 -17 177 22 48 47
75 98 106 121 75 153 123 187 281 6 27 55 83 91 105 11 6 15 12 10 12 -6 1
-22 -7 -35 -16z"/>
<path d="M22605 5370 c-7 -11 77 -19 90 -9 5 6 1 9 -10 10 -11 1 -32 3 -47 5
-15 1 -30 -1 -33 -6z"/>
<path d="M10568 5310 c120 -49 152 -59 122 -40 -23 15 -217 90 -232 90 -7 0
42 -23 110 -50z"/>
<path d="M22717 5353 c-12 -12 -7 -22 11 -21 9 0 31 -2 47 -5 17 -2 22 -2 13
0 -9 2 -22 11 -28 19 -13 15 -32 18 -43 7z"/>
<path d="M4721 5334 c0 -11 3 -14 6 -6 3 7 2 16 -1 19 -3 4 -6 -2 -5 -13z"/>
<path d="M3558 5333 c6 -2 18 -2 25 0 6 3 1 5 -13 5 -14 0 -19 -2 -12 -5z"/>
<path d="M5035 5310 c-3 -5 -1 -10 4 -10 6 0 11 5 11 10 0 6 -2 10 -4 10 -3 0
-8 -4 -11 -10z"/>
<path d="M21902 5293 c2 -14 11 -17 35 -15 18 2 38 0 45 -4 14 -9 29 -13 73
-19 17 -2 50 -8 75 -14 25 -5 72 -12 105 -16 33 -3 69 -10 80 -15 26 -10 115
-28 185 -36 30 -4 62 -10 70 -14 24 -13 130 -23 130 -13 0 9 -91 31 -160 40
-19 2 -73 12 -119 23 -47 10 -89 16 -93 14 -4 -3 -8 0 -8 5 0 6 -15 11 -32 11
-18 1 -62 7 -98 16 -36 8 -83 17 -104 19 -22 3 -49 8 -60 12 -12 3 -38 7 -58
7 -20 1 -40 4 -44 9 -13 13 -26 7 -22 -10z"/>
<path d="M4735 5290 c-3 -5 -1 -10 4 -10 6 0 11 5 11 10 0 6 -2 10 -4 10 -3 0
-8 -4 -11 -10z"/>
<path d="M4910 5286 c0 -25 23 -120 31 -130 4 -5 11 4 15 20 4 16 18 45 31 64
25 38 33 72 11 48 -7 -7 -19 -25 -27 -40 -19 -37 -29 -35 -37 7 -6 36 -24 58
-24 31z"/>
<path d="M10710 5256 c0 -2 9 -6 20 -9 11 -3 18 -1 14 4 -5 9 -34 13 -34 5z"/>
<path d="M21021 5244 c0 -11 3 -14 6 -6 3 7 2 16 -1 19 -3 4 -6 -2 -5 -13z"/>
<path d="M10820 5205 c14 -8 30 -14 35 -14 6 0 -1 6 -15 14 -14 8 -29 14 -35
14 -5 0 1 -6 15 -14z"/>
<path d="M14198 5193 c6 -2 18 -2 25 0 6 3 1 5 -13 5 -14 0 -19 -2 -12 -5z"/>
<path d="M4051 5174 c0 -11 3 -14 6 -6 3 7 2 16 -1 19 -3 4 -6 -2 -5 -13z"/>
<path d="M21012 5170 c0 -14 2 -19 5 -12 2 6 2 18 0 25 -3 6 -5 1 -5 -13z"/>
<path d="M4051 5104 c0 -11 3 -14 6 -6 3 7 2 16 -1 19 -3 4 -6 -2 -5 -13z"/>
<path d="M21000 5088 c0 -36 4 -35 14 5 4 16 2 27 -4 27 -5 0 -10 -14 -10 -32z"/>
<path d="M20987 5005 c-4 -8 -2 -17 3 -20 6 -4 10 3 10 14 0 25 -6 27 -13 6z"/>
<path d="M4870 5000 c0 -5 5 -10 11 -10 5 0 7 5 4 10 -3 6 -8 10 -11 10 -2 0
-4 -4 -4 -10z"/>
<path d="M21230 4954 c-11 -26 -20 -48 -20 -50 0 -28 -173 -388 -254 -529 -25
-44 -46 -87 -46 -95 0 -47 197 320 276 515 37 92 75 205 69 205 -2 0 -13 -21
-25 -46z"/>
<path d="M4040 4910 c0 -5 5 -10 11 -10 5 0 7 5 4 10 -3 6 -8 10 -11 10 -2 0
-4 -4 -4 -10z"/>
<path d="M5356 4867 c3 -10 9 -15 12 -12 3 3 0 11 -7 18 -10 9 -11 8 -5 -6z"/>
<path d="M4040 4835 c0 -19 4 -35 8 -35 4 0 8 16 8 35 0 19 -4 35 -8 35 -4 0
-8 -16 -8 -35z"/>
<path d="M18565 4834 c-96 -26 -255 -88 -255 -100 0 -8 36 5 100 34 62 28 172
52 241 52 26 0 82 -7 125 -16 240 -50 483 -203 566 -357 9 -18 17 -25 17 -17
0 49 -112 174 -218 243 -146 94 -325 157 -466 162 -49 2 -99 2 -110 -1z"/>
<path d="M4044 4665 c0 -55 1 -76 3 -47 2 29 2 74 0 100 -2 26 -3 2 -3 -53z"/>
<path d="M13205 4495 c-33 -12 -157 -47 -274 -76 -118 -29 -209 -55 -202 -57
35 -12 541 123 556 148 9 15 -14 11 -80 -15z"/>
<path d="M9494 4454 c133 -178 258 -318 299 -333 50 -19 52 -12 6 18 -54 35
-79 61 -209 221 -56 69 -107 127 -113 129 -7 2 1 -13 17 -35z"/>
<path d="M16560 4438 c1 -72 156 -295 312 -450 44 -44 244 -208 254 -208 11 0
-1 12 -68 66 -92 73 -230 213 -311 314 -69 87 -152 220 -162 263 -9 35 -25 45
-25 15z"/>
<path d="M19150 4350 c20 -13 33 -13 25 0 -3 6 -14 10 -23 10 -15 0 -15 -2 -2
-10z"/>
<path d="M11016 4318 c-10 -19 -17 -41 -14 -49 3 -8 12 1 22 25 21 51 16 68
-8 24z"/>
<path d="M13237 4304 c-10 -11 -277 -75 -507 -121 -27 -6 -306 -273 -285 -273
7 0 73 58 146 128 l134 129 100 17 c224 37 435 94 435 117 0 10 -14 12 -23 3z"/>
<path d="M15735 4220 c-14 -27 -21 -59 -10 -49 8 9 35 79 30 79 -2 0 -11 -13
-20 -30z"/>
<path d="M15701 4133 c-1 -6 -4 -20 -7 -30 -5 -17 -5 -17 6 0 6 10 9 23 6 30
-3 9 -5 9 -5 0z"/>
<path d="M9860 4101 c8 -5 33 -12 55 -15 22 -4 132 -31 245 -61 245 -63 278
-70 265 -58 -5 6 -86 29 -180 52 -93 23 -213 53 -266 66 -99 26 -148 32 -119
16z"/>
<path d="M11825 4050 c3 -5 18 -10 33 -10 21 0 24 2 12 10 -20 13 -53 13 -45
0z"/>
<path d="M13105 3949 c-60 -4 -168 -11 -240 -15 l-130 -8 85 -8 c366 -34 598
-72 810 -133 163 -47 308 -91 359 -109 51 -19 65 -20 56 -6 -3 6 -14 10 -23
10 -10 0 -105 29 -212 64 -107 35 -224 73 -260 84 -72 22 -196 70 -278 108
-29 13 -53 23 -55 23 -1 -1 -51 -5 -112 -10z"/>
<path d="M15635 3890 c-3 -5 -1 -10 4 -10 6 0 11 5 11 10 0 6 -2 10 -4 10 -3
0 -8 -4 -11 -10z"/>
<path d="M6602 3728 c-7 -7 -12 -16 -12 -20 0 -15 15 -8 28 12 13 22 3 27 -16
8z"/>
<path d="M7018 3723 c7 -3 16 -2 19 1 4 3 -2 6 -13 5 -11 0 -14 -3 -6 -6z"/>
<path d="M7145 3720 c127 -10 397 -10 540 0 71 4 -23 7 -265 7 -237 0 -338 -3
-275 -7z"/>
<path d="M6562 3660 c-23 -31 -27 -40 -14 -40 8 0 44 61 39 66 -2 2 -13 -10
-25 -26z"/>
<path d="M2450 3660 c0 -5 5 -10 10 -10 6 0 10 5 10 10 0 6 -4 10 -10 10 -5 0
-10 -4 -10 -10z"/>
<path d="M8228 3663 c6 -2 18 -2 25 0 6 3 1 5 -13 5 -14 0 -19 -2 -12 -5z"/>
<path d="M2385 3640 c3 -5 8 -10 11 -10 2 0 4 5 4 10 0 6 -5 10 -11 10 -5 0
-7 -4 -4 -10z"/>
<path d="M8402 3620 c48 -15 142 -55 210 -89 68 -34 112 -52 98 -41 -43 34
-242 128 -306 144 -97 25 -98 17 -2 -14z"/>
<path d="M2407 3624 c-8 -8 1 -24 14 -24 5 0 9 7 9 15 0 15 -12 20 -23 9z"/>
<path d="M20760 3608 c0 -18 177 -209 485 -523 113 -115 202 -201 196 -190 -5
11 -29 41 -53 67 -24 25 -63 68 -87 95 -25 26 -92 98 -150 158 -59 61 -156
162 -217 225 -121 126 -174 177 -174 168z"/>
<path d="M2225 3590 c3 -5 8 -10 11 -10 2 0 4 5 4 10 0 6 -5 10 -11 10 -5 0
-7 -4 -4 -10z"/>
<path d="M2350 3590 c-13 -9 -13 -11 0 -20 13 -8 12 -11 -5 -24 -24 -19 -9
-21 28 -3 32 14 35 27 7 27 -27 0 -25 18 3 23 19 4 19 4 2 5 -11 1 -27 -3 -35
-8z"/>
<path d="M6487 3563 c-16 -18 -27 -33 -24 -33 12 0 59 49 55 58 -1 4 -16 -7
-31 -25z"/>
<path d="M2240 3541 c0 -11 -8 -22 -17 -24 -12 -3 -9 -5 8 -6 15 0 32 -8 39
-16 18 -21 32 -19 25 5 -4 14 -2 20 8 20 16 0 30 24 20 34 -4 3 -24 6 -45 6
-31 0 -38 -4 -38 -19z m40 -5 c0 -3 -4 -8 -10 -11 -5 -3 -10 -1 -10 4 0 6 5
11 10 11 6 0 10 -2 10 -4z"/>
<path d="M14495 3540 c3 -5 8 -10 11 -10 2 0 4 5 4 10 0 6 -5 10 -11 10 -5 0
-7 -4 -4 -10z"/>
<path d="M2365 3530 c-3 -5 -15 -10 -26 -10 -29 0 -23 -19 9 -26 15 -3 33 -7
40 -10 6 -2 12 2 12 9 0 7 7 3 16 -8 12 -17 16 -17 24 -6 7 13 11 13 25 1 15
-13 17 -11 13 10 -2 20 -9 25 -33 25 -16 0 -40 6 -52 13 -14 8 -24 9 -28 2z"/>
<path d="M6414 3501 c-17 -10 -56 -20 -92 -23 -68 -5 -112 -33 -112 -73 0 -30
23 -75 38 -75 7 0 20 -4 30 -10 33 -18 116 -30 124 -17 5 8 8 6 8 -5 0 -10 5
-18 10 -18 6 0 10 5 10 10 0 6 7 10 16 10 8 0 12 -4 9 -10 -3 -5 1 -10 9 -10
9 0 16 5 16 11 0 5 5 7 10 4 6 -4 8 -10 5 -15 -3 -4 8 -10 23 -12 15 -3 79
-17 142 -32 63 -15 135 -32 160 -36 25 -5 92 -19 150 -33 58 -13 148 -32 200
-41 52 -9 126 -24 164 -32 37 -9 82 -17 100 -19 31 -4 71 -12 71 -15 0 -1 14
-3 30 -5 17 -2 48 -9 70 -15 22 -5 49 -12 60 -14 11 -1 28 -6 38 -11 9 -4 26
-5 37 -2 11 3 20 2 20 -2 0 -11 140 -42 205 -45 17 0 32 -4 35 -7 3 -3 24 -11
48 -16 38 -10 42 -9 30 4 -11 14 -8 14 20 -1 18 -9 37 -14 43 -10 6 4 15 0 20
-7 6 -10 9 -11 9 -1 0 6 9 12 21 12 11 0 17 -4 14 -10 -9 -14 18 -12 34 3 11
10 12 9 6 -2 -6 -11 -2 -12 20 -7 22 6 26 4 22 -8 -4 -9 -2 -16 3 -16 6 0 10
5 10 10 0 6 7 10 15 10 8 0 15 -4 15 -8 0 -4 28 -9 63 -11 80 -4 98 -6 120
-15 9 -5 26 -6 37 -3 13 3 20 0 20 -9 0 -11 11 -14 44 -13 25 2 50 -2 58 -8 7
-6 24 -11 38 -11 14 0 68 -10 120 -22 182 -41 374 -70 474 -70 84 0 97 -2 87
-14 -13 -16 0 -22 53 -25 16 0 35 -6 42 -12 7 -6 18 -8 24 -4 6 4 16 2 23 -3
20 -17 206 -37 220 -23 6 6 18 11 26 11 11 0 10 -4 -5 -15 -19 -14 -19 -14 3
-15 12 0 23 5 25 12 3 7 12 9 23 4 16 -6 17 -9 5 -16 -12 -7 -9 -10 12 -10 14
0 29 6 31 13 4 8 8 9 14 1 4 -6 31 -14 58 -18 28 -3 55 -13 61 -21 7 -10 18
-13 29 -8 13 4 16 3 11 -5 -4 -7 -1 -12 8 -12 9 0 16 8 16 18 0 13 2 14 9 3 6
-9 10 -10 16 -2 4 8 11 9 18 3 7 -5 41 -12 76 -16 36 -3 68 -11 71 -16 4 -6
23 -11 44 -12 20 -1 39 -5 41 -9 6 -10 48 1 57 15 5 7 8 4 8 -8 0 -12 5 -16
15 -12 9 3 24 -3 36 -15 14 -14 26 -18 42 -13 28 10 130 11 137 2 3 -4 43 -7
90 -9 47 -1 91 -6 98 -12 6 -5 12 -7 12 -3 0 4 12 -1 28 -11 16 -10 22 -11 15
-3 -16 17 -17 34 -2 25 6 -4 23 -9 37 -10 15 -2 56 -10 92 -19 36 -8 67 -13
69 -10 2 2 -1 4 -8 4 -7 0 -9 5 -6 10 3 6 1 10 -6 10 -7 0 -10 3 -6 6 5 5 653
-122 668 -131 24 -15 266 -45 375 -46 119 -2 147 2 302 37 95 21 174 35 178
32 3 -4 -2 -18 -11 -31 -20 -30 -10 -56 29 -77 26 -14 35 -30 15 -30 -15 0
-53 21 -61 34 -15 23 -22 -7 -7 -32 18 -34 99 -62 259 -91 98 -17 336 -64 515
-101 28 -5 84 -17 125 -25 41 -8 152 -31 245 -50 94 -20 192 -40 218 -45 27
-6 53 -12 58 -16 6 -3 16 0 24 6 17 14 18 9 5 -45 -25 -106 63 -208 137 -160
l26 17 -26 22 c-55 46 -61 106 -20 192 46 97 166 168 309 181 48 4 64 3 64 -7
0 -6 -18 -62 -39 -123 -21 -62 -56 -169 -76 -240 -32 -105 -42 -128 -59 -132
-12 -2 -47 -9 -78 -15 -63 -12 -121 -46 -126 -74 -3 -16 0 -18 19 -12 80 23
174 45 177 41 8 -8 -89 -279 -132 -370 -53 -112 -92 -150 -148 -142 -34 5 -38
3 -38 -18 0 -73 184 -48 269 36 73 72 158 247 210 429 11 40 21 74 23 75 3 4
322 24 325 21 2 -1 -8 -42 -22 -92 -55 -205 -66 -354 -31 -422 40 -76 154
-125 217 -92 26 15 24 27 -7 34 -66 17 -71 181 -13 439 l33 147 46 0 c46 0
100 28 100 51 0 5 -29 9 -63 9 l-64 0 22 78 c86 292 157 450 215 470 36 13 39
28 6 36 -58 15 -167 -32 -213 -91 -64 -82 -122 -216 -174 -396 -16 -55 -30
-101 -31 -102 -5 -4 -328 -13 -328 -9 0 2 7 21 15 41 8 21 35 112 61 203 25
90 57 189 70 219 18 39 21 58 14 65 -7 7 -62 11 -148 10 -119 -1 -148 -5 -219
-28 -102 -33 -188 -90 -243 -161 -24 -31 -45 -53 -48 -50 -3 3 3 14 13 25 21
24 22 23 -90 44 -44 8 -127 27 -185 41 -58 15 -213 49 -344 76 -131 27 -255
53 -275 59 -63 17 -207 49 -244 55 -70 11 -192 52 -190 63 2 6 3 41 4 77 1 36
6 68 10 71 15 9 10 21 -11 27 -25 6 -44 -16 -35 -43 5 -16 2 -20 -14 -20 -28
0 -34 15 -21 55 9 26 19 36 48 46 48 15 68 34 27 25 -16 -4 -38 -9 -47 -12
-10 -3 -18 -1 -18 5 0 13 26 27 66 35 22 5 36 2 47 -8 9 -9 20 -16 26 -16 14
0 14 -13 -1 -28 -9 -9 -8 -12 5 -12 9 0 17 -4 17 -9 0 -16 33 -22 47 -9 11 11
9 21 -9 58 -13 25 -34 50 -48 57 l-25 12 35 15 c47 19 128 10 158 -17 12 -12
29 -41 36 -67 11 -39 16 -45 37 -42 13 2 27 7 31 11 8 7 -20 89 -47 141 -13
26 -13 28 7 33 12 3 28 2 37 -2 9 -5 33 -9 55 -9 50 -2 77 -11 75 -25 -1 -7 0
-19 4 -27 3 -8 8 -27 11 -42 5 -22 12 -28 32 -28 38 0 39 22 4 94 -28 60 -33
66 -56 60 -17 -4 -24 -2 -24 9 0 12 16 14 98 12 53 -2 100 -4 103 -4 7 -1 12
-12 32 -75 15 -43 53 -68 64 -40 8 20 -24 89 -59 126 -33 36 -29 50 12 38 17
-5 50 -7 75 -4 53 5 85 -9 85 -36 0 -10 4 -21 9 -24 4 -3 11 -19 14 -36 5 -22
12 -30 27 -30 11 0 23 7 27 16 6 17 -31 95 -58 120 -35 32 -23 39 63 38 70 -2
83 -4 89 -21 4 -10 14 -25 23 -32 9 -7 16 -23 16 -35 0 -39 51 -65 63 -32 7
18 -35 106 -62 130 -11 11 -21 22 -21 26 0 3 37 6 82 5 l81 0 20 -35 c11 -19
23 -48 26 -65 7 -32 26 -41 51 -26 12 9 13 15 1 48 -7 21 -25 50 -39 65 -24
26 -24 28 -6 34 10 3 31 10 46 16 19 7 37 6 61 -1 35 -12 48 -32 61 -93 5 -23
12 -28 37 -28 24 0 30 3 25 16 -3 9 -6 23 -6 32 0 9 -14 33 -30 52 -45 52 -41
55 67 61 44 2 77 -15 69 -37 -3 -7 2 -15 10 -18 8 -3 14 -18 14 -35 0 -16 6
-31 13 -34 21 -7 47 5 47 22 0 21 -48 93 -80 120 -29 24 -29 24 70 21 82 -2
115 -13 106 -36 -3 -8 1 -17 9 -20 8 -4 15 -14 15 -24 0 -23 26 -44 45 -36 33
12 -20 115 -71 138 -37 17 -28 26 24 23 26 -1 68 -3 95 -3 40 -2 49 -6 56 -25
5 -13 16 -29 25 -36 9 -8 14 -22 11 -31 -7 -22 22 -35 41 -19 18 15 -4 70 -46
112 -38 39 -27 47 58 42 66 -5 92 -16 92 -41 0 -8 4 -14 10 -14 5 0 13 -15 18
-32 9 -35 27 -44 52 -28 13 8 13 13 -3 40 -10 16 -16 30 -14 30 3 0 -13 18
-36 40 -45 45 -44 60 2 37 17 -9 31 -11 31 -6 0 5 20 9 44 9 46 0 76 -18 76
-46 0 -8 5 -14 10 -14 6 0 10 -8 10 -19 0 -27 26 -47 44 -32 21 17 9 44 -41
96 -43 46 -47 47 -89 41 -25 -3 -55 -1 -68 5 -33 15 -72 4 -79 -22 -5 -19 -10
-21 -44 -13 -59 12 -96 7 -112 -16 -11 -16 -24 -20 -66 -20 -82 0 -158 -17
-174 -40 -12 -17 -21 -19 -85 -13 -68 5 -74 4 -92 -19 -30 -37 -39 -40 -104
-27 l-61 12 -34 -33 c-35 -33 -39 -34 -115 -15 -19 5 -33 0 -55 -19 -27 -24
-35 -26 -89 -20 -55 7 -59 6 -81 -22 l-22 -28 -64 13 c-73 14 -97 9 -105 -24
-8 -31 -28 -38 -73 -24 -48 14 -106 9 -106 -11 0 -8 -11 -21 -25 -28 -20 -11
-35 -11 -77 -1 -45 10 -55 10 -78 -5 -14 -9 -25 -23 -25 -31 0 -17 -19 -18
-75 -5 -51 12 -98 -2 -113 -34 -9 -21 -15 -23 -60 -18 -66 6 -145 -22 -137
-49 5 -15 -1 -17 -41 -16 -40 0 -51 -4 -73 -30 -14 -16 -31 -38 -36 -48 -7
-11 -35 -23 -75 -32 -327 -73 -410 -87 -445 -75 -16 6 -66 18 -110 26 -82 15
-364 82 -680 162 -200 50 -318 85 -605 179 -559 183 -861 228 -1135 171 -79
-17 -137 -41 -180 -77 -26 -21 -54 -39 -62 -39 -15 0 -182 29 -316 54 -97 19
-109 25 -155 89 -49 66 -150 125 -316 185 -224 81 -380 106 -776 122 -287 12
-617 39 -920 74 -335 40 -389 48 -407 61 -16 12 -14 15 20 31 20 10 37 21 37
26 0 11 -1 11 -36 -11z m-64 -47 c0 -3 -6 -12 -14 -19 -10 -10 -16 -11 -25 -2
-8 8 -11 7 -11 -6 0 -15 -3 -15 -20 -5 -26 17 -25 26 3 31 35 7 67 7 67 1z
m15 -34 c3 -5 1 -10 -4 -10 -6 0 -11 5 -11 10 0 6 2 10 4 10 3 0 8 -4 11 -10z
m7735 -470 c0 -5 -4 -10 -10 -10 -5 0 -10 5 -10 10 0 6 5 10 10 10 6 0 10 -4
10 -10z m-1120 -244 c0 -8 3 -23 6 -33 6 -16 4 -15 -16 3 -12 12 -19 27 -16
33 10 16 26 14 26 -3z m-2306 -125 c3 -4 -6 -6 -19 -3 -14 2 -25 6 -25 8 0 8
39 4 44 -5z m2136 -32 c0 -5 -4 -9 -10 -9 -5 0 -10 7 -10 16 0 8 5 12 10 9 6
-3 10 -10 10 -16z m-2322 -14 c-3 -3 -9 2 -12 12 -6 14 -5 15 5 6 7 -7 10 -15
7 -18z m329 19 c-3 -3 -12 -4 -19 -1 -8 3 -5 6 6 6 11 1 17 -2 13 -5z m106
-21 c-7 -2 -19 -2 -25 0 -7 3 -2 5 12 5 14 0 19 -2 13 -5z m54 -9 c-3 -3 -12
-4 -19 -1 -8 3 -5 6 6 6 11 1 17 -2 13 -5z m40 -10 c-3 -3 -12 -4 -19 -1 -8 3
-5 6 6 6 11 1 17 -2 13 -5z m1535 -11 c-7 -11 -28 -17 -73 -20 -78 -6 -71 6
14 23 34 7 63 12 65 13 2 1 -1 -6 -6 -16z m-207 -43 c3 -5 0 -7 -8 -4 -8 3
-18 1 -22 -5 -8 -13 -25 -14 -25 -2 0 8 15 15 42 20 4 0 10 -3 13 -9z m95 0
c12 -8 9 -10 -13 -10 -16 0 -26 4 -22 10 8 12 16 12 35 0z m-201 -24 c-2 -2
-22 -7 -44 -11 -47 -8 -41 4 7 14 31 7 47 6 37 -3z m31 -2 c0 -8 -4 -12 -10
-9 -5 3 -10 10 -10 16 0 5 5 9 10 9 6 0 10 -7 10 -16z m388 -53 c3 -16 -1 -22
-10 -19 -7 3 -15 15 -16 27 -3 16 1 22 10 19 7 -3 15 -15 16 -27z m106 -111
c14 -14 -24 -25 -42 -13 -9 5 -18 15 -20 23 -4 10 3 11 24 6 16 -4 33 -11 38
-16z m66 -20 c0 -5 -12 -10 -27 -9 l-28 1 25 8 c14 4 26 8 28 9 1 1 2 -3 2 -9z
m48 -18 c6 -18 -15 -14 -22 4 -4 10 -1 14 6 12 6 -2 14 -10 16 -16z m38 -1
c-3 -4 11 -8 32 -8 20 0 93 -14 162 -31 69 -18 161 -38 205 -46 75 -13 396
-78 475 -96 19 -4 50 -11 68 -15 18 -4 35 -12 38 -17 4 -6 -1 -8 -12 -5 -11 3
-71 15 -134 27 -174 33 -249 48 -325 66 -39 9 -79 17 -90 19 -52 9 -256 55
-310 69 -32 9 -69 16 -81 16 -31 0 -55 10 -48 21 3 5 10 9 15 9 6 0 8 -4 5 -9z"/>
<path d="M2080 3500 c0 -5 9 -10 21 -10 11 0 17 5 14 10 -3 6 -13 10 -21 10
-8 0 -14 -4 -14 -10z"/>
<path d="M2530 3480 c0 -5 7 -10 15 -10 8 0 15 5 15 10 0 6 -7 10 -15 10 -8 0
-15 -4 -15 -10z"/>
<path d="M1870 3340 c0 -5 5 -10 10 -10 6 0 10 5 10 10 0 6 -4 10 -10 10 -5 0
-10 -4 -10 -10z"/>
<path d="M9721 3319 c-30 -5 -57 -12 -60 -15 -3 -4 14 -3 39 1 25 5 83 11 130
15 l85 7 -70 0 c-38 1 -94 -3 -124 -8z"/>
<path d="M9953 3323 c9 -2 25 -2 35 0 9 3 1 5 -18 5 -19 0 -27 -2 -17 -5z"/>
<path d="M10018 3323 c7 -3 16 -2 19 1 4 3 -2 6 -13 5 -11 0 -14 -3 -6 -6z"/>
<path d="M10098 3313 c6 -2 18 -2 25 0 6 3 1 5 -13 5 -14 0 -19 -2 -12 -5z"/>
<path d="M10168 3303 c6 -2 18 -2 25 0 6 3 1 5 -13 5 -14 0 -19 -2 -12 -5z"/>
<path d="M9568 3283 c7 -3 16 -2 19 1 4 3 -2 6 -13 5 -11 0 -14 -3 -6 -6z"/>
<path d="M15112 3204 c-18 -21 -27 -25 -50 -18 -39 11 -87 11 -89 -1 -2 -5 5
-10 15 -10 9 -1 23 -4 30 -9 8 -4 42 -5 76 -1 72 7 81 1 94 -61 5 -26 14 -40
26 -42 25 -5 44 14 28 30 -7 7 -12 19 -12 28 0 9 -11 27 -25 40 -15 14 -23 30
-20 39 6 16 -11 31 -35 31 -8 0 -25 -12 -38 -26z"/>
<path d="M15260 3218 c0 -5 11 -13 25 -18 15 -6 32 -25 41 -45 14 -34 38 -54
51 -42 11 11 -19 66 -39 73 -30 9 -15 29 20 26 18 -2 32 1 32 6 0 6 -28 10
-65 10 -36 -1 -65 -5 -65 -10z"/>
<path d="M9710 3110 c-14 -4 47 -5 135 -2 88 2 162 6 164 8 8 7 -274 2 -299
-6z"/>
<path d="M10043 3103 c9 -2 23 -2 30 0 6 3 -1 5 -18 5 -16 0 -22 -2 -12 -5z"/>
<path d="M17615 2680 c-33 -10 -53 -19 -45 -19 8 -1 44 8 80 18 36 11 56 19
45 19 -11 0 -47 -8 -80 -18z"/>
<path d="M17510 2650 c0 -13 11 -13 30 0 12 8 11 10 -7 10 -13 0 -23 -4 -23
-10z"/>
<path d="M12881 2641 c-10 -6 -2 -9 23 -9 20 0 33 4 30 9 -7 11 -35 11 -53 0z"/>
<path d="M17363 2613 c9 -2 23 -2 30 0 6 3 -1 5 -18 5 -16 0 -22 -2 -12 -5z"/>
<path d="M10925 2480 c-3 -6 1 -7 9 -4 18 7 21 14 7 14 -6 0 -13 -4 -16 -10z"/>
<path d="M11098 2483 c7 -3 16 -2 19 1 4 3 -2 6 -13 5 -11 0 -14 -3 -6 -6z"/>
<path d="M11997 2269 c-42 -28 -92 -91 -130 -164 -29 -57 -87 -238 -148 -458
-70 -255 -107 -333 -200 -422 -32 -30 -62 -55 -68 -55 -5 0 -17 7 -26 17 -23
22 -14 84 36 266 47 170 56 232 39 281 -15 47 -44 66 -101 66 -78 0 -164 -78
-240 -215 -23 -42 -43 -75 -44 -73 -2 2 5 35 16 73 27 98 25 146 -7 184 -22
26 -33 31 -70 31 -97 0 -184 -80 -279 -258 -16 -28 -30 -51 -32 -49 -1 2 11
47 27 100 49 155 43 191 -33 202 -56 9 -97 -7 -97 -38 0 -26 -28 -140 -65
-263 -40 -132 -172 -314 -229 -314 -62 0 -60 66 12 325 80 285 80 285 -14 285
-65 0 -59 10 -128 -200 -84 -252 -198 -427 -266 -405 -45 14 -38 81 37 354 50
186 54 218 28 237 -24 17 -109 18 -123 2 -10 -14 -67 -212 -102 -358 -11 -47
-20 -109 -20 -138 0 -90 52 -164 125 -178 73 -13 177 68 232 181 15 30 30 55
34 55 4 0 4 -20 2 -44 -8 -63 3 -107 35 -145 32 -38 86 -54 136 -40 46 13 122
82 168 153 21 32 38 57 38 55 0 -2 -5 -20 -10 -39 -21 -68 -28 -124 -20 -146
10 -26 52 -38 95 -26 28 8 34 19 87 156 84 221 235 456 291 456 31 0 21 -58
-62 -352 -30 -103 -41 -161 -39 -195 l3 -48 59 0 60 0 51 135 c76 201 169 366
241 430 76 67 77 33 5 -225 -58 -203 -51 -299 24 -345 86 -53 195 3 284 144
17 28 31 48 31 45 0 -3 -5 -31 -11 -63 -18 -98 11 -145 82 -134 18 2 27 13 38
46 l13 44 19 -42 c25 -56 71 -76 142 -60 107 23 195 94 274 221 29 47 41 59
62 59 14 0 44 9 66 19 l41 18 0 -71 c0 -59 5 -80 27 -121 96 -173 306 -162
495 26 87 86 146 173 213 312 l50 106 49 -21 c28 -11 50 -26 50 -33 0 -7 -13
-45 -30 -85 -38 -92 -67 -191 -76 -256 -11 -87 33 -161 107 -179 100 -25 254
114 365 328 40 77 43 88 28 94 -10 4 -19 2 -21 -3 -2 -6 -34 -57 -72 -115
-102 -155 -192 -240 -237 -222 -30 11 -13 119 45 289 54 162 63 219 34 228
-10 3 -55 10 -101 15 -46 6 -87 13 -93 16 -5 4 -6 35 -3 75 6 64 5 70 -19 94
-32 31 -46 32 -81 5 -62 -49 -70 -120 -21 -184 14 -19 25 -40 25 -47 0 -25
-80 -181 -125 -243 -55 -78 -148 -164 -222 -206 -45 -26 -69 -33 -111 -34 -48
0 -57 3 -82 31 -31 36 -45 94 -35 153 6 38 7 39 65 50 220 43 378 265 259 365
-38 32 -85 41 -149 27 -113 -24 -222 -124 -288 -264 -30 -61 -47 -86 -68 -96
-30 -14 -94 -31 -94 -26 0 2 7 31 16 66 26 103 1 223 -59 278 -38 34 -111 40
-165 12 -48 -25 -110 -93 -157 -176 -42 -73 -44 -59 -7 37 20 52 44 90 91 142
131 146 203 282 205 391 1 48 -4 67 -22 93 -32 44 -89 45 -155 1z m123 -44
c27 -33 -14 -171 -87 -290 -42 -68 -114 -167 -119 -162 -4 3 41 154 76 256 21
63 73 174 92 199 14 16 23 15 38 -3z m1027 -452 c-3 -10 -5 -2 -5 17 0 19 2
27 5 18 2 -10 2 -26 0 -35z m-363 -19 c23 -22 20 -79 -6 -132 -42 -83 -123
-149 -206 -167 -32 -7 -34 -6 -27 16 15 49 90 190 118 225 28 33 82 74 99 74
4 0 14 -7 22 -16z m-685 -43 c37 -37 39 -165 4 -252 -14 -37 -18 -39 -58 -39
-25 0 -48 -6 -54 -14 -10 -12 -5 -16 33 -21 25 -4 46 -9 46 -11 0 -3 -11 -27
-25 -54 -33 -66 -79 -117 -127 -141 -36 -18 -42 -19 -63 -5 -12 8 -32 30 -44
49 l-21 34 20 78 c30 118 138 317 201 370 36 30 62 32 88 6z"/>
<path d="M9415 2259 c-33 -5 -92 -24 -130 -43 -125 -62 -188 -148 -189 -260
-1 -99 25 -139 200 -311 107 -105 159 -164 173 -195 72 -160 -52 -326 -251
-338 -99 -6 -135 1 -191 38 -53 36 -77 80 -77 144 0 87 59 176 128 195 40 12
126 -11 141 -37 5 -9 12 -14 16 -10 12 12 -28 59 -66 79 -136 69 -318 -61
-319 -229 0 -96 66 -180 176 -222 84 -33 240 -34 341 -2 101 31 188 93 240
170 72 107 81 199 29 305 -30 62 -77 114 -235 257 -143 130 -173 195 -132 286
34 74 123 125 221 126 96 1 166 -55 163 -132 -2 -47 -33 -111 -68 -138 -33
-26 -32 -42 3 -42 44 0 104 41 135 92 48 78 35 170 -32 217 -65 46 -171 66
-276 50z"/>
<path d="M16175 2150 c-7 -12 2 -12 30 0 19 8 19 9 -2 9 -12 1 -25 -3 -28 -9z"/>
<path d="M16110 2137 c-19 -7 -34 -16 -32 -22 3 -12 8 -12 50 4 17 7 32 17 32
22 0 11 -6 11 -50 -4z"/>
<path d="M4900 2080 c-18 -12 -2 -12 25 0 13 6 15 9 5 9 -8 0 -22 -4 -30 -9z"/>
<path d="M18363 2080 c-21 -9 -46 -64 -73 -162 -12 -46 -14 -48 -50 -48 -77 0
-130 -12 -130 -29 0 -30 23 -41 87 -41 62 0 62 0 53 -25 -5 -13 -30 -98 -55
-187 -35 -124 -56 -178 -87 -228 -59 -93 -103 -144 -142 -165 -30 -16 -37 -17
-52 -5 -14 12 -16 27 -11 90 5 70 52 274 96 417 23 75 16 86 -56 81 -41 -3
-48 -6 -51 -25 -4 -30 -8 -29 -38 6 -28 34 -98 55 -152 45 -91 -17 -200 -101
-258 -200 -14 -24 -46 -90 -71 -147 -25 -56 -63 -129 -85 -161 -30 -44 -38
-64 -31 -75 17 -27 28 -22 61 31 l32 53 0 -44 c0 -87 69 -161 149 -161 18 0
49 9 70 20 47 23 133 118 160 174 l19 41 0 -58 c1 -152 114 -224 233 -148 55
36 78 61 124 136 l36 60 -7 -42 c-5 -35 -2 -53 20 -95 36 -72 67 -93 136 -92
64 0 104 19 166 76 87 80 202 259 184 287 -13 22 -26 10 -97 -94 -99 -143
-191 -213 -231 -173 -30 30 -8 173 75 474 l35 131 124 10 c128 11 174 27 174
60 0 14 -14 15 -136 9 -129 -7 -136 -6 -131 11 3 10 16 53 28 97 22 77 22 79
4 92 -21 15 -88 18 -122 4z m-534 -364 c21 -22 21 -25 7 -57 -9 -19 -32 -79
-52 -134 -56 -154 -136 -280 -202 -318 -42 -25 -59 -12 -68 51 -20 132 95 399
199 463 44 26 88 25 116 -5z"/>
<path d="M15350 2053 c-56 -50 -48 -139 13 -162 65 -24 145 72 116 141 -22 53
-82 63 -129 21z"/>
<path d="M4855 2059 c-28 -14 -85 -92 -85 -117 0 -11 5 -24 11 -28 7 -4 9 0 5
13 -7 23 18 80 29 64 3 -6 -1 -18 -9 -27 -22 -21 -20 -25 7 -15 12 5 24 17 26
27 2 11 8 23 15 27 6 5 1 6 -11 2 -13 -3 -23 -4 -23 -2 0 10 38 47 49 47 6 0
11 5 11 10 0 12 1 12 -25 -1z"/>
<path d="M4917 2046 c-9 -7 -17 -19 -17 -26 0 -9 8 -5 21 9 24 26 22 35 -4 17z"/>
<path d="M4956 2034 c-10 -26 -7 -34 12 -34 15 0 15 2 2 11 -11 8 -12 12 -2
16 14 5 16 23 3 23 -5 0 -12 -7 -15 -16z"/>
<path d="M5000 2025 c0 -33 15 -33 16 0 1 14 -2 25 -7 25 -5 0 -9 -11 -9 -25z"/>
<path d="M4860 2030 c0 -5 5 -10 11 -10 5 0 7 5 4 10 -3 6 -8 10 -11 10 -2 0
-4 -4 -4 -10z"/>
<path d="M5140 1995 c-11 -21 -11 -28 -1 -38 11 -10 12 -7 6 12 -5 16 -4 21 4
17 7 -4 11 1 11 13 0 27 -4 26 -20 -4z"/>
<path d="M15676 1998 c4 -7 3 -8 -4 -4 -13 8 -95 -11 -134 -31 -20 -10 -28
-10 -28 -2 0 6 -9 0 -21 -15 -11 -14 -19 -30 -17 -35 5 -15 217 59 229 80 8
16 6 19 -11 19 -14 0 -19 -4 -14 -12z"/>
<path d="M4866 1991 c-4 -7 -5 -15 -2 -18 9 -9 19 4 14 18 -4 11 -6 11 -12 0z"/>
<path d="M14122 1955 c-7 -14 -12 -28 -12 -30 0 -5 96 -24 173 -33 46 -6 67
-5 67 2 0 6 4 4 10 -4 10 -17 15 -14 24 17 6 19 2 22 -51 33 -32 7 -85 18
-118 26 -41 8 -61 9 -64 2 -2 -7 -6 -6 -10 1 -5 7 -12 2 -19 -14z"/>
<path d="M5125 1919 c-4 -6 -5 -12 -2 -15 2 -3 7 2 10 11 7 17 1 20 -8 4z"/>
<path d="M15291 1914 c0 -11 3 -14 6 -6 3 7 2 16 -1 19 -3 4 -6 -2 -5 -13z"/>
<path d="M4932 1900 c0 -14 2 -19 5 -12 2 6 2 18 0 25 -3 6 -5 1 -5 -13z"/>
<path d="M15138 1892 c-55 -18 -64 -37 -15 -29 88 13 157 30 157 38 0 14 -89
8 -142 -9z"/>
<path d="M4767 1882 c1 -8 3 -19 3 -25 0 -7 4 -6 10 3 12 19 13 33 1 26 -5 -4
-11 -3 -14 1 -2 5 -2 2 0 -5z"/>
<path d="M4791 1860 c-5 -16 -9 -31 -8 -31 1 -1 24 -3 51 -4 30 -2 43 1 35 6
-12 7 -12 9 0 9 8 0 12 2 10 5 -3 2 -22 0 -43 -6 -21 -6 -40 -9 -42 -7 -2 2 3
16 11 31 8 15 10 27 5 27 -4 0 -13 -13 -19 -30z"/>
<path d="M5095 1869 c-4 -12 -2 -26 5 -33 8 -8 10 -7 5 5 -4 10 -2 20 4 24 13
8 14 25 2 25 -5 0 -13 -9 -16 -21z"/>
<path d="M4896 1855 c4 -8 8 -15 10 -15 2 0 4 7 4 15 0 8 -4 15 -10 15 -5 0
-7 -7 -4 -15z"/>
<path d="M5045 1851 c-3 -5 -1 -12 5 -16 5 -3 10 1 10 9 0 18 -6 21 -15 7z"/>
<path d="M5083 1793 c-1 -24 -1 -25 7 -8 11 26 12 35 2 35 -4 0 -8 -12 -9 -27z"/>
<path d="M5060 1794 c0 -11 -5 -25 -12 -32 -9 -9 -9 -12 0 -12 13 0 28 47 18
57 -3 4 -6 -3 -6 -13z"/>
<path d="M4869 1783 c-1 -10 -1 -22 0 -26 1 -4 -6 -10 -15 -14 -13 -5 -13 -7
-2 -14 7 -5 18 -9 23 -9 6 0 3 5 -5 10 -8 5 -10 10 -4 10 6 0 11 14 12 30 1
32 -7 43 -9 13z"/>
<path d="M5501 1753 c-1 -6 -4 -20 -7 -30 -5 -17 -5 -17 6 0 6 10 9 23 6 30
-3 9 -5 9 -5 0z"/>
<path d="M5061 1724 c0 -11 3 -14 6 -6 3 7 2 16 -1 19 -3 4 -6 -2 -5 -13z"/>
<path d="M4796 1721 c-4 -5 3 -7 14 -4 23 6 26 13 6 13 -8 0 -17 -4 -20 -9z"/>
<path d="M5341 1704 c0 -11 3 -14 6 -6 3 7 2 16 -1 19 -3 4 -6 -2 -5 -13z"/>
<path d="M4811 1706 c2 -2 20 -6 39 -10 25 -4 31 -3 20 4 -14 9 -69 15 -59 6z"/>
<path d="M5041 1673 c0 -25 1 -26 9 -8 12 27 12 35 0 35 -5 0 -10 -12 -9 -27z"/>
<path d="M5486 1683 c-6 -14 -5 -15 5 -6 7 7 10 15 7 18 -3 3 -9 -2 -12 -12z"/>
<path d="M5446 1564 c-4 -9 -4 -19 -1 -22 2 -3 7 3 11 12 4 9 4 19 1 22 -2 3
-7 -3 -11 -12z"/>
<path d="M5658 1532 c-3 -11 0 -19 7 -19 7 0 10 8 7 19 -2 10 -6 18 -7 18 -1
0 -5 -8 -7 -18z"/>
<path d="M5654 1492 c-6 -4 -14 -23 -17 -42 l-6 -35 19 39 c21 41 22 50 4 38z"/>
<path d="M5785 1458 c-10 -13 -20 -33 -21 -46 -3 -23 -2 -23 11 -6 10 14 10
21 2 26 -8 5 -7 8 4 8 9 0 19 9 22 20 6 25 6 25 -18 -2z"/>
<path d="M5702 1400 c-7 -11 -8 -20 -3 -20 5 0 11 6 14 13 3 8 9 6 20 -8 21
-27 4 -49 -25 -34 -15 8 -19 8 -13 -1 4 -6 -1 -20 -10 -30 -11 -12 -13 -20 -6
-25 18 -11 12 -20 -13 -21 -19 -1 -23 2 -19 20 4 20 4 20 -11 2 -8 -10 -13
-22 -11 -27 3 -4 1 -10 -5 -14 -6 -4 -9 9 -7 35 2 23 0 43 -4 45 -10 7 -18
-78 -8 -89 4 -5 5 -15 2 -22 -7 -20 7 -17 23 4 13 16 14 16 8 -1 -6 -17 -5
-18 15 -6 12 8 17 15 11 17 -5 2 -10 8 -10 14 0 6 7 8 15 5 22 -9 58 46 42 63
-10 10 -9 12 5 7 21 -8 49 28 40 52 -6 15 -27 41 -34 41 -2 0 -9 -9 -16 -20z"/>
<path d="M5616 1395 c-3 -9 -6 -22 -5 -28 0 -7 5 -1 10 12 5 13 8 26 5 28 -2
2 -6 -3 -10 -12z"/>
<path d="M5651 1394 c0 -11 3 -14 6 -6 3 7 2 16 -1 19 -3 4 -6 -2 -5 -13z"/>
<path d="M6406 1393 c-6 -14 -5 -15 5 -6 7 7 10 15 7 18 -3 3 -9 -2 -12 -12z"/>
<path d="M5636 1357 c3 -10 9 -15 12 -12 3 3 0 11 -7 18 -10 9 -11 8 -5 -6z"/>
<path d="M5715 1360 c3 -5 8 -10 11 -10 2 0 4 5 4 10 0 6 -5 10 -11 10 -5 0
-7 -4 -4 -10z"/>
<path d="M5978 1280 c-3 -16 -1 -30 4 -30 4 0 8 14 8 30 0 17 -2 30 -4 30 -2
0 -6 -13 -8 -30z"/>
<path d="M6370 1269 c0 -5 5 -7 10 -4 6 3 10 8 10 11 0 2 -4 4 -10 4 -5 0 -10
-5 -10 -11z"/>
<path d="M6390 1249 c0 -5 5 -7 10 -4 6 3 10 8 10 11 0 2 -4 4 -10 4 -5 0 -10
-5 -10 -11z"/>
<path d="M6035 1240 c-3 -5 -1 -10 4 -10 6 0 11 5 11 10 0 6 -2 10 -4 10 -3 0
-8 -4 -11 -10z"/>
<path d="M7290 1241 c0 -5 -7 -17 -16 -26 -12 -11 -13 -20 -6 -27 5 -5 12 -6
14 -1 9 14 19 63 13 63 -3 0 -5 -4 -5 -9z"/>
<path d="M6869 1193 c-13 -16 -12 -17 4 -4 9 7 17 15 17 17 0 8 -8 3 -21 -13z"/>
<path d="M7294 1186 c-9 -19 -9 -26 1 -30 8 -3 12 6 13 25 1 35 0 35 -14 5z"/>
<path d="M6886 1175 c-3 -9 -2 -24 2 -32 8 -13 10 -13 16 2 3 9 2 24 -2 32 -8
13 -10 13 -16 -2z"/>
<path d="M17654 1159 c-3 -6 2 -18 12 -27 17 -16 17 -16 5 0 -7 9 -10 22 -6
28 3 5 4 10 1 10 -3 0 -8 -5 -12 -11z"/>
<path d="M6830 1153 c0 -19 21 -27 33 -13 9 10 9 11 -2 5 -8 -4 -17 -2 -22 6
-6 9 -9 10 -9 2z"/>
<path d="M6920 1151 c0 -5 5 -13 10 -16 6 -3 10 -2 10 4 0 5 -4 13 -10 16 -5
3 -10 2 -10 -4z"/>
<path d="M17346 1148 c3 -5 10 -6 15 -3 13 9 11 12 -6 12 -8 0 -12 -4 -9 -9z"/>
<path d="M8454 1134 c5 -12 1 -14 -17 -9 -17 5 -19 4 -7 -4 21 -15 50 -13 50
3 0 8 -7 17 -16 20 -12 5 -15 2 -10 -10z"/>
<path d="M17376 1127 c3 -10 9 -15 12 -12 3 3 0 11 -7 18 -10 9 -11 8 -5 -6z"/>
<path d="M17630 1136 c0 -2 8 -10 18 -17 15 -13 16 -12 3 4 -13 16 -21 21 -21
13z"/>
<path d="M8490 1116 c0 -9 30 -14 35 -6 4 6 -3 10 -14 10 -12 0 -21 -2 -21 -4z"/>
<path d="M7640 1100 c0 -5 5 -10 11 -10 5 0 7 5 4 10 -3 6 -8 10 -11 10 -2 0
-4 -4 -4 -10z"/>
<path d="M7810 1102 c0 -5 7 -13 16 -16 10 -4 14 -1 12 6 -5 15 -28 23 -28 10z"/>
<path d="M17400 1101 c0 -9 30 -24 36 -18 2 1 -6 8 -16 15 -11 7 -20 8 -20 3z"/>
<path d="M7785 1050 c3 -5 14 -10 23 -10 15 0 15 2 2 10 -20 13 -33 13 -25 0z"/>
<path d="M18317 1033 c-4 -3 -7 -15 -7 -25 0 -11 -5 -16 -10 -13 -6 4 -10 -5
-10 -22 1 -34 -6 -90 -21 -163 -6 -30 -19 -110 -28 -178 l-17 -123 30 7 c81
17 150 77 188 163 26 57 36 202 17 246 -7 17 -13 35 -14 40 0 6 -6 9 -13 8 -7
-2 -12 4 -12 12 0 18 -45 49 -60 40 -5 -3 -10 -1 -10 4 0 12 -23 15 -33 4z
m53 -47 c0 -2 -7 -7 -16 -10 -8 -3 -12 -2 -9 4 6 10 25 14 25 6z m49 -40 c-3
-3 -11 5 -18 17 -13 21 -12 21 5 5 10 -10 16 -20 13 -22z m-112 -48 c-3 -8 -6
-5 -6 6 -1 11 2 17 5 13 3 -3 4 -12 1 -19z"/>
<path d="M21426 847 c-13 -14 -29 -43 -35 -66 -6 -22 -15 -58 -21 -80 -13 -50
-13 -164 0 -156 5 3 7 0 4 -8 -8 -22 22 -40 55 -32 70 15 94 85 95 280 l1 80
-37 3 c-29 2 -43 -2 -62 -21z"/>
</g>
</svg>
